<?xml version="1.0" standalone="no"?>
<!DOCTYPE svg PUBLIC "-//W3C//DTD SVG 1.1//EN" "http://www.w3.org/Graphics/SVG/1.1/DTD/svg11.dtd" >
<svg xmlns="http://www.w3.org/2000/svg">
<metadata>Generated by IcoMoon</metadata>
<defs>
<font id="xstore-icons" horiz-adv-x="1024">
<font-face units-per-em="1024" ascent="960" descent="-64" />
<missing-glyph horiz-adv-x="1024" />
<glyph unicode="&#x20;" horiz-adv-x="512" d="" />
<glyph unicode="&#xe10;" glyph-name="facebook" d="M575.488 607.744v128c0 35.84 28.672 63.488 63.488 63.488h63.488v160.768h-126.976c-105.472 0-191.488-86.016-191.488-192.512v-159.744h-128v-159.744h128v-512h192.512v512h128l63.488 159.744h-192.512z" />
<glyph unicode="&#xe11;" glyph-name="behance" d="M421.888 478.72c21.504 10.24 36.864 22.528 48.128 34.816 19.456 23.552 28.672 53.248 28.672 91.136 0 36.864-9.216 68.608-28.672 95.232-31.744 43.008-86.016 65.536-162.816 66.56h-305.152v-621.568h284.672c31.744 0 61.44 3.072 89.088 8.192 27.648 6.144 51.2 16.384 70.656 30.72 17.408 13.312 32.768 29.696 45.056 49.152 18.432 28.672 27.648 62.464 27.648 99.328 0 35.84-8.192 66.56-24.576 91.136-16.384 25.6-40.96 44.032-72.704 55.296zM128 658.944h137.216c29.696 0 55.296-3.072 74.752-9.216 22.528-9.216 33.792-28.672 33.792-57.344 0-25.6-8.192-44.032-25.6-54.272s-38.912-15.36-66.56-15.36h-153.6v136.192zM345.088 263.68c-15.36-7.168-36.864-11.264-63.488-11.264h-153.6v165.888h154.624c26.624 0 48.128-4.096 63.488-10.24 26.624-12.288 39.936-33.792 39.936-66.56 0-37.888-13.312-63.488-40.96-77.824zM653.312 737.792h270.336v-77.824h-270.336v77.824zM1017.856 432.64c-5.12 35.84-18.432 67.584-36.864 95.232-21.504 30.72-48.128 53.248-80.896 67.584s-68.608 21.504-109.568 21.504c-68.608 0-123.904-21.504-166.912-63.488s-64.512-103.424-64.512-183.296c0-84.992 23.552-146.432 70.656-184.32s102.4-56.32 163.84-56.32c74.752 0 133.12 22.528 175.104 66.56 26.624 27.648 41.984 56.32 45.056 82.944h-122.88c-7.168-13.312-15.36-23.552-25.6-31.744-17.408-14.336-39.936-21.504-67.584-21.504-26.624 0-48.128 6.144-67.584 17.408-30.72 18.432-47.104 51.2-49.152 97.28h338.944c2.048 39.936 1.024 70.656-2.048 92.16zM685.056 420.352c4.096 29.696 15.36 53.248 32.768 70.656s41.984 26.624 72.704 26.624c28.672 0 53.248-8.192 72.704-24.576s29.696-40.96 32.768-72.704h-210.944z" />
<glyph unicode="&#xe12;" glyph-name="youtube" d="M993.595 734.681c-6.676 28.357-27.983 51.102-56.438 60.121-75.402 23.926-238.986 47.045-425.157 47.045s-349.755-23.119-425.177-47.045c-28.455-9.019-49.762-31.764-56.438-60.121-12.603-53.543-30.385-152.832-30.385-286.681s17.782-233.137 30.405-286.681c6.676-28.357 27.983-51.102 56.438-60.121 75.402-23.926 238.986-47.045 425.157-47.045s349.755 23.119 425.177 47.045c28.455 9.019 49.762 31.764 56.438 60.121 12.603 53.543 30.385 152.832 30.385 286.681s-17.782 233.137-30.405 286.681zM413.538 290.462v315.077l292.569-157.538-292.569-157.538z" />
<glyph unicode="&#xe13;" glyph-name="snapchat" d="M250.88 763.392c-25.6-56.32-15.36-158.72-11.264-229.376-27.648-15.36-62.464 11.264-81.92 11.264-20.48 0-45.056-13.312-49.152-33.792-3.072-14.336 4.096-35.84 51.2-54.272 18.432-7.168 61.44-15.36 71.68-38.912 14.336-32.768-72.704-186.368-207.872-207.872-10.24-2.048-18.432-11.264-17.408-21.504 2.048-40.96 94.208-57.344 135.168-63.488 4.096-6.144 7.168-29.696 13.312-48.128 2.048-8.192 8.192-17.408 24.576-17.408 20.48 0 55.296 16.384 115.712 6.144 59.392-10.24 114.688-93.184 221.184-93.184 99.328 0 157.696 83.968 215.040 93.184 32.768 5.12 61.44 4.096 93.184-2.048 21.504-4.096 40.96-6.144 47.104 14.336 5.12 18.432 9.216 41.984 13.312 47.104 40.96 6.144 133.12 22.528 135.168 63.488 1.024 10.24-7.168 20.48-17.408 21.504-133.12 21.504-222.208 174.080-207.872 207.872 10.24 23.552 53.248 31.744 71.68 38.912 34.816 13.312 51.2 30.72 51.2 49.152 0 24.576-29.696 39.936-52.224 39.936s-54.272-26.624-79.872-12.288c4.096 71.68 14.336 173.056-11.264 229.376-49.152 107.52-155.648 161.792-263.168 161.792-105.472 0-210.944-53.248-260.096-161.792z" />
<glyph unicode="&#xe14;" glyph-name="instagram" d="M704.512 960h-385.024c-176.128 0-319.488-143.36-319.488-319.488v-384c0-177.152 143.36-320.512 319.488-320.512h384c177.152 0 320.512 143.36 320.512 319.488v385.024c0 176.128-143.36 319.488-319.488 319.488zM927.744 255.488c0-123.904-100.352-224.256-224.256-224.256h-384c-123.904 0-224.256 100.352-224.256 224.256v385.024c0 123.904 100.352 224.256 224.256 224.256h384c123.904 0 224.256-100.352 224.256-224.256v-385.024zM512 704c-141.312 0-256-114.688-256-256s114.688-256 256-256 256 114.688 256 256-114.688 256-256 256zM512 288.256c-88.064 0-159.744 71.68-159.744 159.744s71.68 159.744 159.744 159.744 159.744-71.68 159.744-159.744c0-88.064-71.68-159.744-159.744-159.744zM821.248 723.456c0-18.645-15.147-33.792-33.792-33.792s-33.792 15.147-33.792 33.792c0 18.645 15.147 33.792 33.792 33.792s33.792-15.147 33.792-33.792z" />
<glyph unicode="&#xe15;" glyph-name="google-plus" d="M512 546.304v-202.752h286.72c-43.008-117.76-155.648-202.752-286.72-202.752-168.96 0-305.152 136.192-305.152 305.152s136.192 303.104 305.152 303.104c71.68 0 142.336-26.624 196.608-73.728l133.12 152.576c-90.112 79.872-207.872 123.904-329.728 123.904-279.552 0-507.904-227.328-507.904-507.904s228.352-507.904 507.904-507.904 507.904 228.352 507.904 507.904v101.376h-507.904z" />
<glyph unicode="&#xe16;" glyph-name="pinterest" d="M526.336 960c-280.576 0-430.080-180.224-430.080-375.808 0-91.136 51.2-204.8 132.096-240.64 12.288-5.12 19.456-3.072 21.504 8.192 2.048 9.216 13.312 50.176 18.432 70.656 2.048 6.144 1.024 12.288-4.096 17.408-26.624 31.744-48.128 88.064-48.128 141.312 0 137.216 108.544 269.312 293.888 269.312 159.744 0 272.384-104.448 272.384-252.928 0-167.936-89.088-284.672-204.8-284.672-63.488 0-111.616 50.176-96.256 112.64 18.432 73.728 54.272 153.6 54.272 206.848 0 48.128-26.624 87.040-81.92 87.040-65.536 0-117.76-64.512-117.76-150.528 0-55.296 19.456-92.16 19.456-92.16s-64.512-260.096-76.8-308.224c-20.48-81.92 3.072-215.040 5.12-227.328 1.024-6.144 8.192-8.192 12.288-3.072 6.144 8.192 83.968 119.808 106.496 199.68 8.192 29.696 40.96 147.456 40.96 147.456 21.504-38.912 82.944-71.68 149.504-71.68 196.608 0 337.92 172.032 337.92 386.048-3.072 206.848-179.2 360.448-404.48 360.448z" />
<glyph unicode="&#xe17;" glyph-name="linkedin" d="M0 640.512h229.376v-704.512h-229.376v704.512zM852.992 631.296c-2.048 1.024-5.12 2.048-7.168 2.048-3.072 1.024-6.144 1.024-9.216 2.048-12.288 2.048-25.6 4.096-40.96 4.096-133.12 0-218.112-97.28-245.76-134.144v135.168h-230.4v-704.512h229.376v384c0 0 173.056 240.64 245.76 63.488 0-157.696 0-448.512 0-448.512h229.376v476.16c0 106.496-72.704 194.56-171.008 220.16zM223.232 848.384c0-61.653-49.963-111.616-111.616-111.616s-111.616 49.963-111.616 111.616c0 61.653 49.963 111.616 111.616 111.616s111.616-49.963 111.616-111.616z" />
<glyph unicode="&#xe18;" glyph-name="rss" d="M292.864 82.432c0-80.853-65.579-146.432-146.432-146.432s-146.432 65.579-146.432 146.432c0 80.853 65.579 146.432 146.432 146.432s146.432-65.579 146.432-146.432zM0 619.008v-194.56c269.312 0 487.424-219.136 487.424-487.424h194.56c1.024 375.808-305.152 681.984-681.984 681.984zM0 960v-195.584c456.704 0 829.44-371.712 829.44-828.416h194.56c0 564.224-459.776 1024-1024 1024z" />
<glyph unicode="&#xe19;" glyph-name="tripadvisor" d="M627.712 741.888c28.672-4.096 56.32-11.264 83.968-19.456 48.128-15.36 94.208-35.84 136.192-62.464 3.072-2.048 7.168-3.072 10.24-3.072 50.176 0 100.352 0 150.528 0 4.096 0 8.192 0 12.288-1.024 0-1.024 0-1.024 0-2.048-2.048-4.096-5.12-7.168-7.168-11.264-17.408-26.624-31.744-53.248-39.936-83.968-1.024-3.072-1.024-6.144 1.024-9.216 45.056-64.512 59.392-135.168 39.936-210.944-16.384-66.56-54.272-118.784-112.64-155.648-41.984-26.624-87.040-38.912-136.192-38.912-20.48 0-40.96 3.072-61.44 8.192-49.152 12.288-91.136 36.864-125.952 73.728-4.096 5.12-9.216 10.24-13.312 15.36-18.432-27.648-36.864-54.272-55.296-81.92-18.432 27.648-35.84 54.272-54.272 80.896-1.024-1.024-2.048-1.024-2.048-1.024s-1.024-1.024-1.024-1.024c-41.984-49.152-94.208-79.872-158.72-90.112-35.84-6.144-70.656-4.096-105.472 6.144-49.152 13.312-91.136 39.936-124.928 77.824-32.768 37.888-53.248 80.896-61.44 130.048-9.216 46.080 2.048 90.112 4.096 101.376 8.192 31.744 21.504 60.416 39.936 87.040 1.024 2.048 2.048 5.12 1.024 7.168-7.168 27.648-20.48 53.248-35.84 77.824-4.096 6.144-8.192 12.288-13.312 17.408 0 1.024 0 1.024 0 2.048 1.024 0 2.048 0 2.048 0 51.2 0 103.424 0 154.624 0 2.048 0 5.12 1.024 6.144 2.048 35.84 23.552 74.752 41.984 115.712 56.32 29.696 10.24 59.392 18.432 89.088 24.576s59.392 9.216 89.088 11.264c75.776 6.144 134.144-2.048 173.056-7.168zM563.2 401.92c0-112.64 92.16-205.824 204.8-204.8 112.64 0 204.8 90.112 204.8 204.8 0 117.76-95.232 206.848-208.896 203.776-112.64-3.072-199.68-92.16-200.704-203.776zM256 605.696c-109.568 1.024-205.824-90.112-203.776-206.848 2.048-108.544 92.16-201.728 205.824-200.704 111.616 1.024 201.728 92.16 202.752 202.752 0 113.664-91.136 204.8-204.8 204.8zM266.24 659.968c62.464-4.096 116.736-25.6 162.816-67.584s72.704-94.208 82.944-155.648c10.24 60.416 35.84 112.64 81.92 153.6 45.056 41.984 99.328 63.488 159.744 67.584-72.704 31.744-148.48 46.080-227.328 47.104-90.112 2.048-177.152-10.24-260.096-45.056zM766.976 530.944c69.632 0 126.976-56.32 126.976-125.952 0-70.656-55.296-123.904-121.856-126.976-73.728-3.072-132.096 55.296-132.096 126.976 0 70.656 59.392 126.976 126.976 125.952zM849.92 403.968c0 46.080-36.864 82.944-81.92 82.944-46.080 0-82.944-36.864-82.944-81.92s36.864-82.944 82.944-82.944c44.032-1.024 81.92 36.864 81.92 81.92zM253.952 530.944c69.632 0 126.976-56.32 126.976-125.952 0-70.656-56.32-123.904-120.832-126.976-73.728-3.072-133.12 55.296-133.12 126.976s59.392 126.976 126.976 125.952zM335.872 404.992c0 46.080-36.864 82.944-83.968 81.92-45.056 0-81.92-37.888-81.92-82.944s37.888-82.944 82.944-82.944c46.080 0 82.944 37.888 82.944 83.968zM766.976 445.952c23.552 0 41.984-19.456 41.984-41.984 0-23.552-18.432-41.984-41.984-41.984s-41.984 18.432-41.984 41.984c0 23.552 18.432 41.984 41.984 41.984zM253.952 446.976c23.552 0 41.984-18.432 43.008-41.984 0-23.552-19.456-41.984-41.984-41.984-23.552 0-41.984 18.432-41.984 43.008-2.048 22.528 16.384 40.96 40.96 40.96z" />
<glyph unicode="&#xe20;" glyph-name="twitter" d="M11.687-64h87.89l341.973 398.222 273.578-398.222h297.753l-406.736 590.302 373.613 433.378h-86.784l-324.861-377.448-259.516 377.768h-297.476l392.077-569.208-391.511-454.792zM130.259 893.843h137.428l626.097-895.84h-137.428l-626.097 895.84z" />
<glyph unicode="&#xe21;" glyph-name="tumblr" d="M696.32 105.984c-28.672 0-54.272 6.144-76.8 19.456-17.408 10.24-32.768 27.648-38.912 44.032s-5.12 51.2-5.12 109.568v232.448h253.952v190.464h-253.952v253.952h-163.84c-6.144-52.224-18.432-95.232-35.84-129.024-16.384-33.792-39.936-63.488-67.584-87.040-28.672-24.576-72.704-43.008-113.664-55.296v-144.384h136.192v-356.352c0-47.104 5.12-81.92 14.336-106.496 10.24-24.576 26.624-47.104 52.224-69.632 25.6-21.504 55.296-38.912 91.136-50.176 34.816-11.264 62.464-17.408 109.568-17.408 40.96 0 78.848 4.096 113.664 12.288s72.704 20.48 116.736 39.936v153.6c-50.176-33.792-80.896-39.936-132.096-39.936z" />
<glyph unicode="&#xe22;" glyph-name="vk" d="M1014.784 218.624c-3.072 5.12-19.456 41.984-101.376 117.76-86.016 79.872-74.752 66.56 28.672 204.8 62.464 83.968 88.064 135.168 79.872 156.672-7.168 20.48-54.272 15.36-54.272 15.36l-153.6-1.024c0 0-11.264 2.048-19.456-3.072s-13.312-16.384-13.312-16.384-24.576-64.512-57.344-119.808c-68.608-116.736-96.256-122.88-107.52-115.712-25.6 16.384-19.456 67.584-19.456 103.424 0 112.64 17.408 159.744-33.792 172.032-16.384 4.096-28.672 7.168-71.68 7.168-55.296 1.024-101.376 0-128-13.312-17.408-8.192-30.72-27.648-22.528-28.672 10.24-1.024 32.768-6.144 45.056-22.528 15.36-21.504 15.36-69.632 15.36-69.632s9.216-133.12-21.504-149.504c-20.48-11.264-49.152 12.288-110.592 117.76-31.744 54.272-55.296 113.664-55.296 113.664s-4.096 11.264-12.288 17.408c-10.24 7.168-23.552 9.216-23.552 9.216l-144.384-1.024c0 0-21.504-1.024-29.696-10.24-7.168-8.192-1.024-25.6-1.024-25.6s114.688-268.288 243.712-403.456c118.784-123.904 253.952-115.712 253.952-115.712h61.44c0 0 18.432 2.048 27.648 12.288 9.216 9.216 8.192 26.624 8.192 26.624s-1.024 81.92 36.864 94.208c37.888 12.288 86.016-79.872 137.216-114.688 38.912-26.624 67.584-20.48 67.584-20.48l137.216 2.048c0 0 71.68 4.096 37.888 60.416z" />
<glyph unicode="&#xe23;" glyph-name="vimeo" d="M872.448 888.32c-142.336 5.12-237.568-74.752-287.744-237.568 25.6 10.24 51.2 16.384 75.776 16.384 51.2 0 74.752-28.672 68.608-87.040-3.072-34.816-25.6-86.016-68.608-153.6s-74.752-100.352-95.232-100.352c-27.648 0-52.224 52.224-75.776 155.648-7.168 30.72-21.504 108.544-40.96 233.472-18.432 115.712-67.584 169.984-146.432 161.792-33.792-3.072-83.968-33.792-150.528-91.136-49.152-44.032-98.304-89.088-148.48-133.12l48.128-61.44c46.080 31.744 72.704 48.128 79.872 48.128 34.816 0 67.584-55.296 98.304-164.864 27.648-101.376 54.272-201.728 81.92-302.080 40.96-109.568 91.136-164.864 150.528-164.864 96.256 0 212.992 90.112 351.232 270.336 134.144 172.032 202.752 308.224 207.872 407.552 5.12 132.096-44.032 199.68-148.48 202.752z" />
<glyph unicode="&#xe24;" glyph-name="skype" d="M993.28 339.456c7.168 32.768 11.264 67.584 11.264 103.424 0 265.216-218.112 480.256-486.4 480.256-28.672 0-56.32-2.048-82.944-7.168-43.008 26.624-95.232 43.008-150.528 43.008-156.672-1.024-282.624-124.928-282.624-279.552 0-51.2 14.336-99.328 38.912-140.288-6.144-30.72-10.24-63.488-10.24-96.256 0-265.216 218.112-480.256 486.4-480.256 30.72 0 60.416 3.072 89.088 8.192 39.936-21.504 84.992-32.768 133.12-32.768 155.648 0 282.624 124.928 282.624 278.528 0 44.032-10.24 86.016-28.672 122.88zM766.976 213.504c-22.528-31.744-55.296-56.32-99.328-73.728-43.008-17.408-94.208-26.624-152.576-26.624-69.632 0-129.024 12.288-174.080 35.84-32.768 17.408-59.392 40.96-79.872 70.656s-30.72 58.368-30.72 87.040c0 17.408 7.168 32.768 20.48 45.056s30.72 18.432 51.2 18.432c16.384 0 30.72-5.12 43.008-14.336 11.264-9.216 20.48-23.552 28.672-40.96 8.192-19.456 18.432-35.84 27.648-49.152 9.216-12.288 23.552-22.528 40.96-31.744 17.408-8.192 40.96-12.288 70.656-12.288 39.936 0 73.728 8.192 98.304 25.6 24.576 16.384 35.84 35.84 35.84 59.392 0 18.432-6.144 33.792-18.432 45.056-13.312 12.288-30.72 21.504-52.224 28.672-22.528 7.168-52.224 14.336-89.088 21.504-50.176 10.24-93.184 23.552-128 37.888s-63.488 34.816-83.968 60.416c-20.48 25.6-31.744 58.368-31.744 96.256 0 35.84 11.264 68.608 32.768 97.28 21.504 27.648 53.248 50.176 94.208 64.512 39.936 14.336 88.064 22.528 142.336 22.528 43.008 0 81.92-5.12 113.664-14.336 31.744-10.24 59.392-23.552 79.872-39.936 21.504-16.384 37.888-33.792 47.104-52.224 10.24-18.432 15.36-36.864 15.36-54.272s-7.168-32.768-19.456-46.080c-13.312-13.312-30.72-20.48-50.176-20.48-18.432 0-31.744 4.096-41.984 13.312-9.216 8.192-18.432 20.48-28.672 37.888-12.288 22.528-26.624 40.96-44.032 53.248-16.384 12.288-44.032 18.432-80.896 18.432-34.816 0-63.488-7.168-83.968-20.48s-29.696-27.648-29.696-46.080c0-11.264 3.072-20.48 10.24-27.648 7.168-8.192 16.384-15.36 28.672-21.504s25.6-11.264 38.912-15.36c13.312-4.096 35.84-9.216 67.584-16.384 38.912-8.192 75.776-17.408 107.52-27.648 32.768-10.24 60.416-22.528 82.944-37.888 23.552-15.36 41.984-33.792 55.296-57.344s19.456-51.2 19.456-84.992c0-39.936-11.264-75.776-33.792-107.52z" />
<glyph unicode="&#xe25;" glyph-name="whatsapp" d="M1021.952 461.312c0-274.432-224.256-496.64-499.712-496.64-88.064 0-169.984 22.528-241.664 61.44l-276.48-88.064 90.112 266.24c-45.056 74.752-71.68 162.816-71.68 256 0 274.432 224.256 496.64 499.712 496.64 275.456 1.024 499.712-221.184 499.712-495.616zM521.216 878.080c-231.424 0-420.864-186.368-420.864-416.768 0-91.136 29.696-176.128 79.872-244.736l-52.224-154.624 161.792 51.2c66.56-44.032 146.432-68.608 231.424-68.608 231.424-1.024 420.864 186.368 420.864 416.768s-189.44 416.768-420.864 416.768zM774.144 346.624c-3.072 5.12-11.264 8.192-23.552 14.336s-72.704 35.84-83.968 39.936c-11.264 4.096-19.456 6.144-27.648-6.144s-31.744-39.936-38.912-48.128c-7.168-8.192-14.336-9.216-26.624-3.072s-52.224 18.432-98.304 60.416c-36.864 31.744-61.44 71.68-68.608 83.968s-1.024 18.432 5.12 24.576c5.12 5.12 12.288 14.336 18.432 21.504s8.192 12.288 12.288 20.48c4.096 8.192 2.048 15.36-1.024 21.504s-27.648 65.536-37.888 90.112c-10.24 24.576-20.48 20.48-27.648 20.48s-15.36 1.024-23.552 1.024c-8.192 0-21.504-3.072-32.768-15.36s-43.008-41.984-43.008-101.376c0-59.392 44.032-117.76 50.176-125.952s84.992-135.168 209.92-183.296c124.928-49.152 124.928-32.768 147.456-30.72s72.704 29.696 82.944 57.344c10.24 28.672 10.24 53.248 7.168 58.368z" />
<glyph unicode="&#xe26;" glyph-name="houzz" d="M512 276.992v-340.992l319.488 171.008v340.992zM512 960l-319.488-171.008v-681.984l319.488 169.984-319.488 171.008 319.488 171.008zM512 619.008l319.488-171.008v340.992z" />
<glyph unicode="&#xe27;" glyph-name="telegram" d="M18.091 466.261l235.947-88.064 91.307-293.717c5.845-18.816 28.843-25.771 44.117-13.269l131.541 107.221c13.781 11.221 33.408 11.776 47.829 1.323l237.227-172.245c16.341-11.861 39.467-2.901 43.563 16.811l173.781 835.883c4.48 21.547-16.725 39.552-37.248 31.616l-968.363-373.547c-23.893-9.216-23.68-43.051 0.256-52.011zM330.667 425.088l461.141 284.032c8.277 5.077 16.811-6.101 9.685-12.715l-380.587-353.749c-13.397-12.459-22.016-29.099-24.448-47.189l-12.971-96.085c-1.707-12.843-19.755-14.080-23.296-1.707l-49.877 175.189c-5.717 19.968 2.603 41.344 20.267 52.224z" />
<glyph unicode="&#xe28;" glyph-name="etsy" d="M884.486 235.378l-34.945-112.384c-18.624-59.887-74.045-100.694-136.759-100.694h-267.575c-39.721 0-71.919 32.201-71.919 71.919v301.928h193.705c50.842 0 92.059-41.217 92.059-92.059v-23.693c0-7.038 5.706-12.744 12.744-12.744h39.718c7.038 0 12.744 5.706 12.744 12.744v348.493c0 7.038-5.706 12.744-12.744 12.744h-39.718c-7.038 0-12.744-5.706-12.744-12.744v-37.12c0-50.842-41.217-92.059-92.059-92.059h-193.705v302.067c0 39.721 32.201 71.919 71.919 71.919h254.117c65.671 0 118.908-53.237 118.908-118.908v-71.643c0-7.038 5.705-12.744 12.744-12.744h46.443c6.646 0 12.178 5.107 12.703 11.736l19.562 246.135c1.359 17.102-12.152 31.728-29.306 31.728h-807.084c-11.208 0-20.293-9.085-20.293-20.293v-45.717c0-11.208 9.085-20.293 20.293-20.293h51.626c39.721 0 71.919-32.201 71.919-71.919v-707.554c0-39.721-32.201-71.919-71.919-71.919h-51.626c-11.208 0-20.293-9.085-20.293-20.293v-45.717c0-11.208 9.085-20.293 20.293-20.293h813.576c14.559 0 26.925 10.656 29.077 25.058l40.104 268.655c1.15 7.703-4.817 14.625-12.604 14.625h-46.789c-5.584 0-10.514-3.629-12.172-8.96z" />
<glyph unicode="&#xe29;" glyph-name="tik-tok" d="M961.35 703.604c-58.53 0-112.534 19.39-155.901 52.1-49.737 37.498-85.472 92.503-98.091 155.901-3.125 15.664-4.807 31.829-4.968 48.395h-167.198v-456.865l-0.2-250.246c0-66.903-43.567-123.631-103.96-143.582-17.527-5.789-36.456-8.533-56.167-7.451-25.159 1.382-48.735 8.974-69.227 21.233-43.607 26.080-73.173 73.393-73.974 127.517-1.262 84.59 67.124 153.557 151.654 153.557 16.686 0 32.71-2.724 47.714-7.672v169.762c-15.824 2.344-31.929 3.565-48.214 3.565-92.523 0-179.056-38.459-240.912-107.746-46.752-52.361-74.795-119.164-79.122-189.212-5.669-92.022 28.003-179.497 93.304-244.037 9.595-9.475 19.67-18.268 30.207-26.381 55.986-43.087 124.432-66.443 196.523-66.443 16.285 0 32.39 1.202 48.214 3.545 67.344 9.975 129.48 40.803 178.515 89.278 60.253 59.552 93.544 138.614 93.905 222.764l-0.861 373.697c28.744-22.174 60.173-40.523 93.905-54.765 52.461-22.134 108.087-33.351 165.335-33.331v166.457c0.040-0.040-0.441-0.040-0.481-0.040v0z" />
<glyph unicode="&#xe30;" glyph-name="twitch" d="M88.32 960l-66.987-177.919v-712.534h245.333v-133.547h133.974l133.547 133.547h200.958l267.521 267.094v623.359h-914.346zM913.492 381.44l-156.159-156.159h-245.333l-133.974-133.122v133.122h-200.534v645.971h736v-489.813zM422.826 692.906h89.174v-267.094h-89.174v267.094zM668.159 692.906h89.174v-267.094h-89.174v267.094z" />
<glyph unicode="&#xe32;" glyph-name="untapped" d="M469.348 392.612l-248.488-347.004c-12.714-17.749-34.133-27.093-55.807-24.405-24.661 3.072-58.623 12.33-93.652 37.504s-54.655 54.442-65.45 76.884c-9.51 19.694-7.514 43.008 5.205 60.799l248.488 347.004c11.827 16.524 27.341 30.066 45.311 39.552l48.895 25.77c9.813 5.163 18.602 12.075 25.941 20.394 23.722 26.922 87.423 97.449 200.36 211.496l1.963 9.045c0.466 2.073 2.044 3.716 4.096 4.267l6.229 1.579c2.705 0.695 4.521 3.231 4.309 6.016l-0.64 7.68c-0.285 3.050 1.957 5.753 5.007 6.038 0.108 0.010 0.217 0.017 0.326 0.021 7.509 0.213 22.101-1.963 42.709-16.768s27.306-27.989 29.525-35.157c0.881-2.934-0.783-6.026-3.717-6.908-0.111-0.033-0.223-0.063-0.337-0.090l-7.467-1.877c-2.726-0.664-4.558-3.221-4.309-6.016l0.512-6.4c0.175-2.118-0.867-4.152-2.688-5.248l-7.936-4.779c-71.636-143.742-117.929-226.813-135.806-257.959-5.503-9.636-9.218-20.188-10.965-31.146l-8.747-54.655c-3.203-20.082-11.033-39.143-22.869-55.679v0.043zM1012.872 196.433l-248.488 347.004c-11.827 16.524-27.341 30.066-45.311 39.552l-48.895 25.813c-9.815 5.165-18.606 12.076-25.941 20.394-8.267 9.374-16.616 18.675-25.045 27.904-1.449 1.516-3.852 1.571-5.369 0.122-0.273-0.261-0.505-0.561-0.69-0.89-23.952-46.301-48.773-92.147-74.452-137.513-3.671-6.396-6.144-13.409-7.296-20.693-2.474-15.589-2.474-31.471 0-47.061l0.427-2.731c3.2-20.096 11.050-39.168 22.869-55.679l248.488-347.004c12.629-17.621 33.706-27.093 55.21-24.49 34.091 4.351 66.52 17.285 94.249 37.589 27.923 19.718 50.42 46.162 65.407 76.884 9.529 19.691 7.532 43.015-5.205 60.799h0.043zM354.406 816.415l7.467-1.877c2.715-0.68 4.539-3.226 4.309-6.016l-0.512-6.4c-0.185-2.12 0.859-4.159 2.688-5.248l7.936-4.779c13.269-26.581 25.557-50.943 37.077-73.428 1.109-2.176 3.883-2.56 5.504-0.811 18.645 20.010 41.13 43.733 67.626 71.167 2.214 2.229 2.271 5.809 0.128 8.107-13.44 13.739-27.52 28.117-42.751 43.519l-1.963 9.045c-0.444 2.076-2.035 3.716-4.096 4.224l-6.229 1.579c-2.705 0.695-4.521 3.231-4.309 6.016l0.64 7.68c0.286 3.050-1.954 5.755-5.003 6.041-0.081 0.008-0.163 0.013-0.244 0.018-7.467 0.213-22.101-1.92-42.751-16.768-20.608-14.805-27.306-27.989-29.525-35.157-0.881-2.934 0.783-6.026 3.717-6.908 0.111-0.033 0.223-0.063 0.337-0.090l-0.043 0.085z" />
<glyph unicode="&#xe50;" glyph-name="facebook-o" d="M512 960c-282.624 0-512-229.376-512-512s229.376-512 512-512 512 229.376 512 512-229.376 512-512 512zM707.584 698.88h-70.656c-55.296 0-66.56-26.624-66.56-65.536v-84.992h132.096v-134.144h-132.096v-343.040h-138.24v344.064h-115.712v133.12h115.712v98.304c0 114.688 69.632 177.152 172.032 177.152h103.424v-124.928z" />
<glyph unicode="&#xe51;" glyph-name="behance-o" d="M411.648 554.496c0 48.128-32.768 48.128-32.768 48.128h-135.168v-103.424h126.976c22.528 0 40.96 7.168 40.96 55.296zM378.88 427.52h-135.168v-123.904h129.024c19.456 1.024 55.296 6.144 55.296 60.416 0 63.488-49.152 63.488-49.152 63.488zM724.992 499.2c-71.68 0-81.92-71.68-81.92-71.68h152.576c1.024 0 1.024 71.68-70.656 71.68zM512 960c-282.624 0-512-229.376-512-512s229.376-512 512-512 512 229.376 512 512-229.376 512-512 512zM623.616 657.92h191.488v-57.344h-191.488v57.344zM526.336 357.888c0-142.336-147.456-137.216-147.456-137.216h-241.664v464.896h241.664c73.728 0 131.072-40.96 131.072-123.904s-70.656-88.064-70.656-88.064c94.208 0 87.040-115.712 87.040-115.712zM726.016 284.16c76.8 0 74.752 50.176 74.752 50.176h81.92c0-133.12-158.72-123.904-158.72-123.904-190.464 0-178.176 177.152-178.176 177.152s0 178.176 178.176 178.176c188.416 0 161.792-201.728 161.792-201.728h-241.664c0-84.992 81.92-79.872 81.92-79.872z" />
<glyph unicode="&#xe52;" glyph-name="youtube-o" d="M458.477 362.362l159.039 85.638-159.039 85.638zM512 960c-282.771 0-512-229.229-512-512s229.229-512 512-512 512 229.229 512 512-229.229 512-512 512zM773.805 292.161c-3.628-15.417-15.211-27.779-30.68-32.682-40.997-13.008-129.922-25.573-231.125-25.573s-190.128 12.565-231.115 25.573c-15.469 4.904-27.052 17.266-30.68 32.682-6.862 29.104-16.529 83.078-16.529 155.839s9.667 126.734 16.518 155.839c3.628 15.417 15.211 27.779 30.68 32.682 40.997 13.008 129.922 25.573 231.125 25.573s190.128-12.565 231.115-25.573c15.469-4.904 27.052-17.266 30.68-32.682 6.862-29.104 16.529-83.078 16.529-155.839s-9.667-126.734-16.518-155.839z" />
<glyph unicode="&#xe53;" glyph-name="snapchat-o" d="M512 957.952c-281.6 0-509.952-228.352-509.952-509.952s228.352-509.952 509.952-509.952 509.952 228.352 509.952 509.952-228.352 509.952-509.952 509.952zM730.112 257.536c-2.048-3.072-4.096-17.408-7.168-27.648-4.096-12.288-15.36-11.264-27.648-8.192-18.432 4.096-34.816 5.12-54.272 1.024-33.792-5.12-67.584-55.296-125.952-55.296-62.464 0-95.232 49.152-130.048 55.296-35.84 6.144-55.296-3.072-67.584-3.072-9.216 0-13.312 6.144-14.336 10.24-3.072 10.24-5.12 24.576-7.168 27.648-23.552 4.096-77.824 13.312-79.872 36.864 0 6.144 4.096 12.288 10.24 13.312 79.872 13.312 130.048 102.4 121.856 121.856-6.144 13.312-31.744 18.432-41.984 22.528-27.648 11.264-31.744 23.552-29.696 31.744 2.048 12.288 16.384 19.456 28.672 19.456 11.264 0 32.768-15.36 48.128-7.168-2.048 41.984-8.192 101.376 6.144 135.168 28.672 63.488 90.112 95.232 152.576 95.232s124.928-31.744 153.6-95.232c14.336-33.792 9.216-93.184 6.144-135.168 15.36-8.192 33.792 7.168 47.104 7.168s30.72-8.192 30.72-23.552c0-11.264-10.24-21.504-29.696-28.672-11.264-4.096-35.84-9.216-41.984-22.528-8.192-19.456 44.032-109.568 121.856-121.856 6.144-1.024 10.24-6.144 10.24-13.312-2.048-22.528-56.32-31.744-79.872-35.84z" />
<glyph unicode="&#xe54;" glyph-name="instagram-o" d="M664.576 450.048c0-80.853-67.84-146.432-151.552-146.432s-151.552 65.579-151.552 146.432c0 80.853 67.84 146.432 151.552 146.432s151.552-65.579 151.552-146.432zM747.52 441.856c0-125.952-105.472-227.328-234.496-227.328s-234.496 101.376-234.496 227.328c0 22.528 3.072 44.032 9.216 64.512h-69.632v-318.464c0-16.384 13.312-29.696 29.696-29.696h525.312c16.384 0 29.696 13.312 29.696 29.696v318.464h-65.536c6.144-20.48 10.24-41.984 10.24-64.512zM684.032 592.384h84.992c18.432 0 33.792 15.36 33.792 33.792v80.896c0 18.432-15.36 33.792-33.792 33.792h-84.992c-18.432 0-33.792-15.36-33.792-33.792v-80.896c0-18.432 15.36-33.792 33.792-33.792zM512 960c-282.624 0-512-229.376-512-512s229.376-512 512-512 512 229.376 512 512-229.376 512-512 512zM792.576 71.168h-561.152c-53.248 0-97.28 39.936-97.28 97.28v560.128c0 57.344 44.032 97.28 97.28 97.28h561.152c53.248 0 97.28-39.936 97.28-97.28v-561.152c-1.024-57.344-44.032-96.256-97.28-96.256z" />
<glyph unicode="&#xe55;" glyph-name="google-plus-o" d="M531.456 607.744c0 70.656-41.984 181.248-123.904 181.248-25.6 0-53.248-13.312-68.608-32.768-16.384-20.48-21.504-47.104-21.504-72.704 0-65.536 37.888-175.104 122.88-175.104 24.576 0 51.2 11.264 66.56 27.648 22.528 21.504 24.576 53.248 24.576 71.68zM478.208 347.648c-8.192 1.024-12.288 1.024-22.528 1.024-9.216 0-62.464-2.048-103.424-15.36-21.504-8.192-84.992-31.744-84.992-101.376s67.584-119.808 173.056-119.808c94.208 0 144.384 45.056 144.384 106.496 1.024 50.176-31.744 75.776-106.496 129.024zM512 960c-282.624 0-512-229.376-512-512s229.376-512 512-512 512 229.376 512 512-229.376 512-512 512zM393.216 70.144c-142.336 0-210.944 67.584-210.944 141.312 0 35.84 17.408 86.016 75.776 119.808 61.44 37.888 143.36 41.984 187.392 45.056-13.312 17.408-29.696 36.864-29.696 66.56 0 16.384 5.12 26.624 10.24 38.912-11.264-1.024-21.504-2.048-31.744-2.048-104.448 0-162.816 77.824-162.816 154.624 0 45.056 20.48 95.232 62.464 132.096 56.32 46.080 133.12 59.392 186.368 59.392h193.536l-64.512-39.936h-60.416c22.528-18.432 69.632-58.368 69.632-133.12 0-72.704-40.96-107.52-82.944-140.288-13.312-12.288-27.648-26.624-27.648-48.128s14.336-33.792 25.6-41.984l35.84-27.648c43.008-36.864 82.944-69.632 82.944-138.24-1.024-93.184-90.112-186.368-259.072-186.368zM817.152 460.288v-99.328h-49.152v99.328h-98.304v49.152h98.304v98.304h49.152v-98.304h99.328v-49.152h-99.328z" />
<glyph unicode="&#xe56;" glyph-name="pinterest-o" d="M512 960c-282.624 0-512-229.376-512-512s229.376-512 512-512 512 229.376 512 512-229.376 512-512 512zM571.392 278.016c-47.104 0-92.16 25.6-107.52 54.272 0 0-25.6-101.376-30.72-120.832-19.456-68.608-74.752-138.24-78.848-143.36-3.072-4.096-9.216-3.072-10.24 2.048-1.024 9.216-15.36 95.232 1.024 166.912 8.192 35.84 56.32 238.592 56.32 238.592s-14.336 27.648-14.336 69.632c0 64.512 37.888 113.664 84.992 113.664 39.936 0 59.392-29.696 59.392-65.536 0-39.936-25.6-100.352-38.912-155.648-11.264-46.080 23.552-83.968 69.632-83.968 82.944 0 139.264 106.496 139.264 233.472 0 96.256-64.512 167.936-182.272 167.936-133.12 0-216.064-99.328-216.064-209.92 0-37.888 11.264-65.536 28.672-86.016 8.192-9.216 9.216-13.312 6.144-24.576-2.048-8.192-7.168-27.648-9.216-34.816-3.072-11.264-12.288-15.36-21.504-11.264-61.44 24.576-90.112 92.16-90.112 167.936 0 124.928 105.472 274.432 313.344 274.432 167.936 0 277.504-120.832 277.504-250.88 0-174.080-96.256-302.080-236.544-302.080z" />
<glyph unicode="&#xe57;" glyph-name="linkedin-o" d="M512 960c-282.624 0-512-229.376-512-512s229.376-512 512-512 512 229.376 512 512-229.376 512-512 512zM320.512 100.864h-144.384v463.872h144.384v-463.872zM247.808 628.224c-46.080 0-83.968 37.888-83.968 83.968s36.864 82.944 83.968 82.944c46.080 0 82.944-37.888 82.944-82.944 1.024-47.104-36.864-83.968-82.944-83.968zM859.136 100.864h-143.36v225.28c0 53.248-1.024 122.88-74.752 122.88-74.752 0-86.016-58.368-86.016-118.784v-229.376h-143.36v463.872h138.24v-63.488h2.048c19.456 36.864 66.56 74.752 136.192 74.752 145.408 0 173.056-96.256 173.056-220.16-2.048 0-2.048-254.976-2.048-254.976z" />
<glyph unicode="&#xe58;" glyph-name="rss-o" d="M512 960c-282.624 0-512-229.376-512-512s229.376-512 512-512 512 229.376 512 512-229.376 512-512 512zM319.488 192c-35.84 0-63.488 28.672-63.488 63.488s28.672 63.488 63.488 63.488 63.488-28.672 63.488-63.488-27.648-63.488-63.488-63.488zM495.616 192c0 132.096-107.52 239.616-239.616 239.616v96.256c185.344 0 335.872-150.528 335.872-335.872h-96.256zM688.128 192c0 115.712-45.056 224.256-126.976 305.152-81.92 81.92-190.464 126.976-305.152 126.976v96.256c141.312 0 273.408-55.296 373.76-154.624 99.328-99.328 154.624-232.448 154.624-373.76h-96.256z" />
<glyph unicode="&#xe59;" glyph-name="tripadvisor-o" d="M704.512 477.696c-34.816 0-62.464-27.648-62.464-62.464 0-33.792 27.648-62.464 62.464-62.464 33.792 0 62.464 27.648 62.464 62.464-1.024 33.792-28.672 62.464-62.464 62.464zM704.512 383.488c-17.408 0-31.744 14.336-31.744 31.744 0 18.432 13.312 31.744 31.744 31.744 17.408 0 31.744-14.336 31.744-31.744-1.024-17.408-15.36-31.744-31.744-31.744zM319.488 566.784c-82.944 1.024-154.624-68.608-153.6-156.672 1.024-81.92 68.608-151.552 155.648-150.528 83.968 1.024 152.576 69.632 152.576 152.576 0 86.016-68.608 154.624-154.624 154.624zM322.56 320c-55.296-2.048-100.352 41.984-100.352 95.232 0 54.272 45.056 96.256 95.232 95.232 52.224 0 95.232-41.984 95.232-95.232s-41.984-93.184-90.112-95.232zM512 960c-282.624 0-512-229.376-512-512s229.376-512 512-512 512 229.376 512 512-229.376 512-512 512zM805.888 249.344c-31.744-19.456-65.536-29.696-102.4-29.696-15.36 0-30.72 2.048-46.080 6.144-36.864 9.216-68.608 27.648-94.208 56.32-3.072 4.096-7.168 7.168-10.24 11.264-13.312-20.48-27.648-40.96-40.96-61.44-14.336 20.48-27.648 40.96-40.96 60.416-1.024 0-1.024-1.024-1.024-1.024s-1.024-1.024-1.024-1.024c-31.744-36.864-71.68-60.416-119.808-67.584-26.624-4.096-53.248-3.072-79.872 4.096-36.864 10.24-68.608 29.696-94.208 58.368-24.576 27.648-39.936 60.416-46.080 98.304-6.144 34.816 1.024 68.608 3.072 75.776 6.144 23.552 16.384 45.056 29.696 65.536 2.048 2.048 2.048 5.12 2.048 6.144-6.144 20.48-15.36 39.936-26.624 58.368-3.072 5.12-6.144 9.216-9.216 13.312 0 1.024 0 1.024 0 2.048 1.024 0 1.024 0 2.048 0 38.912 0 77.824 0 115.712 0 2.048 0 3.072 1.024 5.12 2.048 27.648 17.408 56.32 31.744 87.040 41.984 21.504 8.192 44.032 13.312 67.584 18.432 22.528 4.096 44.032 7.168 66.56 9.216 55.296 4.096 98.304-2.048 128-6.144 21.504-3.072 43.008-8.192 63.488-14.336 35.84-11.264 70.656-26.624 102.4-47.104 2.048-1.024 5.12-2.048 8.192-2.048 37.888 0 75.776 0 113.664 0 3.072 0 6.144 0 9.216 0 0-1.024 0-1.024 0-1.024-2.048-3.072-3.072-5.12-5.12-8.192-13.312-19.456-23.552-39.936-30.72-63.488-1.024-2.048-1.024-4.096 1.024-7.168 33.792-48.128 44.032-101.376 30.72-158.72-14.336-52.224-43.008-91.136-87.040-118.784zM316.416 477.696c-33.792 0-61.44-28.672-61.44-62.464s28.672-62.464 62.464-62.464c33.792 0 62.464 28.672 62.464 62.464 0 34.816-28.672 62.464-63.488 62.464zM317.44 383.488c-18.432 0-31.744 14.336-31.744 31.744s14.336 31.744 31.744 31.744c17.408 0 31.744-14.336 31.744-31.744s-14.336-31.744-31.744-31.744zM700.416 566.784c-83.968-2.048-149.504-69.632-150.528-153.6 0-84.992 68.608-154.624 153.6-154.624s153.6 67.584 153.6 153.6c1.024 89.088-71.68 155.648-156.672 154.624zM707.584 320c-55.296-2.048-99.328 41.984-99.328 95.232 0 54.272 44.032 96.256 95.232 95.232 52.224 0 95.232-41.984 95.232-95.232 0-52.224-41.984-93.184-91.136-95.232zM573.44 555.52c33.792 30.72 74.752 47.104 120.832 51.2-54.272 24.576-111.616 34.816-171.008 35.84-67.584 1.024-133.12-8.192-195.584-34.816 47.104-3.072 88.064-19.456 122.88-50.176 34.816-31.744 55.296-70.656 62.464-116.736 6.144 44.032 26.624 82.944 60.416 114.688z" />
<glyph unicode="&#xe60;" glyph-name="twitter-o" d="M289.281 708.266l365.227-522.667h80.211l-365.227 522.667zM512 960c-282.88 0-512-229.12-512-512s229.12-512 512-512 512 229.12 512 512-229.12 512-512 512zM630.615 149.333l-159.576 232.107-199.68-232.107h-51.201l228.268 265.385-228.693 331.948h173.651l151.469-220.159 189.44 220.159h50.773l-218.029-253.013 237.227-344.32h-173.651z" />
<glyph unicode="&#xe61;" glyph-name="tumblr-o" d="M512 960c-282.624 0-512-229.376-512-512s229.376-512 512-512 512 229.376 512 512-229.376 512-512 512zM387.072 288.256v215.040c-30.72 0-53.248 0-79.872 0 0 34.816 0 65.536 0 100.352 60.416 17.408 112.64 81.92 132.096 149.504 7.168 29.696 8.192 50.176 8.192 50.176s93.184 0 113.664 0c0-61.44 0-122.88 0-183.296 45.056 0 88.064 0 133.12 0v-115.712c-43.008 0-86.016 0-134.144 0 0-23.552 0-47.104 0-66.56 0-45.056 0-90.112 0-134.144 0-118.784 114.688-69.632 124.928-67.584l32.768-108.544c-28.672-31.744-330.752-104.448-330.752 160.768z" />
<glyph unicode="&#xe62;" glyph-name="vk-o" d="M512 960c-282.624 0-512-229.376-512-512s229.376-512 512-512 512 229.376 512 512-229.376 512-512 512zM772.096 392.704c23.552-23.552 49.152-45.056 70.656-70.656 9.216-11.264 18.432-23.552 25.6-36.864 9.216-18.432 1.024-39.936-16.384-40.96h-104.448c-26.624-2.048-49.152 8.192-66.56 27.648-14.336 14.336-27.648 30.72-41.984 46.080-6.144 6.144-11.264 12.288-18.432 16.384-14.336 9.216-26.624 6.144-34.816-8.192-8.192-15.36-10.24-31.744-11.264-49.152-1.024-24.576-8.192-30.72-33.792-32.768-53.248-2.048-103.424 5.12-150.528 32.768-40.96 23.552-72.704 57.344-101.376 94.208-54.272 73.728-95.232 153.6-133.12 236.544-8.192 18.432-2.048 28.672 18.432 28.672 33.792 1.024 68.608 1.024 102.4 0 14.336 0 23.552-8.192 28.672-21.504 18.432-45.056 40.96-89.088 69.632-129.024 7.168-10.24 15.36-21.504 26.624-28.672 12.288-8.192 21.504-5.12 27.648 8.192 4.096 8.192 5.12 17.408 6.144 26.624 3.072 31.744 3.072 63.488-2.048 95.232-3.072 19.456-14.336 32.768-33.792 35.84-10.24 2.048-8.192 5.12-4.096 11.264 8.192 10.24 16.384 16.384 31.744 16.384h118.784c18.432-4.096 22.528-12.288 25.6-30.72v-132.096c0-7.168 4.096-28.672 16.384-33.792 10.24-3.072 17.408 5.12 23.552 11.264 28.672 29.696 49.152 65.536 66.56 102.4 8.192 16.384 15.36 32.768 21.504 50.176 5.12 12.288 12.288 18.432 26.624 18.432h113.664c3.072 0 7.168 0 10.24-1.024 19.456-3.072 24.576-11.264 18.432-30.72-9.216-29.696-27.648-54.272-45.056-78.848-19.456-26.624-38.912-52.224-58.368-77.824-16.384-22.528-14.336-34.816 7.168-55.296z" />
<glyph unicode="&#xe63;" glyph-name="vimeo-o" d="M512 952.832c-278.528 0-504.832-226.304-504.832-504.832s226.304-504.832 504.832-504.832 504.832 226.304 504.832 504.832-226.304 504.832-504.832 504.832zM808.96 520.704c-33.792-188.416-221.184-348.16-277.504-385.024s-107.52 14.336-125.952 53.248c-21.504 44.032-84.992 282.624-102.4 303.104-16.384 19.456-66.56-19.456-66.56-19.456l-24.576 31.744c0 0 102.4 121.856 179.2 137.216 81.92 16.384 81.92-125.952 102.4-205.824 19.456-76.8 31.744-120.832 49.152-120.832 16.384 0 49.152 43.008 83.968 108.544s-1.024 122.88-69.632 81.92c26.624 164.864 285.696 203.776 251.904 15.36z" />
<glyph unicode="&#xe64;" glyph-name="skype-o" d="M512 957.952c-281.6 0-509.952-228.352-509.952-509.952s228.352-509.952 509.952-509.952 509.952 228.352 509.952 509.952c0 281.6-228.352 509.952-509.952 509.952zM650.24 146.944c-32.768 0-62.464 9.216-88.064 25.6-16.384-3.072-33.792-5.12-51.2-5.12-154.624 0-280.576 124.928-280.576 279.552 0 15.36 1.024 29.696 3.072 44.032-17.408 26.624-26.624 57.344-26.624 91.136 0 92.16 74.752 167.936 167.936 167.936 33.792 0 65.536-10.24 91.136-27.648 14.336 2.048 29.696 4.096 45.056 4.096 154.624 0 280.576-124.928 280.576-279.552 0-13.312-1.024-25.6-3.072-37.888 18.432-26.624 28.672-59.392 28.672-94.208 1.024-93.184-74.752-167.936-166.912-167.936zM475.136 500.224c-80.896 19.456-36.864 89.088 28.672 88.064 63.488-1.024 96.256-68.608 124.928-64.512 28.672 3.072 53.248 47.104 8.192 86.016-38.912 33.792-89.088 52.224-165.888 45.056-60.416-5.12-116.736-44.032-123.904-119.808s81.92-113.664 152.576-123.904c49.152-7.168 116.736-31.744 76.8-77.824-36.864-43.008-107.52-16.384-125.952-5.12s-39.936 53.248-73.728 51.2c-34.816-2.048-52.224-48.128-9.216-88.064 37.888-35.84 79.872-55.296 168.96-51.2 89.088 5.12 168.96 82.944 138.24 157.696-31.744 74.752-118.784 82.944-199.68 102.4z" />
<glyph unicode="&#xe65;" glyph-name="whatsapp-o" d="M512 958.976v0c-281.6 0-510.976-229.376-510.976-510.976 0-111.616 35.84-215.040 97.28-299.008l-63.488-189.44 196.608 62.464c80.896-53.248 177.152-83.968 280.576-83.968 281.6 0 509.952 229.376 509.952 510.976s-228.352 509.952-509.952 509.952zM808.96 238.080c-12.288-34.816-61.44-63.488-100.352-71.68-26.624-6.144-61.44-10.24-179.2 38.912-150.528 62.464-246.784 215.040-253.952 224.256-7.168 10.24-60.416 80.896-60.416 153.6s36.864 108.544 52.224 123.904c12.288 12.288 32.768 18.432 52.224 18.432 6.144 0 12.288 0 17.408-1.024 15.36-1.024 22.528-1.024 32.768-25.6 12.288-29.696 41.984-103.424 46.080-110.592s7.168-17.408 2.048-27.648c-5.12-10.24-9.216-14.336-16.384-23.552-7.168-8.192-14.336-15.36-22.528-24.576-7.168-8.192-14.336-16.384-6.144-31.744 8.192-14.336 38.912-63.488 82.944-103.424 57.344-51.2 103.424-66.56 119.808-73.728 12.288-5.12 26.624-4.096 35.84 6.144 11.264 12.288 25.6 32.768 39.936 53.248 10.24 14.336 23.552 16.384 36.864 11.264s87.040-40.96 101.376-48.128c15.36-7.168 24.576-11.264 28.672-17.408 3.072-6.144 3.072-35.84-9.216-70.656z" />
<glyph unicode="&#xe66;" glyph-name="houzz-o" d="M512 960c-277.333 0-503.467-226.133-503.467-503.467s226.133-507.733 503.467-507.733 503.467 226.133 503.467 503.467c4.267 281.6-221.867 507.733-503.467 507.733zM512 337.067v-230.4l217.6 115.2v230.4zM512 802.133l-213.333-115.2v-465.067l213.333 115.2-213.333 115.2 213.333 119.467zM512 571.733l217.6-119.467v234.667z" />
<glyph unicode="&#xe67;" glyph-name="telegram-o" d="M512-64c282.837 0 512 229.163 512 512s-229.163 512-512 512-512-229.163-512-512 229.163-512 512-512zM234.283 459.093l493.653 190.336c22.912 8.277 42.923-5.589 35.499-40.235l0.043 0.043-84.053-395.989c-6.229-28.075-22.912-34.901-46.251-21.675l-128 94.336-61.739-59.477c-6.827-6.827-12.587-12.587-25.813-12.587l9.088 130.261 237.227 214.315c10.325 9.088-2.304 14.208-15.915 5.163l-293.163-184.576-126.379 39.424c-27.435 8.704-28.032 27.435 5.803 40.661v0z" />
<glyph unicode="&#xe68;" glyph-name="etsy-o" d="M512 960c-282.771 0-512-229.24-512-512s229.229-512 512-512 512 229.24 512 512-229.229 512-512 512zM824.742 246.123c-5.824-48.167-11.869-96.293-17.274-144.512-1.99-17.945-1.309-17.84-19.705-17.631-140.427 1.749-280.843 4.023-421.27 4.808-50.315 0.293-100.64-3.027-150.976-4.609-6.663-0.22-13.315-0.042-21.234-0.042 0 13.996 0 27.541 0 43.254 17.945 3.541 36.969 7.061 55.877 11.136 7.773 1.676 15.483 4.106 22.847 7.061 11.115 4.473 18.092 12.739 19.694 24.932 0.744 5.73 1.875 11.481 1.928 17.222 0.964 104.778 2.284 209.545 2.43 314.313 0.094 65.086-1.571 130.161-2.64 195.225-0.597 36.843-10.35 48.303-46.271 55.165-15.263 2.902-30.694 5.206-45.8 8.726-3.646 0.869-8.831 5.301-9.124 8.485-1.089 11.869-0.43 23.874-0.43 36.833 201.427-3.352 401.712-11.838 603.882 5.615-4.232-68.375-8.475-136.876-12.791-206.602-12.246 0-23.455-0.974-34.329 0.513-3.845 0.545-8.674 6.495-10.004 10.895-6.16 20.407-10.717 41.306-16.897 61.723-3.625 11.859-8.506 23.476-14.1 34.559-12.644 25.089-31.626 38.561-61.681 38.048-72.24-1.268-144.502-0.388-216.742-0.43-18.374-0.021-18.919-0.629-18.94-18.626-0.105-81.166-0.168-162.342-0.23-243.497-0.021-4.431 0-8.862 0-14.436 31.94 0 62.142-0.503 92.322 0.189 19.558 0.429 39.085 2.357 58.612 3.97 26.703 2.21 36.194 10.004 42.908 35.775 5.028 19.338 9.533 38.813 13.891 58.318 1.718 7.689 5.217 11.23 13.65 10.633 10.622-0.754 21.339-0.189 33.512-0.189 0-7.092 0.063-13.451 0-19.841-0.649-76.169-1.477-152.338-1.718-228.507-0.042-10.13-2.388-14.163-13.262-14.215-32.003-0.23-31.982-0.66-39.525 30.589-2.724 11.23-5.458 22.481-8.412 33.637-6.778 25.718-25.969 35.188-50.105 35.984-45.412 1.529-90.887 1.969-136.341 2.839-1.236 0.021-2.483-0.66-4.924-1.309-0.22-5.039-0.66-10.256-0.67-15.462-0.105-67.799-0.168-135.576-0.189-203.365-0.031-42.123 15.839-62.561 58.098-63.755 64.991-1.865 130.14-0.513 195.152 1.477 39.326 1.184 66.259 24.22 83.125 58.454 13.744 27.928 26.315 56.485 37.933 85.335 5.133 12.791 11.827 18.72 25.676 16.594 6.003-0.943 12.299-0.157 20.742-0.157-2.378-19.495-4.546-37.304-6.694-55.123z" />
<glyph unicode="&#xe69;" glyph-name="tik-tok-o" d="M512 960c-282.726 0-512-229.274-512-512s229.274-512 512-512 512 229.274 512 512-229.274 512-512 512zM768.86 568.254v-69.326c-32.69-0.012-64.452 6.394-94.408 19.032-19.262 8.132-37.208 18.61-53.622 31.272l0.492-213.386c-0.206-48.050-19.216-93.196-53.622-127.202-28-27.68-63.48-45.282-101.936-50.98-9.036-1.338-18.232-2.024-27.532-2.024-41.166 0-80.248 13.336-112.218 37.94-6.016 4.632-11.77 9.654-17.248 15.064-37.288 36.854-56.516 86.802-53.278 139.348 2.47 39.998 18.484 78.144 45.18 108.042 35.32 39.564 84.732 61.524 137.564 61.524 9.3 0 18.496-0.698 27.532-2.036v-96.936c-8.568 2.826-17.718 4.38-27.246 4.38-48.268 0-87.318-39.38-86.596-87.684 0.458-30.906 17.34-57.922 42.24-72.814 11.702-7 25.164-11.336 39.53-12.124 11.256-0.618 22.064 0.95 32.072 4.254 34.486 11.392 59.364 43.784 59.364 81.988l0.114 142.894v260.88h95.472c0.092-9.46 1.052-18.69 2.836-27.634 7.206-36.202 27.612-67.61 56.012-89.022 24.764-18.678 55.6-29.75 89.022-29.75 0.022 0 0.298 0 0.274 0.022v-25.722h0.002z" />
<glyph unicode="&#xe70;" glyph-name="twitch-o" d="M313.599 698.88v-383.146h119.042v-78.935l79.359 78.935h145.492l92.589 92.586v290.56h-436.482zM512 434.773h-52.906v158.719h52.906v-158.719zM657.492 434.773h-52.906v158.719h52.906v-158.719zM313.599 698.88v-383.146h119.042v-78.935l79.359 78.935h145.492l92.589 92.586v290.56h-436.482zM512 434.773h-52.906v158.719h52.906v-158.719zM657.492 434.773h-52.906v158.719h52.906v-158.719zM512 960c-277.333 0-503.466-226.133-503.466-503.466s226.133-507.734 503.466-507.734 503.466 226.133 503.466 503.466c4.268 281.602-221.867 507.734-503.466 507.734zM802.987 381.867l-158.721-158.294h-119.039l-79.359-79.359h-79.359v79.359h-145.495v422.401l39.68 105.813h542.294v-369.919zM432.641 236.799l79.359 78.935h145.492l92.589 92.586v290.56h-436.482v-383.146h119.042v-78.935zM604.586 593.492h52.906v-158.719h-52.906v158.719zM459.094 593.492h52.906v-158.719h-52.906v158.719z" />
<glyph unicode="&#xe72;" glyph-name="untapped-o" d="M512 960c-277.333 0-503.466-226.133-503.466-503.466s226.133-507.734 503.466-507.734 503.466 226.133 503.466 503.466c4.268 281.602-221.867 507.734-503.466 507.734zM424.107 721.492c13.654 10.242 23.466 11.521 28.159 11.521 0.427 0 0.427 0 0.427 0 2.133-0.427 3.414-2.133 3.414-4.266l-0.427-5.12c-0.427-1.708 0.854-3.414 2.56-3.841l4.268-1.279c1.279-0.427 2.56-1.281 2.56-2.56l1.706-5.974c9.813-10.667 19.201-20.055 28.159-29.013 1.708-1.708 1.708-4.268 0-5.547-17.492-18.346-32.424-34.133-45.227-47.362-0.852-1.279-2.56-0.852-3.411 0.427-7.68 14.935-15.786 31.148-24.747 49.068l-5.12 2.987c-1.281 0.852-2.133 2.133-2.133 3.414l0.424 4.266c0.427 2.133-0.852 3.839-2.984 4.266l-4.695 1.281h-0.424c-1.708 0.427-2.987 2.56-2.563 4.266 1.708 5.12 5.974 13.654 20.055 23.466zM504.747 484.693l-5.974-36.693c-2.133-13.227-7.253-26.026-15.359-37.12l-165.547-231.253c-8.534-11.521-22.615-17.922-37.12-16.214-16.641 2.133-39.255 8.107-62.294 25.172-23.466 16.641-36.693 36.268-43.945 51.201-6.401 13.227-4.695 28.586 3.411 40.534l165.974 231.253c7.68 11.094 17.919 20.055 29.867 26.453l32.854 17.068c6.398 3.414 12.372 8.107 17.065 13.654 15.786 17.919 58.453 64.852 133.547 140.799l1.706 6.401c0 1.279 1.281 2.133 2.56 2.56l4.268 1.279c1.706 0.427 2.987 2.133 2.56 3.841l-0.427 5.12c0 2.133 1.281 3.839 3.414 4.266h0.427c4.693 0 14.505-1.279 28.159-11.521 14.081-9.813 18.346-18.346 20.055-23.466 0.424-1.706-0.854-3.839-2.563-4.266h-0.424l-4.695-1.281c-2.133-0.427-3.411-2.133-2.984-4.266l0.424-4.266c0-1.281-0.852-2.563-2.133-3.414l-5.12-2.987c-47.786-96-78.505-151.466-90.453-172.372-3.841-6.401-6.401-13.227-7.253-20.482zM849.492 239.786c-10.24-20.479-25.172-37.974-43.945-51.201-18.346-13.654-40.107-22.185-62.721-25.172-14.078-1.708-28.159 4.693-36.693 16.214l-165.547 231.68c-8.107 10.667-13.227 23.466-15.359 37.12l-0.427 1.706c-1.706 10.24-1.706 20.906 0 31.148 0.854 5.12 2.56 9.813 5.12 14.078 17.068 30.294 33.708 60.589 49.495 91.734l0.427 0.427c0.852 0.852 2.56 0.852 3.411 0 5.974-6.401 11.521-12.375 17.068-18.773 4.693-5.547 10.667-10.24 17.065-13.654l32.854-17.068c11.948-6.398 22.187-15.359 29.867-26.453l165.974-231.253c8.107-11.948 9.813-27.307 3.411-40.534z" />
<glyph unicode="&#xe900;" glyph-name="exclamation" d="M522.24 750.080h-20.48c-14.336 0-25.6-7.168-25.6-16.384v-373.76c0-9.216 11.264-16.384 25.6-16.384h20.48c14.336 0 25.6 7.168 25.6 17.408v372.736c0 9.216-11.264 16.384-25.6 16.384zM522.24 257.536h-20.48c-14.336 0-25.6-11.264-25.6-25.6v-61.44c0-14.336 11.264-25.6 25.6-25.6h20.48c14.336 0 25.6 11.264 25.6 25.6v61.44c0 14.336-11.264 25.6-25.6 25.6zM512 958.976c-282.624 0-510.976-228.352-510.976-510.976s228.352-510.976 510.976-510.976 510.976 228.352 510.976 510.976-228.352 510.976-510.976 510.976zM512-8.704c-252.928 0-456.704 204.8-456.704 456.704s203.776 456.704 456.704 456.704 456.704-204.8 456.704-456.704c0-252.928-203.776-456.704-456.704-456.704z" />
<glyph unicode="&#xe901;" glyph-name="play-button" d="M778.24 470.528l-368.64 250.88c-8.192 5.12-18.432 6.144-27.648 1.024s-14.336-13.312-14.336-23.552v-501.76c0-10.24 5.12-19.456 14.336-23.552 4.096-2.048 8.192-3.072 12.288-3.072 5.12 0 10.24 2.048 15.36 5.12l368.64 249.856c7.168 5.12 11.264 13.312 11.264 22.528s-4.096 17.408-11.264 22.528zM512 960c-282.624 0-512-229.376-512-512s229.376-512 512-512 512 229.376 512 512-229.376 512-512 512zM512-10.752c-252.928 0-458.752 205.824-458.752 458.752s205.824 458.752 458.752 458.752 458.752-205.824 458.752-458.752-205.824-458.752-458.752-458.752z" />
<glyph unicode="&#xe902;" glyph-name="left-arrow" d="M766.976-12.8l-445.44 460.8 446.464 462.848c10.24 12.288 10.24 30.72-1.024 40.96-10.24 10.24-30.72 11.264-41.984 0l-465.92-483.328c-11.264-11.264-11.264-28.672 0-41.984l465.92-481.28c6.144-6.144 13.312-9.216 21.504-9.216 7.168 0 14.336 3.072 19.456 8.192 6.144 5.12 9.216 12.288 10.24 20.48 0 9.216-3.072 16.384-9.216 22.528z" />
<glyph unicode="&#xe903;" glyph-name="up-arrow" d="M1010.688 237.056l-478.208 463.872c-11.264 11.264-29.696 10.24-40.96 0l-480.256-463.872c-5.12-5.12-8.192-12.288-9.216-20.48 0-8.192 3.072-15.36 9.216-21.504s13.312-9.216 20.48-9.216c7.168 0 15.36 3.072 20.48 9.216l459.776 443.392 458.752-442.368c9.216-9.216 24.576-11.264 39.936 0l1.024 1.024c5.12 5.12 8.192 13.312 8.192 20.48 1.024 7.168-3.072 14.336-9.216 19.456z" />
<glyph unicode="&#xe904;" glyph-name="right-arrow" d="M762.88 469.504l-457.728 482.304c-11.264 11.264-28.672 11.264-40.96 1.024-6.144-5.12-9.216-13.312-9.216-21.504 0-7.168 3.072-14.336 8.192-20.48l438.272-460.8-438.272-460.8c-5.12-5.12-8.192-13.312-8.192-21.504s3.072-15.36 8.192-21.504c5.12-6.144 13.312-9.216 20.48-9.216 6.144 0 13.312 2.048 19.456 8.192l1.024 1.024 458.752 483.328c11.264 11.264 10.24 28.672 0 39.936z" />
<glyph unicode="&#xe905;" glyph-name="down-arrow" d="M1014.784 700.928c-11.264 11.264-28.672 11.264-41.984 0l-460.8-444.416-460.8 444.416c-11.264 11.264-28.672 11.264-41.984 0-6.144-5.12-9.216-13.312-9.216-20.48 0-8.192 3.072-15.36 8.192-21.504l481.28-464.896c4.096-4.096 10.24-8.192 20.48-8.192 6.144 0 12.288 2.048 18.432 6.144l1.024 1.024 482.304 465.92c6.144 5.12 10.24 13.312 10.24 21.504 1.024 7.168-2.048 15.36-7.168 20.48z" />
<glyph unicode="&#xe906;" glyph-name="info" d="M522.24 552.448h-20.48c-14.336 0-25.6-7.168-25.6-16.384v-374.784c0-9.216 11.264-16.384 25.6-16.384h20.48c14.336 0 25.6 7.168 25.6 16.384v373.76c0 10.24-11.264 17.408-25.6 17.408zM522.24 750.080h-20.48c-14.336 0-25.6-11.264-25.6-25.6v-61.44c0-14.336 11.264-25.6 25.6-25.6h20.48c14.336 0 25.6 11.264 25.6 25.6v61.44c0 14.336-11.264 25.6-25.6 25.6zM512 958.976c-282.624 0-510.976-228.352-510.976-510.976s228.352-510.976 510.976-510.976 510.976 228.352 510.976 510.976-228.352 510.976-510.976 510.976zM512-8.704c-252.928 0-456.704 204.8-456.704 456.704s203.776 456.704 456.704 456.704 456.704-204.8 456.704-456.704c0-252.928-203.776-456.704-456.704-456.704z" />
<glyph unicode="&#xe907;" glyph-name="view" d="M881.664 589.312v0c-204.8 203.776-537.6 203.776-741.376 0l-140.288-139.264 143.36-143.36c99.328-99.328 230.4-153.6 371.712-153.6 140.288 0 272.384 54.272 371.712 153.6l137.216 139.264-142.336 143.36zM177.152 341.504l-107.52 108.544 106.496 106.496c185.344 185.344 486.4 185.344 671.744 0l107.52-108.544-106.496-106.496c-185.344-184.32-486.4-184.32-671.744 0zM512 676.352c-125.952 0-228.352-102.4-228.352-228.352s102.4-228.352 228.352-228.352c125.952 0 228.352 102.4 228.352 228.352s-102.4 228.352-228.352 228.352zM512 269.824c-98.304 0-178.176 79.872-178.176 178.176s79.872 178.176 178.176 178.176 178.176-79.872 178.176-178.176-79.872-178.176-178.176-178.176z" />
<glyph unicode="&#xe908;" glyph-name="heart" d="M1018.88 637.44c-11.264 146.432-135.168 264.192-282.624 268.288-82.944 3.072-166.912-32.768-224.256-94.208-58.368 62.464-139.264 97.28-224.256 94.208-147.456-4.096-271.36-121.856-282.624-268.288-1.024-12.288-1.024-25.6-1.024-37.888 2.048-52.224 24.576-104.448 62.464-146.432l401.408-444.416c11.264-12.288 27.648-19.456 44.032-19.456s32.768 7.168 45.056 19.456l400.384 444.416c37.888 41.984 59.392 93.184 62.464 146.432 0 12.288 0 25.6-1.024 37.888zM507.904 46.592l-400.384 444.416c-28.672 31.744-46.080 71.68-48.128 111.616 0 10.24 0 20.48 1.024 30.72 9.216 117.76 109.568 214.016 228.352 217.088 2.048 0 5.12 0 7.168 0 75.776 0 148.48-36.864 192.512-99.328 5.12-7.168 13.312-11.264 22.528-11.264s17.408 4.096 22.528 11.264c46.080 64.512 120.832 101.376 200.704 99.328 118.784-4.096 219.136-99.328 229.376-217.088 1.024-10.24 1.024-20.48 1.024-30.72v0c-2.048-39.936-18.432-79.872-48.128-111.616l-400.384-444.416c-2.048-2.048-7.168-1.024-8.192 0z" />
<glyph unicode="&#xe909;" glyph-name="grid-2-columns" d="M239.13 408.615c-132.201 0-239.13-106.929-239.13-236.308s106.929-236.308 236.308-236.308 236.308 106.929 236.308 236.308-104.107 236.308-233.485 236.308zM239.13 1.641c-93.412 0-170.667 77.33-170.667 170.667s77.33 170.667 170.667 170.667 170.667-77.33 170.667-170.667c-3.231-93.412-77.33-170.667-170.667-170.667zM787.692 408.615c-129.378 0-236.308-106.929-236.308-236.308s106.929-236.308 236.308-236.308 236.308 106.929 236.308 236.308-106.929 236.308-236.308 236.308zM787.692 1.641c-93.412 0-170.667 77.33-170.667 170.667s77.33 170.667 170.667 170.667c93.412 0 170.667-77.33 170.667-170.667s-77.33-170.667-170.667-170.667zM239.13 960c-132.201 0-239.13-106.929-239.13-239.13s106.929-236.308 236.308-236.308 236.308 106.929 236.308 236.308-104.107 239.13-233.485 239.13zM239.13 553.026c-93.412 0-170.667 77.33-170.667 170.667s77.33 170.667 170.667 170.667 170.667-77.33 170.667-170.667-77.33-170.667-170.667-170.667zM787.692 960c-129.378 0-236.308-106.929-236.308-236.308s106.929-236.308 236.308-236.308 236.308 106.929 236.308 236.308-106.929 236.308-236.308 236.308zM787.692 553.026c-93.412 0-170.667 77.33-170.667 170.667s77.33 170.667 170.667 170.667c93.412 0 170.667-77.33 170.667-170.667s-77.33-170.667-170.667-170.667z" />
<glyph unicode="&#xe90a;" glyph-name="delete" d="M557.056 448l457.728 456.704c6.144 6.144 9.216 14.336 9.216 23.552 0 8.192-3.072 16.384-9.216 22.528-6.144 5.12-14.336 9.216-22.528 9.216 0 0 0 0 0 0-8.192 0-17.408-3.072-22.528-9.216l-457.728-457.728-456.704 457.728c-12.288 12.288-32.768 12.288-45.056 0-7.168-6.144-10.24-14.336-10.24-22.528 0-9.216 3.072-17.408 9.216-23.552l457.728-456.704-457.728-456.704c-6.144-6.144-9.216-14.336-9.216-23.552s3.072-16.384 9.216-22.528c12.288-12.288 32.768-12.288 45.056 0l457.728 457.728 456.704-456.704c6.144-6.144 14.336-9.216 22.528-9.216s16.384 3.072 22.528 9.216c6.144 6.144 9.216 14.336 9.216 22.528s-3.072 16.384-9.216 22.528l-456.704 456.704z" />
<glyph unicode="&#xe90b;" glyph-name="zoom" d="M1014.784-12.8l-263.168 262.144c67.584 78.848 104.448 178.176 104.448 280.576 0 235.52-191.488 428.032-428.032 428.032-235.52 0-427.008-191.488-427.008-427.008s191.488-428.032 428.032-428.032c103.424 0 201.728 36.864 280.576 105.472l263.168-262.144c6.144-6.144 13.312-9.216 20.48-9.216s14.336 3.072 19.456 8.192c6.144 5.12 9.216 12.288 10.24 20.48 0 8.192-3.072 16.384-8.192 21.504zM797.696 529.92c0-202.752-165.888-368.64-369.664-368.64-202.752 0-368.64 165.888-368.64 369.664 0 202.752 165.888 368.64 369.664 368.64s368.64-165.888 368.64-369.664z" />
<glyph unicode="&#xe90c;" glyph-name="shopping-cart" d="M1013.76 778.752c-4.096 4.096-10.24 10.24-21.504 10.24h-788.48l-20.48 102.4c-1.024 12.288-16.384 22.528-26.624 22.528h-125.952c-16.384 0-26.624-11.264-26.624-26.624s11.264-27.648 26.624-27.648h103.424l99.328-504.832c13.312-68.608 78.848-121.856 148.48-121.856h481.28c16.384 0 26.624 11.264 26.624 26.624s-11.264 26.624-26.624 26.624h-476.16c-29.696 0-57.344 13.312-72.704 34.816l600.064 81.92c11.264 0 22.528 10.24 22.528 22.528l83.968 333.824v1.024c-1.024 2.048-1.024 12.288-7.168 18.432zM955.392 738.816l-68.608-285.696-600.064-77.824-72.704 363.52h741.376zM365.568 203.264c-62.464 0-110.592-48.128-110.592-110.592s48.128-110.592 110.592-110.592c62.464 0 110.592 48.128 110.592 110.592s-48.128 110.592-110.592 110.592zM421.888 92.672c0-29.696-26.624-56.32-56.32-56.32s-56.32 26.624-56.32 56.32 26.624 56.32 56.32 56.32 56.32-26.624 56.32-56.32zM783.36 203.264c-62.464 0-110.592-48.128-110.592-110.592s48.128-110.592 110.592-110.592c62.464 0 110.592 48.128 110.592 110.592s-48.128 110.592-110.592 110.592zM840.704 92.672c0-29.696-26.624-56.32-56.32-56.32s-57.344 25.6-57.344 56.32 26.624 56.32 56.32 56.32 57.344-26.624 57.344-56.32z" />
<glyph unicode="&#xe90d;" glyph-name="shopping-cart-2" d="M4.096 761.344v-1.024l83.968-333.824c0-11.264 11.264-22.528 22.528-22.528l600.064-81.92c-16.384-21.504-44.032-34.816-72.704-34.816h-477.184c-16.384 0-26.624-11.264-26.624-26.624s11.264-26.624 26.624-26.624h481.28c70.656 0 135.168 53.248 148.48 121.856l99.328 504.832h103.424c16.384 0 26.624 11.264 26.624 26.624s-11.264 26.624-26.624 26.624h-125.952c-10.24 0-26.624-10.24-26.624-22.528l-19.456-103.424h-790.528c-11.264 0-16.384-6.144-21.504-10.24-5.12-5.12-5.12-15.36-5.12-16.384zM809.984 738.816l-72.704-363.52-601.088 77.824-67.584 285.696h741.376zM547.84 92.672c0-62.464 48.128-110.592 110.592-110.592s110.592 48.128 110.592 110.592c0 62.464-48.128 110.592-110.592 110.592s-110.592-48.128-110.592-110.592zM658.432 148.992c29.696 0 56.32-26.624 56.32-56.32s-26.624-56.32-56.32-56.32-56.32 26.624-56.32 56.32 25.6 56.32 56.32 56.32zM129.024 92.672c0-62.464 48.128-110.592 110.592-110.592s110.592 48.128 110.592 110.592c0 62.464-48.128 110.592-110.592 110.592-61.44 0-110.592-48.128-110.592-110.592zM240.64 148.992c29.696 0 56.32-26.624 56.32-56.32s-26.624-56.32-56.32-56.32-56.32 26.624-56.32 56.32 25.6 56.32 56.32 56.32z" />
<glyph unicode="&#xe90e;" glyph-name="star" d="M1017.856 566.784c-7.168 21.504-24.576 36.864-47.104 39.936l-281.6 40.96-124.928 256c-10.24 20.48-29.696 32.768-52.224 32.768s-41.984-12.288-52.224-32.768l-125.952-256-281.6-40.96c-21.504-3.072-39.936-18.432-47.104-39.936s-1.024-45.056 15.36-61.44l202.752-197.632-48.128-279.552c-3.072-17.408 2.048-34.816 13.312-48.128 17.408-20.48 47.104-26.624 70.656-14.336l252.928 134.144 252.928-133.12c8.192-4.096 17.408-6.144 26.624-6.144 17.408 0 32.768 7.168 44.032 20.48s16.384 30.72 13.312 48.128l-48.128 280.576 202.752 197.632c16.384 15.36 21.504 37.888 14.336 59.392zM230.4 18.944l51.2 294.912c2.048 9.216-1.024 18.432-8.192 24.576l-212.992 207.872c0 0-1.024 1.024-1.024 3.072 0 1.024 1.024 1.024 1.024 1.024l295.936 43.008c9.216 1.024 17.408 7.168 21.504 15.36l133.12 271.36c0 1.024 1.024 2.048 1.024 2.048s1.024-1.024 1.024-2.048l133.12-269.312c4.096-8.192 12.288-14.336 21.504-15.36l295.936-43.008c0 0 1.024 0 1.024-2.048 1.024-2.048 0-3.072-1.024-3.072l-212.992-208.896c-6.144-6.144-9.216-15.36-8.192-24.576l51.2-294.912c0-1.024 0-2.048-1.024-3.072v0l-267.264 140.288c-8.192 4.096-18.432 4.096-26.624 0l-267.264-139.264c-1.024 1.024-1.024 1.024-1.024 2.048z" />
<glyph unicode="&#xe90f;" glyph-name="360-degrees" d="M704.512 310.784c55.296 0 99.328 45.056 99.328 99.328v107.52c0 26.624-10.24 51.2-28.672 70.656-18.432 18.432-44.032 28.672-70.656 28.672-55.296 0-99.328-45.056-99.328-99.328v-72.704c-4.096 18.432-13.312 35.84-27.648 49.152-19.456 19.456-45.056 29.696-72.704 29.696-14.336 0-28.672-3.072-41.984-9.216 1.024 22.528 19.456 40.96 41.984 40.96 9.216 0 18.432-3.072 26.624-9.216 6.144-5.12 14.336-7.168 22.528-6.144s15.36 5.12 20.48 11.264c5.12 6.144 7.168 14.336 6.144 22.528s-5.12 15.36-11.264 20.48c-18.432 14.336-39.936 21.504-63.488 21.504-56.32 0-103.424-46.080-103.424-103.424v-77.824c-4.096 25.6-18.432 49.152-39.936 65.536 7.168 11.264 10.24 24.576 10.24 38.912 0 41.984-34.816 76.8-76.8 76.8-18.432 0-36.864-7.168-51.2-19.456-6.144-5.12-9.216-12.288-10.24-20.48 0-8.192 2.048-15.36 7.168-21.504s12.288-9.216 20.48-10.24 15.36 2.048 21.504 7.168c3.072 3.072 7.168 4.096 10.24 4.096 9.216 0 16.384-7.168 16.384-16.384s-7.168-16.384-16.384-16.384c-16.384 0-30.72-13.312-30.72-30.72 0-16.384 13.312-30.72 30.72-30.72 25.6 0 47.104-20.48 47.104-47.104 0-25.6-20.48-47.104-47.104-47.104-15.36 0-28.672 7.168-37.888 18.432-10.24 13.312-28.672 16.384-41.984 6.144s-16.384-28.672-6.144-41.984c20.48-27.648 51.2-43.008 86.016-43.008 54.272 0 98.304 39.936 106.496 92.16 5.12-51.2 49.152-92.16 102.4-92.16 50.176 0 93.184 36.864 101.376 84.992 9.216-44.032 51.2-80.896 100.352-80.896zM743.424 410.112c0-21.504-17.408-38.912-38.912-38.912s-38.912 17.408-38.912 38.912v107.52c0 21.504 17.408 38.912 38.912 38.912s38.912-17.408 38.912-38.912v-107.52zM504.832 371.2c-23.552 0-41.984 19.456-41.984 41.984v8.192c0 23.552 19.456 41.984 41.984 41.984s41.984-19.456 41.984-41.984v-8.192c1.024-23.552-18.432-41.984-41.984-41.984zM195.584 131.584c-83.968 84.992-131.072 197.632-131.072 316.416s46.080 231.424 131.072 316.416 197.632 131.072 316.416 131.072c83.968 0 164.864-22.528 235.52-66.56-6.144-4.096-11.264-10.24-12.288-17.408-2.048-8.192-1.024-16.384 3.072-22.528 4.096-7.168 10.24-12.288 18.432-14.336l100.352-26.624c3.072-1.024 5.12-1.024 8.192-1.024 9.216 0 17.408 4.096 23.552 11.264 7.168 9.216 9.216 21.504 3.072 32.768l-47.104 93.184c-4.096 7.168-10.24 12.288-17.408 15.36s-16.384 2.048-23.552-2.048c-7.168-4.096-12.288-10.24-15.36-17.408 0-2.048 0-3.072-1.024-5.12-80.896 53.248-176.128 80.896-275.456 80.896-135.168 0-263.168-52.224-358.4-148.48s-149.504-223.232-149.504-359.424 53.248-263.168 149.504-358.4c6.144-6.144 13.312-9.216 21.504-9.216s15.36 3.072 21.504 9.216c6.144 6.144 9.216 13.312 9.216 21.504-1.024 8.192-4.096 15.36-10.24 20.48zM983.040 363.008c-8.192 2.048-16.384 1.024-22.528-3.072-7.168-4.096-11.264-11.264-13.312-18.432-2.048-9.216-5.12-18.432-8.192-27.648-2.048-8.192-2.048-16.384 2.048-23.552s10.24-12.288 17.408-15.36c3.072-1.024 6.144-1.024 9.216-1.024 13.312 0 24.576 8.192 28.672 21.504 3.072 10.24 6.144 20.48 9.216 31.744 2.048 8.192 1.024 16.384-3.072 22.528-5.12 6.144-11.264 11.264-19.456 13.312zM882.688 699.904v0c5.12-8.192 10.24-16.384 15.36-24.576 5.12-9.216 15.36-15.36 26.624-15.36 5.12 0 11.264 1.024 15.36 4.096 14.336 8.192 19.456 26.624 11.264 40.96-5.12 9.216-11.264 18.432-17.408 27.648-4.096 6.144-11.264 11.264-19.456 12.288-8.192 2.048-16.384 0-22.528-5.12-15.36-8.192-18.432-26.624-9.216-39.936zM277.504 67.072v0l-2.048 2.048h-1.024c-8.192 5.12-15.36 10.24-23.552 15.36-6.144 5.12-14.336 6.144-22.528 5.12s-15.36-5.12-19.456-12.288c-10.24-13.312-6.144-32.768 7.168-41.984 9.216-6.144 18.432-12.288 26.624-18.432 5.12-3.072 10.24-4.096 16.384-4.096 10.24 0 20.48 5.12 25.6 14.336 8.192 13.312 5.12 30.72-7.168 39.936zM976.896 561.664v0c-8.192-1.024-15.36-6.144-19.456-12.288s-6.144-14.336-5.12-22.528c2.048-9.216 3.072-19.456 4.096-28.672 2.048-15.36 14.336-26.624 29.696-26.624 1.024 0 2.048 0 3.072 0 8.192 1.024 15.36 5.12 20.48 11.264s7.168 14.336 6.144 22.528c-1.024 11.264-3.072 21.504-4.096 32.768-1.024 8.192-6.144 14.336-12.288 19.456-6.144 4.096-14.336 6.144-22.528 4.096zM359.424 28.16v0c-9.216 3.072-18.432 7.168-26.624 11.264-15.36 7.168-32.768 0-39.936-15.36-3.072-7.168-3.072-15.36 0-23.552 3.072-7.168 8.192-13.312 16.384-16.384 10.24-4.096 20.48-8.192 30.72-12.288 3.072-1.024 7.168-2.048 10.24-2.048 12.288 0 24.576 8.192 28.672 19.456 3.072 7.168 2.048 15.36-1.024 23.552-5.12 7.168-11.264 12.288-18.432 15.36zM926.72 640.512v0c-3.072-7.168-3.072-15.36 0-23.552 4.096-9.216 7.168-18.432 10.24-26.624 4.096-12.288 15.36-20.48 28.672-20.48 3.072 0 6.144 1.024 9.216 2.048 15.36 5.12 24.576 22.528 19.456 37.888-3.072 10.24-7.168 20.48-11.264 30.72-3.072 7.168-9.216 13.312-16.384 16.384s-15.36 3.072-23.552 0c-7.168-4.096-13.312-9.216-16.384-16.384zM955.392 266.752v0c-15.36 7.168-33.792 1.024-40.96-13.312-4.096-8.192-9.216-17.408-13.312-25.6-4.096-7.168-5.12-15.36-3.072-22.528 2.048-8.192 7.168-14.336 14.336-18.432 4.096-3.072 10.24-4.096 15.36-4.096 11.264 0 20.48 6.144 26.624 15.36s10.24 19.456 15.36 28.672c4.096 7.168 4.096 15.36 1.024 23.552-3.072 6.144-8.192 12.288-15.36 16.384zM822.272 113.152c-8.192 1.024-16.384-2.048-22.528-7.168-7.168-6.144-15.36-12.288-22.528-18.432-13.312-10.24-16.384-28.672-6.144-41.984 5.12-8.192 14.336-12.288 24.576-12.288 6.144 0 12.288 2.048 18.432 6.144 9.216 6.144 17.408 13.312 25.6 20.48 6.144 5.12 10.24 12.288 10.24 20.48s-2.048 16.384-7.168 22.528c-5.12 5.12-12.288 9.216-20.48 10.24zM907.264 178.688c-6.144 5.12-14.336 7.168-22.528 6.144s-15.36-5.12-20.48-11.264c-6.144-7.168-12.288-15.36-18.432-22.528-5.12-6.144-8.192-13.312-7.168-21.504 0-8.192 4.096-15.36 10.24-20.48 5.12-5.12 12.288-7.168 20.48-7.168s17.408 4.096 22.528 10.24c7.168 8.192 14.336 16.384 20.48 25.6 5.12 6.144 7.168 14.336 6.144 22.528-1.024 6.144-4.096 13.312-11.264 18.432zM745.472 55.808v0c-8.192 2.048-16.384 2.048-22.528-2.048-8.192-4.096-17.408-9.216-25.6-12.288-7.168-3.072-13.312-9.216-15.36-17.408-3.072-7.168-3.072-15.36 1.024-23.552 5.12-11.264 15.36-17.408 27.648-17.408 4.096 0 8.192 1.024 12.288 3.072 10.24 4.096 19.456 9.216 29.696 14.336 14.336 8.192 20.48 26.624 12.288 40.96-5.12 7.168-11.264 12.288-19.456 14.336zM659.456 15.872v0c-7.168 4.096-15.36 5.12-22.528 3.072-9.216-3.072-18.432-5.12-27.648-7.168-8.192-2.048-14.336-6.144-19.456-13.312-4.096-7.168-6.144-15.36-4.096-22.528 3.072-13.312 15.36-23.552 29.696-23.552 2.048 0 4.096 0 6.144 1.024 10.24 2.048 21.504 5.12 31.744 8.192 8.192 2.048 14.336 7.168 18.432 14.336s5.12 15.36 3.072 22.528c-4.096 7.168-9.216 13.312-15.36 17.408zM450.56 5.632v0c-9.216 1.024-19.456 3.072-28.672 5.12-8.192 2.048-16.384 0-22.528-4.096-7.168-4.096-11.264-11.264-13.312-19.456s0-16.384 4.096-22.528 11.264-11.264 19.456-13.312c10.24-2.048 21.504-4.096 32.768-5.12 1.024 0 3.072 0 4.096 0 15.36 0 27.648 11.264 29.696 26.624 2.048 14.336-9.216 29.696-25.6 32.768zM565.248-5.632v0c-6.144 5.12-14.336 8.192-21.504 7.168-9.216-1.024-19.456-1.024-28.672-1.024-8.192 0-15.36-3.072-21.504-9.216-5.12-6.144-9.216-13.312-9.216-21.504 0-16.384 13.312-29.696 30.72-29.696 11.264 0 21.504 0 32.768 1.024 16.384 1.024 28.672 15.36 27.648 32.768 0 8.192-4.096 15.36-10.24 20.48zM1011.712 453.12c-4.096 4.096-10.24 8.192-16.384 9.216v0h-10.24c-14.336-2.048-25.6-14.336-26.624-28.672 0-9.216-1.024-19.456-2.048-28.672-1.024-8.192 2.048-16.384 7.168-22.528s12.288-10.24 20.48-11.264c1.024 0 2.048 0 3.072 0 15.36 0 28.672 11.264 29.696 27.648 1.024 11.264 2.048 21.504 2.048 32.768 1.024 8.192-2.048 15.36-7.168 21.504z" />
<glyph unicode="&#xe910;" glyph-name="plus" d="M1003.52 473.6h-465.92v465.92c0 11.264-9.216 20.48-20.48 20.48h-10.24c-11.264 0-20.48-9.216-20.48-20.48v-465.92h-465.92c-11.264 0-20.48-9.216-20.48-20.48v-10.24c0-11.264 9.216-20.48 20.48-20.48h465.92v-465.92c0-11.264 9.216-20.48 20.48-20.48h10.24c11.264 0 20.48 9.216 20.48 20.48v465.92h465.92c11.264 0 20.48 9.216 20.48 20.48v10.24c0 11.264-9.216 20.48-20.48 20.48z" />
<glyph unicode="&#xe911;" glyph-name="transfer" d="M1020.928 676.352v0c-1.024 1.024-2.048 3.072-3.072 5.12l-1.024 1.024c0 1.024-1.024 2.048-3.072 3.072l-182.272 182.272c-10.24 10.24-28.672 10.24-38.912 0s-10.24-28.672 0-38.912l137.216-137.216h-717.824c-15.36 0-27.648-12.288-27.648-27.648 0-16.384 11.264-27.648 27.648-27.648h717.824l-136.192-135.168c-5.12-5.12-8.192-12.288-8.192-19.456s3.072-14.336 8.192-19.456c5.12-5.12 12.288-8.192 18.432-8.192s13.312 3.072 18.432 8.192l183.296 183.296c2.048 2.048 4.096 4.096 7.168 9.216 3.072 6.144 3.072 14.336 0 21.504zM812.032 257.536h-717.824l137.216 137.216c10.24 10.24 10.24 28.672 0 38.912s-28.672 10.24-38.912 0l-184.32-183.296c-2.048-2.048-4.096-4.096-6.144-8.192-3.072-7.168-3.072-15.36 0-22.528 1.024-1.024 3.072-5.12 7.168-9.216l182.272-182.272c5.12-5.12 12.288-8.192 18.432-8.192s14.336 3.072 18.432 8.192c10.24 10.24 10.24 28.672 0 38.912l-135.168 136.192h717.824c15.36 0 27.648 12.288 27.648 25.6 1.024 7.168-1.024 13.312-6.144 20.48-5.12 5.12-11.264 8.192-20.48 8.192z" />
<glyph unicode="&#xe912;" glyph-name="minus" d="M1003.52 473.6h-983.040c-11.264 0-20.48-9.216-20.48-20.48v-10.24c0-11.264 9.216-20.48 20.48-20.48h983.040c11.264 0 20.48 9.216 20.48 20.48v10.24c0 11.264-9.216 20.48-20.48 20.48z" />
<glyph unicode="&#xe913;" glyph-name="grid-4-columns" d="M115.231 429.702c-62.344 0-113.87-51.526-113.87-113.871s50.166-115.231 113.87-115.231 113.871 51.526 113.871 113.871-51.526 115.231-113.871 115.231zM115.231 252.226c-34.796 0-63.573 28.805-63.573 63.573s28.805 63.573 63.573 63.573 63.573-28.805 63.573-63.573c-1.204-34.796-28.805-63.573-63.573-63.573zM379.568 429.702c-62.344 0-113.871-51.526-113.871-113.871s51.526-115.231 113.871-115.231 113.87 51.526 113.87 113.871-51.526 115.231-113.87 115.231zM379.568 252.226c-34.796 0-63.573 28.805-63.573 63.573s28.805 63.573 63.573 63.573c34.796 0 63.573-28.805 63.573-63.573s-28.805-63.573-63.573-63.573zM643.906 429.702c-62.344 0-113.87-51.526-113.87-113.871s51.526-113.871 113.87-113.871 113.871 51.526 113.871 113.871-50.166 113.871-113.871 113.871zM643.906 252.226c-34.796 0-63.573 28.805-63.573 63.573s28.805 63.573 63.573 63.573c34.796 0 63.573-28.805 63.573-63.573s-28.805-63.573-63.573-63.573zM115.231 694.039c-63.704 0-115.231-51.526-115.231-113.871s51.526-113.871 113.87-113.871 113.87 51.526 113.87 113.871-50.166 113.871-112.51 113.871zM115.231 516.67c-34.755 0-63.499 28.772-63.499 63.499s28.772 63.499 63.499 63.499 63.499-28.772 63.499-63.499c-1.202-34.755-28.772-63.499-63.499-63.499zM379.568 694.039c-62.344 0-113.871-51.526-113.871-113.871s51.526-113.871 113.871-113.871 113.87 51.526 113.87 113.871-51.526 113.871-113.87 113.871zM379.568 516.611c-34.788 0-63.558 28.799-63.558 63.558s28.799 63.558 63.558 63.558c34.788 0 63.558-28.799 63.558-63.558s-28.799-63.558-63.558-63.558zM643.906 694.039c-62.344 0-113.87-51.526-113.87-113.871s51.526-113.871 113.87-113.871 115.231 51.526 115.231 113.871-51.526 113.871-115.231 113.871zM643.906 516.561c-34.815 0-63.608 28.821-63.608 63.608s28.821 63.608 63.608 63.608c34.815 0 63.608-28.821 63.608-63.608s-28.821-63.608-63.608-63.608zM115.231 959.737c-63.704 0-115.231-51.526-115.231-115.231s51.526-113.87 113.87-113.87 113.87 51.526 113.87 113.87-50.166 115.231-112.51 115.231zM115.231 782.347c-34.767 0-63.52 28.781-63.52 63.52s28.781 63.52 63.52 63.52 63.52-28.781 63.52-63.52-28.781-63.52-63.52-63.52zM379.568 959.737c-62.344 0-113.871-51.526-113.871-113.87s51.526-113.87 113.871-113.87 113.87 51.526 113.87 113.87-51.526 113.87-113.87 113.87zM379.568 782.108c-34.897 0-63.759 28.889-63.759 63.759s28.889 63.759 63.759 63.759c34.897 0 63.759-28.889 63.759-63.759s-28.889-63.759-63.759-63.759zM643.906 730.636c62.344 0 113.871 51.526 113.871 113.87s-50.166 115.231-113.871 115.231c-63.704 0-113.87-51.526-113.87-113.87s51.526-115.231 113.87-115.231zM643.906 908.145c34.814 0 63.606-28.82 63.606-63.606s-28.82-63.606-63.606-63.606c-34.814 0-63.606 28.82-63.606 63.606s28.82 63.606 63.606 63.606zM910.129 429.702c-62.344 0-113.87-51.526-113.87-113.871s50.166-115.231 113.87-115.231c63.704 0 113.871 51.526 113.871 113.871s-51.526 115.231-113.871 115.231zM910.129 252.226c-34.796 0-63.573 28.805-63.573 63.573s28.805 63.573 63.573 63.573 63.573-28.805 63.573-63.573c-1.204-34.796-28.805-63.573-63.573-63.573zM910.129 694.039c-63.704 0-115.231-51.526-115.231-113.871s51.526-113.871 113.87-113.871 113.871 51.526 113.871 113.871-50.166 113.871-112.51 113.871zM910.129 516.679c-34.75 0-63.49 28.767-63.49 63.49s28.767 63.49 63.49 63.49 63.49-28.767 63.49-63.49c-1.202-34.75-28.767-63.49-63.49-63.49zM910.129 959.737c-63.704 0-115.231-51.526-115.231-115.231s51.526-113.87 113.87-113.87 113.871 51.526 113.871 113.87-50.166 115.231-112.51 115.231zM910.129 782.108c-34.897 0-63.759 28.889-63.759 63.759s28.889 63.759 63.759 63.759 63.759-28.889 63.759-63.759-28.889-63.759-63.759-63.759zM115.231 165.364c-62.344 0-113.87-51.526-113.87-113.871s50.166-115.231 113.87-115.231 113.871 51.526 113.871 113.87c0 62.344-51.526 115.231-113.871 115.231zM115.231-12.112c-34.796 0-63.573 28.805-63.573 63.573s28.805 63.573 63.573 63.573 63.573-28.805 63.573-63.573c-1.204-34.796-28.805-63.573-63.573-63.573zM379.568 165.364c-62.344 0-113.871-51.526-113.871-113.871s51.526-115.231 113.871-115.231 113.87 51.526 113.87 113.87c0 62.344-51.526 115.231-113.87 115.231zM379.568-12.112c-34.796 0-63.573 28.805-63.573 63.573s28.805 63.573 63.573 63.573c34.796 0 63.573-28.805 63.573-63.573s-28.805-63.573-63.573-63.573zM643.906 165.364c-62.344 0-113.87-51.526-113.87-113.871s51.526-113.87 113.87-113.87 113.871 51.526 113.871 113.87c0 62.344-50.166 113.871-113.871 113.871zM643.906-12.111c-34.796 0-63.573 28.805-63.573 63.573s28.805 63.573 63.573 63.573c34.796 0 63.573-28.805 63.573-63.573s-28.805-63.573-63.573-63.573zM910.129 165.364c-62.344 0-113.87-51.526-113.87-113.871s50.166-115.231 113.87-115.231c63.704 0 113.871 51.526 113.871 113.87s-51.526 115.231-113.871 115.231zM910.129-12.112c-34.796 0-63.573 28.805-63.573 63.573s28.805 63.573 63.573 63.573 63.573-28.805 63.573-63.573c-1.204-34.796-28.805-63.573-63.573-63.573z" />
<glyph unicode="&#xe914;" glyph-name="downloads" d="M512.090 960c15.312 0 27.739-14.336 27.739-32.005v-661.336c0-17.664-12.427-32-27.739-32s-27.738 14.336-27.738 32v661.336c0 17.669 12.426 32.005 27.738 32.005zM512.106 960c8.195 0 16.383-3.119 22.617-9.393l167.606-167.606c0 0 16.895-20.851 0.154-40.009-11.632-13.311-29.862-11.011-42.37 1.489l-148.114 157.226-147.988-157.226c-12.5-12.5-30.248-14.774-42.748-2.274-21.267 22.153 3.332 43.595 3.332 43.595l164.815 164.806c6.312 6.274 14.5 9.393 22.696 9.393zM906.667-64h-789.331c-64.803 0-117.336 52.533-117.336 117.336v192.001c0 0 6.201 31.597 26.368 32 20.316 0.406 32-14.336 32-32v-170.598c0-43.755 35.8-79.555 79.555-79.555h748.401c44.979 0 81.781 36.801 81.781 81.781v168.373c0 17.664 14.652 35.326 32.005 32 23.89-4.578 23.89-26.17 23.89-26.17v-197.835c0-64.801-52.532-117.333-117.333-117.333z" />
<glyph unicode="&#xe915;" glyph-name="compare" d="M952.32 698.88c9.216 39.936 28.672 119.808 33.792 159.744 2.048 16.384-2.048 27.648-17.408 31.744-16.384 5.12-26.624-3.072-33.792-21.504-9.216-24.576-24.576-105.472-24.576-105.472-66.56 86.016-167.936 151.552-278.528 179.2l-4.096 1.024c-132.096 31.744-266.24 8.192-380.928-60.416-228.352-139.264-290.816-405.504-216.064-608.256 3.072-7.168 11.264-13.312 20.48-15.36 7.168-2.048 14.336 1.024 19.456 3.072l1.024 1.024c13.312 6.144 19.456 21.504 12.288 37.888-65.536 187.392 0 415.744 198.656 533.504 100.352 59.392 215.040 77.824 333.824 49.152 89.088-21.504 183.296-75.776 241.664-153.6 0 0-81.92 0-109.568-1.024-20.48 0-30.72-5.12-33.792-19.456-4.096-15.36 4.096-31.744 19.456-32.768 50.176-3.072 181.248-4.096 181.248-4.096 5.12 0 6.144 0 12.288 1.024s13.312 6.144 17.408 11.264c3.072 5.12 7.168 13.312 7.168 13.312zM68.608 194.048c-9.216-39.936-27.648-119.808-33.792-159.744-2.048-16.384 2.048-27.648 17.408-31.744 16.384-4.096 26.624 4.096 33.792 22.528 9.216 24.576 24.576 105.472 24.576 105.472 66.56-86.016 168.96-151.552 279.552-179.2l4.096-1.024c132.096-31.744 266.24-8.192 380.928 60.416 228.352 138.24 290.816 405.504 216.064 608.256-3.072 7.168-11.264 13.312-20.48 15.36-7.168 2.048-14.336-1.024-19.456-3.072l-1.024-1.024c-13.312-6.144-19.456-21.504-12.288-37.888 65.536-187.392 0-415.744-198.656-533.504-100.352-59.392-215.040-77.824-333.824-49.152-89.088 21.504-183.296 75.776-241.664 153.6 0 0 81.92 0 109.568 1.024 20.48 0 30.72 5.12 33.792 19.456 4.096 15.36-4.096 31.744-19.456 32.768-50.176 3.072-181.248 4.096-181.248 4.096-5.12 0-6.144 0-12.288-1.024s-13.312-6.144-17.408-11.264c-3.072-5.12-8.192-14.336-8.192-14.336z" />
<glyph unicode="&#xe916;" glyph-name="shopping-basket" d="M1020.928 569.856c1.024 16.384-5.12 32.768-17.408 45.056s-28.672 19.456-47.104 19.456h-186.368l-235.52 314.368c-4.096 6.144-12.288 10.24-20.48 10.24s-15.36-4.096-19.456-10.24l-235.52-314.368h-190.464c-35.84 0-64.512-28.672-64.512-64.512v-80.896c0-35.84 28.672-64.512 64.512-64.512h19.456l65.536-398.336c8.192-51.2 51.2-88.064 103.424-88.064h510.976c51.2 0 95.232 36.864 103.424 88.064l65.536 398.336h19.456c35.84 0 64.512 28.672 64.512 64.512v80.896zM52.224 569.856c0 8.192 7.168 15.36 16.384 15.36h153.6l-8.192-11.264c-1.024 0-2.048 0-3.072 0-24.576 0-45.056-20.48-45.056-45.056s20.48-45.056 45.056-45.056c24.576 0 45.056 20.48 45.056 45.056 0 5.12-1.024 11.264-3.072 16.384l30.72 40.96h461.824l30.72-40.96c-2.048-4.096-3.072-9.216-3.072-16.384 0-24.576 20.48-45.056 45.056-45.056s45.056 20.48 45.056 45.056c0 24.576-20.48 45.056-45.056 45.056-1.024 0-2.048 0-3.072 0l-8.192 11.264h153.6c8.192 0 16.384-8.192 16.384-16.384v-79.872c0-8.192-8.192-16.384-16.384-16.384h-891.904c-8.192 0-16.384 8.192-16.384 16.384v80.896zM320.512 634.368l193.536 259.072 194.56-259.072h-388.096zM138.24 423.424h753.664l-65.536-390.144c-5.12-27.648-28.672-47.104-55.296-47.104h-512c-27.648 0-51.2 20.48-55.296 47.104l-65.536 390.144zM514.048 946.688v0 0 0zM676.864 17.92c13.312 0 24.576 11.264 24.576 24.576v324.608c0 13.312-11.264 24.576-24.576 24.576s-24.576-11.264-24.576-24.576v-324.608c0-13.312 11.264-24.576 24.576-24.576zM353.28 17.92c13.312 0 24.576 11.264 24.576 24.576v324.608c0 13.312-11.264 24.576-24.576 24.576s-24.576-11.264-24.576-24.576v-324.608c0-13.312 11.264-24.576 24.576-24.576zM515.072 17.92c13.312 0 24.576 11.264 24.576 24.576v324.608c0 13.312-11.264 24.576-24.576 24.576s-24.576-11.264-24.576-24.576v-324.608c0-13.312 11.264-24.576 24.576-24.576z" />
<glyph unicode="&#xe917;" glyph-name="loader-gif" d="M47.628 448c0-256.397 207.975-464.372 464.372-464.372 30.958 0 61.122 3.175 89.699 8.732l13.495-46.040c-33.34-7.144-68.267-10.319-103.194-10.319-282.592 0-512 229.408-512 512s229.408 512 512 512c146.059 0 277.036-61.122 370.704-158.76l-34.927-32.546c-84.936 88.905-204.006 143.678-335.777 143.678-256.397 0-464.372-207.975-464.372-464.372z" />
<glyph unicode="&#xe918;" glyph-name="tick" d="M253.952 78.336c6.144-8.192 15.36-13.312 25.6-13.312 2.048 0 4.096 1.024 6.144 1.024s3.072-1.024 5.12-1.024c9.216 0 18.432 4.096 24.576 11.264l697.344 697.344c12.288 12.288 12.288 32.768 0 46.080-12.288 12.288-32.768 12.288-46.080 0l-680.96-681.984-229.376 229.376c-12.288 12.288-32.768 12.288-46.080 0-12.288-12.288-12.288-32.768 0-46.080 1.024 0 243.712-242.688 243.712-242.688z" />
<glyph unicode="&#xe919;" glyph-name="logout" d="M1024 447.91c0-15.312-14.336-27.739-32.005-27.739h-661.336c-17.664 0-32 12.427-32 27.739s14.336 27.738 32 27.738h661.336c17.669 0 32.005-12.426 32.005-27.738zM1024 447.894c0-8.195-3.118-16.383-9.393-22.617l-167.606-167.606c0 0-20.851-16.895-40.009-0.154-13.311 11.632-11.011 29.862 1.489 42.37l157.226 148.114-157.226 147.988c-12.5 12.5-14.774 30.248-2.274 42.748 22.153 21.267 43.595-3.332 43.595-3.332l164.805-164.815c6.274-6.313 9.393-14.5 9.393-22.696zM0 53.333v789.331c0 64.803 52.533 117.336 117.336 117.336h192.001c0 0 31.597-6.201 32-26.368 0.406-20.316-14.336-32-32-32h-170.599c-43.755 0-79.555-35.8-79.555-79.555v-748.401c0-44.979 36.801-81.781 81.781-81.781h168.373c17.664 0 35.326-14.652 32-32.005-4.578-23.89-26.17-23.89-26.17-23.89h-197.835c-64.801 0-117.333 52.532-117.333 117.333z" />
<glyph unicode="&#xe91a;" glyph-name="reddit" d="M909.864 562.858c-32.341 0-60.8-13.611-81.749-34.816-77.013 54.101-180.864 88.917-295.936 92.629l59.776 273.322 190.336-43.349c0-47.275 37.973-85.888 84.565-85.888 47.488 0 85.674 39.637 85.674 86.955s-37.931 86.955-85.632 86.955c-33.237 0-61.909-20.352-76.203-48.171l-210.218 47.275c-10.581 2.859-20.949-4.821-23.765-15.573l-65.621-301.312c-114.176-4.821-216.917-39.595-294.186-93.739-20.949 22.101-50.517 35.712-82.859 35.712-119.978 0-159.274-163.37-49.408-219.221-3.883-17.28-5.632-35.712-5.632-54.101 0-183.509 203.733-332.202 453.887-332.202 251.221 0 454.954 148.693 454.954 332.202 0 18.389-1.92 37.675-6.656 54.997 107.648 56.064 68.011 218.24-51.328 218.325v0zM238.974 332.032c0 48.171 37.973 86.955 85.675 86.955 46.592 0 84.608-38.528 84.608-86.955 0-47.317-37.973-85.888-84.608-85.888-47.488-0.213-85.675 38.571-85.675 85.888v0zM701.437 127.318c-78.549-79.701-300.202-79.701-378.794 0-8.661 7.68-8.661 21.248 0 29.995 7.552 7.68 20.949 7.68 28.501 0 59.989-62.421 258.986-63.488 321.578 0 7.552 7.68 20.949 7.68 28.501 0 8.832-8.789 8.832-22.357 0.213-29.995v0zM699.688 245.974c-46.592 0-84.565 38.528-84.565 85.803 0 48.171 37.973 86.955 84.565 86.955 47.488 0 85.674-38.528 85.674-86.955-0.213-47.061-38.187-85.803-85.674-85.803z" />
<glyph unicode="&#xe91b;" glyph-name="reddit-o" d="M619.211 273.305c-22.938-22.938-72.086-31.125-107.109-31.125-35.125 0-84.172 8.187-107.109 31.125-5.43 5.43-14.133 5.43-19.555 0-5.43-5.43-5.43-14.133 0-19.555 36.352-36.352 106.187-39.219 126.664-39.219s90.211 2.867 126.672 39.219c5.32 5.43 5.32 14.133 0 19.555-5.43 5.43-14.133 5.43-19.563 0zM448 394.648c0 29.391-23.961 53.352-53.352 53.352-29.383 0-53.352-23.961-53.352-53.352 0-29.383 23.969-53.352 53.352-53.352 29.391 0 53.352 23.961 53.352 53.352zM512 960c-282.727 0-512-229.273-512-512s229.273-512 512-512 512 229.273 512 512-229.273 512-512 512zM809.062 379.703c1.125-7.375 1.742-14.852 1.742-22.43 0-114.891-133.734-207.977-298.703-207.977s-298.703 93.086-298.703 207.977c0 7.68 0.617 15.258 1.742 22.633-26.008 11.672-44.133 37.781-44.133 68.094 0 41.164 33.383 74.648 74.648 74.648 20.070 0 38.195-7.883 51.609-20.789 51.813 37.375 123.5 61.242 203.266 63.289 0 1.023 37.273 178.586 37.273 178.586 0.719 3.477 2.766 6.453 5.734 8.391 2.969 1.945 6.555 2.563 10.039 1.844l124.109-26.414c8.703 17.609 26.617 29.797 47.609 29.797 29.492 0 53.352-23.859 53.352-53.352s-23.859-53.352-53.352-53.352c-28.57 0-51.711 22.531-53.039 50.789l-111.109 23.656-33.992-160.055c78.336-2.758 148.688-26.516 199.68-63.383 13.414 13 31.641 20.992 51.813 20.992 41.273 0 74.648-33.383 74.648-74.648 0-30.516-18.328-56.625-44.234-68.297zM629.352 448c-29.391 0-53.352-23.961-53.352-53.352 0-29.383 23.961-53.352 53.352-53.352 29.383 0 53.352 23.969 53.352 53.352 0 29.391-23.961 53.352-53.352 53.352z" />
<glyph unicode="&#xe91c;" glyph-name="discord" d="M969.258 509.884c-40.758 140.036-86.722 212.392-87.464 213.69-2.62 3.198-67.572 80.926-224.118 138.418l-20.686-56.32c74.474-27.352 127.31-60.72 156.368-82.28-86.752 25.906-189.954 41.772-281.358 41.772s-194.606-15.866-281.358-41.772c29.056 21.558 81.892 54.928 156.366 82.28l-20.686 56.32c-156.542-57.492-221.494-135.22-224.114-138.418-0.742-1.298-46.708-73.654-87.464-213.69-39.28-134.952-54.202-325.33-54.744-332.964 3.5-5.472 84-142.912 303.386-142.912l55.608 80.524c-62.3 16.542-121.706 43.218-176.086 79.416l33.246 49.946c87.73-58.394 190.032-89.262 295.846-89.262s208.116 30.868 295.846 89.262l33.246-49.946c-54.378-36.198-113.786-62.874-176.086-79.416l55.608-80.524c219.386 0 299.886 137.44 303.386 142.912-0.542 7.634-15.464 198.012-54.742 332.964v0zM373.284 352.92h-60v100h60v-100zM710.716 352.92h-60v100h60v-100z" />
<glyph unicode="&#xe91d;" glyph-name="discord-o" d="M382.719 451.414h39.255v-65.281h-39.255v65.281zM602.026 451.414h39.255v-65.281h-39.255v65.281zM512 960c-282.88 0-512-229.12-512-512s229.12-512 512-512 512 229.12 512 512-229.12 512-512 512zM647.68 179.201l-36.266 52.052c40.534 10.667 78.932 28.161 114.346 51.628l-21.333 32.427c-57.174-37.974-123.734-58.026-192.427-58.026s-135.253 20.052-192.427 58.026l-21.333-32.427c35.414-23.466 73.813-40.961 114.346-51.628l-36.266-52.052c-142.508 0-194.56 89.172-197.12 92.586 0.427 5.12 10.24 128.854 35.839 216.32 26.453 91.307 56.32 138.24 56.747 139.094 1.706 2.133 43.948 52.479 145.495 89.599l13.651-36.266c-48.638-17.919-82.773-39.68-101.547-53.76 56.32 17.068 123.307 27.307 182.615 27.307s126.294-10.24 182.615-27.307c-18.773 14.081-52.909 35.841-101.547 53.76l13.651 36.266c101.547-37.12 143.789-87.466 145.495-89.599 0.427-0.854 30.294-47.786 56.747-139.094 25.599-87.466 35.411-211.201 35.839-216.32-2.56-3.414-54.612-92.586-197.12-92.586z" />
<glyph unicode="&#xe91e;" glyph-name="cafecito-o" d="M512 960c-282.88 0-512-229.12-512-512s229.12-512 512-512 512 229.12 512 512-229.12 512-512 512zM796.586 303.359c0-70.398-57.599-127.573-128-127.573h-288.852c-25.602 0-49.495 7.68-69.547 20.906-34.987 22.615-58.029 61.867-58.029 106.667v54.615c-17.492 7.68-32 20.052-42.24 35.411-10.667 15.362-16.638 34.135-16.638 54.187 0 20.055 5.971 38.828 16.638 54.615 10.24 15.359 24.747 27.732 42.24 35.411v54.615c0 44.799 23.042 84.052 58.029 107.094 20.052 13.227 43.945 20.906 69.547 20.906h288.852c70.401 0 128-57.599 128-128v-288.854zM525.227 596.906c-82.346 0-149.333-66.56-149.333-148.906s66.987-149.333 149.333-149.333c30.721 0 59.307 9.385 82.773 25.174l63.573-24.747-24.32 63.573c17.068 23.893 26.88 53.333 26.88 85.333 0 82.346-66.56 148.906-148.906 148.906zM525.227 657.492c-87.893 0-162.987-54.185-194.133-130.984h-32.427c-43.094 0-78.081-34.987-78.081-78.081 0-42.667 34.987-77.654 78.081-77.654h32c30.719-77.654 106.24-132.266 194.56-132.266 44.799 0 86.615 14.078 120.747 38.398l-34.987 13.654c-25.602-14.081-54.615-21.76-85.76-21.76-98.987 0-179.201 80.214-179.201 179.201s80.214 179.201 179.201 179.201 179.201-80.214 179.201-179.201c0-32.427-8.534-62.719-23.466-89.174l13.227-34.56c25.599 34.56 40.531 77.227 40.531 123.734 0 115.628-93.865 209.492-209.492 209.492zM320.854 401.492h-23.893c-25.174 0.854-45.654 21.76-45.654 46.935 0 25.172 20.052 46.081 45.227 46.932h24.747c-3.841-15.359-5.547-31.146-5.547-47.359s1.706-31.573 5.12-46.508z" />
<glyph unicode="&#xe91f;" glyph-name="clear-filter" d="M830.581 760.029v105.044c-1.291 13.686-13.144 23.924-26.872 23.209h-776.845c-13.422 1.363-25.409-8.414-26.772-21.836-0.047-0.456-0.079-0.914-0.101-1.372v-105.046c0.606-6.324 3.166-12.302 7.329-17.1l286.098-289.615c7.649-7.743 11.938-18.189 11.938-29.073v-392.2c0.365-8.522 4.945-16.305 12.213-20.766 3.586-2.474 7.86-3.755 12.213-3.664l10.993 2.443 171.004 85.501c8.101 4.384 13.23 12.777 13.436 21.986v306.616c0 10.938 4.311 21.436 11.998 29.218l286.038 289.552c4.162 4.8 6.724 10.778 7.327 17.102zM490.746 469.772c-3.98-5.044-6.223-11.196-6.405-17.568v-327.532l-136.462-61.491v389.022c-0.096 6.62-2.859 12.935-7.687 17.568l-281.84 281.101h715.519l-283.124-281.101zM793.818 784.215h-757.065v69.785h757.065v-69.785zM962.499 475.428c-0.879 0.895-1.768 1.781-2.663 2.663-82.3 80.83-214.544 79.637-295.373-2.663-0.895-0.879-1.782-1.767-2.663-2.663-80.83-82.3-79.637-214.544 2.663-295.374 39.151-40.143 92.945-62.631 149.018-62.295 55.568 0.21 108.817 22.302 148.216 61.49 82.745 82.303 83.102 216.099 0.802 298.841zM935.67 204.029c-66.589-62.583-170.367-62.583-236.956 0-69.622 65.434-73.018 174.918-7.584 244.538 67.545 67.481 176.992 67.481 244.538 0 66.086-68.118 66.086-176.417 0.002-244.538zM838.879 328.137l65.75 65.734c6.667 6.667 6.667 17.479 0 24.146s-17.5 6.667-24.167 0l-65.75-65.724-65.75 65.724c-6.667 6.667-17.5 6.667-24.167 0s-6.667-17.479 0-24.146l65.75-65.734-65.75-65.724c-6.667-6.667-6.667-17.5 0-24.167 3.333-3.333 7.708-5 12.083-5s8.75 1.667 12.083 5l65.75 65.732 65.75-65.732c3.333-3.333 7.708-5 12.083-5s8.75 1.667 12.083 5c6.667 6.667 6.667 17.5 0 24.167l-65.75 65.724z" />
<glyph unicode="&#xe920;" glyph-name="coupon" d="M1002.666 554.666c11.776 0 21.334 9.558 21.334 21.334v170.666c0 11.776-9.558 21.334-21.334 21.334h-981.332c-11.776 0-21.334-9.558-21.334-21.334v-170.666c0-11.776 9.558-21.334 21.334-21.334 58.836 0 106.666-47.872 106.666-106.666s-47.83-106.666-106.666-106.666c-11.776 0-21.334-9.558-21.334-21.334v-170.666c0-11.776 9.558-21.334 21.334-21.334h981.334c11.776 0 21.334 9.558 21.334 21.334v170.666c0 11.776-9.558 21.334-21.334 21.334-58.838 0-106.668 47.872-106.668 106.666s47.83 106.666 106.666 106.666zM853.334 448c0-75.094 55.722-137.43 128-147.798v-129.536h-938.668v129.536c72.278 10.368 128 72.704 128 147.798s-55.722 137.43-128 147.798v129.536h938.666v-129.536c-72.276-10.368-127.998-72.704-127.998-147.798zM277.334 512c-11.776 0-21.334-9.558-21.334-21.334v-85.334c0-11.776 9.558-21.334 21.334-21.334s21.334 9.558 21.334 21.334v85.334c-0.002 11.776-9.558 21.334-21.334 21.334zM277.334 682.666c-11.776 0-21.334-9.558-21.334-21.334v-85.332c0-11.776 9.558-21.334 21.334-21.334s21.334 9.558 21.334 21.334v85.334c-0.002 11.776-9.558 21.332-21.334 21.332zM277.334 341.334c-11.776 0-21.334-9.558-21.334-21.334v-85.334c0-11.776 9.558-21.334 21.334-21.334s21.334 9.558 21.334 21.334v85.334c-0.002 11.776-9.558 21.334-21.334 21.334zM746.666 512c-11.776 0-21.334-9.558-21.334-21.334v-85.334c0-11.776 9.558-21.334 21.334-21.334s21.334 9.558 21.334 21.334v85.334c0 11.776-9.558 21.334-21.334 21.334zM746.666 682.666c-11.776 0-21.334-9.558-21.334-21.334v-85.332c0-11.776 9.558-21.334 21.334-21.334s21.334 9.558 21.334 21.334v85.334c0 11.776-9.558 21.332-21.334 21.332zM746.666 341.334c-11.776 0-21.334-9.558-21.334-21.334v-85.334c0-11.776 9.558-21.334 21.334-21.334s21.334 9.558 21.334 21.334v85.334c0 11.776-9.558 21.334-21.334 21.334z" />
<glyph unicode="&#xe921;" glyph-name="cafecito" d="M806.993 910.198h-490.386c-119.336 0-217.004-97.668-217.004-217.004v-93.136c-58.645-25.702-99.603-84.179-99.603-152.279 0-68.096 40.958-126.575 99.603-152.277v-92.693c0-119.334 97.669-217.007 217.004-217.007h490.386c119.339 0 217.007 97.673 217.007 217.007v490.386c0 119.336-97.668 217.004-217.007 217.004zM771.055 303.074l41.071-107.345-107.674 41.954c-40.299-27.085-88.772-42.893-141.005-42.893-139.843 0-253.209 113.365-253.209 253.21 0 139.842 113.42 253.208 253.26 253.208 139.849 0 253.214-113.367 253.214-253.208 0-53.892-16.917-103.859-45.658-144.926zM233.961 581.403c52.731 130.224 180.357 222.144 329.542 222.144 196.331 0 355.52-159.188 355.627-355.518 0-78.545-25.532-151.121-68.702-209.984l-22.609 58.974c25.485 44.497 40.132 96.013 40.132 151.010 0 168.14-136.307 304.39-304.393 304.39-168.144 0-304.392-136.25-304.392-304.39 0-168.145 136.306-304.393 304.392-304.393 52.843 0 102.532 13.483 145.813 37.141l59.307-23.104c-57.984-41.011-128.674-65.225-205.12-65.225-150.068 0-278.303 92.971-330.481 224.414h-54.279c-72.905 0-132.269 59.362-132.269 132.271 0 72.905 59.308 132.268 132.269 132.268h55.163zM176.145 369.485c-42.726 1.378-77.106 36.591-77.106 79.65 0 42.778 33.938 77.824 76.333 79.59h41.897c-6.025-25.975-9.341-52.949-9.341-80.755 0-26.974 3.095-53.227 8.789-78.485h-37.973v0.055l-2.598-0.055z" />
<glyph unicode="&#xe922;" glyph-name="kofi" d="M873.813 615.252c19.627-23.893 30.72-55.466 30.293-87.466 6.4-63.147-37.12-123.307-101.547-137.387-0.853-0.427-1.28-0.427-2.133-0.427-20.053-2.56-40.107-3.84-60.587-3.84-4.267 0-8.96 0-13.227 0.427-12.373 0-22.613 10.667-22.613 23.040v230.4c0 12.8 10.24 23.039 23.467 23.039h47.787c37.547 1.708 75.093-16.638 98.56-47.787zM837.12 586.667c-14.933 20.052-37.973 31.146-61.013 29.867h-25.6v-183.894c14.507 0.427 29.013 1.28 43.093 2.987 40.533 9.813 68.267 48.213 64 90.027 0 23.893-7.253 44.8-20.48 61.013zM916.48 735.573c54.613-35.839 92.16-93.867 101.973-159.146 15.787-81.494-2.987-158.294-52.907-216.32-50.347-58.88-128-93.013-215.893-95.147-5.973-81.92-43.52-132.267-112.64-149.76-1.707-0.427-3.84-0.427-5.547-0.427h-22.613c-151.467-3.413-472.747-3.413-476.161-3.413h-0.852c-67.841 0-123.734 53.333-128 121.173-6.041 159.066-3.34 443.56-3.017 477.528 0.019 2.022 0.030 3.156 0.030 3.324v9.388c1.706 32 24.745 57.175 55.039 61.44l706.561 0.427c55.467-0.427 108.8-17.068 154.027-49.068zM711.253 305.067c4.267 4.267 10.667 6.4 17.067 6.4 82.773-3.413 156.587 25.6 202.24 78.507 40.107 47.36 55.467 110.933 42.24 178.347v0.854c-8.107 52.479-37.973 98.984-82.347 128-37.973 26.877-82.347 40.958-128 40.958h-703.147c-5.12-0.852-11.521-8.107-11.948-16.641v-8.107c0-0.204-0.012-1.495-0.034-3.778-0.339-35.964-2.996-318.077 3.021-474.941 2.56-43.093 39.68-76.373 82.346-76.8 3.414 0 324.268 0 475.735 3.413h20.053c52.053 14.080 75.52 53.333 75.52 126.72 0 6.4 2.56 12.373 7.253 17.067zM385.281 268.8c0 0 111.786 102.4 162.986 163.413 44.8 54.187 47.787 140.373-28.587 175.787-76.8 34.987-140.8-38.401-140.8-38.401-43.521 53.333-122.026 61.867-175.787 19.2l-3.414-3.414c-38.398-41.385-25.599-111.785 3.414-150.185 52.052-57.6 107.521-111.787 165.974-162.987 0-6.4 3.412-6.4 6.399-6.4 3.841-0.427 7.252 0.853 9.815 2.987z" />
<glyph unicode="&#xe923;" glyph-name="viber" d="M500.206 960c-77.515 0-269.247-8.144-371.241-106.057-73.435-69.356-101.978-175.445-106.057-301.917-8.159-199.907 36.686-326.364 110.121-391.64 16.319-12.239 57.148-44.925 134.663-69.403v-101.994c0 0-0.016-40.766 24.463-48.925 4.080 0 8.191-4.064 12.271-4.064 24.478 0 44.829 28.574 73.388 57.132 24.479 28.558 44.893 48.925 57.132 69.324h89.802c77.515 0 269.247 8.144 371.241 106.057 73.435 73.435 101.994 179.557 101.994 314.188 4.080 20.399 4.064 44.845 4.064 69.324-4.080 150.951-48.925 252.928-110.121 310.045-24.479 20.399-130.584 97.93-359.049 97.93h-32.67zM492.078 882.469h36.734c216.227 0 297.821-69.372 305.981-77.531 48.957-40.797 77.515-130.536 81.595-248.849v-16.335c4.080-24.478 4.064-44.813 4.064-57.053-4.080-122.392-28.574-204.019-77.531-257.056-85.675-77.515-265.152-81.595-314.109-81.595h-77.531l-65.26-73.467-40.797-44.861-8.207-12.191c-8.159-8.16-20.367-24.526-28.526-28.606v183.589c-81.595 20.399-114.233 48.973-122.392 57.132-57.116 48.957-89.754 167.27-81.595 326.38v40.797c8.159 97.914 32.67 163.174 73.467 208.051 85.675 77.515 265.152 81.595 314.108 81.595zM488.014 792.746c-20.399 0-20.399-28.606 0-28.606 150.951 0 281.518-101.962 281.518-293.71 0-20.399 28.526-20.399 28.526 0 0 208.067-138.695 326.396-310.045 322.316zM326.338 754.977c-8.669 1.020-17.817-0.972-25.976-7.092-40.797-20.399-81.643-61.26-69.403-106.137 0 0 8.191-36.67 53.069-114.185 24.478-36.718 44.861-69.388 65.26-93.866 20.399-28.558 53.021-61.18 85.659-85.659 65.276-53.037 167.317-106.089 212.195-118.329 40.797-12.239 85.659 28.606 106.057 69.404 8.16 16.319 4.048 36.686-12.271 48.925-24.479 24.478-65.228 53.005-93.786 69.324-20.399 12.239-44.909 4.112-53.069-8.128l-20.399-24.463c-8.16-12.239-28.526-12.271-28.526-12.271-134.632 36.718-171.397 175.461-171.397 175.461s0.032 16.287 12.271 28.526l24.463 20.399c12.239 8.16 20.367 32.67 8.128 53.069-8.16 12.239-20.351 36.686-32.59 48.925-12.239 16.319-36.734 44.861-36.734 44.861-6.12 6.12-14.279 10.215-22.949 11.235zM516.541 711.152c-20.399 4.080-24.463-28.606-4.064-28.606 114.233-8.159 179.541-85.675 175.461-183.589-4.080-20.399 28.526-20.399 28.526 0 4.080 114.233-69.372 208.115-199.923 212.195zM528.812 633.62c-20.399 4.080-20.399-28.526 0-28.526 48.957 0 73.388-28.574 73.388-77.531 4.080-20.399 32.67-20.399 32.67 0-4.080 65.276-40.781 106.057-106.057 106.057z" />
<glyph unicode="&#xe924;" glyph-name="dribbble-o" d="M530.944 445.92c3.552 1.152 7.232 2.24 10.784 3.296-6.88 15.584-14.368 31.168-22.24 46.528-141.024-42.208-276.32-39.168-281.184-39.008-0.064-2.944-0.192-5.792-0.192-8.736 0-70.368 26.528-134.528 70.176-182.976-0.096 0.096 74.848 133.088 222.656 180.896zM692.864 653.536c-48.224 42.528-111.52 68.32-180.864 68.32-22.272 0-43.84-2.688-64.512-7.68 4.096-5.536 55.52-73.76 102.4-159.744 103.296 38.752 142.304 98.112 142.976 99.104zM558.592 403.2c-161.6-56.32-214.368-169.856-214.944-171.072 46.496-36.16 104.832-57.984 168.352-57.984 37.888 0 74.048 7.744 106.912 21.728-4.032 23.936-19.968 107.808-58.496 207.968-0.608-0.256-1.216-0.448-1.824-0.64zM496.864 537.888c-47.424 84.224-98.080 152.96-101.728 157.824-76.384-36.064-133.376-106.464-151.168-191.264 7.232-0.032 121.376-1.472 252.896 33.44zM570.912 513.6c6.368-13.056 12.544-26.368 18.24-39.712 2.016-4.768 4-9.472 5.92-14.176 94.112 11.84 186.784-8.064 190.752-8.896-0.64 64.928-23.904 124.512-62.304 171.136-0.512-0.704-44.48-64.16-152.608-108.352zM611.744 416.512c35.936-98.72 50.496-179.104 53.312-195.648 61.472 41.472 105.184 107.392 117.344 183.712-5.632 1.824-82.272 26.080-170.656 11.936zM512 960c-282.752 0-512-229.248-512-512s229.248-512 512-512 512 229.248 512 512-229.248 512-512 512zM826.176 383.456c-4.256-20.64-10.496-40.896-18.688-60.256-8-19.008-17.952-37.376-29.6-54.464-11.424-16.992-24.64-32.928-39.104-47.456-14.496-14.432-30.496-27.648-47.456-39.136-17.12-11.552-35.488-21.472-54.464-29.536-19.36-8.16-39.648-14.432-60.224-18.656-21.152-4.352-42.88-6.592-64.576-6.592-21.76 0-43.488 2.208-64.576 6.592-20.64 4.256-40.896 10.496-60.256 18.656-19.008 8.064-37.376 18.016-54.496 29.536-16.96 11.488-32.928 24.704-47.424 39.136-14.496 14.56-27.68 30.464-39.136 47.456-11.584 17.088-21.504 35.456-29.6 54.464-8.224 19.36-14.464 39.648-18.72 60.256-4.384 21.12-6.56 42.816-6.56 64.544 0 21.76 2.208 43.488 6.496 64.576 4.256 20.64 10.496 40.96 18.72 60.256 8.032 19.040 18.016 37.408 29.6 54.496 11.456 17.024 24.672 32.928 39.136 47.456 14.464 14.496 30.432 27.648 47.424 39.136 17.12 11.616 35.488 21.568 54.496 29.632 19.36 8.224 39.648 14.464 60.256 18.688 21.088 4.288 42.816 6.464 64.576 6.464 21.696 0 43.424-2.208 64.576-6.496 20.608-4.224 40.864-10.464 60.224-18.688 19.008-8.064 37.344-18.016 54.464-29.632 16.96-11.488 32.96-24.64 47.456-39.104 14.464-14.56 27.68-30.432 39.104-47.456 11.616-17.088 21.568-35.456 29.6-54.496 8.224-19.328 14.464-39.648 18.688-60.256 4.32-21.088 6.56-42.816 6.56-64.576 0.032-21.728-2.144-43.424-6.496-64.544z" />
<glyph unicode="&#xe925;" glyph-name="share-arrow" d="M1021.952 569.856c-1.024 4.096-4.096 9.216-7.168 12.288-84.992 95.232-369.664 352.256-369.664 352.256-8.192 7.168-19.456 8.192-25.6 4.096-10.24-5.12-15.36-13.312-15.36-22.528v-179.2c-338.944-28.672-604.16-316.416-604.16-658.432v-101.376c0-12.288 7.168-21.504 19.456-24.576h6.144c8.192 0 17.408 5.12 22.528 14.336l18.432 39.936c99.328 214.016 305.152 358.4 537.6 378.88v-174.080c0-9.216 6.144-18.432 14.336-22.528 9.216-4.096 19.456-2.048 26.624 4.096l368.64 352.256c5.12 5.12 8.192 13.312 8.192 20.48zM645.12 430.592c-6.144 6.144-14.336 7.168-18.432 6.144-239.616-11.264-458.752-145.408-577.536-353.28 3.072 324.608 257.024 589.824 580.608 606.208 13.312 0 23.552 10.24 23.552 24.576v144.384l308.224-294.912-308.224-293.888v142.336c0 6.144-3.072 13.312-8.192 18.432z" />
<glyph unicode="&#xe926;" glyph-name="dribbble" d="M512 960c-282.667 0-512-229.333-512-512 0-282.933 229.333-512 512-512s512 229.067 512 512c0 282.667-229.333 512-512 512zM837.067 724c57.6-67.733 94.133-153.6 100.533-247.733-92.267 4.8-202.667 4.8-291.2-3.467-11.2 28.267-22.667 56-35.2 82.667 102.133 44.267 180.8 102.4 225.867 168.533zM512 874.667c103.467 0 198.4-36.8 272.267-98.133-46.4-58.667-119.2-109.6-209.867-148.267-49.6 91.733-106.667 170.667-167.467 232.8 33.867 8.533 68.8 13.6 105.067 13.6zM318.933 828c61.6-61.333 119.467-139.467 170.133-230.933-96.267-29.333-206.667-46.133-324.533-46.133-22.4 0-44.267 0.8-65.867 2.133 30.667 120.267 112 220 220.267 274.933zM86.133 468.267c24.267-1.067 48.8-1.6 73.6-1.333 134.4 1.6 259.467 22.667 366.933 57.067 10.133-21.067 19.733-42.667 28.8-64.8-14.667-3.467-27.733-7.2-38.133-11.467-146.933-61.6-262.667-161.067-325.333-281.333-66.133 75.2-106.667 173.6-106.667 281.6 0 6.933 0.267 13.6 0.8 20.267zM512 21.333c-98.667 0-189.333 33.6-261.6 89.867 56.8 112.533 158.133 205.6 285.867 263.467 12 5.6 28 10.133 46.4 14.133 15.2-42.133 28.8-85.867 40.8-131.2 18.4-70.667 31.467-140.533 39.467-208.267-46.933-17.867-97.6-28-150.933-28zM742.667 89.333c-8 68.533-21.067 138.933-39.733 210.4-9.067 34.667-19.467 68.267-30.667 101.067 83.733 6.933 184 5.867 263.733 0-14.4-130.933-88-243.467-193.333-311.467z" />
<glyph unicode="&#xe927;" glyph-name="diagonal-arrow" d="M1022.976 933.376c-1.024 3.072-1.024 4.096-2.048 6.144-1.024 1.024 0 0-1.024 2.048l-1.024 2.048c-3.072 6.144-8.192 11.264-14.336 14.336-3.072 1.024-7.168 1.024-10.24 1.024h-297.984c-15.36 0-26.624-12.288-26.624-26.624 0-15.36 11.264-26.624 26.624-26.624h234.496l-320.512-321.536c-10.24-10.24-10.24-26.624 0-37.888 5.12-5.12 11.264-8.192 19.456-8.192 7.168 0 14.336 4.096 19.456 8.192l320.512 320.512v-234.496c0-15.36 12.288-26.624 26.624-26.624 15.36 0 26.624 12.288 26.624 26.624v301.056zM395.264 357.888c-7.168 0-13.312-3.072-17.408-9.216l-321.536-320.512v235.52c0 15.36-12.288 26.624-26.624 26.624s-27.648-11.264-27.648-26.624v-300.032c0-2.048 0-7.168 2.048-10.24 3.072-6.144 8.192-11.264 14.336-14.336 4.096-2.048 8.192-2.048 10.24-2.048h300.032c15.36 0 26.624 12.288 26.624 26.624 0 15.36-12.288 26.624-26.624 26.624h-234.496l320.512 320.512c10.24 10.24 10.24 26.624 0 37.888-5.12 7.168-13.312 10.24-19.456 9.216z" />
<glyph unicode="&#xe928;" glyph-name="kofi-o" d="M517.12 550.401c-49.492 22.612-90.453-24.32-90.453-24.32-27.734 34.133-78.081 39.68-112.641 12.372l-2.133-2.56c-24.747-26.453-16.641-71.68 2.133-96 33.281-37.12 69.12-71.68 106.24-104.534 0-4.266 2.56-4.266 4.268-4.266 2.56 0 4.693 0.854 6.398 2.133 0 0 71.682 65.706 104.534 104.534 28.586 34.987 30.294 90.026-18.346 112.641zM732.159 546.56c-12.372 15.786-31.146 25.174-51.198 24.747h-30.721v-148.055c14.935 0 29.867 0.427 44.799 2.133h0.427c33.708 7.682 56.32 39.255 52.906 73.815 0.427 17.065-5.547 33.706-16.214 47.359zM512 960c-282.88 0-512-229.12-512-512s229.12-512 512-512 512 229.12 512 512-229.12 512-512 512zM650.24 345.599c0-28.586-4.266-81.919-61.44-96.424h-14.505c-98.135-2.135-305.495-2.135-305.495-2.135-35.839 0-65.706 27.734-67.414 63.576-4.266 108.799-2.133 307.625-2.133 307.625v5.974c0.854 12.372 9.815 23.039 22.615 24.747h450.987c32 0 63.573-10.242 90.026-29.013 32-20.482 53.76-54.187 59.307-92.161 20.479-106.24-59.307-186.453-171.948-182.187z" />
</font>
</defs>
</svg>
