<?xml version="1.0" encoding="utf-8"?>
<!-- Generator: Adobe Illustrator 24.2.0, SVG Export Plug-In . SVG Version: 6.00 Build 0)  -->
<svg version="1.1" id="Layer_1" xmlns="http://www.w3.org/2000/svg" xmlns:xlink="http://www.w3.org/1999/xlink" width="430" height="80" x="0px" y="0px"
	 viewBox="0 0 430 80" style="enable-background:new 0 0 430 80;" xml:space="preserve">
<style type="text/css">
	.st0{fill:none;stroke:#222222;stroke-width:1.2;stroke-miterlimit:10;}
	.st1{fill:#222222;}
	.st2{fill:#FFFFFF;}
</style>
<g>
	<path class="st0" d="M229.5,67h-81.8000031c-14.8999939,0-27-12.0999985-27-27s12.1000061-27,27-27H229.5
		c14.8999939,0,27,12.1000004,27,27S244.3999939,67,229.5,67z"/>
	<path class="st1" d="M194.5595703,32.3252754c-0.1129608-0.1315613-0.2402344-0.2307129-0.3384399-0.3022118l-0.0900879-0.0657845
		c-0.1816101-0.1325169-0.3880157-0.2831459-0.5882263-0.5024185c-0.6516113-0.7159729-0.9681396-1.870966-0.9681396-3.5326691
		c0-1.7060356-0.9852905-3.13941-2.512085-3.6575603c0.0119171-0.0724545,0.0181122-0.1472931,0.0181122-0.2221317
		c0-0.7607803-0.6192169-1.3799858-1.3804626-1.3799858c-0.761261,0-1.3804626,0.6192055-1.3804626,1.3799858
		c0,0.073885,0.0057068,0.1482468,0.0176239,0.2221317c-1.5263214,0.5148144-2.5116119,1.9481888-2.5116119,3.6575603
		c0,1.6612263-0.3170013,2.8166962-0.9686127,3.5317154c-0.1987762,0.2183189-0.4047089,0.3689499-0.586319,0.5014668
		l-0.0915222,0.0676899c-0.1124878,0.0819855-0.2311859,0.175415-0.3403473,0.3022118
		c-0.0858002,0.1001053-0.2302399,0.3088875-0.2302399,0.5844078c0,0.4452209,0.2502594,0.8637428,0.6869049,1.1459389
		c0.3255615,0.2125969,0.7626801,0.3699036,1.3752136,0.4967003c0.558197,0.1153564,1.2536621,0.1944847,2.1255035,0.2402458
		c-0.0204926,0.1115417-0.0309753,0.2230835-0.0309753,0.3336754c0,1.0677605,0.8680267,1.9362717,1.934845,1.9362717
		c1.066803,0,1.9343567-0.8685112,1.9343567-1.9362717c0-0.1105919-0.0104828-0.2221336-0.0309753-0.3336754
		c0.8713684-0.0457611,1.5668335-0.1248894,2.1255035-0.2402458c0.6120605-0.1267967,1.0491791-0.2841034,1.3752136-0.4967003
		c0.4366455-0.282196,0.6869049-0.7007179,0.6869049-1.1459389
		C194.7912445,32.630352,194.6463318,32.4234734,194.5595703,32.3252754z M188.7002411,24.3251705
		c-0.1582642,0-0.2826691-0.1244125-0.2826691-0.282671c0-0.1582565,0.1244049-0.2821941,0.2826691-0.2821941
		c0.1582489,0,0.2821808,0.1239376,0.2821808,0.2821941C188.9824219,24.200758,188.85849,24.3251705,188.7002411,24.3251705z
		 M193.671051,32.9907188c-0.0276489,0.0400429-0.0834198,0.0877113-0.1663666,0.141098
		c-0.2102203,0.1363297-0.5643921,0.261219-0.9972076,0.3527412c-0.8532562,0.1763725-2.0988159,0.2612228-3.8072357,0.2612228
		c-1.7093811,0-2.9549408-0.0848503-3.8067627-0.2612228c-0.4347382-0.0915222-0.7893829-0.2164116-0.999115-0.3527412
		c-0.0839081-0.0543404-0.1377716-0.1010551-0.1644592-0.1420517c0.0266876-0.0219269,0.0610199-0.0486183,0.0996246-0.0762672
		l0.0738831-0.0543404c0.1806641-0.1306114,0.4828796-0.3489304,0.7717438-0.6683044
		c0.8399048-0.9209442,1.2484283-2.3176136,1.2484283-4.2686615c0-1.3914261,0.7927094-2.4248676,2.0697327-2.6994343
		c0.4347382,0.2645569,0.975769,0.2612209,1.4152679-0.0081043c1.275589,0.2736149,2.0673523,1.3099155,2.0673523,2.7075386
		c0,1.9505711,0.4085083,3.3467636,1.2489014,4.2686615c0.2860107,0.3155632,0.5763092,0.5262527,0.7688751,0.6663971
		l0.0767517,0.0562477C193.6085968,32.9411469,193.6429138,32.9678383,193.671051,32.9907188z M188.7002411,35.9613838
		c-0.4614258,0-0.8370514-0.3746681-0.8370514-0.8351402c0-0.1029625,0.0171509-0.2021141,0.0514832-0.29459l0.067688,0.002861
		c0.4685669,0.0114403,0.964325,0.0114403,1.4357605,0l0.0657806-0.002861
		c0.034317,0.0953369,0.0519562,0.1944885,0.0519562,0.29459C189.5358582,35.5867157,189.1607056,35.9613838,188.7002411,35.9613838
		z"/>
	<g>
		<polygon class="st1" points="174.6918945,49.5253906 174.4799805,50.8652344 174.206543,49.6621094 172.2856445,42.7167969 
			171.1782227,42.7167969 169.2094727,49.6621094 168.9291992,50.8447266 168.737793,49.5322266 167.1655273,42.7167969 
			165.8530273,42.7167969 168.2592773,52.6699219 169.4555664,52.6699219 171.581543,45.4169922 171.7387695,44.6582031 
			171.8959961,45.4169922 173.9467773,52.6699219 175.1430664,52.6699219 177.5561523,42.7167969 176.2368164,42.7167969 		"/>
		<path class="st1" d="M184.2211914,47.5361328c-0.0180664-0.7470703-0.269043-1.3339844-0.7519531-1.7597656
			c-0.4829102-0.4267578-1.1508789-0.6396484-2.0029297-0.6396484c-0.5375977,0-1.03125,0.1005859-1.4799805,0.3007812
			c-0.4487305,0.2011719-0.8041992,0.4726562-1.0664062,0.8173828c-0.262207,0.34375-0.3930664,0.7001953-0.3930664,1.0693359
			h1.2714844c0-0.3232422,0.152832-0.5986328,0.4580078-0.8271484c0.3051758-0.2275391,0.6835938-0.3417969,1.1347656-0.3417969
			c0.5151367,0,0.9047852,0.1308594,1.1689453,0.3935547c0.2641602,0.2617188,0.3964844,0.6142578,0.3964844,1.0556641v0.5810547
			h-1.2304688c-1.0620117,0-1.8857422,0.2128906-2.4711914,0.6396484c-0.5854492,0.4257812-0.878418,1.0244141-0.878418,1.7939453
			c0,0.6337891,0.2333984,1.15625,0.7006836,1.5693359c0.4672852,0.4121094,1.0654297,0.6181641,1.7944336,0.6181641
			c0.815918,0,1.5175781-0.3046875,2.1054688-0.9160156c0.0454102,0.3740234,0.1049805,0.6337891,0.1777344,0.7792969h1.3261719
			v-0.109375c-0.1733398-0.4003906-0.2597656-0.9404297-0.2597656-1.6201172V47.5361328z M182.956543,50.5986328
			c-0.159668,0.328125-0.4169922,0.5947266-0.7724609,0.7998047s-0.7314453,0.3076172-1.1279297,0.3076172
			c-0.4145508,0-0.7543945-0.1113281-1.0185547-0.3349609c-0.2641602-0.2226562-0.3964844-0.5332031-0.3964844-0.9296875
			c0-0.90625,0.7749023-1.3603516,2.3242188-1.3603516h0.9912109V50.5986328z"/>
		<rect x="186.3129883" y="45.2734375" class="st1" width="1.2646484" height="7.3964844"/>
		<path class="st1" d="M186.9555664,42.5800781c-0.2460938,0-0.4316406,0.0712891-0.5571289,0.2119141
			c-0.1254883,0.1416016-0.1879883,0.3144531-0.1879883,0.5195312s0.0625,0.3759766,0.1879883,0.5126953
			s0.3110352,0.2050781,0.5571289,0.2050781s0.4331055-0.0683594,0.5605469-0.2050781s0.1914062-0.3076172,0.1914062-0.5126953
			s-0.0639648-0.3779297-0.1914062-0.5195312C187.3886719,42.6513672,187.2016602,42.5800781,186.9555664,42.5800781z"/>
		<path class="st1" d="M191.5014648,51.5117188c-0.1230469-0.1484375-0.1845703-0.3710938-0.1845703-0.6679688v-4.5927734h1.3808594
			v-0.9775391h-1.3808594v-1.7910156h-1.2646484v1.7910156h-1.3466797v0.9775391h1.3466797v4.5869141
			c0,0.6289062,0.1435547,1.1142578,0.4306641,1.4560547s0.7133789,0.5126953,1.2783203,0.5126953
			c0.3144531,0,0.6381836-0.0449219,0.9707031-0.1357422v-1.0195312c-0.2553711,0.0546875-0.4555664,0.0820312-0.6015625,0.0820312
			C191.8339844,51.7333984,191.6245117,51.6591797,191.5014648,51.5117188z"/>
		<rect x="194.2836914" y="42.1699219" class="st1" width="1.2646484" height="10.5"/>
		<path class="st1" d="M198.3237305,42.5800781c-0.2460938,0-0.4316406,0.0712891-0.5571289,0.2119141
			c-0.1254883,0.1416016-0.1879883,0.3144531-0.1879883,0.5195312s0.0625,0.3759766,0.1879883,0.5126953
			s0.3110352,0.2050781,0.5571289,0.2050781s0.4331055-0.0683594,0.5605469-0.2050781s0.1914062-0.3076172,0.1914062-0.5126953
			s-0.0639648-0.3779297-0.1914062-0.5195312C198.7568359,42.6513672,198.5698242,42.5800781,198.3237305,42.5800781z"/>
		<rect x="197.6811523" y="45.2734375" class="st1" width="1.2646484" height="7.3964844"/>
		<path class="st1" d="M205.3852539,48.9033203c-0.3920898-0.1953125-0.9033203-0.3642578-1.534668-0.5058594
			c-0.6313477-0.140625-1.0673828-0.2890625-1.309082-0.4443359c-0.2416992-0.1542969-0.3623047-0.3847656-0.3623047-0.6904297
			c0-0.3232422,0.1298828-0.5849609,0.3896484-0.7861328c0.2597656-0.2001953,0.6196289-0.3007812,1.0800781-0.3007812
			c0.4467773,0,0.8168945,0.1259766,1.1108398,0.3759766c0.2939453,0.2509766,0.440918,0.5498047,0.440918,0.8955078h1.2714844
			c0-0.6738281-0.2607422-1.2275391-0.7827148-1.6611328c-0.5219727-0.4326172-1.2021484-0.6494141-2.0405273-0.6494141
			c-0.7973633,0-1.4526367,0.2099609-1.965332,0.6289062c-0.5126953,0.4199219-0.769043,0.9326172-0.769043,1.5380859
			c0,0.3652344,0.0898438,0.6796875,0.2700195,0.9433594c0.1801758,0.2646484,0.4580078,0.4921875,0.8339844,0.6835938
			s0.8842773,0.3554688,1.5244141,0.4921875s1.0893555,0.2998047,1.3466797,0.4892578
			c0.2573242,0.1884766,0.3862305,0.4541016,0.3862305,0.7958984c0,0.3242188-0.1445312,0.5820312-0.434082,0.7763672
			c-0.2895508,0.1933594-0.6733398,0.2900391-1.1518555,0.2900391c-0.5195312,0-0.9375-0.1240234-1.2543945-0.3720703
			c-0.3168945-0.2490234-0.4863281-0.5849609-0.5092773-1.0087891h-1.2646484c0,0.4375,0.1289062,0.8447266,0.3862305,1.2207031
			s0.6142578,0.6689453,1.0698242,0.8779297c0.4555664,0.2099609,0.9799805,0.3144531,1.5722656,0.3144531
			c0.8432617,0,1.5288086-0.1992188,2.0576172-0.5976562c0.5288086-0.3994141,0.7929688-0.9287109,0.7929688-1.5898438
			c0-0.3964844-0.0947266-0.7324219-0.2836914-1.0078125C206.0678711,49.3349609,205.7773438,49.0996094,205.3852539,48.9033203z"/>
		<path class="st1" d="M210.7172852,51.7333984c-0.2963867,0-0.5058594-0.0742188-0.6289062-0.2216797
			c-0.1230469-0.1484375-0.1845703-0.3710938-0.1845703-0.6679688v-4.5927734h1.3808594v-0.9775391h-1.3808594v-1.7910156
			h-1.2646484v1.7910156h-1.3466797v0.9775391h1.3466797v4.5869141c0,0.6289062,0.1435547,1.1142578,0.4306641,1.4560547
			s0.7133789,0.5126953,1.2783203,0.5126953c0.3144531,0,0.6381836-0.0449219,0.9707031-0.1357422v-1.0195312
			C211.0634766,51.7060547,210.8632812,51.7333984,210.7172852,51.7333984z"/>
	</g>
</g>
<g>
	<path class="st1" d="M418,12.8999004H282.2000122v54H418V12.8999004z"/>
	<path class="st2" d="M355.8595886,32.2679901c-0.1129761-0.1315651-0.2402649-0.2307129-0.3384399-0.3022137l-0.0901184-0.0657825
		c-0.1816101-0.1325169-0.3880005-0.2831478-0.5881958-0.5024204c-0.6516418-0.715971-0.9681396-1.8709641-0.9681396-3.5326691
		c0-1.7060337-0.9852905-3.1394081-2.5121155-3.6575584c0.0119324-0.0724545,0.0181274-0.1472931,0.0181274-0.2221317
		c0-0.7607803-0.6192017-1.3799858-1.3804626-1.3799858s-1.3804626,0.6192055-1.3804626,1.3799858
		c0,0.073885,0.0057068,0.1482468,0.0176392,0.2221317c-1.5263367,0.5148144-2.5116272,1.9481869-2.5116272,3.6575584
		c0,1.6612282-0.3169861,2.8166981-0.9686279,3.5317173c-0.198761,0.2183189-0.4046936,0.368948-0.5863037,0.5014648
		l-0.0915222,0.0676899c-0.1124878,0.0819874-0.2312012,0.1754169-0.3403625,0.3022137
		c-0.0857849,0.1001015-0.2302246,0.3088875-0.2302246,0.5844078c0,0.4452209,0.2502747,0.8637428,0.6868896,1.1459389
		c0.325592,0.2125969,0.7626953,0.3699036,1.3752136,0.4966965c0.558197,0.1153564,1.2536926,0.1944885,2.1255188,0.2402496
		c-0.0204773,0.1115417-0.0309753,0.2230835-0.0309753,0.3336754c0,1.0677605,0.868042,1.9362679,1.934845,1.9362679
		s1.9343567-0.8685074,1.9343567-1.9362679c0-0.1105919-0.010498-0.2221336-0.0309753-0.3336754
		c0.8713684-0.0457611,1.5668335-0.1248932,2.1255188-0.2402496c0.61203-0.1267929,1.0491638-0.2840996,1.3752136-0.4966965
		c0.436615-0.282196,0.6868896-0.7007179,0.6868896-1.1459389C356.0912476,32.5730667,355.9463196,32.366188,355.8595886,32.2679901
		z M350.0002441,24.2678852c-0.1582642,0-0.2826843-0.1244144-0.2826843-0.282671
		c0-0.1582584,0.1244202-0.2821941,0.2826843-0.2821941s0.282196,0.1239357,0.282196,0.2821941
		C350.2824402,24.1434708,350.1585083,24.2678852,350.0002441,24.2678852z M354.9710388,32.9334335
		c-0.0276489,0.0400429-0.0834045,0.0877113-0.1663513,0.141098c-0.2102051,0.1363297-0.5643921,0.261219-0.9972229,0.3527412
		c-0.853241,0.1763725-2.0988159,0.2612228-3.8072205,0.2612228c-1.7093811,0-2.9549255-0.0848503-3.8067627-0.2612228
		c-0.4347229-0.0915222-0.7893982-0.2164116-0.999115-0.3527412c-0.0838928-0.0543404-0.1377563-0.1010551-0.1644592-0.1420517
		c0.0267029-0.0219269,0.0610046-0.0486183,0.0996094-0.0762672l0.0739136-0.0543404
		c0.1806335-0.1306114,0.4828491-0.3489304,0.7717285-0.6683044c0.8399048-0.9209442,1.2484131-2.3176155,1.2484131-4.2686634
		c0-1.3914261,0.7927246-2.4248657,2.0697632-2.6994324c0.4347229,0.2645569,0.9757385,0.261219,1.4152527-0.0081043
		c1.2756042,0.273613,2.0673523,1.3099136,2.0673523,2.7075367c0,1.9505711,0.4085083,3.3467655,1.2489014,4.2686634
		c0.2860107,0.3155594,0.5762939,0.5262527,0.7688904,0.6663971l0.0767517,0.0562477
		C354.9085999,32.8838615,354.9429321,32.910553,354.9710388,32.9334335z M350.0002441,35.9040985
		c-0.4614258,0-0.8370667-0.3746681-0.8370667-0.8351402c0-0.1029625,0.0171814-0.2021141,0.0514832-0.29459l0.067688,0.002861
		c0.4685974,0.0114403,0.964325,0.0114403,1.4357605,0l0.0657959-0.002861
		c0.0343018,0.0953369,0.0519409,0.1944847,0.0519409,0.29459
		C350.8358459,35.5294304,350.4607239,35.9040985,350.0002441,35.9040985z"/>
	<g>
		<polygon class="st2" points="336.1689453,49.5253906 335.9570312,50.8652344 335.6835938,49.6621094 333.7626953,42.7167969 
			332.6552734,42.7167969 330.6865234,49.6621094 330.40625,50.8447266 330.2148438,49.5322266 328.6425781,42.7167969 
			327.3300781,42.7167969 329.7363281,52.6699219 330.9326172,52.6699219 333.0585938,45.4169922 333.2158203,44.6582031 
			333.3730469,45.4169922 335.4238281,52.6699219 336.6201172,52.6699219 339.0332031,42.7167969 337.7138672,42.7167969 		"/>
		<path class="st2" d="M345.6982422,47.5361328c-0.0185547-0.7470703-0.2695312-1.3339844-0.7519531-1.7597656
			c-0.4833984-0.4267578-1.1513672-0.6396484-2.0029297-0.6396484c-0.5380859,0-1.03125,0.1005859-1.4804688,0.3007812
			c-0.4482422,0.2011719-0.8037109,0.4726562-1.0664062,0.8173828c-0.2617188,0.34375-0.3925781,0.7001953-0.3925781,1.0693359
			h1.2714844c0-0.3232422,0.1523438-0.5986328,0.4580078-0.8271484c0.3046875-0.2275391,0.6835938-0.3417969,1.1347656-0.3417969
			c0.5146484,0,0.9042969,0.1308594,1.1689453,0.3935547c0.2636719,0.2617188,0.3964844,0.6142578,0.3964844,1.0556641v0.5810547
			h-1.2304688c-1.0625,0-1.8857422,0.2128906-2.4716797,0.6396484c-0.5849609,0.4257812-0.8779297,1.0244141-0.8779297,1.7939453
			c0,0.6337891,0.2333984,1.15625,0.7001953,1.5693359c0.4677734,0.4121094,1.0654297,0.6181641,1.7949219,0.6181641
			c0.8154297,0,1.5175781-0.3046875,2.1054688-0.9160156c0.0449219,0.3740234,0.1044922,0.6337891,0.1777344,0.7792969h1.3261719
			v-0.109375c-0.1738281-0.4003906-0.2597656-0.9404297-0.2597656-1.6201172V47.5361328z M344.4335938,50.5986328
			c-0.1601562,0.328125-0.4169922,0.5947266-0.7724609,0.7998047s-0.7314453,0.3076172-1.1279297,0.3076172
			c-0.4150391,0-0.7548828-0.1113281-1.0185547-0.3349609c-0.2646484-0.2226562-0.3964844-0.5332031-0.3964844-0.9296875
			c0-0.90625,0.7744141-1.3603516,2.3242188-1.3603516h0.9912109V50.5986328z"/>
		<rect x="347.7900391" y="45.2734375" class="st2" width="1.2646484" height="7.3964844"/>
		<path class="st2" d="M348.4326172,42.5800781c-0.2460938,0-0.4316406,0.0712891-0.5576172,0.2119141
			c-0.125,0.1416016-0.1875,0.3144531-0.1875,0.5195312s0.0625,0.3759766,0.1875,0.5126953
			c0.1259766,0.1367188,0.3115234,0.2050781,0.5576172,0.2050781s0.4326172-0.0683594,0.5605469-0.2050781
			c0.1269531-0.1367188,0.1914062-0.3076172,0.1914062-0.5126953s-0.0644531-0.3779297-0.1914062-0.5195312
			C348.8652344,42.6513672,348.6787109,42.5800781,348.4326172,42.5800781z"/>
		<path class="st2" d="M352.9785156,51.5117188c-0.1230469-0.1484375-0.1845703-0.3710938-0.1845703-0.6679688v-4.5927734h1.3808594
			v-0.9775391h-1.3808594v-1.7910156h-1.2646484v1.7910156h-1.3466797v0.9775391h1.3466797v4.5869141
			c0,0.6289062,0.1435547,1.1142578,0.4306641,1.4560547s0.7128906,0.5126953,1.2783203,0.5126953
			c0.3144531,0,0.6376953-0.0449219,0.9707031-0.1357422v-1.0195312c-0.2558594,0.0546875-0.4560547,0.0820312-0.6015625,0.0820312
			C353.3105469,51.7333984,353.1015625,51.6591797,352.9785156,51.5117188z"/>
		<rect x="355.7607422" y="42.1699219" class="st2" width="1.2646484" height="10.5"/>
		<path class="st2" d="M359.8007812,42.5800781c-0.2460938,0-0.4316406,0.0712891-0.5576172,0.2119141
			c-0.125,0.1416016-0.1875,0.3144531-0.1875,0.5195312s0.0625,0.3759766,0.1875,0.5126953
			c0.1259766,0.1367188,0.3115234,0.2050781,0.5576172,0.2050781s0.4326172-0.0683594,0.5605469-0.2050781
			c0.1269531-0.1367188,0.1914062-0.3076172,0.1914062-0.5126953s-0.0644531-0.3779297-0.1914062-0.5195312
			C360.2333984,42.6513672,360.046875,42.5800781,359.8007812,42.5800781z"/>
		<rect x="359.1582031" y="45.2734375" class="st2" width="1.2646484" height="7.3964844"/>
		<path class="st2" d="M366.8623047,48.9033203c-0.3925781-0.1953125-0.9033203-0.3642578-1.5351562-0.5058594
			c-0.6308594-0.140625-1.0673828-0.2890625-1.3085938-0.4443359c-0.2421875-0.1542969-0.3623047-0.3847656-0.3623047-0.6904297
			c0-0.3232422,0.1298828-0.5849609,0.3896484-0.7861328c0.2597656-0.2001953,0.6191406-0.3007812,1.0800781-0.3007812
			c0.4462891,0,0.8164062,0.1259766,1.1103516,0.3759766c0.2939453,0.2509766,0.4414062,0.5498047,0.4414062,0.8955078h1.2714844
			c0-0.6738281-0.2607422-1.2275391-0.7832031-1.6611328c-0.5214844-0.4326172-1.2021484-0.6494141-2.0400391-0.6494141
			c-0.7978516,0-1.453125,0.2099609-1.9658203,0.6289062c-0.5126953,0.4199219-0.7685547,0.9326172-0.7685547,1.5380859
			c0,0.3652344,0.0898438,0.6796875,0.2695312,0.9433594c0.1806641,0.2646484,0.4580078,0.4921875,0.8339844,0.6835938
			s0.8847656,0.3554688,1.5244141,0.4921875c0.640625,0.1367188,1.0898438,0.2998047,1.3466797,0.4892578
			c0.2578125,0.1884766,0.3867188,0.4541016,0.3867188,0.7958984c0,0.3242188-0.1445312,0.5820312-0.4345703,0.7763672
			c-0.2890625,0.1933594-0.6728516,0.2900391-1.1513672,0.2900391c-0.5195312,0-0.9375-0.1240234-1.2548828-0.3720703
			c-0.3164062-0.2490234-0.4863281-0.5849609-0.5087891-1.0087891h-1.2646484c0,0.4375,0.1289062,0.8447266,0.3857422,1.2207031
			c0.2578125,0.3759766,0.6142578,0.6689453,1.0703125,0.8779297c0.4550781,0.2099609,0.9794922,0.3144531,1.5722656,0.3144531
			c0.8427734,0,1.5283203-0.1992188,2.0576172-0.5976562c0.5283203-0.3994141,0.7929688-0.9287109,0.7929688-1.5898438
			c0-0.3964844-0.0947266-0.7324219-0.2841797-1.0078125C367.5449219,49.3349609,367.2539062,49.0996094,366.8623047,48.9033203z"/>
		<path class="st2" d="M372.1943359,51.7333984c-0.296875,0-0.5058594-0.0742188-0.6289062-0.2216797
			c-0.1230469-0.1484375-0.1845703-0.3710938-0.1845703-0.6679688v-4.5927734h1.3808594v-0.9775391h-1.3808594v-1.7910156
			h-1.2646484v1.7910156h-1.3466797v0.9775391h1.3466797v4.5869141c0,0.6289062,0.1435547,1.1142578,0.4306641,1.4560547
			s0.7128906,0.5126953,1.2783203,0.5126953c0.3144531,0,0.6376953-0.0449219,0.9707031-0.1357422v-1.0195312
			C372.5400391,51.7060547,372.3398438,51.7333984,372.1943359,51.7333984z"/>
	</g>
</g>
<g>
	<path class="st1" d="M58.7595787,32.4127617c-0.1129723-0.1315613-0.2402458-0.2307091-0.3384399-0.3022118l-0.0900917-0.0657845
		c-0.1816177-0.132515-0.3880196-0.2831459-0.5882225-0.5024185c-0.6516228-0.715971-0.9681358-1.870966-0.9681358-3.5326691
		c0-1.7060337-0.9852982-3.1394081-2.5121002-3.6575584c0.0119171-0.0724545,0.018116-0.1472931,0.018116-0.2221317
		c0-0.7607803-0.6192093-1.3799877-1.3804665-1.3799877c-0.7612534,0-1.3804626,0.6192074-1.3804626,1.3799877
		c0,0.073885,0.005722,0.1482468,0.0176392,0.2221317c-1.5263252,0.5148125-2.5116234,1.9481869-2.5116234,3.6575584
		c0,1.6612282-0.3169899,2.8166981-0.9686127,3.5317154c-0.1987724,0.2183189-0.4046974,0.3689499-0.5863152,0.5014687
		l-0.0915222,0.067688c-0.1124954,0.0819893-0.2311897,0.175415-0.3403473,0.3022118
		c-0.085804,0.1001053-0.2302361,0.3088913-0.2302361,0.5844116c0,0.4452171,0.2502556,0.8637428,0.6868935,1.1459351
		c0.325573,0.2126007,0.7626877,0.3699036,1.3752213,0.4967003c0.5581894,0.1153564,1.2536659,0.1944847,2.1255112,0.2402458
		c-0.0204964,0.1115417-0.030983,0.2230873-0.030983,0.3336754c0,1.0677605,0.8680305,1.9362717,1.9348373,1.9362717
		c1.0668106,0,1.9343643-0.8685112,1.9343643-1.9362717c0-0.1105881-0.0104866-0.2221336-0.030983-0.3336754
		c0.8713684-0.0457611,1.5668449-0.1248894,2.1255112-0.2402458c0.6120567-0.1267967,1.0491714-0.2840996,1.3752213-0.4967003
		c0.4366379-0.2821922,0.6868935-0.7007179,0.6868935-1.1459351C58.9912453,32.7178383,58.8463364,32.5109596,58.7595787,32.4127617
		z M52.900238,24.4126568c-0.1582565,0-0.2826691-0.1244125-0.2826691-0.2826691
		c0-0.1582584,0.1244125-0.2821941,0.2826691-0.2821941c0.1582603,0,0.282196,0.1239357,0.282196,0.2821941
		C53.1824341,24.2882442,53.0584984,24.4126568,52.900238,24.4126568z M57.8710518,33.0782089
		c-0.0276489,0.0400391-0.0834198,0.0877075-0.1663628,0.1410942c-0.2102165,0.1363335-0.5643883,0.2612228-0.9972115,0.3527451
		c-0.8532562,0.1763687-2.0988197,0.261219-3.8072395,0.261219c-1.7093697,0-2.9549332-0.0848503-3.8067589-0.261219
		c-0.4347305-0.0915222-0.7893791-0.2164116-0.9991188-0.3527451c-0.0838966-0.0543404-0.1377602-0.1010551-0.1644554-0.1420479
		c0.0266953-0.0219269,0.0610161-0.0486221,0.0996284-0.0762711l0.0738831-0.0543404
		c0.1806641-0.1306114,0.4828758-0.3489304,0.7717438-0.6683044c0.8399086-0.9209442,1.2484245-2.3176136,1.2484245-4.2686615
		c0-1.3914261,0.792717-2.4248657,2.0697403-2.6994343c0.4347305,0.2645569,0.9757614,0.2612209,1.4152603-0.0081024
		c1.2755928,0.273613,2.0673561,1.3099136,2.0673561,2.7075367c0,1.9505711,0.4085159,3.3467655,1.2489014,4.2686615
		c0.2860069,0.3155632,0.5763054,0.5262527,0.7688828,0.6663971l0.0767441,0.0562477
		C57.8086052,33.0286331,57.842926,33.0553284,57.8710518,33.0782089z M52.900238,36.0488701
		c-0.461422,0-0.8370476-0.3746681-0.8370476-0.8351402c0-0.1029625,0.0171623-0.2021103,0.0514832-0.2945862l0.067688,0.0028572
		c0.4685745,0.0114403,0.9643211,0.0114403,1.4357567,0l0.0657806-0.0028572
		c0.0343208,0.0953331,0.05196,0.1944847,0.05196,0.2945862C53.7358589,35.674202,53.3607101,36.0488701,52.900238,36.0488701z"/>
	<g>
		<polygon class="st1" points="39.0693359,49.5253906 38.8574219,50.8652344 38.5839844,49.6621094 36.6630859,42.7167969 
			35.5556641,42.7167969 33.5869141,49.6621094 33.3066406,50.8447266 33.1152344,49.5322266 31.5429688,42.7167969 
			30.2304688,42.7167969 32.6367188,52.6699219 33.8330078,52.6699219 35.9589844,45.4169922 36.1162109,44.6582031 
			36.2734375,45.4169922 38.3242188,52.6699219 39.5205078,52.6699219 41.9335938,42.7167969 40.6142578,42.7167969 		"/>
		<path class="st1" d="M48.5986328,47.5361328c-0.0180664-0.7470703-0.269043-1.3339844-0.7519531-1.7597656
			c-0.4829102-0.4267578-1.1508789-0.6396484-2.0029297-0.6396484c-0.5375977,0-1.03125,0.1005859-1.4799805,0.3007812
			c-0.4487305,0.2011719-0.8041992,0.4726562-1.0664062,0.8173828c-0.262207,0.34375-0.3930664,0.7001953-0.3930664,1.0693359
			h1.2714844c0-0.3232422,0.152832-0.5986328,0.4580078-0.8271484c0.3051758-0.2275391,0.6835938-0.3417969,1.1347656-0.3417969
			c0.5151367,0,0.9047852,0.1308594,1.1689453,0.3935547c0.2641602,0.2617188,0.3964844,0.6142578,0.3964844,1.0556641v0.5810547
			h-1.2304688c-1.0620117,0-1.8857422,0.2128906-2.4711914,0.6396484c-0.5854492,0.4257812-0.878418,1.0244141-0.878418,1.7939453
			c0,0.6337891,0.2333984,1.15625,0.7006836,1.5693359c0.4672852,0.4121094,1.0654297,0.6181641,1.7944336,0.6181641
			c0.815918,0,1.5175781-0.3046875,2.1054688-0.9160156c0.0454102,0.3740234,0.1049805,0.6337891,0.1777344,0.7792969h1.3261719
			v-0.109375c-0.1733398-0.4003906-0.2597656-0.9404297-0.2597656-1.6201172V47.5361328z M47.3339844,50.5986328
			c-0.159668,0.328125-0.4169922,0.5947266-0.7724609,0.7998047s-0.7314453,0.3076172-1.1279297,0.3076172
			c-0.4145508,0-0.7543945-0.1113281-1.0185547-0.3349609c-0.2641602-0.2226562-0.3964844-0.5332031-0.3964844-0.9296875
			c0-0.90625,0.7749023-1.3603516,2.3242188-1.3603516h0.9912109V50.5986328z"/>
		<rect x="50.6904297" y="45.2734375" class="st1" width="1.2646484" height="7.3964844"/>
		<path class="st1" d="M51.3330078,42.5800781c-0.2460938,0-0.4316406,0.0712891-0.5571289,0.2119141
			c-0.1254883,0.1416016-0.1879883,0.3144531-0.1879883,0.5195312s0.0625,0.3759766,0.1879883,0.5126953
			s0.3110352,0.2050781,0.5571289,0.2050781s0.4331055-0.0683594,0.5605469-0.2050781s0.1914062-0.3076172,0.1914062-0.5126953
			s-0.0639648-0.3779297-0.1914062-0.5195312C51.7661133,42.6513672,51.5791016,42.5800781,51.3330078,42.5800781z"/>
		<path class="st1" d="M55.8789062,51.5117188c-0.1230469-0.1484375-0.1845703-0.3710938-0.1845703-0.6679688v-4.5927734h1.3808594
			v-0.9775391h-1.3808594v-1.7910156h-1.2646484v1.7910156h-1.3466797v0.9775391h1.3466797v4.5869141
			c0,0.6289062,0.1435547,1.1142578,0.4306641,1.4560547s0.7133789,0.5126953,1.2783203,0.5126953
			c0.3144531,0,0.6381836-0.0449219,0.9707031-0.1357422v-1.0195312c-0.2553711,0.0546875-0.4555664,0.0820312-0.6015625,0.0820312
			C56.2114258,51.7333984,56.0019531,51.6591797,55.8789062,51.5117188z"/>
		<rect x="58.6611328" y="42.1699219" class="st1" width="1.2646484" height="10.5"/>
		<path class="st1" d="M62.7011719,42.5800781c-0.2460938,0-0.4316406,0.0712891-0.5571289,0.2119141
			c-0.1254883,0.1416016-0.1879883,0.3144531-0.1879883,0.5195312s0.0625,0.3759766,0.1879883,0.5126953
			s0.3110352,0.2050781,0.5571289,0.2050781s0.4331055-0.0683594,0.5605469-0.2050781s0.1914062-0.3076172,0.1914062-0.5126953
			s-0.0639648-0.3779297-0.1914062-0.5195312C63.1342773,42.6513672,62.9472656,42.5800781,62.7011719,42.5800781z"/>
		<rect x="62.0585938" y="45.2734375" class="st1" width="1.2646484" height="7.3964844"/>
		<path class="st1" d="M69.7626953,48.9033203c-0.3920898-0.1953125-0.9033203-0.3642578-1.534668-0.5058594
			c-0.6313477-0.140625-1.0673828-0.2890625-1.309082-0.4443359c-0.2416992-0.1542969-0.3623047-0.3847656-0.3623047-0.6904297
			c0-0.3232422,0.1298828-0.5849609,0.3896484-0.7861328c0.2597656-0.2001953,0.6196289-0.3007812,1.0800781-0.3007812
			c0.4467773,0,0.8168945,0.1259766,1.1108398,0.3759766c0.2939453,0.2509766,0.440918,0.5498047,0.440918,0.8955078h1.2714844
			c0-0.6738281-0.2607422-1.2275391-0.7827148-1.6611328c-0.5219727-0.4326172-1.2021484-0.6494141-2.0405273-0.6494141
			c-0.7973633,0-1.4526367,0.2099609-1.965332,0.6289062c-0.5126953,0.4199219-0.769043,0.9326172-0.769043,1.5380859
			c0,0.3652344,0.0898438,0.6796875,0.2700195,0.9433594c0.1801758,0.2646484,0.4580078,0.4921875,0.8339844,0.6835938
			s0.8842773,0.3554688,1.5244141,0.4921875s1.0893555,0.2998047,1.3466797,0.4892578
			c0.2573242,0.1884766,0.3862305,0.4541016,0.3862305,0.7958984c0,0.3242188-0.1445312,0.5820312-0.434082,0.7763672
			c-0.2895508,0.1933594-0.6733398,0.2900391-1.1518555,0.2900391c-0.5195312,0-0.9375-0.1240234-1.2543945-0.3720703
			c-0.3168945-0.2490234-0.4863281-0.5849609-0.5092773-1.0087891h-1.2646484c0,0.4375,0.1289062,0.8447266,0.3862305,1.2207031
			s0.6142578,0.6689453,1.0698242,0.8779297c0.4555664,0.2099609,0.9799805,0.3144531,1.5722656,0.3144531
			c0.8432617,0,1.5288086-0.1992188,2.0576172-0.5976562c0.5288086-0.3994141,0.7929688-0.9287109,0.7929688-1.5898438
			c0-0.3964844-0.0947266-0.7324219-0.2836914-1.0078125C70.4453125,49.3349609,70.1547852,49.0996094,69.7626953,48.9033203z"/>
		<path class="st1" d="M75.0947266,51.7333984c-0.2963867,0-0.5058594-0.0742188-0.6289062-0.2216797
			C74.3427734,51.3632812,74.28125,51.140625,74.28125,50.84375v-4.5927734h1.3808594v-0.9775391H74.28125v-1.7910156h-1.2646484
			v1.7910156h-1.3466797v0.9775391h1.3466797v4.5869141c0,0.6289062,0.1435547,1.1142578,0.4306641,1.4560547
			s0.7133789,0.5126953,1.2783203,0.5126953c0.3144531,0,0.6381836-0.0449219,0.9707031-0.1357422v-1.0195312
			C75.440918,51.7060547,75.2407227,51.7333984,75.0947266,51.7333984z"/>
	</g>
</g>
</svg>
