<?xml version="1.0" encoding="utf-8"?>
<!-- Generator: Adobe Illustrator 24.2.0, SVG Export Plug-In . SVG Version: 6.00 Build 0)  -->
<svg version="1.1" id="Layer_1" xmlns="http://www.w3.org/2000/svg" xmlns:xlink="http://www.w3.org/1999/xlink" width="430" height="80" x="0px" y="0px"
	 viewBox="0 0 430 80" style="enable-background:new 0 0 430 80;" xml:space="preserve">
<style type="text/css">
	.st0{fill:#222222;}
	.st1{fill:#FFFFFF;}
</style>
<g>
	<g>
		<polygon class="st0" points="42.762207,42.1513672 42.550293,43.4912109 42.2768555,42.2880859 40.355957,35.3427734 
			39.2485352,35.3427734 37.2797852,42.2880859 36.9995117,43.4707031 36.8081055,42.1582031 35.2358398,35.3427734 
			33.9233398,35.3427734 36.3295898,45.2958984 37.5258789,45.2958984 39.6518555,38.0429688 39.809082,37.2841797 
			39.9663086,38.0429688 42.0170898,45.2958984 43.2133789,45.2958984 45.6264648,35.3427734 44.3071289,35.3427734 		"/>
		<path class="st0" d="M52.2915039,40.1621094c-0.0180664-0.7475586-0.269043-1.3339844-0.7519531-1.7602539
			s-1.1508789-0.6391602-2.0029297-0.6391602c-0.5375977,0-1.03125,0.1000977-1.4799805,0.3007812
			s-0.8041992,0.4726562-1.0664062,0.8168945s-0.3930664,0.7006836-0.3930664,1.0698242h1.2714844
			c0-0.3237305,0.152832-0.5991211,0.4580078-0.8271484s0.6835938-0.3417969,1.1347656-0.3417969
			c0.5151367,0,0.9047852,0.1308594,1.1689453,0.3930664s0.3964844,0.6142578,0.3964844,1.0561523v0.5810547h-1.2304688
			c-1.0620117,0-1.8857422,0.2128906-2.4711914,0.6396484c-0.5854492,0.4257812-0.878418,1.0244141-0.878418,1.7939453
			c0,0.6337891,0.2333984,1.15625,0.7006836,1.5693359c0.4672852,0.4121094,1.0654297,0.6181641,1.7944336,0.6181641
			c0.815918,0,1.5175781-0.3046875,2.1054688-0.9160156c0.0454102,0.3740234,0.1049805,0.6337891,0.1777344,0.7792969h1.3261719
			v-0.109375c-0.1733398-0.4003906-0.2597656-0.9404297-0.2597656-1.6201172V40.1621094z M51.0268555,43.2246094
			c-0.159668,0.328125-0.4169922,0.5947266-0.7724609,0.7998047s-0.7314453,0.3076172-1.1279297,0.3076172
			c-0.4145508,0-0.7543945-0.1113281-1.0185547-0.3349609c-0.2641602-0.2226562-0.3964844-0.5332031-0.3964844-0.9296875
			c0-0.90625,0.7749023-1.3603516,2.3242188-1.3603516h0.9912109V43.2246094z"/>
		<rect x="54.3833008" y="37.8994141" class="st0" width="1.2646484" height="7.3964844"/>
		<path class="st0" d="M55.0258789,35.2060547c-0.2460938,0-0.4316406,0.0708008-0.5571289,0.2119141
			s-0.1879883,0.3144531-0.1879883,0.5195312s0.0625,0.3759766,0.1879883,0.5126953s0.3110352,0.2050781,0.5571289,0.2050781
			s0.4331055-0.0683594,0.5605469-0.2050781S55.777832,36.1425781,55.777832,35.9375s-0.0639648-0.378418-0.1914062-0.5195312
			S55.2719727,35.2060547,55.0258789,35.2060547z"/>
		<path class="st0" d="M59.5717773,44.1376953c-0.1230469-0.1484375-0.1845703-0.3710938-0.1845703-0.6679688v-4.5927734h1.3808594
			v-0.9775391H59.387207v-1.7910156h-1.2646484v1.7910156h-1.3466797v0.9775391h1.3466797v4.5869141
			c0,0.6289062,0.1435547,1.1142578,0.4306641,1.4560547s0.7133789,0.5126953,1.2783203,0.5126953
			c0.3144531,0,0.6381836-0.0449219,0.9707031-0.1357422v-1.0195312c-0.2553711,0.0546875-0.4555664,0.0820312-0.6015625,0.0820312
			C59.9042969,44.359375,59.6948242,44.2851562,59.5717773,44.1376953z"/>
		<rect x="62.3540039" y="34.7958984" class="st0" width="1.2646484" height="10.5"/>
		<rect x="65.7514648" y="37.8994141" class="st0" width="1.2646484" height="7.3964844"/>
		<path class="st0" d="M66.394043,35.2060547c-0.2460938,0-0.4316406,0.0708008-0.5571289,0.2119141
			s-0.1879883,0.3144531-0.1879883,0.5195312s0.0625,0.3759766,0.1879883,0.5126953s0.3110352,0.2050781,0.5571289,0.2050781
			s0.4331055-0.0683594,0.5605469-0.2050781s0.1914062-0.3076172,0.1914062-0.5126953s-0.0639648-0.378418-0.1914062-0.5195312
			S66.6401367,35.2060547,66.394043,35.2060547z"/>
		<path class="st0" d="M73.4555664,41.5292969c-0.3920898-0.1953125-0.9033203-0.3642578-1.534668-0.5058594
			c-0.6313477-0.1411133-1.0673828-0.2895508-1.309082-0.4443359s-0.3623047-0.3852539-0.3623047-0.6904297
			c0-0.3237305,0.1298828-0.5854492,0.3896484-0.7861328s0.6196289-0.3007812,1.0800781-0.3007812
			c0.4467773,0,0.8168945,0.1254883,1.1108398,0.3759766s0.440918,0.5493164,0.440918,0.8955078h1.2714844
			c0-0.6743164-0.2607422-1.2280273-0.7827148-1.6611328s-1.2021484-0.6494141-2.0405273-0.6494141
			c-0.7973633,0-1.4526367,0.2094727-1.965332,0.6289062s-0.769043,0.9321289-0.769043,1.5380859
			c0,0.3647461,0.0898438,0.6791992,0.2700195,0.9433594c0.1801758,0.2646484,0.4580078,0.4921875,0.8339844,0.6835938
			s0.8842773,0.3554688,1.5244141,0.4921875s1.0893555,0.2998047,1.3466797,0.4892578
			c0.2573242,0.1884766,0.3862305,0.4541016,0.3862305,0.7958984c0,0.3242188-0.1445312,0.5820312-0.434082,0.7763672
			c-0.2895508,0.1933594-0.6733398,0.2900391-1.1518555,0.2900391c-0.5195312,0-0.9375-0.1240234-1.2543945-0.3720703
			c-0.3168945-0.2490234-0.4863281-0.5849609-0.5092773-1.0087891h-1.2646484c0,0.4375,0.1289062,0.8447266,0.3862305,1.2207031
			s0.6142578,0.6689453,1.0698242,0.8779297c0.4555664,0.2099609,0.9799805,0.3144531,1.5722656,0.3144531
			c0.8432617,0,1.5288086-0.1992188,2.0576172-0.5976562c0.5288086-0.3994141,0.7929688-0.9287109,0.7929688-1.5898438
			c0-0.3964844-0.0947266-0.7324219-0.2836914-1.0078125C74.1381836,41.9609375,73.8476562,41.7255859,73.4555664,41.5292969z"/>
		<path class="st0" d="M78.7875977,44.359375c-0.2963867,0-0.5058594-0.0742188-0.6289062-0.2216797
			c-0.1230469-0.1484375-0.1845703-0.3710938-0.1845703-0.6679688v-4.5927734h1.3808594v-0.9775391h-1.3808594v-1.7910156
			h-1.2646484v1.7910156H75.362793v0.9775391h1.3466797v4.5869141c0,0.6289062,0.1435547,1.1142578,0.4306641,1.4560547
			s0.7133789,0.5126953,1.2783203,0.5126953c0.3144531,0,0.6381836-0.0449219,0.9707031-0.1357422v-1.0195312
			C79.1337891,44.3320312,78.9335938,44.359375,78.7875977,44.359375z"/>
	</g>
	<path class="st0" d="M29.3683338,43.1578979c-0.1129723-0.1315613-0.2402458-0.2307129-0.3384418-0.3022118l-0.0900917-0.0657845
		c-0.1816158-0.132515-0.3880177-0.2831459-0.5882225-0.5024185c-0.6516209-0.7159729-0.9681358-1.8709641-0.9681358-3.5326691
		c0-1.7060356-0.9852962-3.1394081-2.5120983-3.6575584c0.0119171-0.0724564,0.0181141-0.1472931,0.0181141-0.2221336
		c0-0.7607803-0.6192074-1.3799858-1.3804626-1.3799858c-0.7612572,0-1.3804626,0.6192055-1.3804626,1.3799858
		c0,0.0738869,0.0057201,0.1482468,0.0176373,0.2221336c-1.5263271,0.5148125-2.5116234,1.948185-2.5116234,3.6575584
		c0,1.6612282-0.3169918,2.8166962-0.9686127,3.5317154c-0.1987743,0.2183189-0.4046993,0.3689499-0.5863152,0.5014648
		l-0.0915222,0.0676918c-0.1124954,0.0819855-0.2311897,0.175415-0.3403492,0.3022118
		c-0.0858021,0.1001053-0.2302361,0.3088875-0.2302361,0.5844078c0,0.4452209,0.2502575,0.8637428,0.6868954,1.1459389
		c0.3255711,0.2125969,0.7626858,0.3699036,1.3752193,0.4967003c0.5581913,0.1153564,1.2536659,0.1944847,2.1255131,0.2402458
		c-0.0204983,0.1115417-0.0309849,0.2230835-0.0309849,0.3336754c0,1.0677605,0.8680325,1.9362717,1.9348412,1.9362717
		c1.0668068,0,1.9343624-0.8685112,1.9343624-1.9362717c0-0.1105919-0.0104866-0.2221336-0.030983-0.3336754
		c0.8713684-0.0457611,1.5668449-0.1248894,2.1255112-0.2402458c0.6120567-0.1267967,1.0491714-0.2841034,1.3752193-0.4967003
		c0.4366379-0.282196,0.6868954-0.7007179,0.6868954-1.1459389C29.6000004,43.4629745,29.4550896,43.2560959,29.3683338,43.1578979z
		 M23.5089951,35.157795c-0.1582584,0-0.282671-0.1244164-0.282671-0.2826729s0.1244125-0.2821922,0.282671-0.2821922
		c0.1582565,0,0.2821941,0.1239357,0.2821941,0.2821922S23.6672516,35.157795,23.5089951,35.157795z M28.479805,43.8233414
		c-0.027647,0.0400429-0.0834198,0.0877113-0.1663609,0.141098c-0.2102165,0.1363297-0.5643883,0.261219-0.9972134,0.3527451
		c-0.8532562,0.1763687-2.0988178,0.261219-3.8072357,0.261219c-1.7093716,0-2.9549351-0.0848503-3.8067608-0.261219
		c-0.4347305-0.091526-0.789381-0.2164154-0.9991188-0.3527451c-0.0838947-0.0543404-0.1377602-0.1010551-0.1644535-0.1420479
		c0.0266933-0.0219307,0.0610142-0.0486221,0.0996246-0.0762711l0.073885-0.0543404
		c0.1806622-0.1306114,0.4828758-0.3489304,0.7717438-0.6683044c0.8399086-0.9209442,1.2484226-2.3176155,1.2484226-4.2686615
		c0-1.3914261,0.792717-2.4248657,2.0697422-2.6994324c0.4347305,0.2645569,0.9757614,0.261219,1.4152603-0.0081062
		c1.2755928,0.273613,2.0673561,1.3099136,2.0673561,2.7075386c0,1.9505692,0.408514,3.3467636,1.2488995,4.2686615
		c0.2860069,0.3155632,0.5763054,0.5262527,0.7688847,0.6663971l0.0767441,0.0562477
		C28.4173603,43.7737694,28.4516811,43.8004608,28.479805,43.8233414z M23.5089951,46.7940063
		c-0.4614258,0-0.8370495-0.3746681-0.8370495-0.8351402c0-0.1029625,0.0171604-0.2021141,0.0514812-0.29459l0.067688,0.002861
		c0.4685764,0.0114403,0.964323,0.0114403,1.4357586,0l0.0657806-0.002861
		c0.0343208,0.0953369,0.0519581,0.1944885,0.0519581,0.29459C24.3446121,46.4193382,23.9694672,46.7940063,23.5089951,46.7940063z"
		/>
</g>
<g>
	<path class="st0" d="M233.6999969,24.5998993c8.6999969,0,15.9000092,6.9000015,16,15.4000015
		c0,8.5-7.1999969,15.3999977-16,15.3999977H132.3000031c-8.8000031,0-16-6.8999977-16-15.3999977
		s7.1999969-15.4000015,16-15.4000015H233.6999969z M233.6999969,23.3999004H132.3000031
		c-9.4000015,0-17.2000046,7.3999996-17.2000046,16.6000004c0,9.0999985,7.7000046,16.5999985,17.2000046,16.5999985h101.3999939
		c9.4000092,0,17.1999969-7.3999977,17.1999969-16.5999985C250.6999969,30.7999001,243.1000061,23.3999004,233.6999969,23.3999004z"
		/>
	<g>
		<polygon class="st0" points="177.046875,42.1513672 176.8349609,43.4912109 176.5615234,42.2880859 174.640625,35.3427734 
			173.5332031,35.3427734 171.5644531,42.2880859 171.2841797,43.4707031 171.0927734,42.1582031 169.5205078,35.3427734 
			168.2080078,35.3427734 170.6142578,45.2958984 171.8105469,45.2958984 173.9365234,38.0429688 174.09375,37.2841797 
			174.2509766,38.0429688 176.3017578,45.2958984 177.4980469,45.2958984 179.9111328,35.3427734 178.5917969,35.3427734 		"/>
		<path class="st0" d="M186.5761719,40.1621094c-0.0180664-0.7475586-0.269043-1.3339844-0.7519531-1.7602539
			s-1.1508789-0.6391602-2.0029297-0.6391602c-0.5375977,0-1.03125,0.1000977-1.4799805,0.3007812
			s-0.8041992,0.4726562-1.0664062,0.8168945s-0.3930664,0.7006836-0.3930664,1.0698242h1.2714844
			c0-0.3237305,0.152832-0.5991211,0.4580078-0.8271484s0.6835938-0.3417969,1.1347656-0.3417969
			c0.5151367,0,0.9047852,0.1308594,1.1689453,0.3930664s0.3964844,0.6142578,0.3964844,1.0561523v0.5810547h-1.2304688
			c-1.0620117,0-1.8857422,0.2128906-2.4711914,0.6396484c-0.5854492,0.4257812-0.878418,1.0244141-0.878418,1.7939453
			c0,0.6337891,0.2333984,1.15625,0.7006836,1.5693359c0.4672852,0.4121094,1.0654297,0.6181641,1.7944336,0.6181641
			c0.815918,0,1.5175781-0.3046875,2.1054688-0.9160156c0.0454102,0.3740234,0.1049805,0.6337891,0.1777344,0.7792969h1.3261719
			v-0.109375c-0.1733398-0.4003906-0.2597656-0.9404297-0.2597656-1.6201172V40.1621094z M185.3115234,43.2246094
			c-0.159668,0.328125-0.4169922,0.5947266-0.7724609,0.7998047s-0.7314453,0.3076172-1.1279297,0.3076172
			c-0.4145508,0-0.7543945-0.1113281-1.0185547-0.3349609c-0.2641602-0.2226562-0.3964844-0.5332031-0.3964844-0.9296875
			c0-0.90625,0.7749023-1.3603516,2.3242188-1.3603516h0.9912109V43.2246094z"/>
		<rect x="188.6679688" y="37.8994141" class="st0" width="1.2646484" height="7.3964844"/>
		<path class="st0" d="M189.3105469,35.2060547c-0.2460938,0-0.4316406,0.0708008-0.5571289,0.2119141
			s-0.1879883,0.3144531-0.1879883,0.5195312s0.0625,0.3759766,0.1879883,0.5126953s0.3110352,0.2050781,0.5571289,0.2050781
			s0.4331055-0.0683594,0.5605469-0.2050781S190.0625,36.1425781,190.0625,35.9375s-0.0639648-0.378418-0.1914062-0.5195312
			S189.5566406,35.2060547,189.3105469,35.2060547z"/>
		<path class="st0" d="M193.8564453,44.1376953c-0.1230469-0.1484375-0.1845703-0.3710938-0.1845703-0.6679688v-4.5927734h1.3808594
			v-0.9775391h-1.3808594v-1.7910156h-1.2646484v1.7910156h-1.3466797v0.9775391h1.3466797v4.5869141
			c0,0.6289062,0.1435547,1.1142578,0.4306641,1.4560547s0.7133789,0.5126953,1.2783203,0.5126953
			c0.3144531,0,0.6381836-0.0449219,0.9707031-0.1357422v-1.0195312c-0.2553711,0.0546875-0.4555664,0.0820312-0.6015625,0.0820312
			C194.1889648,44.359375,193.9794922,44.2851562,193.8564453,44.1376953z"/>
		<rect x="196.6386719" y="34.7958984" class="st0" width="1.2646484" height="10.5"/>
		<rect x="200.0361328" y="37.8994141" class="st0" width="1.2646484" height="7.3964844"/>
		<path class="st0" d="M200.6787109,35.2060547c-0.2460938,0-0.4316406,0.0708008-0.5571289,0.2119141
			s-0.1879883,0.3144531-0.1879883,0.5195312s0.0625,0.3759766,0.1879883,0.5126953s0.3110352,0.2050781,0.5571289,0.2050781
			s0.4331055-0.0683594,0.5605469-0.2050781s0.1914062-0.3076172,0.1914062-0.5126953s-0.0639648-0.378418-0.1914062-0.5195312
			S200.9248047,35.2060547,200.6787109,35.2060547z"/>
		<path class="st0" d="M207.7402344,41.5292969c-0.3920898-0.1953125-0.9033203-0.3642578-1.534668-0.5058594
			c-0.6313477-0.1411133-1.0673828-0.2895508-1.309082-0.4443359s-0.3623047-0.3852539-0.3623047-0.6904297
			c0-0.3237305,0.1298828-0.5854492,0.3896484-0.7861328s0.6196289-0.3007812,1.0800781-0.3007812
			c0.4467773,0,0.8168945,0.1254883,1.1108398,0.3759766s0.440918,0.5493164,0.440918,0.8955078h1.2714844
			c0-0.6743164-0.2607422-1.2280273-0.7827148-1.6611328s-1.2021484-0.6494141-2.0405273-0.6494141
			c-0.7973633,0-1.4526367,0.2094727-1.965332,0.6289062s-0.769043,0.9321289-0.769043,1.5380859
			c0,0.3647461,0.0898438,0.6791992,0.2700195,0.9433594c0.1801758,0.2646484,0.4580078,0.4921875,0.8339844,0.6835938
			s0.8842773,0.3554688,1.5244141,0.4921875s1.0893555,0.2998047,1.3466797,0.4892578
			c0.2573242,0.1884766,0.3862305,0.4541016,0.3862305,0.7958984c0,0.3242188-0.1445312,0.5820312-0.434082,0.7763672
			c-0.2895508,0.1933594-0.6733398,0.2900391-1.1518555,0.2900391c-0.5195312,0-0.9375-0.1240234-1.2543945-0.3720703
			c-0.3168945-0.2490234-0.4863281-0.5849609-0.5092773-1.0087891h-1.2646484c0,0.4375,0.1289062,0.8447266,0.3862305,1.2207031
			s0.6142578,0.6689453,1.0698242,0.8779297c0.4555664,0.2099609,0.9799805,0.3144531,1.5722656,0.3144531
			c0.8432617,0,1.5288086-0.1992188,2.0576172-0.5976562c0.5288086-0.3994141,0.7929688-0.9287109,0.7929688-1.5898438
			c0-0.3964844-0.0947266-0.7324219-0.2836914-1.0078125C208.4228516,41.9609375,208.1323242,41.7255859,207.7402344,41.5292969z"/>
		<path class="st0" d="M213.0722656,44.359375c-0.2963867,0-0.5058594-0.0742188-0.6289062-0.2216797
			c-0.1230469-0.1484375-0.1845703-0.3710938-0.1845703-0.6679688v-4.5927734h1.3808594v-0.9775391h-1.3808594v-1.7910156
			h-1.2646484v1.7910156h-1.3466797v0.9775391h1.3466797v4.5869141c0,0.6289062,0.1435547,1.1142578,0.4306641,1.4560547
			s0.7133789,0.5126953,1.2783203,0.5126953c0.3144531,0,0.6381836-0.0449219,0.9707031-0.1357422v-1.0195312
			C213.418457,44.3320312,213.2182617,44.359375,213.0722656,44.359375z"/>
	</g>
	<path class="st0" d="M163.8303375,43.3126602c-0.1129608-0.1315613-0.2402344-0.2307091-0.3384399-0.3022118l-0.0900879-0.0657845
		c-0.1816101-0.132515-0.3880157-0.2831459-0.5882263-0.5024185c-0.6516113-0.7159729-0.9681396-1.8709641-0.9681396-3.5326691
		c0-1.7060356-0.9852905-3.1394081-2.512085-3.6575584c0.0119171-0.0724564,0.0181122-0.1472931,0.0181122-0.2221336
		c0-0.7607803-0.6192169-1.3799858-1.3804626-1.3799858c-0.761261,0-1.3804626,0.6192055-1.3804626,1.3799858
		c0,0.0738869,0.0057068,0.1482468,0.0176239,0.2221336c-1.5263214,0.5148125-2.5116119,1.9481888-2.5116119,3.6575584
		c0,1.6612282-0.3170013,2.8166962-0.9686127,3.5317154c-0.1987762,0.2183189-0.4047089,0.3689499-0.586319,0.5014687
		l-0.0915222,0.067688c-0.1124878,0.0819893-0.2311859,0.175415-0.3403473,0.3022118
		c-0.0858002,0.1001053-0.2302399,0.3088913-0.2302399,0.5844116c0,0.4452171,0.2502594,0.8637428,0.6869049,1.1459351
		c0.3255615,0.2126007,0.7626801,0.3699036,1.3752136,0.4967003c0.558197,0.1153564,1.2536621,0.1944847,2.1255035,0.2402458
		c-0.0204926,0.1115417-0.0309753,0.2230873-0.0309753,0.3336754c0,1.0677605,0.8680267,1.9362717,1.934845,1.9362717
		c1.066803,0,1.9343567-0.8685112,1.9343567-1.9362717c0-0.1105881-0.0104828-0.2221336-0.0309753-0.3336754
		c0.8713684-0.0457611,1.5668335-0.1248894,2.1255035-0.2402458c0.6120605-0.1267967,1.0491791-0.2840996,1.3752136-0.4967003
		c0.4366455-0.2821922,0.6869049-0.7007179,0.6869049-1.1459351
		C164.0620117,43.6177368,163.917099,43.4108582,163.8303375,43.3126602z M157.9710083,35.3125572
		c-0.1582642,0-0.2826691-0.1244125-0.2826691-0.2826729c0-0.1582565,0.1244049-0.2821922,0.2826691-0.2821922
		c0.1582489,0,0.2821808,0.1239357,0.2821808,0.2821922C158.2531891,35.1881447,158.1292572,35.3125572,157.9710083,35.3125572z
		 M162.9418182,43.9781075c-0.0276489,0.0400391-0.0834198,0.0877075-0.1663666,0.1410942
		c-0.2102203,0.1363335-0.5643921,0.2612228-0.9972076,0.3527451c-0.8532562,0.1763687-2.0988159,0.261219-3.8072357,0.261219
		c-1.7093811,0-2.9549408-0.0848503-3.8067627-0.261219c-0.4347382-0.0915222-0.7893829-0.2164116-0.999115-0.3527451
		c-0.0839081-0.0543404-0.1377716-0.1010551-0.1644592-0.1420479c0.0266876-0.0219269,0.0610199-0.0486221,0.0996246-0.0762711
		l0.0738831-0.0543404c0.1806641-0.1306114,0.4828796-0.3489304,0.7717438-0.6683044
		c0.8399048-0.9209442,1.2484283-2.3176117,1.2484283-4.2686615c0-1.3914261,0.7927094-2.4248657,2.0697327-2.6994324
		c0.4347382,0.2645569,0.975769,0.261219,1.4152679-0.0081062c1.275589,0.2736168,2.0673523,1.3099174,2.0673523,2.7075386
		c0,1.950573,0.4085083,3.3467636,1.2489014,4.2686615c0.2860107,0.3155632,0.5763092,0.5262527,0.7688751,0.6663971
		l0.0767517,0.0562477C162.879364,43.9285316,162.913681,43.9552269,162.9418182,43.9781075z M157.9710083,46.9487686
		c-0.4614258,0-0.8370514-0.3746681-0.8370514-0.8351402c0-0.1029625,0.0171509-0.2021103,0.0514832-0.2945862l0.067688,0.0028572
		c0.4685669,0.0114403,0.964325,0.0114403,1.4357605,0l0.0657806-0.0028572
		c0.034317,0.0953331,0.0519562,0.1944847,0.0519562,0.2945862
		C158.8066254,46.5741005,158.4314728,46.9487686,157.9710083,46.9487686z"/>
</g>
<g>
	<path class="st0" d="M418.6000061,23.3999004H282.7999878v33.1999969h135.8000183V23.3999004z"/>
	<g>
		<polygon class="st1" points="346.6412964,42.1513672 346.4303589,43.4912109 346.1569214,42.2880859 344.2350464,35.3427734 
			343.1276245,35.3427734 341.1588745,42.2880859 340.8795776,43.4707031 340.6881714,42.1582031 339.1159058,35.3427734 
			337.8034058,35.3427734 340.2096558,45.2958984 341.4049683,45.2958984 343.5319214,38.0429688 343.6881714,37.2841797 
			343.8463745,38.0429688 345.8971558,45.2958984 347.0924683,45.2958984 349.5065308,35.3427734 348.1862183,35.3427734 		"/>
		<path class="st1" d="M356.1705933,40.1621094c-0.0175781-0.7475586-0.2685547-1.3339844-0.7519531-1.7602539
			c-0.4824219-0.4262695-1.1503906-0.6391602-2.0019531-0.6391602c-0.5380859,0-1.03125,0.1000977-1.4804688,0.3007812
			s-0.8046875,0.4726562-1.0664062,0.8168945s-0.3925781,0.7006836-0.3925781,1.0698242h1.2714844
			c0-0.3237305,0.1523438-0.5991211,0.4570312-0.8271484c0.3056641-0.2280273,0.6835938-0.3417969,1.1347656-0.3417969
			c0.515625,0,0.9052734,0.1308594,1.1699219,0.3930664c0.2636719,0.262207,0.3964844,0.6142578,0.3964844,1.0561523v0.5810547
			h-1.2304688c-1.0625,0-1.8867188,0.2128906-2.4716797,0.6396484c-0.5849609,0.4257812-0.8779297,1.0244141-0.8779297,1.7939453
			c0,0.6337891,0.2324219,1.15625,0.7001953,1.5693359c0.4677734,0.4121094,1.0654297,0.6181641,1.7939453,0.6181641
			c0.8164062,0,1.5175781-0.3046875,2.1054688-0.9160156c0.0458984,0.3740234,0.1054688,0.6337891,0.1777344,0.7792969h1.3261719
			v-0.109375c-0.1728516-0.4003906-0.2597656-0.9404297-0.2597656-1.6201172V40.1621094z M354.9069214,43.2246094
			c-0.1601562,0.328125-0.4179688,0.5947266-0.7734375,0.7998047s-0.7304688,0.3076172-1.1269531,0.3076172
			c-0.4150391,0-0.7548828-0.1113281-1.0195312-0.3349609c-0.2636719-0.2226562-0.3964844-0.5332031-0.3964844-0.9296875
			c0-0.90625,0.7753906-1.3603516,2.3242188-1.3603516h0.9921875V43.2246094z"/>
		<rect x="358.2623901" y="37.8994141" class="st1" width="1.265625" height="7.3964844"/>
		<path class="st1" d="M358.9049683,35.2060547c-0.2460938,0-0.4316406,0.0708008-0.5566406,0.2119141
			s-0.1875,0.3144531-0.1875,0.5195312s0.0625,0.3759766,0.1875,0.5126953s0.3105469,0.2050781,0.5566406,0.2050781
			s0.4335938-0.0683594,0.5605469-0.2050781c0.1279297-0.1367188,0.1914062-0.3076172,0.1914062-0.5126953
			s-0.0634766-0.378418-0.1914062-0.5195312C359.338562,35.2768555,359.151062,35.2060547,358.9049683,35.2060547z"/>
		<path class="st1" d="M363.4518433,44.1376953c-0.1230469-0.1484375-0.1855469-0.3710938-0.1855469-0.6679688v-4.5927734h1.3808594
			v-0.9775391h-1.3808594v-1.7910156h-1.2636719v1.7910156h-1.3476562v0.9775391h1.3476562v4.5869141
			c0,0.6289062,0.1425781,1.1142578,0.4296875,1.4560547s0.7138672,0.5126953,1.2792969,0.5126953
			c0.3144531,0,0.6376953-0.0449219,0.9707031-0.1357422v-1.0195312c-0.2558594,0.0546875-0.4560547,0.0820312-0.6015625,0.0820312
			C363.7838745,44.359375,363.5748901,44.2851562,363.4518433,44.1376953z"/>
		<rect x="366.2330933" y="34.7958984" class="st1" width="1.265625" height="10.5"/>
		<rect x="369.6315308" y="37.8994141" class="st1" width="1.2636719" height="7.3964844"/>
		<path class="st1" d="M370.2741089,35.2060547c-0.2460938,0-0.4316406,0.0708008-0.5576172,0.2119141
			s-0.1884766,0.3144531-0.1884766,0.5195312s0.0625,0.3759766,0.1884766,0.5126953s0.3115234,0.2050781,0.5576172,0.2050781
			s0.4326172-0.0683594,0.5605469-0.2050781c0.1269531-0.1367188,0.1914062-0.3076172,0.1914062-0.5126953
			s-0.0644531-0.378418-0.1914062-0.5195312C370.7067261,35.2768555,370.5202026,35.2060547,370.2741089,35.2060547z"/>
		<path class="st1" d="M377.3346558,41.5292969c-0.3916016-0.1953125-0.9023438-0.3642578-1.5341797-0.5058594
			c-0.6318359-0.1411133-1.0673828-0.2895508-1.3095703-0.4443359c-0.2412109-0.1547852-0.3613281-0.3852539-0.3613281-0.6904297
			c0-0.3237305,0.1289062-0.5854492,0.3886719-0.7861328s0.6201172-0.3007812,1.0800781-0.3007812
			c0.4472656,0,0.8173828,0.1254883,1.1113281,0.3759766s0.4414062,0.5493164,0.4414062,0.8955078h1.2714844
			c0-0.6743164-0.2617188-1.2280273-0.7832031-1.6611328s-1.2021484-0.6494141-2.0410156-0.6494141
			c-0.796875,0-1.4521484,0.2094727-1.9648438,0.6289062s-0.7695312,0.9321289-0.7695312,1.5380859
			c0,0.3647461,0.0898438,0.6791992,0.2705078,0.9433594c0.1806641,0.2646484,0.4580078,0.4921875,0.8339844,0.6835938
			s0.8837891,0.3554688,1.5244141,0.4921875s1.0898438,0.2998047,1.3466797,0.4892578
			c0.2568359,0.1884766,0.3857422,0.4541016,0.3857422,0.7958984c0,0.3242188-0.1445312,0.5820312-0.4335938,0.7763672
			c-0.2890625,0.1933594-0.6738281,0.2900391-1.1523438,0.2900391c-0.5195312,0-0.9375-0.1240234-1.2539062-0.3720703
			c-0.3164062-0.2490234-0.4863281-0.5849609-0.5097656-1.0087891h-1.2636719c0,0.4375,0.1289062,0.8447266,0.3857422,1.2207031
			s0.6142578,0.6689453,1.0693359,0.8779297c0.4560547,0.2099609,0.9804688,0.3144531,1.5722656,0.3144531
			c0.84375,0,1.5292969-0.1992188,2.0585938-0.5976562c0.5283203-0.3994141,0.7929688-0.9287109,0.7929688-1.5898438
			c0-0.3964844-0.0957031-0.7324219-0.2841797-1.0078125C378.0182495,41.9609375,377.7272339,41.7255859,377.3346558,41.5292969z"/>
		<path class="st1" d="M382.666687,44.359375c-0.2958984,0-0.5058594-0.0742188-0.6289062-0.2216797
			c-0.1230469-0.1484375-0.1835938-0.3710938-0.1835938-0.6679688v-4.5927734h1.3808594v-0.9775391h-1.3808594v-1.7910156h-1.265625
			v1.7910156h-1.3457031v0.9775391h1.3457031v4.5869141c0,0.6289062,0.1445312,1.1142578,0.4316406,1.4560547
			s0.7128906,0.5126953,1.2773438,0.5126953c0.3144531,0,0.6386719-0.0449219,0.9707031-0.1357422v-1.0195312
			C383.0133667,44.3320312,382.8131714,44.359375,382.666687,44.359375z"/>
	</g>
	<g>
		<path class="st1" d="M333.1635437,42.9303665c-0.1129761-0.1315651-0.2402344-0.2307129-0.3384399-0.3022156l-0.0900879-0.0657806
			c-0.1816101-0.1325188-0.388031-0.2831497-0.5882263-0.5024223c-0.6516113-0.7159691-0.9681396-1.8709641-0.9681396-3.5326691
			c0-1.7060318-0.9852905-3.1394081-2.512085-3.6575584c0.0119019-0.0724564,0.0180969-0.1472931,0.0180969-0.2221336
			c0-0.7607765-0.6192017-1.3799858-1.3804626-1.3799858s-1.3804626,0.6192093-1.3804626,1.3799858
			c0,0.0738869,0.0057373,0.1482506,0.0176392,0.2221336c-1.5263062,0.5148125-2.5116272,1.9481888-2.5116272,3.6575584
			c0,1.6612282-0.3169861,2.8167-0.9685974,3.5317154c-0.1987915,0.2183189-0.4046936,0.3689499-0.5863037,0.5014687
			l-0.0915222,0.067688c-0.1125183,0.0819893-0.2312012,0.1754189-0.3403625,0.3022156
			c-0.0858154,0.1001015-0.2302246,0.3088875-0.2302246,0.5844078c0,0.4452171,0.2502441,0.8637428,0.6868896,1.1459351
			c0.3255615,0.2126007,0.7626953,0.3699036,1.3752136,0.4967003c0.558197,0.1153564,1.2536621,0.1944847,2.1255188,0.2402458
			c-0.0205078,0.1115456-0.0310059,0.2230873-0.0310059,0.3336754c0,1.0677605,0.868042,1.9362717,1.934845,1.9362717
			s1.9343872-0.8685112,1.9343872-1.9362717c0-0.1105881-0.010498-0.2221298-0.0310059-0.3336754
			c0.8713684-0.0457611,1.566864-0.1248894,2.1255188-0.2402458c0.6120605-0.1267967,1.0491638-0.2840996,1.3752136-0.4967003
			c0.4366455-0.2821922,0.6868896-0.7007179,0.6868896-1.1459351
			C333.3952026,43.2354393,333.2503052,43.0285606,333.1635437,42.9303665z M327.3041992,34.9302597
			c-0.1582336,0-0.2826538-0.1244125-0.2826538-0.2826729c0-0.1582565,0.1244202-0.2821922,0.2826538-0.2821922
			c0.1582642,0,0.282196,0.1239357,0.282196,0.2821922C327.5863953,34.8058472,327.4624634,34.9302597,327.3041992,34.9302597z
			 M332.2750244,43.5958099c-0.0276489,0.0400391-0.0834351,0.0877075-0.1663513,0.141098
			c-0.2102356,0.1363297-0.5643921,0.261219-0.9972229,0.3527412c-0.8532715,0.1763725-2.0988159,0.261219-3.807251,0.261219
			c-1.7093506,0-2.9549255-0.0848465-3.8067627-0.261219c-0.4347229-0.0915222-0.7893677-0.2164116-0.999115-0.3527412
			c-0.0838928-0.0543442-0.1377563-0.101059-0.1644592-0.1420517c0.0267029-0.0219269,0.0610352-0.0486221,0.0996399-0.0762672
			l0.0738831-0.0543442c0.1806641-0.1306076,0.4828796-0.3489265,0.771759-0.6683044
			c0.8399048-0.9209442,1.2484131-2.3176117,1.2484131-4.2686615c0-1.3914261,0.7927246-2.4248657,2.0697327-2.6994324
			c0.4347229,0.2645569,0.975769,0.261219,1.4152527-0.0081024c1.2756042,0.273613,2.0673828,1.3099136,2.0673828,2.7075348
			c0,1.950573,0.4085083,3.3467636,1.2488708,4.2686615c0.2860107,0.3155632,0.5763245,0.5262566,0.7688904,0.6663971
			l0.0767517,0.0562515C332.2125854,43.5462341,332.2468872,43.5729294,332.2750244,43.5958099z M327.3041992,46.5664749
			c-0.4614258,0-0.8370361-0.3746719-0.8370361-0.835144c0-0.1029625,0.0171509-0.2021103,0.0514832-0.2945862l0.067688,0.002861
			c0.4685669,0.0114403,0.964325,0.0114403,1.4357605,0l0.0657654-0.002861
			c0.0343323,0.0953369,0.0519714,0.1944847,0.0519714,0.2945862
			C328.1398315,46.191803,327.764679,46.5664749,327.3041992,46.5664749z"/>
	</g>
</g>
</svg>
