<?xml version="1.0" encoding="utf-8"?>
<!-- Generator: Adobe Illustrator 24.2.0, SVG Export Plug-In . SVG Version: 6.00 Build 0)  -->
<svg version="1.1" id="Layer_1" xmlns="http://www.w3.org/2000/svg" xmlns:xlink="http://www.w3.org/1999/xlink" width="430" height="80" x="0px" y="0px"
	 viewBox="0 0 430 80" style="enable-background:new 0 0 430 80;" xml:space="preserve">
<style type="text/css">
	.st0{fill:#222222;}
	.st1{fill:#FFFFFF;}
</style>
<g>
	<path class="st0" d="M233.6999969,24.5998993c8.6999969,0,15.9000092,6.9000015,16,15.4000015
		c0,8.5-7.1999969,15.3999977-16,15.3999977H132.3000031c-8.8000031,0-16-6.8999977-16-15.3999977
		s7.1999969-15.4000015,16-15.4000015H233.6999969z M233.6999969,23.3999004H132.3000031
		c-9.4000015,0-17.2000046,7.3999996-17.2000046,16.6000004c0,9.0999985,7.7000046,16.5999985,17.2000046,16.5999985h101.3999939
		c9.4000092,0,17.1999969-7.3999977,17.1999969-16.5999985C250.6999969,30.7999001,243.1000061,23.3999004,233.6999969,23.3999004z"
		/>
	<g>
		<polygon class="st0" points="161.1819763,42.2890625 160.9700623,43.6289062 160.6966248,42.4257812 158.7757263,35.4799805 
			157.6683044,35.4799805 155.6995544,42.4257812 155.419281,43.6083984 155.2278748,42.2958984 153.6556091,35.4799805 
			152.3431091,35.4799805 154.7493591,45.4335938 155.9456482,45.4335938 158.0716248,38.1801758 158.2288513,37.4213867 
			158.3860779,38.1801758 160.4368591,45.4335938 161.6331482,45.4335938 164.0462341,35.4799805 162.7268982,35.4799805 		"/>
		<path class="st0" d="M170.7112732,40.2993164c-0.0180664-0.7475586-0.269043-1.3339844-0.7519531-1.7602539
			s-1.1508789-0.6391602-2.0029297-0.6391602c-0.5375977,0-1.03125,0.1000977-1.4799805,0.3007812
			s-0.8041992,0.4726562-1.0664062,0.8168945s-0.3930664,0.7006836-0.3930664,1.0698242h1.2714844
			c0-0.3237305,0.152832-0.5991211,0.4580078-0.8271484s0.6835938-0.3417969,1.1347656-0.3417969
			c0.5151367,0,0.9047852,0.1308594,1.1689453,0.3930664s0.3964844,0.6142578,0.3964844,1.0561523v0.5810547h-1.2304688
			c-1.0620117,0-1.8857422,0.2133789-2.4711914,0.6391602c-0.5854492,0.4267578-0.878418,1.0244141-0.878418,1.7949219
			c0,0.6328125,0.2333984,1.15625,0.7006836,1.5683594c0.4672852,0.4130859,1.0654297,0.6191406,1.7944336,0.6191406
			c0.815918,0,1.5175781-0.3056641,2.1054688-0.9160156c0.0454102,0.3730469,0.1049805,0.6328125,0.1777344,0.7792969h1.3261719
			v-0.109375c-0.1733398-0.4013672-0.2597656-0.9414062-0.2597656-1.6201172V40.2993164z M169.4466248,43.3623047
			c-0.159668,0.328125-0.4169922,0.5947266-0.7724609,0.7998047s-0.7314453,0.3076172-1.1279297,0.3076172
			c-0.4145508,0-0.7543945-0.1123047-1.0185547-0.3349609c-0.2641602-0.2236328-0.3964844-0.5332031-0.3964844-0.9296875
			c0-0.9072266,0.7749023-1.3603516,2.3242188-1.3603516h0.9912109V43.3623047z"/>
		<rect x="172.8030701" y="38.0366211" class="st0" width="1.2646484" height="7.3969727"/>
		<path class="st0" d="M173.4456482,35.3432617c-0.2460938,0-0.4316406,0.0708008-0.5571289,0.2119141
			s-0.1879883,0.3144531-0.1879883,0.5195312s0.0625,0.3759766,0.1879883,0.5126953s0.3110352,0.2050781,0.5571289,0.2050781
			s0.4331055-0.0683594,0.5605469-0.2050781s0.1914062-0.3076172,0.1914062-0.5126953s-0.0639648-0.378418-0.1914062-0.5195312
			S173.6917419,35.3432617,173.4456482,35.3432617z"/>
		<path class="st0" d="M177.9915466,44.2744141c-0.1230469-0.1484375-0.1845703-0.3710938-0.1845703-0.6669922v-4.5932617h1.3808594
			v-0.9775391h-1.3808594v-1.7910156h-1.2646484v1.7910156h-1.3466797v0.9775391h1.3466797v4.5874023
			c0,0.6289062,0.1435547,1.1142578,0.4306641,1.4560547s0.7133789,0.5126953,1.2783203,0.5126953
			c0.3144531,0,0.6381836-0.0458984,0.9707031-0.1357422v-1.0195312c-0.2553711,0.0546875-0.4555664,0.0820312-0.6015625,0.0820312
			C178.3240662,44.4970703,178.1145935,44.4228516,177.9915466,44.2744141z"/>
		<rect x="180.7737732" y="34.9331055" class="st0" width="1.2646484" height="10.5004883"/>
		<rect x="184.1712341" y="38.0366211" class="st0" width="1.2646484" height="7.3969727"/>
		<path class="st0" d="M184.8138123,35.3432617c-0.2460938,0-0.4316406,0.0708008-0.5571289,0.2119141
			s-0.1879883,0.3144531-0.1879883,0.5195312s0.0625,0.3759766,0.1879883,0.5126953s0.3110352,0.2050781,0.5571289,0.2050781
			s0.4331055-0.0683594,0.5605469-0.2050781s0.1914062-0.3076172,0.1914062-0.5126953s-0.0639648-0.378418-0.1914062-0.5195312
			S185.059906,35.3432617,184.8138123,35.3432617z"/>
		<path class="st0" d="M191.8753357,41.6669922c-0.3920898-0.1962891-0.9033203-0.3652344-1.534668-0.5058594
			c-0.6313477-0.1416016-1.0673828-0.2900391-1.309082-0.4448242s-0.3623047-0.3852539-0.3623047-0.6904297
			c0-0.3237305,0.1298828-0.5854492,0.3896484-0.7861328s0.6196289-0.3007812,1.0800781-0.3007812
			c0.4467773,0,0.8168945,0.1254883,1.1108398,0.3759766s0.440918,0.5493164,0.440918,0.8955078h1.2714844
			c0-0.6743164-0.2607422-1.2280273-0.7827148-1.6611328s-1.2021484-0.6494141-2.0405273-0.6494141
			c-0.7973633,0-1.4526367,0.2094727-1.965332,0.6289062s-0.769043,0.9321289-0.769043,1.5380859
			c0,0.3647461,0.0898438,0.6791992,0.2700195,0.9438477c0.1801758,0.2636719,0.4580078,0.4921875,0.8339844,0.6835938
			s0.8842773,0.3554688,1.5244141,0.4921875s1.0893555,0.2998047,1.3466797,0.4882812
			c0.2573242,0.1894531,0.3862305,0.4550781,0.3862305,0.796875c0,0.3232422-0.1445312,0.5820312-0.434082,0.7753906
			c-0.2895508,0.1943359-0.6733398,0.2910156-1.1518555,0.2910156c-0.5195312,0-0.9375-0.1240234-1.2543945-0.3730469
			c-0.3168945-0.2480469-0.4863281-0.5839844-0.5092773-1.0078125h-1.2646484c0,0.4375,0.1289062,0.84375,0.3862305,1.2197266
			s0.6142578,0.6689453,1.0698242,0.8789062c0.4555664,0.2089844,0.9799805,0.3144531,1.5722656,0.3144531
			c0.8432617,0,1.5288086-0.1992188,2.0576172-0.5986328c0.5288086-0.3984375,0.7929688-0.9287109,0.7929688-1.5888672
			c0-0.3964844-0.0947266-0.7324219-0.2836914-1.0087891C192.5579529,42.0986328,192.2674255,41.8623047,191.8753357,41.6669922z"/>
		<path class="st0" d="M196.5784607,44.2744141c-0.1230469-0.1484375-0.1845703-0.3710938-0.1845703-0.6669922v-4.5932617h1.3808594
			v-0.9775391h-1.3808594v-1.7910156h-1.2646484v1.7910156h-1.3466797v0.9775391h1.3466797v4.5874023
			c0,0.6289062,0.1435547,1.1142578,0.4306641,1.4560547s0.7133789,0.5126953,1.2783203,0.5126953
			c0.3144531,0,0.6381836-0.0458984,0.9707031-0.1357422v-1.0195312c-0.2553711,0.0546875-0.4555664,0.0820312-0.6015625,0.0820312
			C196.9109802,44.4970703,196.7015076,44.4228516,196.5784607,44.2744141z"/>
		<path class="st0" d="M214.1429749,43.3563232c-0.1129761-0.1315918-0.2402344-0.2307129-0.3384399-0.3022461l-0.0900879-0.0657349
			c-0.1816406-0.1325073-0.3880005-0.2831421-0.5882568-0.5024414c-0.6516113-0.7159424-0.9681396-1.8709717-0.9681396-3.5326538
			c0-1.7060547-0.9852905-3.1394043-2.512085-3.6575928c0.0119019-0.0724487,0.0181274-0.1472778,0.0181274-0.2221069
			c0-0.7608032-0.6192017-1.3800049-1.3804932-1.3800049c-0.7612305,0-1.3804321,0.6192017-1.3804321,1.3800049
			c0,0.0739136,0.0057373,0.1482544,0.0176392,0.2221069c-1.5263062,0.5148315-2.5115967,1.9481812-2.5115967,3.6575928
			c0,1.6611938-0.3170166,2.8167114-0.9686279,3.5316772c-0.1987915,0.2183228-0.4047241,0.3689575-0.5863037,0.5014648
			l-0.0915527,0.067688c-0.1124878,0.0820312-0.2312012,0.1754761-0.340332,0.3022461
			c-0.0858154,0.1000977-0.2302246,0.3088989-0.2302246,0.5844116c0,0.4451904,0.2502441,0.8637085,0.6868896,1.1459351
			c0.3255615,0.2125854,0.7626953,0.369873,1.3751831,0.4967041c0.5582275,0.1153564,1.2536621,0.194458,2.1255493,0.2402344
			c-0.0205078,0.1115723-0.0310059,0.2230835-0.0310059,0.3336792c0,1.067749,0.868042,1.9362793,1.9348145,1.9362793
			c1.0668335,0,1.9343872-0.8685303,1.9343872-1.9362793c0-0.1105957-0.010498-0.2221069-0.0310059-0.3336792
			c0.8713989-0.0457764,1.5668945-0.1248779,2.1255493-0.2402344c0.6120605-0.1268311,1.0491333-0.2841187,1.3751831-0.4967041
			c0.4366455-0.2822266,0.6869507-0.7007446,0.6869507-1.1459351
			C214.3746643,43.661377,214.2297058,43.4545288,214.1429749,43.3563232z M208.2835999,34.7913208
			c0.1582642,0,0.2822266,0.1239624,0.2822266,0.2822266s-0.1239624,0.2826538-0.2822266,0.2826538
			c-0.1582031,0-0.2826538-0.1243896-0.2826538-0.2826538S208.1253967,34.7913208,208.2835999,34.7913208z M208.2835999,46.9924316
			c-0.4614258,0-0.8370361-0.3746948-0.8370361-0.835144c0-0.1029663,0.0171509-0.2020874,0.0515137-0.2946167l0.067688,0.0028687
			c0.4685669,0.0114746,0.9642944,0.0114746,1.43573,0l0.0657959-0.0028687
			c0.0343018,0.0953369,0.0519409,0.194519,0.0519409,0.2946167
			C209.1192322,46.6177368,208.7441101,46.9924316,208.2835999,46.9924316z M213.0881042,44.1628418
			c-0.2102661,0.1363525-0.5643921,0.2612305-0.9972534,0.3527832c-0.8532715,0.1763306-2.0988159,0.2612305-3.807251,0.2612305
			c-1.7093506,0-2.954895-0.0848999-3.8067017-0.2612305c-0.4347534-0.0915527-0.7894287-0.2164307-0.9991455-0.3527832
			c-0.0839233-0.0543213-0.1377563-0.1010132-0.1644287-0.1420288c0.0266724-0.0219116,0.0609741-0.048645,0.0996094-0.0762939
			l0.0738525-0.0543213c0.1806641-0.1306152,0.4829102-0.348938,0.7717896-0.6682739
			c0.8399048-0.9209595,1.2484131-2.317627,1.2484131-4.2686768c0-1.3914185,0.7927246-2.4248657,2.0697021-2.6994629
			c0.4347534,0.2645874,0.975769,0.2612305,1.4152832-0.0080566c1.2755737,0.2735596,2.0673828,1.3098755,2.0673828,2.7075195
			c0,1.9505615,0.4085083,3.3467407,1.2489014,4.2686768c0.2860107,0.3155518,0.5762939,0.5262451,0.7688599,0.6663818
			l0.0767212,0.0562134c0.038147,0.0276489,0.0724487,0.0543823,0.1005859,0.0772705
			C213.2267761,44.0618286,213.17099,44.1094971,213.0881042,44.1628418z"/>
	</g>
</g>
<g>
	<path class="st0" d="M80.3508224,43.3126602c-0.1129684-0.1315613-0.240242-0.2307091-0.3384399-0.3022118L79.922287,42.944664
		c-0.1816101-0.132515-0.3880157-0.2831459-0.5882187-0.5024185c-0.651619-0.7159729-0.9681396-1.8709641-0.9681396-3.5326691
		c0-1.7060356-0.9852905-3.1394081-2.5120926-3.6575584c0.0119171-0.0724564,0.0181122-0.1472931,0.0181122-0.2221336
		c0-0.7607803-0.6192093-1.3799858-1.3804626-1.3799858c-0.761261,0-1.3804626,0.6192055-1.3804626,1.3799858
		c0,0.0738869,0.005722,0.1482468,0.0176392,0.2221336c-1.526329,0.5148125-2.5116272,1.9481888-2.5116272,3.6575584
		c0,1.6612282-0.3169937,2.8166962-0.9686127,3.5317154c-0.1987762,0.2183189-0.4047012,0.3689499-0.5863113,0.5014687
		l-0.0915222,0.067688c-0.1124954,0.0819893-0.2311935,0.175415-0.3403549,0.3022118
		c-0.0858002,0.1001053-0.2302322,0.3088913-0.2302322,0.5844116c0,0.4452171,0.2502594,0.8637428,0.6868973,1.1459351
		c0.3255692,0.2126007,0.7626877,0.3699036,1.3752136,0.4967003c0.558197,0.1153564,1.2536697,0.1944847,2.1255188,0.2402458
		c-0.0205002,0.1115417-0.0309906,0.2230873-0.0309906,0.3336754c0,1.0677605,0.8680344,1.9362717,1.934845,1.9362717
		c1.066803,0,1.9343643-0.8685112,1.9343643-1.9362717c0-0.1105881-0.0104904-0.2221336-0.030983-0.3336754
		c0.8713684-0.0457611,1.5668411-0.1248894,2.1255112-0.2402458c0.6120529-0.1267967,1.0491714-0.2840996,1.3752213-0.4967003
		c0.4366379-0.2821922,0.6868896-0.7007179,0.6868896-1.1459351C80.582489,43.6177368,80.4375763,43.4108582,80.3508224,43.3126602z
		 M74.4914856,35.3125572c-0.1582565,0-0.2826691-0.1244125-0.2826691-0.2826729
		c0-0.1582565,0.1244125-0.2821922,0.2826691-0.2821922s0.282196,0.1239357,0.282196,0.2821922
		C74.7736816,35.1881447,74.6497421,35.3125572,74.4914856,35.3125572z M79.4622955,43.9781075
		c-0.0276489,0.0400391-0.0834198,0.0877075-0.1663589,0.1410942c-0.2102203,0.1363335-0.5643921,0.2612228-0.9972153,0.3527451
		c-0.8532562,0.1763687-2.0988159,0.261219-3.8072357,0.261219c-1.7093735,0-2.9549332-0.0848503-3.8067627-0.261219
		c-0.4347305-0.0915222-0.7893753-0.2164116-0.999115-0.3527451c-0.0839005-0.0543404-0.137764-0.1010551-0.1644592-0.1420479
		c0.0266953-0.0219269,0.0610199-0.0486221,0.0996246-0.0762711l0.0738907-0.0543404
		c0.1806564-0.1306114,0.482872-0.3489304,0.7717438-0.6683044c0.8399048-0.9209442,1.2484207-2.3176117,1.2484207-4.2686615
		c0-1.3914261,0.792717-2.4248657,2.0697403-2.6994324c0.4347305,0.2645569,0.9757614,0.261219,1.4152603-0.0081062
		c1.2755966,0.2736168,2.0673599,1.3099174,2.0673599,2.7075386c0,1.950573,0.4085083,3.3467636,1.2488937,4.2686615
		c0.2860107,0.3155632,0.5763092,0.5262527,0.7688904,0.6663971l0.0767441,0.0562477
		C79.3998489,43.9285316,79.4341736,43.9552269,79.4622955,43.9781075z M74.4914856,46.9487686
		c-0.4614258,0-0.8370514-0.3746681-0.8370514-0.8351402c0-0.1029625,0.0171585-0.2021103,0.0514832-0.2945862l0.067688,0.0028572
		c0.4685745,0.0114403,0.964325,0.0114403,1.4357605,0l0.0657806-0.0028572
		c0.034317,0.0953331,0.0519562,0.1944847,0.0519562,0.2945862C75.3271027,46.5741005,74.9519577,46.9487686,74.4914856,46.9487686z
		"/>
	<g>
		<path class="st0" d="M21.4887695,42.1582031l0.1914062,1.3125l0.2802734-1.1826172l1.96875-6.9453125h1.1074219
			l1.9208984,6.9453125l0.2734375,1.203125l0.2119141-1.3398438l1.5449219-6.8085938h1.3193359l-2.4130859,9.953125h-1.1962891
			l-2.0507812-7.2529297l-0.1572266-0.7587891l-0.1572266,0.7587891l-2.1259766,7.2529297h-1.1962891l-2.40625-9.953125h1.3125
			L21.4887695,42.1582031z"/>
		<path class="st0" d="M35.9057617,45.2958984c-0.0727539-0.1464844-0.1323242-0.40625-0.1777344-0.7792969
			c-0.5878906,0.6103516-1.2895508,0.9160156-2.1054688,0.9160156c-0.7290039,0-1.3271484-0.2060547-1.7944336-0.6191406
			c-0.4672852-0.4121094-0.7006836-0.9355469-0.7006836-1.5683594c0-0.7705078,0.2929688-1.3681641,0.878418-1.7949219
			c0.5854492-0.4257812,1.4091797-0.6386719,2.4711914-0.6386719h1.2304688v-0.5810547
			c0-0.4418945-0.1323242-0.7939453-0.3964844-1.0561523S34.6572266,38.78125,34.1420898,38.78125
			c-0.4511719,0-0.8295898,0.1137695-1.1347656,0.3417969s-0.4580078,0.503418-0.4580078,0.8271484H31.277832
			c0-0.3691406,0.1308594-0.7255859,0.3930664-1.0698242s0.6176758-0.6162109,1.0664062-0.8168945
			s0.9423828-0.3007812,1.4799805-0.3007812c0.8520508,0,1.5200195,0.2128906,2.0029297,0.6391602
			s0.7338867,1.0126953,0.7519531,1.7602539v3.4042969c0,0.6787109,0.0864258,1.21875,0.2597656,1.6201172v0.109375H35.9057617z
			 M33.8071289,44.3320312c0.3964844,0,0.7724609-0.1025391,1.1279297-0.3076172s0.612793-0.4716797,0.7724609-0.7998047v-1.5175781
			h-0.9912109c-1.5493164,0-2.3242188,0.453125-2.3242188,1.3603516c0,0.3964844,0.1323242,0.7060547,0.3964844,0.9296875
			C33.0527344,44.2197266,33.3925781,44.3320312,33.8071289,44.3320312z"/>
		<path class="st0" d="M38.9614258,35.9375c0-0.2050781,0.0625-0.378418,0.1879883-0.5195312
			s0.3110352-0.2119141,0.5571289-0.2119141s0.4331055,0.0708008,0.5605469,0.2119141s0.1914062,0.3144531,0.1914062,0.5195312
			s-0.0639648,0.3759766-0.1914062,0.5126953s-0.3144531,0.2050781-0.5605469,0.2050781s-0.4316406-0.0683594-0.5571289-0.2050781
			S38.9614258,36.1425781,38.9614258,35.9375z M40.3286133,45.2958984h-1.2646484v-7.3964844h1.2646484V45.2958984z"/>
		<path class="st0" d="M44.0678711,36.1083984v1.7910156h1.3808594v0.9775391h-1.3808594v4.5927734
			c0,0.2958984,0.0615234,0.5185547,0.1845703,0.6669922s0.3325195,0.2226562,0.6289062,0.2226562
			c0.1459961,0,0.3461914-0.0273438,0.6015625-0.0820312v1.0195312c-0.3325195,0.0898438-0.65625,0.1357422-0.9707031,0.1357422
			c-0.5649414,0-0.9912109-0.1708984-1.2783203-0.5126953s-0.4306641-0.8271484-0.4306641-1.4560547v-4.5869141H41.456543
			v-0.9775391h1.3466797v-1.7910156H44.0678711z"/>
		<path class="st0" d="M48.2993164,45.2958984H47.034668v-10.5h1.2646484V45.2958984z"/>
		<path class="st0" d="M50.3295898,35.9375c0-0.2050781,0.0625-0.378418,0.1879883-0.5195312
			s0.3110352-0.2119141,0.5571289-0.2119141s0.4331055,0.0708008,0.5605469,0.2119141s0.1914062,0.3144531,0.1914062,0.5195312
			s-0.0639648,0.3759766-0.1914062,0.5126953s-0.3144531,0.2050781-0.5605469,0.2050781s-0.4316406-0.0683594-0.5571289-0.2050781
			S50.3295898,36.1425781,50.3295898,35.9375z M51.6967773,45.2958984h-1.2646484v-7.3964844h1.2646484V45.2958984z"/>
		<path class="st0" d="M58.0268555,43.3339844c0-0.3417969-0.1289062-0.6074219-0.3862305-0.796875
			c-0.2573242-0.1884766-0.706543-0.3515625-1.3466797-0.4882812s-1.1484375-0.3007812-1.5244141-0.4921875
			s-0.6538086-0.4199219-0.8339844-0.6835938c-0.1801758-0.2641602-0.2700195-0.5786133-0.2700195-0.9433594
			c0-0.605957,0.2563477-1.1186523,0.769043-1.5380859s1.1679688-0.6289062,1.965332-0.6289062
			c0.8383789,0,1.5185547,0.2163086,2.0405273,0.6494141s0.7827148,0.9868164,0.7827148,1.6611328h-1.2714844
			c0-0.3461914-0.1469727-0.6450195-0.440918-0.8955078s-0.6640625-0.3759766-1.1108398-0.3759766
			c-0.4604492,0-0.8203125,0.1000977-1.0800781,0.3007812s-0.3896484,0.4624023-0.3896484,0.7861328
			c0,0.3051758,0.1206055,0.5356445,0.3623047,0.6904297s0.6777344,0.3032227,1.309082,0.4443359
			c0.6313477,0.140625,1.1425781,0.3095703,1.534668,0.5058594c0.3920898,0.1953125,0.6826172,0.4316406,0.871582,0.7070312
			c0.1889648,0.2763672,0.2836914,0.6123047,0.2836914,1.0087891c0,0.6601562-0.2641602,1.1904297-0.7929688,1.5888672
			c-0.5288086,0.3994141-1.2143555,0.5986328-2.0576172,0.5986328c-0.5922852,0-1.1166992-0.1054688-1.5722656-0.3144531
			c-0.4555664-0.2099609-0.8125-0.5029297-1.0698242-0.8789062s-0.3862305-0.7822266-0.3862305-1.2197266h1.2646484
			c0.0229492,0.4238281,0.1923828,0.7597656,0.5092773,1.0078125c0.3168945,0.2490234,0.7348633,0.3730469,1.2543945,0.3730469
			c0.4785156,0,0.8623047-0.0966797,1.1518555-0.2910156C57.8823242,43.9160156,58.0268555,43.6572266,58.0268555,43.3339844z"/>
		<path class="st0" d="M62.6547852,36.1083984v1.7910156h1.3808594v0.9775391h-1.3808594v4.5927734
			c0,0.2958984,0.0615234,0.5185547,0.1845703,0.6669922s0.3325195,0.2226562,0.6289062,0.2226562
			c0.1459961,0,0.3461914-0.0273438,0.6015625-0.0820312v1.0195312c-0.3325195,0.0898438-0.65625,0.1357422-0.9707031,0.1357422
			c-0.5649414,0-0.9912109-0.1708984-1.2783203-0.5126953s-0.4306641-0.8271484-0.4306641-1.4560547v-4.5869141H60.043457
			v-0.9775391h1.3466797v-1.7910156H62.6547852z"/>
	</g>
</g>
<g>
	<path class="st0" d="M418.6000061,23.3999004H282.7999878v33.1999969h135.8000183V23.3999004z"/>
	<g>
		<path class="st1" d="M382.3670349,43.3126831c-0.1129761-0.1315918-0.2402954-0.2307129-0.3384399-0.3022461l-0.0901489-0.0657959
			c-0.1815796-0.1325073-0.3880005-0.2831421-0.5881958-0.5023804c-0.6516113-0.7160034-0.9681396-1.8709717-0.9681396-3.5326538
			c0-1.7060547-0.9852905-3.1394653-2.512085-3.6575928c0.0119019-0.0724487,0.0181274-0.1472778,0.0181274-0.2221069
			c0-0.7608032-0.6192017-1.3800049-1.3804932-1.3800049c-0.7612305,0-1.3804321,0.6192017-1.3804321,1.3800049
			c0,0.0738525,0.0056763,0.1482544,0.0176392,0.2221069c-1.5263672,0.5148315-2.5116577,1.9481812-2.5116577,3.6575928
			c0,1.6611938-0.3169556,2.8166504-0.9686279,3.5316772c-0.1987305,0.2183228-0.4046631,0.3689575-0.5863037,0.5014648
			l-0.0914917,0.067688c-0.1124878,0.0819702-0.2312012,0.175415-0.3403931,0.3022461
			c-0.0857544,0.1000977-0.2302246,0.3088379-0.2302246,0.5844116c0,0.4451904,0.2503052,0.8637085,0.6868896,1.1459351
			c0.3256226,0.2125854,0.7626953,0.369873,1.3752441,0.4967041c0.5581665,0.1153564,1.2536621,0.194458,2.1254883,0.2402344
			c-0.0204468,0.1115112-0.0309448,0.2230835-0.0309448,0.3336792c0,1.067749,0.868042,1.9362793,1.9348145,1.9362793
			c1.0668335,0,1.9343872-0.8685303,1.9343872-1.9362793c0-0.1105957-0.010498-0.222168-0.0310059-0.3336792
			c0.8713989-0.0457764,1.5668335-0.1248779,2.1255493-0.2402344c0.6119995-0.1268311,1.0491333-0.2841187,1.3751831-0.4967041
			c0.4366455-0.2822266,0.6868896-0.7007446,0.6868896-1.1459351
			C382.5986633,43.6177368,382.4537659,43.4108276,382.3670349,43.3126831z M376.5076599,34.7476807
			c0.1582642,0,0.2822266,0.1239624,0.2822266,0.2822266s-0.1239624,0.2826538-0.2822266,0.2826538
			s-0.2826538-0.1243896-0.2826538-0.2826538S376.3493958,34.7476807,376.5076599,34.7476807z M376.5076599,46.9487915
			c-0.4614258,0-0.8370361-0.3746948-0.8370361-0.835144c0-0.1029663,0.0171509-0.2021484,0.0514526-0.2946167l0.067688,0.0028687
			c0.4686279,0.0114136,0.9643555,0.0114136,1.435791,0l0.0657959-0.0028687
			c0.0343018,0.0953369,0.0519409,0.194519,0.0519409,0.2946167
			C377.3432922,46.5740967,376.9681702,46.9487915,376.5076599,46.9487915z M381.3121033,44.1192017
			c-0.2102051,0.1363525-0.5643921,0.2612305-0.9971924,0.3527222c-0.8532715,0.1763916-2.0988159,0.2612305-3.807251,0.2612305
			c-1.7093506,0-2.954895-0.0848389-3.8067627-0.2612305c-0.4346924-0.0914917-0.7893677-0.2163696-0.9990845-0.3527222
			c-0.0839233-0.0543213-0.1377563-0.1010742-0.1644897-0.1420288c0.0267334-0.0219727,0.0610352-0.048645,0.0996094-0.0762939
			l0.0739136-0.0543213c0.1806641-0.1306152,0.4828491-0.348938,0.7717285-0.668335
			c0.8399048-0.9208984,1.2484131-2.317627,1.2484131-4.2686157c0-1.3914795,0.7927246-2.4249268,2.0697632-2.6994629
			c0.4347534,0.2645264,0.975769,0.2612305,1.4152832-0.0081177c1.2755737,0.2736206,2.0673218,1.3099365,2.0673218,2.7075806
			c0,1.9505615,0.4085083,3.3467407,1.2489014,4.2686157c0.2860107,0.3155518,0.5762939,0.5262451,0.7689209,0.6664429
			l0.0767212,0.0562134c0.038147,0.0276489,0.0724487,0.0543213,0.1005859,0.0772095
			C381.4508362,44.0181274,381.39505,44.0657959,381.3121033,44.1192017z"/>
		<polygon class="st1" points="328.7607117,42.1513672 328.547821,43.4912109 328.2743835,42.2880859 326.3544617,35.3422852 
			325.2470398,35.3422852 323.2782898,42.2880859 322.9970398,43.4707031 322.8056335,42.1582031 321.2333679,35.3422852 
			319.9208679,35.3422852 322.3271179,45.2958984 323.5243835,45.2958984 325.6493835,38.0424805 325.8075867,37.2836914 
			325.9638367,38.0424805 328.0146179,45.2958984 329.2118835,45.2958984 331.6239929,35.3422852 330.3056335,35.3422852 		"/>
		<path class="st1" d="M338.2900085,40.1616211c-0.0185547-0.7475586-0.2695312-1.3339844-0.7519531-1.7602539
			c-0.4833984-0.4262695-1.1513672-0.6391602-2.0039062-0.6391602c-0.5371094,0-1.03125,0.1000977-1.4794922,0.3007812
			s-0.8037109,0.4726562-1.0664062,0.8168945s-0.3935547,0.7006836-0.3935547,1.0698242h1.2714844
			c0-0.3237305,0.1533203-0.5991211,0.4589844-0.8271484c0.3046875-0.2280273,0.6835938-0.3417969,1.1347656-0.3417969
			c0.5146484,0,0.9042969,0.1308594,1.1679688,0.3930664c0.2646484,0.262207,0.3964844,0.6142578,0.3964844,1.0561523v0.5810547
			h-1.2304688c-1.0615234,0-1.8847656,0.2133789-2.4707031,0.6391602c-0.5859375,0.4267578-0.8789062,1.0244141-0.8789062,1.7949219
			c0,0.6328125,0.234375,1.15625,0.7011719,1.5683594c0.4667969,0.4130859,1.0654297,0.6191406,1.7949219,0.6191406
			c0.8154297,0,1.5175781-0.3056641,2.1054688-0.9160156c0.0449219,0.3730469,0.1044922,0.6328125,0.1777344,0.7792969h1.3261719
			v-0.109375c-0.1738281-0.4013672-0.2597656-0.9414062-0.2597656-1.6201172V40.1616211z M337.0243835,43.2246094
			c-0.1591797,0.328125-0.4160156,0.5947266-0.7714844,0.7998047s-0.7324219,0.3076172-1.1289062,0.3076172
			c-0.4140625,0-0.7539062-0.1123047-1.0175781-0.3349609c-0.2646484-0.2236328-0.3964844-0.5332031-0.3964844-0.9296875
			c0-0.9072266,0.7744141-1.3603516,2.3242188-1.3603516h0.9902344V43.2246094z"/>
		<path class="st1" d="M341.0243835,35.2055664c-0.2460938,0-0.4316406,0.0708008-0.5576172,0.2119141
			s-0.1884766,0.3144531-0.1884766,0.5195312s0.0625,0.3759766,0.1884766,0.5126953s0.3115234,0.2050781,0.5576172,0.2050781
			s0.4326172-0.0683594,0.5605469-0.2050781c0.1269531-0.1367188,0.1914062-0.3076172,0.1914062-0.5126953
			s-0.0644531-0.378418-0.1914062-0.5195312C341.4570007,35.2763672,341.2704773,35.2055664,341.0243835,35.2055664z"/>
		<rect x="340.3818054" y="37.8989258" class="st1" width="1.2636719" height="7.3969727"/>
		<path class="st1" d="M345.5693054,44.1367188c-0.1230469-0.1484375-0.1835938-0.3710938-0.1835938-0.6669922v-4.5932617h1.3808594
			v-0.9775391h-1.3808594v-1.7910156h-1.265625v1.7910156h-1.3457031v0.9775391h1.3457031v4.5874023
			c0,0.6289062,0.1445312,1.1142578,0.4316406,1.4560547s0.7128906,0.5126953,1.2773438,0.5126953
			c0.3144531,0,0.6386719-0.0458984,0.9707031-0.1357422v-1.0195312c-0.2548828,0.0546875-0.4550781,0.0820312-0.6015625,0.0820312
			C345.9023132,44.359375,345.6923523,44.2851562,345.5693054,44.1367188z"/>
		<rect x="348.3525085" y="34.7954102" class="st1" width="1.2636719" height="10.5004883"/>
		<path class="st1" d="M352.391571,35.2055664c-0.2460938,0-0.4316406,0.0708008-0.5566406,0.2119141
			s-0.1875,0.3144531-0.1875,0.5195312s0.0625,0.3759766,0.1875,0.5126953s0.3105469,0.2050781,0.5566406,0.2050781
			s0.4335938-0.0683594,0.5605469-0.2050781c0.1279297-0.1367188,0.1914062-0.3076172,0.1914062-0.5126953
			s-0.0634766-0.378418-0.1914062-0.5195312C352.8251648,35.2763672,352.6376648,35.2055664,352.391571,35.2055664z"/>
		<rect x="351.7489929" y="37.8989258" class="st1" width="1.265625" height="7.3969727"/>
		<path class="st1" d="M359.454071,41.5292969c-0.3925781-0.1962891-0.9042969-0.3652344-1.5351562-0.5058594
			c-0.6308594-0.1416016-1.0673828-0.2900391-1.3085938-0.4448242c-0.2421875-0.1547852-0.3632812-0.3852539-0.3632812-0.6904297
			c0-0.3237305,0.1308594-0.5854492,0.390625-0.7861328s0.6191406-0.3007812,1.0800781-0.3007812
			c0.4462891,0,0.8164062,0.1254883,1.1103516,0.3759766s0.4404297,0.5493164,0.4404297,0.8955078h1.2714844
			c0-0.6743164-0.2597656-1.2280273-0.7822266-1.6611328s-1.2021484-0.6494141-2.0400391-0.6494141
			c-0.7978516,0-1.453125,0.2094727-1.9658203,0.6289062s-0.7685547,0.9321289-0.7685547,1.5380859
			c0,0.3647461,0.0898438,0.6791992,0.2695312,0.9433594s0.4580078,0.4926758,0.8339844,0.684082
			s0.8847656,0.3554688,1.5244141,0.4921875s1.0888672,0.2998047,1.3466797,0.4882812
			c0.2578125,0.1894531,0.3867188,0.4550781,0.3867188,0.796875c0,0.3232422-0.1445312,0.5820312-0.4345703,0.7753906
			c-0.2900391,0.1943359-0.6728516,0.2910156-1.1513672,0.2910156c-0.5195312,0-0.9375-0.1240234-1.2548828-0.3730469
			c-0.3173828-0.2480469-0.4863281-0.5839844-0.5087891-1.0078125h-1.265625c0,0.4375,0.1289062,0.84375,0.3867188,1.2197266
			s0.6142578,0.6689453,1.0703125,0.8789062c0.4550781,0.2089844,0.9794922,0.3144531,1.5722656,0.3144531
			c0.8427734,0,1.5283203-0.1992188,2.0566406-0.5986328c0.5292969-0.3984375,0.7929688-0.9287109,0.7929688-1.5888672
			c0-0.3964844-0.09375-0.7324219-0.2832031-1.0087891C360.1357117,41.9609375,359.8456726,41.7246094,359.454071,41.5292969z"/>
		<path class="st1" d="M364.157196,44.1367188c-0.1230469-0.1484375-0.1855469-0.3710938-0.1855469-0.6669922v-4.5932617h1.3808594
			v-0.9775391h-1.3808594v-1.7910156h-1.2636719v1.7910156h-1.3476562v0.9775391h1.3476562v4.5874023
			c0,0.6289062,0.1425781,1.1142578,0.4296875,1.4560547s0.7138672,0.5126953,1.2792969,0.5126953
			c0.3144531,0,0.6376953-0.0458984,0.9707031-0.1357422v-1.0195312c-0.2558594,0.0546875-0.4560547,0.0820312-0.6015625,0.0820312
			C364.4892273,44.359375,364.2802429,44.2851562,364.157196,44.1367188z"/>
	</g>
</g>
</svg>
