<?xml version="1.0" encoding="utf-8"?>
<!-- Generator: Adobe Illustrator 24.2.0, SVG Export Plug-In . SVG Version: 6.00 Build 0)  -->
<svg version="1.1" id="Layer_1" xmlns="http://www.w3.org/2000/svg" width="50" height="50" xmlns:xlink="http://www.w3.org/1999/xlink" x="0px" y="0px"
	 viewBox="0 0 50 50" style="enable-background:new 0 0 50 50;" xml:space="preserve">
<style type="text/css">
	.st0{fill:#222222;}
</style>
<path class="st0" d="M37.2607422,30.4775391c-0.2119141-0.2460938-0.4462891-0.4296875-0.6689453-0.5917969l-0.1923828-0.140625
	c-0.4013672-0.2929688-0.8564453-0.6259766-1.3076172-1.1210938c-1.4492188-1.5927734-2.1533203-4.1328125-2.1533203-7.765625
	c0-3.6337891-2.1259766-6.6040039-5.421875-7.5820312c0.0654297-0.2299805,0.0976562-0.465332,0.0976562-0.7006836
	c0-1.4414062-1.1728516-2.6137695-2.6142578-2.6137695s-2.6137695,1.1723633-2.6137695,2.6137695
	c0,0.2363281,0.0322266,0.472168,0.0957031,0.7006836c-3.2949219,0.9731445-5.4204102,3.9438477-5.4204102,7.5820312
	c0,3.6323242-0.7045898,6.171875-2.1542969,7.765625c-0.4550781,0.4990234-0.9121094,0.8330078-1.3154297,1.1269531
	l-0.1816406,0.1347656c-0.2089844,0.1503906-0.4516602,0.3388672-0.6713867,0.5927734
	c-0.1533203,0.1777344-0.4106445,0.5488281-0.4106445,1.0292969c0,0.8349609,0.4790039,1.625,1.3144531,2.1679688
	c0.6650391,0.4306641,1.5615234,0.7529297,2.8208008,1.0146484c1.2568359,0.2597656,2.8564453,0.4316406,4.8896484,0.5263672
	c-0.1000977,0.3447266-0.1503906,0.6884766-0.1503906,1.0234375c0,2.0947266,1.7036133,3.7978516,3.7973633,3.7978516
	c2.0947266,0,3.7978516-1.703125,3.7978516-3.7978516c0-0.3408203-0.0498047-0.6845703-0.1494141-1.0234375
	c2.0322266-0.0947266,3.6308594-0.2666016,4.8876953-0.5263672c1.2578125-0.2617188,2.1542969-0.5839844,2.8203125-1.0146484
	c0.8349609-0.5429688,1.3144531-1.3330078,1.3144531-2.1679688C37.6708984,31.0244141,37.4140625,30.6542969,37.2607422,30.4775391z
	 M25,13.5117188c-0.5249023,0-0.9360352-0.4111328-0.9360352-0.9360352c0-0.5244141,0.4111328-0.9355469,0.9360352-0.9355469
	s0.9360352,0.4111328,0.9360352,0.9355469C25.9360352,13.1005859,25.5249023,13.5117188,25,13.5117188z M35.9912109,31.5683594
	c-0.0146484,0.2177734-0.1181641,0.4121094-0.5507812,0.6933594c-0.4853516,0.3164062-1.2822266,0.5986328-2.2441406,0.796875
	C31.3564453,33.4404297,28.6757812,33.6269531,25,33.6269531s-6.3569336-0.1865234-8.1958008-0.5683594
	c-0.9624023-0.1982422-1.7597656-0.4814453-2.2451172-0.796875c-0.4223633-0.2753906-0.5263672-0.4648438-0.5512695-0.6914062
	c0.0390625-0.0400391,0.1435547-0.1376953,0.3969727-0.3251953l0.1567383-0.1142578
	c0.4277344-0.3105469,1.0141602-0.7373047,1.5991211-1.3798828c1.7353516-1.90625,2.5791016-4.8154297,2.5791016-8.8925781
	c0-3.1982422,1.8447266-5.5400391,4.8164062-6.1162109c0.8798828,0.5942383,2.0087891,0.5874023,2.8891602-0.0175781
	c2.9707031,0.5732422,4.8154297,2.921875,4.8154297,6.1337891c0,4.0776367,0.84375,6.9863281,2.5791016,8.8925781
	c0.5771484,0.6337891,1.1582031,1.0585938,1.5820312,1.3681641l0.1728516,0.1259766
	C35.8466797,31.4316406,35.9501953,31.5263672,35.9912109,31.5683594z M25,38.3603516
	c-1.168457,0-2.1191406-0.9511719-2.1191406-2.1201172c0-0.3417969,0.0791016-0.6757812,0.2285156-0.96875l0.3740234,0.0087891
	c0.9921875,0.0253906,2.0410156,0.0253906,3.0332031,0l0.3720703-0.0087891
	c0.1503906,0.296875,0.2304688,0.6308594,0.2304688,0.96875C27.1191406,37.4287109,26.1884766,38.3603516,25,38.3603516z"/>
</svg>
