<?xml version="1.0" encoding="utf-8"?>
<!-- Generator: Adobe Illustrator 24.2.0, SVG Export Plug-In . SVG Version: 6.00 Build 0)  -->
<svg version="1.1" id="Layer_1" width="50" height="50" xmlns="http://www.w3.org/2000/svg" xmlns:xlink="http://www.w3.org/1999/xlink" x="0px" y="0px"
	 viewBox="0 0 50 50" enable-background="new 0 0 50 50" xml:space="preserve">
<g>
	<path fill="#222222" d="M39.8367691,15.1765137c-0.1914062-0.1801758-0.4296875-0.277832-0.6904297-0.2817383h-0.7685547
		l-0.375,1.5102539L35.98423,24.8039551l-17.6132793,2.2797852l-1.3374023-6.7250977l-1.0952158-5.4238281l-0.6030273-3.015625
		c-0.0390625-0.3769531-0.503418-0.7119141-0.8427734-0.7119141h-3.7124023c-0.496582,0-0.8300781,0.3334961-0.8300781,0.8300781
		c0,0.4946289,0.3569336,0.8676758,0.8300781,0.8676758h3.0043945l2.9238291,14.8476562
		c0.3935547,2.0410156,2.3393555,3.6396484,4.4291992,3.6396484h14.1962872c0.5039062,0,0.8417969-0.3330078,0.8417969-0.8300781
		c0-0.4804688-0.3613281-0.8427734-0.8417969-0.8427734H21.2884312c-0.8203125,0-1.5966797-0.3554688-2.0483398-0.9316406
		l17.6035137-2.4042969c0.3818359,0,0.7167969-0.3349609,0.7158203-0.7045898l2.4794922-9.8579102
		C40.0887222,15.5314941,39.9607925,15.2927246,39.8367691,15.1765137z"/>
	<path fill="#222222" d="M32.9803238,32.173584c-1.8867168,0-3.3095684,1.4228516-3.3095684,3.3095703
		c0,1.8554688,1.4541016,3.3095703,3.3095684,3.3095703c1.8554688,0,3.3085938-1.4541016,3.3085938-3.3095703
		C36.2889175,33.5964355,34.8670425,32.173584,32.9803238,32.173584z M33.0047379,37.0944824
		c-0.8710938,0-1.6357403-0.7529297-1.6357403-1.6113281c0-0.8730469,0.7382793-1.6113281,1.6113262-1.6113281
		c0.8564453,0,1.6367188,0.7685547,1.6367188,1.6113281S33.8484879,37.0944824,33.0047379,37.0944824z"/>
	<path fill="#222222" d="M20.6590366,32.173584c-1.8867188,0-3.309082,1.4228516-3.309082,3.3095703
		c0,1.8554688,1.4536133,3.3095703,3.309082,3.3095703c1.855957,0,3.3095703-1.4541016,3.3095703-3.3095703
		C23.9686069,33.5964355,22.5457554,32.173584,20.6590366,32.173584z M20.6590366,37.0944824
		c-0.8432617,0-1.6113281-0.7685547-1.6113281-1.6113281c0-0.8583984,0.7529297-1.6113281,1.6113281-1.6113281
		c0.8432617,0,1.6118164,0.7685547,1.6118164,1.6113281S21.5022984,37.0944824,20.6590366,37.0944824z"/>
	<path fill="#222222" d="M25.9437046,16.442627L23.024271,19.467041c-0.1538086,0.159668-0.2368164,0.3701172-0.2329102,0.5922852
		c0.0039062,0.2226562,0.0942383,0.4296875,0.2539062,0.5839844c0.1557617,0.1503906,0.3603516,0.2333984,0.5771484,0.2333984
		c0.0048828,0,0.0097656-0.0004883,0.0146484-0.0004883c0.222168-0.0039062,0.4291992-0.09375,0.5834961-0.253418
		l2.9199219-3.0244141l3.0234375,2.9208984c0.15625,0.1503906,0.3613281,0.2329102,0.578125,0.2329102
		c0.0048828,0,0.0097656,0,0.0146484,0c0.2226562-0.0039062,0.4296875-0.0942383,0.5839844-0.2539062
		c0.1542969-0.1601562,0.2373047-0.3701172,0.2324219-0.5917969c-0.0029297-0.222168-0.0927734-0.4296875-0.2529297-0.5844727
		l-3.0244141-2.9208984l2.9208984-3.0244141c0.1542969-0.1606445,0.2373047-0.3710938,0.2324219-0.5922852
		c-0.0029297-0.222168-0.0927734-0.4296875-0.2529297-0.5844727c-0.3320312-0.3178711-0.8583984-0.309082-1.1767578,0.0209961
		l-2.9199219,3.0244141l-3.0239258-2.9208984c-0.3286133-0.3173828-0.8564453-0.3085938-1.175293,0.0205078
		c-0.3183594,0.3300781-0.309082,0.8579102,0.0205078,1.1767578L25.9437046,16.442627z"/>
</g>
</svg>
