<?xml version="1.0" standalone="no"?>
<!DOCTYPE svg PUBLIC "-//W3C//DTD SVG 1.1//EN" "http://www.w3.org/Graphics/SVG/1.1/DTD/svg11.dtd" >
<svg xmlns="http://www.w3.org/2000/svg">
<metadata>Generated by IcoMoon</metadata>
<defs>
<font id="xstore-panel-icons" horiz-adv-x="1024">
<font-face units-per-em="1024" ascent="960" descent="-64" />
<missing-glyph horiz-adv-x="1024" />
<glyph unicode="&#x20;" horiz-adv-x="512" d="" />
<glyph unicode="&#xe900;" glyph-name="additional-pages" d="M512-5.819c-37.236 29.477-77.576 52.363-121.019 68.652-43.442 16.296-88.436 24.437-134.981 24.437-32.581 0-64.581-4.264-96-12.8-31.419-8.528-61.479-20.553-90.182-36.067-16.291-8.536-32-8.148-47.127 1.163-15.127 9.304-22.691 22.879-22.691 40.726v560.871c0 8.534 2.133 16.679 6.4 24.436s10.667 13.576 19.2 17.455c35.685 18.619 72.921 32.582 111.709 41.891s78.351 13.964 118.691 13.964c44.994 0 89.019-5.819 132.073-17.455s84.364-29.091 123.927-52.364v-563.199c39.564 24.825 81.066 43.44 124.509 55.852s87.273 18.622 131.491 18.622c27.926 0 55.274-2.333 82.037-6.985s53.723-11.637 80.874-20.948v558.549c11.637-3.879 23.077-7.951 34.326-12.219s22.301-9.503 33.163-15.709c8.536-3.879 14.936-9.697 19.2-17.455s6.4-15.903 6.4-24.436v-560.871c0-17.847-7.563-31.422-22.689-40.726-15.126-9.311-30.837-9.699-47.126-1.163-28.709 15.514-58.77 27.538-90.185 36.067-31.415 8.536-63.415 12.8-96 12.8-46.545 0-91.54-8.141-134.982-24.437-43.442-16.289-83.782-39.175-121.018-68.652zM605.091 226.91v442.182l232.724 232.727v-465.455l-232.724-209.454z" />
<glyph unicode="&#xe901;" glyph-name="amp-xstore" d="M512 960c-282.88 0-512-229.12-512-512s229.12-512 512-512 512 229.12 512 512-229.12 512-512 512zM682.667 471.466l-172.372-290.56c-4.695-7.68-11.948-12.372-19.628-12.372-13.654 0-24.747 13.227-24.747 29.44v2.987l17.922 200.531h-87.042c-13.227 0-24.32 12.802-24.32 29.016 0 6.398 1.708 12.372 4.695 17.492l152.318 267.094c5.122 7.68 12.375 12.372 20.055 12.372 13.654 0 24.747-13.227 24.747-29.44v-3.411l-17.922-176.641h106.667c13.227 0 24.32-13.227 24.32-29.44 0-5.974-1.706-12.375-4.693-17.068z" />
<glyph unicode="&#xe902;" glyph-name="api-integrations" d="M279.273 168.727c-77.575 0-143.515 27.151-197.818 81.454s-81.455 120.242-81.455 197.819c0 77.575 27.152 143.515 81.455 197.818s120.242 81.455 197.818 81.455c62.836 0 117.721-17.648 164.655-52.945s79.709-79.709 98.327-133.236h481.745v-186.182h-93.089v-186.182h-186.185v186.182h-202.471c-18.618-53.527-51.395-97.939-98.327-133.236s-101.819-52.945-164.655-52.945zM279.273 354.909c25.6 0 47.515 9.115 65.746 27.345s27.345 40.146 27.345 65.746c0 25.6-9.115 47.515-27.345 65.745s-40.146 27.346-65.746 27.346-47.515-9.116-65.745-27.346-27.346-40.145-27.346-65.745c0-25.6 9.116-47.515 27.346-65.746s40.145-27.345 65.745-27.345z" />
<glyph unicode="&#xe903;" glyph-name="changelog" d="M284.445 163.555c16.119 0 29.629 5.449 40.534 16.355s16.355 24.415 16.355 40.536c0 16.118-5.452 29.629-16.355 40.533s-24.415 16.355-40.534 16.355c-16.118 0-29.629-5.452-40.534-16.355s-16.355-24.415-16.355-40.533c0-16.121 5.452-29.63 16.355-40.536s24.415-16.355 40.534-16.355zM284.445 391.111c16.119 0 29.629 5.452 40.534 16.355s16.355 24.415 16.355 40.534-5.452 29.629-16.355 40.534c-10.904 10.903-24.415 16.355-40.534 16.355s-29.629-5.452-40.534-16.355c-10.903-10.904-16.355-24.415-16.355-40.534s5.452-29.629 16.355-40.534c10.904-10.903 24.415-16.355 40.534-16.355zM284.445 618.666c16.119 0 29.629 5.452 40.534 16.355s16.355 24.415 16.355 40.534c0 16.118-5.452 29.629-16.355 40.534s-24.415 16.355-40.534 16.355c-16.118 0-29.629-5.452-40.534-16.355s-16.355-24.415-16.355-40.534c0-16.119 5.452-29.629 16.355-40.534s24.415-16.355 40.534-16.355zM455.111 163.555h341.334v113.779h-341.334v-113.779zM455.111 391.111h341.334v113.778h-341.334v-113.778zM455.111 618.666h341.334v113.778h-341.334v-113.778zM113.778-64c-31.289 0-58.074 11.14-80.356 33.419-22.281 22.287-33.422 49.072-33.422 80.362v796.441c0 31.289 11.141 58.074 33.422 80.356s49.067 33.422 80.356 33.422h796.441c31.291 0 58.075-11.141 80.362-33.422 22.279-22.282 33.419-49.067 33.419-80.356v-796.441c0-31.291-11.14-58.075-33.419-80.362-22.287-22.279-49.072-33.419-80.362-33.419h-796.441z" />
<glyph unicode="&#xe904;" glyph-name="custom-fonts" d="M0-64v277.333h93.867v469.333h-93.867v277.333h277.333v-93.867h465.067v93.867h281.6v-277.333h-93.867v-465.067h93.867v-281.6h-277.333v93.867h-469.333v-93.867h-277.333zM277.333 123.733h465.067v93.867h93.867v465.067h-93.867v89.6h-465.067v-93.867h-89.6v-465.067h93.867v-89.6h-4.267zM315.733 260.267l157.867 418.133h72.533l157.867-418.133h-72.533l-34.133 106.667h-170.667l-38.4-106.667h-72.533zM448 430.933h123.733l-59.733 174.933h-4.267l-59.733-174.933z" />
<glyph unicode="&#xe905;" glyph-name="email-builder" d="M102.4 38.4c-28.16 0-52.267 10.028-72.32 30.076-20.053 20.056-30.080 44.164-30.080 72.324v614.4c0 28.16 10.027 52.267 30.080 72.32s44.16 30.080 72.32 30.080h819.2c28.16 0 52.268-10.027 72.324-30.080 20.048-20.053 30.076-44.16 30.076-72.32v-614.4c0-28.16-10.028-52.268-30.076-72.324-20.056-20.048-44.164-30.076-72.324-30.076h-819.2zM512 396.8l409.6 256v102.4l-409.6-256-409.6 256v-102.4l409.6-256z" />
<glyph unicode="&#xe906;" glyph-name="import-demos" d="M102.203 74.958l-43.437 17.883c-26.402 11.074-44.075 30.237-53.018 57.49s-7.453 54.082 4.471 80.486l91.983 199.296v-355.156zM306.611-37.47c-28.106 0-52.167 10.013-72.182 30.025s-30.022 44.076-30.022 72.185v306.607l135.42-375.595c2.556-5.961 5.11-11.71 7.665-17.247s5.962-10.862 10.22-15.974h-51.101zM569.785-32.357c-27.254-10.218-53.657-8.945-79.208 3.833s-43.437 32.79-53.657 60.043l-227.403 623.444c-10.22 27.254-9.369 53.87 2.555 79.846s31.513 43.649 58.767 53.018l385.818 140.53c27.251 10.22 53.655 8.943 79.212-3.833 25.549-12.775 43.432-32.79 53.65-60.044l227.409-623.443c10.218-27.253 9.362-53.87-2.56-79.843-11.922-25.98-31.51-43.652-58.763-53.021l-385.82-140.529zM459.916 575.755c14.479 0 26.615 4.897 36.41 14.691s14.691 21.931 14.691 36.411c0 14.479-4.897 26.615-14.691 36.41s-21.931 14.691-36.41 14.691c-14.479 0-26.616-4.897-36.411-14.691s-14.691-21.931-14.691-36.41c0-14.479 4.897-26.616 14.691-36.411s21.931-14.691 36.411-14.691z" />
<glyph unicode="&#xe907;" glyph-name="maintenance-mode" d="M512 166.4l76.8 76.8h128v128l76.8 76.8-76.8 76.8v128h-128l-76.8 76.8-76.8-76.8h-128v-128l-76.8-76.8 76.8-76.8v-128h128l76.8-76.8zM512 294.4v307.2c42.667 0 81.067-17.067 110.933-46.933s46.933-68.267 46.933-106.667-17.067-81.067-46.933-110.933-68.267-42.667-110.933-42.667zM102.4 38.4c-29.867 0-51.2 8.533-72.533 29.867s-29.867 42.667-29.867 72.533v614.4c0 29.867 8.533 51.2 29.867 72.533s42.667 29.867 72.533 29.867h819.2c29.867 0 51.2-8.533 72.533-29.867s29.867-42.667 29.867-72.533v-614.4c0-29.867-8.533-51.2-29.867-72.533s-42.667-29.867-72.533-29.867c0 0-819.2 0-819.2 0z" />
<glyph unicode="&#xe908;" glyph-name="open-ai" d="M431.797 402.211l80.391-45.708 80.544 45.708v91.409l-80.25 45.706-80.536-45.706zM415.867 594.263c-0.339 0.177-0.714 0.268-1.096 0.268s-0.76-0.091-1.096-0.268l-149.237-84.922c-31.852-18.214-55.089-48.133-64.622-83.211-9.534-35.076-4.589-72.451 13.755-103.938v0.719c16.401-27.922 42.292-49.221 73.083-60.122v173.018c-0.055 4.18 1.029 8.299 3.135 11.924 2.107 3.628 5.164 6.628 8.849 8.693l179.643 102.227-62.414 35.612zM240.32 550.865l147.776 84.057c3.656 2.117 7.818 3.234 12.057 3.234s8.404-1.117 12.060-3.234l180.518-102.659v71.083c-0.018 0.37-0.117 0.729-0.297 1.055-0.177 0.323-0.427 0.604-0.729 0.82l-149.531 85.068c-31.911 18.133-69.813 23.036-105.385 13.628-35.57-9.409-65.904-32.354-84.341-63.802-16.289-27.745-22.135-60.268-16.516-91.846l4.388 2.596zM410.167 248.654c-3.674 2.125-6.724 5.159-8.852 8.799-2.128 3.638-3.258 7.763-3.281 11.964l-0.148 204.883-62.409-35.469c-0.312-0.185-0.581-0.435-0.784-0.734-0.201-0.299-0.336-0.638-0.391-0.992v-169.701c0.034-26.034 7.581-51.523 21.758-73.479 14.177-21.958 34.398-39.484 58.302-50.521 23.901-11.036 50.495-15.141 76.672-11.82 26.177 3.323 50.854 13.919 71.148 30.568l-4.388 2.451-147.628 84.052zM614.070 647.609c3.674-2.125 6.727-5.156 8.854-8.797 2.125-3.641 3.258-7.763 3.281-11.966v-205.315l62.409 35.617c0.307 0.154 0.576 0.378 0.779 0.651 0.206 0.276 0.339 0.596 0.396 0.932v170.135c-0.078 36.305-14.734 71.099-40.76 96.771-26.023 25.669-61.297 40.125-98.102 40.201-32.482 0.052-63.943-11.177-88.87-31.719l4.383-2.451 147.63-84.060zM877.714 960h-731.427c-80.792 0-146.286-65.495-146.286-146.286v-731.427c0-80.792 65.495-146.286 146.286-146.286h731.427c80.792 0 146.286 65.495 146.286 146.286v731.427c0 80.792-65.495 146.286-146.286 146.286zM876.674 485.677c-4.146-38.716-20.596-75.148-47.008-104.083 8.294-24.628 11.161-50.719 8.411-76.526-2.742-25.81-11.044-50.742-24.341-73.135-19.714-33.846-49.81-60.646-85.961-76.526-36.146-15.885-76.474-20.034-115.167-11.854-21.982-24.125-50.010-42.109-81.273-52.159-31.26-10.057-64.654-11.82-96.823-5.115-32.172 6.708-61.984 21.643-86.451 43.318-24.466 21.664-42.721 49.305-52.93 80.133-25.779 5.216-50.13 15.799-71.43 31.036-21.299 15.242-39.057 34.792-52.083 57.344-19.927 33.792-28.443 72.956-24.318 111.833 4.125 38.88 20.677 75.456 47.266 104.445-8.323 24.615-11.219 50.701-8.495 76.51 2.721 25.81 11 50.75 24.281 73.148 19.737 33.859 49.862 60.661 86.036 76.544 36.172 15.885 76.523 20.031 115.237 11.839 17.466 19.401 38.924 34.901 62.945 45.469s50.052 15.958 76.354 15.813c39.659 0.036 78.305-12.359 110.354-35.398 32.055-23.039 55.854-55.526 67.971-92.779 25.771-5.221 50.122-15.807 71.419-31.047 21.299-15.242 39.060-34.789 52.094-57.336 19.69-33.74 28.057-72.758 23.909-111.474zM801.060 588.164c-15.914 20.711-37.471 36.526-62.156 45.602v-173.018c-0.133-4.174-1.359-8.242-3.563-11.807-2.208-3.563-5.31-6.495-9.013-8.518l-180.224-103.234 62.266-35.474c0.339-0.177 0.716-0.271 1.099-0.271s0.758 0.094 1.096 0.271l149.234 85.068c22.823 12.987 41.422 32.109 53.638 55.133 12.214 23.026 17.531 49.003 15.344 74.898-2.193 25.898-11.805 50.643-27.721 71.352zM788.451 348.289l-4.388-2.596-147.479-84.779c-3.68-2.128-7.87-3.253-12.135-3.253s-8.453 1.125-12.133 3.253l-180.367 102.656v-71.078c-0.039-0.362 0.023-0.727 0.177-1.057 0.156-0.331 0.398-0.612 0.701-0.818l149.237-84.924c22.872-12.997 49.026-19.302 75.396-18.177 26.372 1.128 51.875 9.633 73.526 24.534 21.648 14.891 38.552 35.563 48.727 59.589 10.18 24.023 13.208 50.409 8.747 76.073l-0.008 0.578z" />
<glyph unicode="&#xe909;" glyph-name="patcher" d="M924.569 860.566c-94.301 94.301-277.069 99.26-284.811 99.434-6.959-0.087-11.918-2.262-16.267-6.525l-616.947-617.046c-4.437-4.437-6.785-10.526-6.524-16.703 0.348-7.568 9.395-186.168 103.433-280.296 94.125-94.040 272.72-103 280.288-103.344 0.348-0.088 0.696-0.088 1.044-0.088 5.916 0 11.57 2.348 15.746 6.524l616.943 617.044c4.264 4.263 6.612 10.179 6.524 16.181-0.168 7.743-5.127 190.516-99.429 284.817zM674.033 777.053c18.442 0 33.404-14.876 33.404-33.406 0-18.442-14.963-33.405-33.404-33.405s-33.405 14.963-33.405 33.405c0 18.53 14.963 33.406 33.405 33.406zM250.904 153.483c-18.442 0-33.404 14.965-33.404 33.404 0 18.447 14.963 33.404 33.404 33.404 18.53 0 33.405-14.958 33.405-33.404 0-18.439-14.876-33.404-33.405-33.404zM250.904 287.104c-18.442 0-33.404 14.963-33.404 33.406s14.963 33.405 33.404 33.405c18.53 0 33.405-14.963 33.405-33.405s-14.876-33.406-33.405-33.406zM384.524 153.483c-18.443 0-33.405 14.965-33.405 33.404 0 18.447 14.963 33.404 33.405 33.404 18.529 0 33.404-14.958 33.404-33.404 0-18.439-14.875-33.404-33.404-33.404zM564.771 272.229c-4.35-4.35-10.091-6.524-15.746-6.524-5.742 0-11.395 2.175-15.745 6.524l-197.037 197.041c-8.699 8.7-8.699 22.792 0 31.492s22.792 8.7 31.491 0l197.037-197.041c8.699-8.699 8.699-22.792 0-31.492zM722.313 429.861c-4.349-4.35-10.004-6.524-15.745-6.524-5.655 0-11.396 2.175-15.745 6.524l-196.95 196.953c-8.699 8.786-8.699 22.792 0 31.492 8.699 8.786 22.792 8.786 31.491 0l196.949-196.954c8.789-8.7 8.789-22.792 0-31.492zM807.652 576.62c-18.439 0-33.404 14.963-33.404 33.405 0 18.53 14.965 33.406 33.404 33.406s33.404-14.876 33.404-33.406c0-18.442-14.877-33.405-33.404-33.405zM807.652 710.242c-18.439 0-33.404 14.963-33.404 33.405 0 18.53 14.965 33.406 33.404 33.406s33.404-14.876 33.404-33.406c0-18.442-14.877-33.405-33.404-33.405z" />
<glyph unicode="&#xe90a;" glyph-name="plugins-installer" d="M304.574-64h-199.548c-28.882 0-53.607 10.284-74.175 30.852s-30.851 45.29-30.851 74.174v199.548c42.010 0 78.769 13.349 110.277 40.041 31.508 26.694 47.262 60.608 47.262 101.743s-15.754 75.050-47.262 101.744-68.266 40.041-110.277 40.041v199.548c0 28.882 10.284 53.607 30.851 74.174s45.293 30.852 74.175 30.852h210.051c0 36.759 12.691 67.829 38.072 93.21s56.451 38.072 93.21 38.072c36.759 0 67.829-12.691 93.21-38.072s38.072-56.452 38.072-93.21h210.049c28.884 0 53.606-10.284 74.174-30.852s30.852-45.292 30.852-74.174v-210.051c36.762 0 67.833-12.691 93.213-38.072s38.071-56.451 38.071-93.21c0-36.759-12.69-67.829-38.071-93.21s-56.452-38.071-93.213-38.071v-210.052c0-28.884-10.284-53.606-30.852-74.174s-45.29-30.852-74.174-30.852h-199.546c0 43.761-13.785 80.955-41.354 111.587s-61.046 45.948-100.431 45.948c-39.385 0-72.861-15.316-100.43-45.948s-41.354-67.825-41.354-111.587z" />
<glyph unicode="&#xe90b;" glyph-name="portfolio" d="M749.268 48.388v799.221c27.472 0 50.995-9.782 70.554-29.346 19.566-19.564 29.352-43.083 29.352-70.557v-599.412c0-27.472-9.787-50.995-29.352-70.561-19.558-19.558-43.081-29.345-70.554-29.345zM99.902-51.511c-27.473 0-50.992 9.779-70.556 29.345s-29.346 43.081-29.346 70.554v799.221c0 27.473 9.782 50.992 29.346 70.556s43.083 29.346 70.556 29.346h449.562c27.473 0 50.992-9.782 70.556-29.346s29.346-43.083 29.346-70.556v-799.221c0-27.472-9.782-50.988-29.346-70.554s-43.083-29.345-70.556-29.345h-449.562zM949.073 148.293v599.412c20.816 0 38.502-7.284 53.072-21.854s21.855-32.26 21.855-53.073v-449.561c0-20.814-7.285-38.507-21.855-53.070-14.57-14.57-32.256-21.855-53.072-21.855z" />
<glyph unicode="&#xe90c;" glyph-name="sales-booster" d="M0-64v142.219l146.286 113.781v-256h-146.286zM219.429-64v341.334l121.905 113.777v-455.111h-121.905zM438.857-64v455.111l130.032-115.2v-339.911h-130.032zM658.286-64v339.911l138.16 113.778v-453.689h-138.16zM877.714-64v568.889l146.286 125.968v-694.857h-146.286zM0 171.681v219.43l398.222 398.223 227.556-227.555 398.222 398.222v-219.429l-398.222-398.222-227.555 227.555-398.223-398.224z" />
<glyph unicode="&#xe90d;" glyph-name="social-authentication" d="M0 192v68.267c0 29.867 17.067 55.467 46.933 72.533 29.867 21.333 72.533 29.867 123.733 29.867 8.533 0 17.067 0 25.6 0s17.067 0 25.6-4.267c-8.533-12.8-17.067-29.867-21.333-46.933s-8.533-34.133-8.533-51.2v-68.267h-192zM256 192v68.267c0 21.333 4.267 42.667 17.067 64 12.8 17.067 29.867 34.133 51.2 51.2 21.333 12.8 51.2 25.6 81.067 34.133s64 8.533 102.4 8.533 72.533-4.267 102.4-8.533 59.733-17.067 81.067-34.133c21.333-12.8 38.4-29.867 51.2-51.2 12.8-17.067 17.067-38.4 17.067-64v-68.267h-503.467zM832 192v68.267c0 17.067-4.267 34.133-8.533 51.2s-12.8 29.867-21.333 46.933c8.533 0 17.067 4.267 25.6 4.267s17.067 0 25.6 0c51.2 0 93.867-8.533 123.733-29.867 29.867-17.067 46.933-42.667 46.933-76.8v-64h-192zM170.667 405.333c-21.333 0-42.667 8.533-59.733 25.6s-25.6 34.133-25.6 59.733 8.533 42.667 25.6 59.733c17.067 17.067 38.4 25.6 59.733 25.6 25.6 0 42.667-8.533 59.733-25.6s25.6-34.133 25.6-59.733c0-21.333-8.533-42.667-25.6-59.733s-34.133-25.6-59.733-25.6zM853.333 405.333c-25.6 0-42.667 8.533-59.733 25.6s-25.6 34.133-25.6 59.733 8.533 42.667 25.6 59.733c17.067 17.067 34.133 25.6 59.733 25.6s42.667-8.533 59.733-25.6c17.067-17.067 25.6-34.133 25.6-59.733 0-21.333-8.533-42.667-25.6-59.733s-34.133-25.6-59.733-25.6zM512 448c-34.133 0-64 12.8-89.6 38.4s-38.4 55.467-38.4 89.6 12.8 68.267 38.4 89.6c25.6 25.6 55.467 38.4 89.6 38.4s68.267-12.8 89.6-38.4c25.6-21.333 38.4-55.467 38.4-89.6s-12.8-64-38.4-89.6c-21.333-25.6-55.467-38.4-89.6-38.4z" />
<glyph unicode="&#xe90e;" glyph-name="speed-optimization" d="M433.144 268.59c21.358-21.358 48.27-31.397 80.734-30.115s55.958 13.029 70.482 35.241l287.056 430.581-430.584-287.053c-22.212-15.378-34.387-38.659-36.522-69.841s7.476-57.454 28.834-78.812zM158.905 37.925c-18.796 0-36.095 4.052-51.901 12.171s-28.406 20.29-37.804 36.52c-22.213 40.155-39.299 81.804-51.26 124.947s-17.941 87.782-17.941 133.916c0 70.91 13.456 137.547 40.367 199.913s63.434 116.615 109.568 162.749c46.133 46.134 100.383 82.656 162.749 109.568s129.003 40.367 199.912 40.367c70.055 0 135.838-13.242 197.349-39.726 61.513-26.484 115.332-62.579 161.47-108.286 46.131-45.707 82.871-99.102 110.204-160.186 27.341-61.084 41.435-126.654 42.291-196.709 0.856-46.988-4.484-92.908-16.018-137.76s-29.264-87.782-53.182-128.792c-9.399-16.23-22.001-28.401-37.808-36.52-15.799-8.119-33.104-12.171-51.895-12.171h-706.104z" />
<glyph unicode="&#xe90f;" glyph-name="static-blocks" d="M614.4 960c-37.653 0-68.267-30.613-68.267-68.267v-341.333c0-37.653 30.613-68.267 68.267-68.267h341.333c37.653 0 68.267 30.613 68.267 68.267v341.333c0 37.653-30.613 68.267-68.267 68.267h-341.333zM785.067 840.533c65.873 0 119.467-53.594 119.467-119.467s-53.594-119.467-119.467-119.467-119.467 53.594-119.467 119.467 53.594 119.467 119.467 119.467zM785.067 806.4c-47.128 0-85.333-38.205-85.333-85.333s38.205-85.333 85.333-85.333 85.333 38.205 85.333 85.333-38.205 85.333-85.333 85.333zM68.267 413.867c-37.653 0-68.267-30.613-68.267-68.267v-341.333c0-37.653 30.613-68.267 68.267-68.267h341.333c37.653 0 68.267 30.613 68.267 68.267v341.333c0 37.653-30.613 68.267-68.267 68.267h-341.333zM614.4 413.867c-37.653 0-68.267-30.613-68.267-68.267v-341.333c0-37.653 30.613-68.267 68.267-68.267h341.333c37.653 0 68.267 30.613 68.267 68.267v341.333c0 37.653-30.613 68.267-68.267 68.267h-341.333zM785.071 300.788c15.642-0.002 31.284-8.149 39.321-24.433l11.942-24.2c1.417-2.867 4.155-4.856 7.321-5.317l26.704-3.879c35.955-5.225 50.31-49.447 24.3-74.8l-19.321-18.838c-2.293-2.234-3.336-5.447-2.796-8.6l4.563-26.6c6.144-35.814-31.478-63.125-63.629-46.225l-23.888 12.558c-2.833 1.489-6.211 1.489-9.042 0l-23.887-12.563c-32.164-16.911-69.771 10.43-63.629 46.229l4.563 26.6c0.54 3.153-0.5 6.366-2.792 8.6l-19.325 18.838c-26.018 25.361-11.643 69.573 24.304 74.8l26.704 3.879c3.166 0.459 5.906 2.447 7.321 5.317l11.942 24.2c8.042 16.292 23.683 24.435 39.325 24.433zM238.925 296.117c17.242 0.005 34.484-8.527 44.346-25.608l79.813-138.242c19.706-34.125-4.892-76.8-44.338-76.8h-159.625c-39.405 0-64.066 42.639-44.342 76.8l79.813 138.242c9.851 17.062 27.091 25.604 44.333 25.608zM785.071 266.675c-3.465 0.003-6.931-1.8-8.721-5.425l-11.942-24.204c-6.389-12.945-18.732-21.91-33.017-23.987l-26.708-3.879c-7.97-1.158-11.177-10.937-5.388-16.579l19.325-18.837c10.336-10.074 15.051-24.583 12.612-38.813l-4.563-26.6c-1.365-7.953 6.955-14.001 14.1-10.246l23.888 12.558c12.776 6.718 28.036 6.718 40.813 0l23.887-12.558c7.128-3.748 15.467 2.278 14.1 10.246l-4.563 26.6c-2.441 14.231 2.274 28.737 12.612 38.813l19.321 18.837c5.794 5.645 2.593 15.421-5.379 16.579l-26.708 3.879c-14.285 2.076-26.627 11.045-33.017 23.987l-11.942 24.204c-1.782 3.611-5.248 5.422-8.713 5.425zM238.938 261.979c-5.747 0.003-11.494-2.838-14.783-8.538l-79.813-138.242c-6.579-11.394 1.644-25.6 14.779-25.6h159.625c13.156 0 21.348 14.225 14.779 25.6l-79.813 138.242c-3.283 5.686-9.028 8.534-14.775 8.538z" />
<glyph unicode="&#xe910;" glyph-name="system-status" d="M269.472 798.316c-22.456 0-41.544-7.859-57.264-23.578s-23.578-34.807-23.578-57.264 7.859-41.544 23.578-57.263c15.72-15.72 34.807-23.579 57.264-23.579s41.544 7.859 57.263 23.579c15.72 15.719 23.579 34.806 23.579 57.263s-7.859 41.544-23.579 57.264c-15.719 15.719-34.806 23.578-57.263 23.578zM269.472 259.368c-22.456 0-41.544-7.859-57.264-23.579-15.719-15.717-23.578-34.807-23.578-57.262s7.859-41.545 23.578-57.264c15.72-15.718 34.807-23.581 57.264-23.581s41.544 7.863 57.263 23.581c15.72 15.718 23.579 34.809 23.579 57.264s-7.859 41.545-23.579 57.262c-15.719 15.72-34.806 23.579-57.263 23.579zM80.841 960h862.315c15.272 0 28.072-5.165 38.4-15.495s15.499-23.13 15.499-38.4v-377.263c0-15.27-5.171-28.070-15.499-38.4s-23.128-15.495-38.4-15.495h-862.315c-15.27 0-28.070 5.165-38.4 15.495s-15.495 23.13-15.495 38.4v377.263c0 15.27 5.165 28.070 15.495 38.4s23.13 15.495 38.4 15.495zM80.841 421.053h862.315c15.272 0 28.072-5.165 38.4-15.495s15.499-23.13 15.499-38.4v-377.266c0-15.265-5.171-28.065-15.499-38.4-10.328-10.328-23.128-15.492-38.4-15.492h-862.315c-15.27 0-28.070 5.164-38.4 15.492-10.33 10.335-15.495 23.135-15.495 38.4v377.266c0 15.27 5.165 28.070 15.495 38.4s23.13 15.495 38.4 15.495z" />
<glyph unicode="&#xe911;" glyph-name="theme-options" d="M371.9-61.45l-20.378 163.020c-11.038 4.242-21.439 9.34-31.203 15.287-9.765 5.939-19.317 12.31-28.657 19.105l-151.562-63.685-140.1 241.991 131.184 99.343c-0.849 5.944-1.274 11.674-1.274 17.194v34.388c0 5.519 0.425 11.25 1.274 17.194l-131.184 99.343 140.1 241.99 151.562-63.682c9.34 6.793 19.104 13.161 29.293 19.105s20.378 11.038 30.567 15.283l20.378 163.025h280.199l20.378-163.025c11.037-4.245 21.438-9.34 31.203-15.283s19.317-12.312 28.657-19.105l151.559 63.682 140.105-241.99-131.189-99.343c0.849-5.944 1.28-11.674 1.28-17.194v-34.388c0-5.519-0.856-11.25-2.553-17.194l131.189-99.343-140.105-241.991-150.286 63.685c-9.34-6.795-19.105-13.166-29.294-19.105-10.189-5.946-20.378-11.045-30.566-15.287l-20.378-163.020h-280.199zM514.546 269.69c49.247 0 91.277 17.407 126.089 52.219 34.81 34.813 52.218 76.843 52.218 126.090s-17.408 91.276-52.218 126.089c-34.812 34.812-76.842 52.219-126.089 52.219-50.096 0-92.338-17.407-126.726-52.219s-51.582-76.842-51.582-126.089 17.194-91.277 51.582-126.090c34.388-34.812 76.63-52.219 126.726-52.219z" />
<glyph unicode="&#xe912;" glyph-name="tutorials-support" d="M512-64c-70.826 0-137.386 13.436-199.68 40.316s-116.48 63.364-162.56 109.444c-46.080 46.080-82.56 100.264-109.44 162.56-26.88 62.293-40.32 128.854-40.32 199.68s13.44 137.386 40.32 199.68 63.36 116.48 109.44 162.56 100.266 82.56 162.56 109.44 128.854 40.32 199.68 40.32 137.386-13.44 199.68-40.32c62.296-26.88 116.48-63.36 162.56-109.44s82.564-100.266 109.444-162.56 40.316-128.854 40.316-199.68-13.436-137.386-40.316-199.68c-26.88-62.296-63.364-116.48-109.444-162.56s-100.264-82.564-162.56-109.444c-62.293-26.88-128.854-40.316-199.68-40.316zM363.52 66.56l61.44 140.8c-35.84 12.8-66.774 32.64-92.8 59.52s-46.294 58.24-60.8 94.080l-140.8-58.88c19.626-54.614 49.92-102.4 90.88-143.36s88.32-71.68 142.080-92.16zM271.36 535.040c14.506 35.84 34.774 67.2 60.8 94.080s56.96 46.72 92.8 59.52l-58.88 140.8c-54.614-20.48-102.4-51.2-143.36-92.16s-71.68-88.746-92.16-143.36l140.8-58.88zM512 294.4c42.666 0 78.934 14.934 108.8 44.8s44.8 66.134 44.8 108.8-14.934 78.934-44.8 108.8-66.134 44.8-108.8 44.8-78.934-14.934-108.8-44.8-44.8-66.134-44.8-108.8 14.934-78.934 44.8-108.8 66.134-44.8 108.8-44.8zM660.48 66.56c53.76 20.48 100.908 50.988 141.444 91.516 40.528 40.536 71.036 87.684 91.516 141.444l-140.8 61.44c-12.8-35.84-32.426-66.774-58.88-92.8s-57.174-46.296-92.16-60.8l58.88-140.8zM752.64 537.6l140.8 58.88c-20.48 53.76-50.988 100.906-91.516 141.44-40.536 40.534-87.684 71.040-141.444 91.52l-58.88-143.36c34.986-12.8 65.28-32.214 90.88-58.24s45.656-56.106 60.16-90.24z" />
<glyph unicode="&#xe913;" glyph-name="welcome" d="M0 680.199c0 77.4 27.283 143.383 81.851 197.95s120.55 81.851 197.95 81.851v-94.040c-51.084 0-94.815-18.189-131.193-54.568s-54.568-80.108-54.568-131.193h-94.040zM200.852 135.695c-70.434 70.429-105.65 155.184-105.65 254.256s35.217 183.825 105.65 254.258l81.27 82.431 13.932-13.932c22.446-22.446 33.669-49.73 33.669-81.851s-11.223-59.404-33.669-81.851l-16.254-16.254c-9.288-9.288-13.932-20.318-13.932-33.088s4.644-23.801 13.932-33.088l41.796-41.796c20.124-20.124 30.185-44.505 30.185-73.143s-10.062-53.019-30.185-73.143l49.923-49.923c34.055 34.056 51.084 74.884 51.084 122.485s-17.415 88.817-52.245 123.647l-25.541 25.542c20.124 20.124 34.443 42.763 42.957 67.918s11.997 50.89 10.448 77.206l207.819 207.819c9.288 9.288 20.318 13.932 33.089 13.932s23.8-4.644 33.088-13.932c9.288-9.288 13.932-20.318 13.932-33.088s-4.644-23.801-13.932-33.088l-217.107-217.106 48.762-48.762 279.801 278.639c9.289 9.288 20.122 13.932 32.505 13.932s23.223-4.644 32.512-13.932c9.289-9.288 13.934-20.124 13.934-32.508s-4.645-23.22-13.934-32.508l-278.641-279.8 48.762-48.762 246.132 246.132c9.289 9.288 20.319 13.932 33.090 13.932s23.801-4.645 33.090-13.932c9.282-9.288 13.926-20.318 13.926-33.088s-4.645-23.801-13.926-33.088l-246.135-246.132 48.759-48.762 188.087 188.082c9.289 9.288 20.319 13.932 33.090 13.932s23.801-4.644 33.083-13.932c9.289-9.288 13.934-20.318 13.934-33.088s-4.645-23.801-13.934-33.088l-278.637-277.476c-70.434-70.437-155.186-105.655-254.258-105.655s-183.825 35.218-254.258 105.655zM744.199-64v94.040c51.083 0 94.815 18.191 131.196 54.565 36.374 36.381 54.565 80.113 54.565 131.196h94.040c0-77.4-27.282-143.382-81.847-197.954-54.572-54.565-120.554-81.847-197.954-81.847z" />
<glyph unicode="&#xe914;" glyph-name="widgets" d="M724.228 360.456l-299.772 299.772 299.772 299.772 299.772-299.772-299.772-299.772zM0 466.57v424.456h424.456v-424.456h-424.456zM530.57-64v424.456h424.456v-424.456h-424.456zM0-64v424.456h424.456v-424.456h-424.456z" />
<glyph unicode="&#xe915;" glyph-name="xstore-builders" d="M877.654 960h-731.307c-80.638 0-146.346-65.706-146.346-146.346v-731.307c0-80.638 65.708-146.346 146.346-146.346h731.307c80.641 0 146.346 65.708 146.346 146.346v731.307c0 80.641-65.706 146.346-146.346 146.346zM646.826 153.174c-5.544 0-10.24 1.279-13.651 4.693-3.414 2.987-5.974 6.398-8.107 10.24l-154.453 246.612c-1.708-5.971-4.268-11.091-7.255-16.638l-150.185-229.974c-2.56-3.841-5.122-7.253-8.534-10.24-2.987-3.414-7.255-4.693-12.799-4.693h-72.534l198.398 301.651-190.292 285.867h77.654c5.547 0 9.813-1.279 12.372-2.987 2.56-1.706 5.12-4.693 7.253-8.107l150.187-235.518c2.133 5.971 4.693 11.945 8.534 18.773l141.654 215.039c2.56 3.841 5.12 6.826 8.107 9.388 2.56 2.133 5.971 3.411 10.24 3.411h74.24l-190.721-282.026 197.12-305.492h-77.227zM763.734 153.174l-197.12 305.492 18.346 26.026 9.385 14.508c8.961 13.227 5.12 7.253 9.388 13.654l12.799 19.198 129.279 195.841c2.135 3.841 4.695 6.826 7.68 9.388 0.854 0.424 1.708 1.279 2.987 1.706 2.135 1.279 4.268 1.706 7.255 1.706h74.24l-190.721-282.026 197.12-305.492h-80.638z" />
<glyph unicode="&#xe916;" glyph-name="white-label" d="M686.507 874.667c-31.147 0-61.013-12.373-83.2-34.56l-355.84-355.84c-21.76-21.76-34.133-51.2-34.133-82.773s12.373-61.013 34.56-82.773l220.16-220.16c22.187-22.187 51.627-34.56 83.2-34.56 31.147 0 60.587 12.373 82.773 34.56l355.84 355.84c22.187 22.187 34.133 51.627 34.133 83.2v241.067c0 52.907-43.093 96-96 96h-241.493zM473.173 832c-31.147 0-61.013-12.373-83.2-34.56l-355.84-355.84c-21.76-21.76-34.133-51.2-34.133-82.773s12.373-61.013 34.56-82.773l220.16-220.16c22.187-22.187 51.627-34.56 82.773-34.56s60.587 12.373 82.773 34.56l14.933 14.933-217.6 217.6c-30.293 30.293-46.933 70.4-46.933 113.067s16.64 82.773 46.933 113.067l317.013 317.44h-61.44zM832 746.667c35.413 0 64-28.587 64-64s-28.587-64-64-64-64 28.587-64 64 28.587 64 64 64z" />
</font>
</defs>
</svg>
