<svg width="100" height="93" viewBox="0 0 100 93" fill="none" xmlns="http://www.w3.org/2000/svg">
<path d="M68.4334 44.2212L98.9697 0H87.0783C86.6331 0 86.2388 0.0763061 85.8954 0.26711C85.7301 0.330685 85.5775 0.432453 85.4376 0.546873C84.9797 0.915673 84.5727 1.38632 84.1785 1.99676L63.5114 32.6858L61.4893 35.6745C60.7762 36.7409 61.4138 35.8042 59.9623 37.8637L58.4872 40.1042L55.5371 44.2212L87.0783 92.0797C87.2563 92.1051 87.4471 92.1178 87.6505 92.1178H99.9999L68.4334 44.2212Z" fill="#A4004F"/>
<path d="M31.6924 44.8068L1.2861 4.01125e-06H13.6925C14.593 4.01125e-06 15.2569 0.150287 15.6853 0.449612C16.1132 0.750178 16.4995 1.17867 16.8429 1.73509L40.8851 38.6352C41.1844 37.7348 41.6347 36.7498 42.2352 35.678L64.9286 1.99343C65.3136 1.39354 65.7309 0.911636 66.1818 0.546485C66.6314 0.182576 67.1779 0 67.8212 0H79.7135L49.178 44.228L80.7419 92.1199H68.3988C67.4561 92.1199 66.7171 91.874 66.1818 91.3809C65.6452 90.8891 65.2068 90.3426 64.864 89.7415L40.1778 51.1062C39.8778 52.0067 39.4922 52.8637 39.0209 53.6772L14.9786 89.7415C14.593 90.3426 14.1527 90.8891 13.6609 91.3809C13.1672 91.874 12.4716 92.1199 11.5712 92.1199H0L31.6924 44.8068Z" fill="#A4004F"/>
</svg>
