<svg xmlns="http://www.w3.org/2000/svg" width="59" height="44" viewBox="0 0 59 44" fill="none"><path opacity="0.2" d="M8.98 41.26L7.92219 42.9574L7.93316 42.9642L8.98 41.26ZM2.44 33.82L0.64674 34.7056L0.64674 34.7056L2.44 33.82ZM2.44 10.18L0.64674 9.29444L0.64674 9.29444L2.44 10.18ZM8.98 2.74L7.93314 1.03581L7.92222 1.04262L8.98 2.74ZM28.06 2.74L27.0022 4.43741L27.0132 4.44415L28.06 2.74ZM34.66 10.18L32.8667 11.0656L32.8667 11.0656L34.66 10.18ZM34.66 33.82L32.8667 32.9344L32.8667 32.9344L34.66 33.82ZM28.06 41.26L27.0131 39.5558L27.0022 39.5626L28.06 41.26ZM21.94 32.92L20.6906 31.3583L20.675 31.3708L20.6596 31.3836L21.94 32.92ZM24.28 29.08L26.1859 29.6864L26.1897 29.6741L24.28 29.08ZM21.94 11.08L20.6596 12.6164L20.675 12.6292L20.6906 12.6417L21.94 11.08ZM15.16 11.08L13.9106 9.51826L13.895 9.53076L13.8796 9.54356L15.16 11.08ZM12.82 14.92L10.927 14.2747L10.9204 14.2941L10.9141 14.3136L12.82 14.92ZM12.82 29.08L10.9103 29.6741L10.9183 29.6999L10.927 29.7253L12.82 29.08ZM15.16 32.92L13.8796 34.4564L13.895 34.4692L13.9106 34.4817L15.16 32.92ZM18.58 41.84C15.3131 41.84 12.4822 41.0641 10.0268 39.5558L7.93316 42.9642C11.0778 44.8959 14.6469 45.84 18.58 45.84V41.84ZM10.0378 39.5626C7.62806 38.0609 5.68732 35.8789 4.23326 32.9344L0.64674 34.7056C2.39268 38.2411 4.81194 41.0191 7.92222 42.9574L10.0378 39.5626ZM4.23326 32.9344C2.80226 30.0367 2.04 26.4173 2.04 22H-1.96C-1.96 26.8627 -1.12226 31.1233 0.64674 34.7056L4.23326 32.9344ZM2.04 22C2.04 17.5827 2.80226 13.9633 4.23326 11.0656L0.64674 9.29444C-1.12226 12.8767 -1.96 17.1373 -1.96 22H2.04ZM4.23326 11.0656C5.68732 8.12109 7.62806 5.93909 10.0378 4.43738L7.92222 1.04262C4.81194 2.98091 2.39268 5.7589 0.64674 9.29444L4.23326 11.0656ZM10.0268 4.44415C12.4822 2.93585 15.3131 2.16 18.58 2.16V-1.84C14.6469 -1.84 11.0778 -0.895856 7.93316 1.03585L10.0268 4.44415ZM18.58 2.16C21.8027 2.16 24.5893 2.9337 27.0022 4.43738L29.1178 1.04262C26.0107 -0.893701 22.4773 -1.84 18.58 -1.84V2.16ZM27.0132 4.44415C29.4607 5.94762 31.4163 8.12842 32.8667 11.0656L36.4533 9.29444C34.7037 5.75158 32.2593 2.97238 29.1068 1.03585L27.0132 4.44415ZM32.8667 11.0656C34.2977 13.9633 35.06 17.5827 35.06 22H39.06C39.06 17.1373 38.2223 12.8767 36.4533 9.29444L32.8667 11.0656ZM35.06 22C35.06 26.4173 34.2977 30.0367 32.8667 32.9344L36.4533 34.7056C38.2223 31.1233 39.06 26.8627 39.06 22H35.06ZM32.8667 32.9344C31.4163 35.8716 29.4607 38.0524 27.0132 39.5558L29.1068 42.9642C32.2593 41.0276 34.7037 38.2484 36.4533 34.7056L32.8667 32.9344ZM27.0022 39.5626C24.5893 41.0663 21.8027 41.84 18.58 41.84V45.84C22.4773 45.84 26.0107 44.8937 29.1178 42.9574L27.0022 39.5626ZM18.58 36.12C20.3155 36.12 21.8915 35.5638 23.2204 34.4564L20.6596 31.3836C20.0685 31.8762 19.4045 32.12 18.58 32.12V36.12ZM23.1894 34.4817C24.606 33.3484 25.5566 31.6642 26.1859 29.6864L22.3741 28.4736C21.8834 30.0158 21.274 30.8916 20.6906 31.3583L23.1894 34.4817ZM26.1897 29.6741C26.833 27.6066 27.12 25.0237 27.12 22H23.12C23.12 24.8163 22.8471 26.9534 22.3703 28.4859L26.1897 29.6741ZM27.12 22C27.12 18.9424 26.8342 16.3514 26.1859 14.3136L22.3741 15.5264C22.8458 17.0086 23.12 19.1376 23.12 22H27.12ZM26.1859 14.3136C25.5566 12.3358 24.606 10.6516 23.1894 9.51826L20.6906 12.6417C21.274 13.1084 21.8834 13.9842 22.3741 15.5264L26.1859 14.3136ZM23.2204 9.54356C21.8915 8.43619 20.3155 7.88 18.58 7.88V11.88C19.4045 11.88 20.0685 12.1238 20.6596 12.6164L23.2204 9.54356ZM18.58 7.88C16.8456 7.88 15.265 8.43471 13.9106 9.51826L16.4094 12.6417C17.055 12.1253 17.7544 11.88 18.58 11.88V7.88ZM13.8796 9.54356C12.5319 10.6667 11.5915 12.3253 10.927 14.2747L14.713 15.5653C15.2485 13.9947 15.8681 13.0933 16.4404 12.6164L13.8796 9.54356ZM10.9141 14.3136C10.2658 16.3514 9.98 18.9424 9.98 22H13.98C13.98 19.1376 14.2542 17.0086 14.7259 15.5264L10.9141 14.3136ZM9.98 22C9.98 25.0237 10.2671 27.6066 10.9103 29.6741L14.7297 28.4859C14.253 26.9534 13.98 24.8163 13.98 22H9.98ZM10.927 29.7253C11.5915 31.6747 12.5319 33.3333 13.8796 34.4564L16.4404 31.3836C15.8681 30.9067 15.2485 30.0053 14.713 28.4347L10.927 29.7253ZM13.9106 34.4817C15.265 35.5653 16.8456 36.12 18.58 36.12V32.12C17.7544 32.12 17.055 31.8747 16.4094 31.3583L13.9106 34.4817ZM46.8241 43H44.8241V45H46.8241V43ZM46.8241 5.26L48.2126 3.82061L44.8241 0.551628V5.26H46.8241ZM51.9241 10.18V12.18H56.8779L53.3126 8.74061L51.9241 10.18ZM39.0241 10.18H37.0241V12.18H39.0241V10.18ZM39.0241 0.999997V-1H37.0241V0.999997H39.0241ZM58.7041 0.999997H60.7041V-1H58.7041V0.999997ZM58.7041 43V45H60.7041V43H58.7041ZM48.8241 43V5.26H44.8241V43H48.8241ZM45.4355 6.69939L50.5355 11.6194L53.3126 8.74061L48.2126 3.82061L45.4355 6.69939ZM51.9241 8.18H39.0241V12.18H51.9241V8.18ZM41.0241 10.18V0.999997H37.0241V10.18H41.0241ZM39.0241 3H58.7041V-1H39.0241V3ZM56.7041 0.999997V43H60.7041V0.999997H56.7041ZM58.7041 41H46.8241V45H58.7041V41Z" fill="white"></path></svg>