<svg xmlns="http://www.w3.org/2000/svg" width="50" height="50" viewBox="0 0 50 50" fill="none"><path d="M12.3125 1C10.3828 1 8.94531 1.64453 8.09375 2.65625C7.24219 3.66797 7 4.92578 7 6C7 8.55469 8.38281 10.6289 10.2812 11.9688C10.8672 12.3828 11.4883 12.7109 12.1562 13H1V24H3V49H47V24H49V13H37.8438C38.5117 12.7109 39.1328 12.3828 39.7188 11.9688C41.6172 10.6289 43 8.55469 43 6C43 4.92578 42.7578 3.66797 41.9062 2.65625C41.0547 1.64453 39.6172 1 37.6875 1C35.6914 1 34.0781 1.84375 32.875 3C31.6719 4.15625 30.8086 5.61328 30 7C29.1914 8.38672 28.4297 9.71875 27.625 10.625C26.8203 11.5312 26.0859 12 25 12C23.9141 12 23.1797 11.5312 22.375 10.625C21.5703 9.71875 20.8086 8.38672 20 7C19.1914 5.61328 18.3281 4.15625 17.125 3C15.9219 1.84375 14.3086 1 12.3125 1ZM12.3125 3C13.7773 3 14.7773 3.53125 15.7188 4.4375C16.6602 5.34375 17.4883 6.63672 18.2812 8C19.0742 9.36328 19.8516 10.7812 20.875 11.9375C20.8945 11.9609 20.918 11.9766 20.9375 12H17C14.9844 12 12.9023 11.3984 11.4062 10.3438C9.91016 9.28906 9 7.86328 9 6C9 5.24609 9.17969 4.5 9.625 3.96875C10.0703 3.4375 10.8008 3 12.3125 3ZM37.6875 3C39.1992 3 39.9297 3.4375 40.375 3.96875C40.8203 4.5 41 5.24609 41 6C41 7.86328 40.0898 9.28906 38.5938 10.3438C37.0977 11.3984 35.0156 12 33 12H29.0625C29.082 11.9766 29.1055 11.9609 29.125 11.9375C30.1484 10.7812 30.9258 9.36328 31.7188 8C32.5117 6.63672 33.3398 5.34375 34.2812 4.4375C35.2227 3.53125 36.2227 3 37.6875 3ZM3 15H19V22H3V15ZM21 15H29V22.8125C29 22.8438 29 22.875 29 22.9062C29 22.9375 29 22.9688 29 23C28.9922 23.0742 28.9922 23.1445 29 23.2188V47H21V23.1875C21.0078 23.125 21.0078 23.0625 21 23C21.0039 22.957 21.0039 22.918 21 22.875C21 22.8438 21 22.8125 21 22.7812V15ZM31 15H47V22H31V15ZM5 24H19V47H5V24ZM31 24H45V47H31V24Z" fill="white"></path></svg>