<svg xmlns="http://www.w3.org/2000/svg" width="50" height="50" viewBox="0 0 50 50" fill="none"><path d="M9.90652 5.96875C9.87527 5.97656 9.84402 5.98828 9.81277 6H3.00027C2.44949 6 2.00027 6.44921 2.00027 7V31C2.00027 31.0312 2.00027 31.0625 2.00027 31.0937C2.04714 31.6094 2.48074 32.0039 3.00027 32H47.0003C47.551 32 48.0003 31.5508 48.0003 31V7C48.0003 6.44921 47.551 6 47.0003 6H40.1878C40.0979 5.97656 40.0003 5.96484 39.9065 5.96875C39.8635 5.97656 39.8206 5.98828 39.7815 6H10.219C10.1175 5.97265 10.012 5.96093 9.90652 5.96875ZM4.00027 8H9.00027V30H4.00027V8ZM11.0003 8H39.0003V30H11.0003V8ZM41.0003 8H46.0003V30H41.0003V8ZM25.0003 11C22.0511 11 19.68 13.1875 19.1878 16H19.0003C16.8011 16 15.0003 17.8008 15.0003 20C15.0003 22.1992 16.8011 24 19.0003 24C19.3596 24.0039 19.6956 23.8164 19.8792 23.5039C20.0589 23.1914 20.0589 22.8086 19.8792 22.4961C19.6956 22.1836 19.3596 21.9961 19.0003 22C17.8831 22 17.0003 21.1172 17.0003 20C17.0003 18.8828 17.8831 18 19.0003 18H20.0003C20.5511 18 21.0003 17.5508 21.0003 17C21.0003 14.7812 22.7815 13 25.0003 13C27.219 13 29.0003 14.7812 29.0003 17C29.0003 17.5508 29.4495 18 30.0003 18H31.0003C32.1175 18 33.0003 18.8828 33.0003 20C33.0003 21.1172 32.1175 22 31.0003 22C30.6409 21.9961 30.305 22.1836 30.1214 22.4961C29.9417 22.8086 29.9417 23.1914 30.1214 23.5039C30.305 23.8164 30.6409 24.0039 31.0003 24C33.1995 24 35.0003 22.1992 35.0003 20C35.0003 17.8008 33.1995 16 31.0003 16H30.8128C30.3206 13.1875 27.9495 11 25.0003 11ZM37.9065 32.9687C37.8635 32.9766 37.8206 32.9883 37.7815 33C37.3167 33.1055 36.9885 33.5234 37.0003 34V36.5937C36.2659 36.4062 35.5198 36.2344 34.6253 36.0312C27.9339 34.5156 17.6096 33 3.00027 33C2.96902 33 2.93777 33 2.90652 33C2.87527 33 2.84402 33 2.81277 33C2.26199 33.0508 1.85574 33.543 1.90652 34.0937C1.9573 34.6445 2.44949 35.0508 3.00027 35C17.4729 35 27.6487 36.4844 34.1878 37.9687C40.7268 39.4531 43.5628 40.9062 43.5628 40.9062C43.8753 41.0586 44.2425 41.0391 44.5354 40.8516C44.8245 40.668 45.0042 40.3477 45.0003 40V34C45.0042 33.6406 44.8167 33.3047 44.5042 33.1211C44.1917 32.9414 43.8089 32.9414 43.4964 33.1211C43.1839 33.3047 42.9964 33.6406 43.0003 34V38.5C42.1721 38.1562 40.8909 37.668 39.0003 37.125V34C39.012 33.7109 38.8948 33.4336 38.6878 33.2383C38.4768 33.0391 38.1917 32.9414 37.9065 32.9687ZM2.71902 36C2.16824 36.0781 1.78152 36.5898 1.85964 37.1406C1.93777 37.6914 2.44949 38.0781 3.00027 38C16.3089 38 25.6643 40.4844 31.6878 42.9375C37.7112 45.3906 40.344 47.75 40.344 47.75C40.6409 48.0078 41.055 48.0664 41.4143 47.9062C41.7698 47.7461 42.0003 47.3906 42.0003 47V42C42.0042 41.6406 41.8167 41.3047 41.5042 41.1211C41.1917 40.9414 40.8089 40.9414 40.4964 41.1211C40.1839 41.3047 39.9964 41.6406 40.0003 42V45.0625C39.2659 44.543 38.305 43.8984 37.0003 43.1875V40.6875C37.0042 40.3984 36.8792 40.125 36.6643 39.9336C36.4495 39.7422 36.1604 39.6523 35.8753 39.6875C35.3714 39.75 34.9964 40.1797 35.0003 40.6875V42.1875C34.2346 41.8242 33.3948 41.4531 32.4378 41.0625C26.18 38.5156 16.5589 36 3.00027 36C2.96902 36 2.93777 36 2.90652 36C2.87527 36 2.84402 36 2.81277 36C2.78152 36 2.75027 36 2.71902 36Z" fill="white"></path></svg>