<svg xmlns="http://www.w3.org/2000/svg" width="50" height="37" viewBox="0 0 50 37" fill="none"><path d="M0 0V2H28.0938C28.4922 2 29 2.50781 29 2.90625V30H18.9062C18.4297 27.1641 15.9648 25 13 25C10.0352 25 7.57031 27.1641 7.09375 30H3C2.44531 30 2 29.5547 2 29V20H0V29C0 30.6445 1.35547 32 3 32H7.09375C7.57031 34.8359 10.0352 37 13 37C15.9648 37 18.4297 34.8359 18.9062 32H34.0938C34.5703 34.8359 37.0352 37 40 37C42.9648 37 45.4297 34.8359 45.9062 32H47C47.832 32 48.5625 31.625 49.0938 31.0938C49.625 30.5625 50 29.832 50 29V19.4062C50 18.2812 49.5703 17.25 49.1875 16.4688C48.8047 15.6875 48.4062 15.125 48.4062 15.125V15.0938L44.3125 9.59375H44.2812V9.5625C43.3945 8.45312 41.9727 7 40 7H32C31.6406 7 31.3125 7.06641 31 7.1875V2.90625C31 1.30469 29.6953 0 28.0938 0H0ZM0 4V6H18V4H0ZM0 8V10H15V8H0ZM32 9H36V18C36 18.832 36.375 19.5625 36.9062 20.0938C37.4375 20.625 38.168 21 39 21H48V29C48 29.168 47.875 29.4375 47.6562 29.6562C47.4375 29.875 47.168 30 47 30H45.9062C45.4297 27.1641 42.9648 25 40 25C37.0352 25 34.5703 27.1641 34.0938 30H31V10C31 9.83203 31.125 9.5625 31.3438 9.34375C31.5625 9.125 31.832 9 32 9ZM38 9H40C40.8242 9 41.9727 9.92578 42.6875 10.8125L46.7812 16.2812L46.8125 16.3125C46.832 16.3398 47.1016 16.7227 47.4062 17.3438C47.6602 17.8594 47.793 18.4727 47.875 19H39C38.832 19 38.5625 18.875 38.3438 18.6562C38.125 18.4375 38 18.168 38 18V9ZM0 12V14H12V12H0ZM0 16V18H9V16H0ZM13 27C15.2227 27 17 28.7773 17 31C17 33.2227 15.2227 35 13 35C10.7773 35 9 33.2227 9 31C9 28.7773 10.7773 27 13 27ZM40 27C42.2227 27 44 28.7773 44 31C44 33.2227 42.2227 35 40 35C37.7773 35 36 33.2227 36 31C36 28.7773 37.7773 27 40 27Z" fill="white"></path></svg>