<?xml version="1.0" encoding="utf-8"?>
<!-- Generator: Adobe Illustrator 24.2.0, SVG Export Plug-In . SVG Version: 6.00 Build 0)  -->
<svg version="1.1" id="Layer_1" xmlns="http://www.w3.org/2000/svg" xmlns:xlink="http://www.w3.org/1999/xlink" x="0px" y="0px"
	 viewBox="0 0 430 80" style="enable-background:new 0 0 430 80;" xml:space="preserve">
<style type="text/css">
	.st0{fill:#222222;}
	.st1{fill-rule:evenodd;clip-rule:evenodd;fill:#222222;}
</style>
<g>
	<g>
		<g>
			<path class="st0" d="M69.5,35.7999992v-3.4000015c0-0.8999996,0.8000031-1.7000008,1.6999969-1.7000008h1.6999969v-4.2000008
				h-3.3000031c-2.8000031,0-5,2.2999992-5,5.1000004v4.1999989h-3.4000015V40h3.4000015v13.4000015h5.0999985V40h3.4000015
				l1.6999969-4.2000008H69.5z"/>
		</g>
	</g>
	<path class="st0" d="M113.3000031,34.9000015h6v18.5h-6V34.9000015z M135.6999969,35.0999985
		C135.5999908,35.0999985,135.5999908,35,135.5,35c-0.1000061,0-0.1999969,0-0.1999969-0.0999985
		c-0.3000031-0.0999985-0.6999969-0.0999985-1.1000061-0.0999985c-3.5,0-5.6999969,2.5999985-6.4000015,3.5v-3.5h-6v18.5h6
		V43.2999992c0,0,4.4999924-6.2999992,6.4000015-1.7000008c0,4.0999985,0,11.7999992,0,11.7999992h6V40.9000015
		C140.1999969,38.0999985,138.3000031,35.7999992,135.6999969,35.0999985z M119.1999969,29.3999996
		c0,1.6000004-1.3000031,2.8999996-2.9000015,2.8999996S113.3999939,31,113.3999939,29.3999996S114.6999969,26.5,116.2999954,26.5
		S119.1999969,27.7999992,119.1999969,29.3999996z"/>
	<g>
		<g>
			<path class="st0" d="M185.8999939,26.5c-7.3999939,0-11.3000031,4.7000008-11.3000031,9.9000015
				c0,2.4000015,1.3000031,5.4000015,3.5,6.2999992c0.3000031,0.0999985,0.5,0.0999985,0.6000061-0.2000008
				c0.1000061-0.2000008,0.3000031-1.2999992,0.5-1.9000015c0.1000061-0.2000008,0-0.2999992-0.1000061-0.5
				c-0.6999969-0.7999992-1.3000031-2.2999992-1.3000031-3.7000008c0-3.5999985,2.8999939-7.1000004,7.6999969-7.1000004
				c4.1999969,0,7.1999969,2.7000008,7.1999969,6.6000004c0,4.4000015-2.3000031,7.5-5.3999939,7.5
				c-1.6999969,0-2.8999939-1.2999992-2.5-3c0.5-1.9000015,1.3999939-4,1.3999939-5.4000015
				c0-1.2999992-0.6999969-2.2999992-2.1999969-2.2999992c-1.6999969,0-3.1000061,1.7000008-3.1000061,4
				c0,1.5,0.5,2.4000015,0.5,2.4000015s-1.6999969,6.7999992-2,8.0999985c-0.5,2.2000008,0.1000061,5.5999985,0.1000061,6
				c0,0.2000008,0.1999969,0.2000008,0.3000031,0.0999985c0.1999969-0.2000008,2.1999969-3.0999985,2.8000031-5.2000008
				c0.1999969-0.7999992,1.1000061-3.9000015,1.1000061-3.9000015c0.6000061,1,2.1999969,1.9000015,3.8999939,1.9000015
				c5.1999969,0,8.8999939-4.5,8.8999939-10.1000023C196.5,30.6000004,191.8000031,26.5,185.8999939,26.5z"/>
		</g>
	</g>
	<path class="st0" d="M244.6000061,44.7000008v9l8.3999939-4.5v-9L244.6000061,44.7000008z M244.6000061,26.7000008l-8.3999939,4.5
		v18l8.3999939-4.5l-8.3999939-4.5l8.3999939-4.5V26.7000008z M244.6000061,35.7000008l8.3999939,4.5v-9L244.6000061,35.7000008z"/>
	<g>
		<g>
			<path class="st0" d="M303.3999939,37.2999992v5.2999992h7.5c-1.1000061,3.0999985-4.1000061,5.2999992-7.5,5.2999992
				c-4.3999939,0-8-3.5999985-8-8s3.6000061-8,8-8c1.8999939,0,3.7000122,0.7000008,5.2000122,1.9000015l3.5-4
				c-2.3999939-2.1000004-5.5-3.2999992-8.7000122-3.2999992c-7.2999878,0-13.2999878,6-13.2999878,13.2999992
				s6,13.2999992,13.2999878,13.2999992s13.2999878-6,13.2999878-13.2999992v-2.7000008L303.3999939,37.2999992
				L303.3999939,37.2999992z"/>
		</g>
	</g>
	<path class="st1" d="M349.2738953,52h2.0599365l8.0149841-9.3333321L365.7608032,52h6.9785767l-9.5328979-13.8352051
		l8.7565613-10.1573029h-2.0339966l-7.6139526,8.8464394L356.2326965,28h-6.9720764l9.1893311,13.3408241L349.2738953,52z
		 M352.052948,29.5505619h3.2209473l14.6741638,20.9962521h-3.2209778L352.052948,29.5505619z"/>
</g>
</svg>
