<?xml version="1.0" encoding="utf-8"?>
<!-- Generator: Adobe Illustrator 24.2.0, SVG Export Plug-In . SVG Version: 6.00 Build 0)  -->
<svg version="1.1" id="Layer_1" xmlns="http://www.w3.org/2000/svg" xmlns:xlink="http://www.w3.org/1999/xlink" x="0px" y="0px"
	 viewBox="0 0 430 80" style="enable-background:new 0 0 430 80;" xml:space="preserve">
<style type="text/css">
	.st0{fill:#222222;}
	.st1{fill:#FFFFFF;}
</style>
<g>
	<g>
		<path class="st0" d="M67.8000031,26.5c-7.5,0-13.5,6.0999985-13.5,13.5s6.0999985,13.5,13.5,13.5c7.5,0,13.5-6.0999985,13.5-13.5
			S75.3000031,26.5,67.8000031,26.5z M73,33.4000015h-1.9000015c-1.5,0-1.8000031,0.7000008-1.8000031,1.7000008v2.2000008h3.5v3.5
			h-3.5v9.0999985h-3.5999985v-9.0999985h-3.0999985v-3.5h3.0999985v-2.5999985c0-3,1.8000031-4.7000008,4.5-4.7000008H73
			V33.4000015L73,33.4000015z"/>
	</g>
	<path class="st0" d="M126.5999985,26.3999996c-7.5,0-13.5,6.0000019-13.5,13.5000019s6,13.5,13.5,13.5
		c7.5000076,0,13.5000076-6,13.5000076-13.5S134.1000061,26.3999996,126.5999985,26.3999996z M121.5999985,49.0999985h-3.8000031
		V36.7999992h3.8000031V49.0999985z M119.6999969,35.0999985c-1.1999969,0-2.1999969-1-2.1999969-2.2000008
		s1-2.2000008,2.1999969-2.2000008s2.1999969,1,2.1999969,2.2000008
		C121.9000015,34.2000008,120.9000015,35.0999985,119.6999969,35.0999985z M135.8000031,49.0999985H132v-5.9000015
		c0-1.4000015,0-3.2000008-2-3.2000008s-2.3000031,1.5-2.3000031,3.0999985v6H124V36.7999992h3.5999985V38.5h0.0999985
		c0.5-1,1.8000031-2,3.6000061-2c3.8000031,0,4.6000061,2.5,4.6000061,5.7999992
		C135.8000031,42.2999992,135.8000031,49.0999985,135.8000031,49.0999985z"/>
	<g>
		<path class="st0" d="M185.6000061,26.5c-7.5,0-13.5,6.0999985-13.5,13.5s6.1000061,13.5,13.5,13.5c7.5,0,13.5-6.0999985,13.5-13.5
			S193,26.5,185.6000061,26.5z M187.1999969,44.5c-1.1999969,0-2.3999939-0.7000008-2.8000031-1.4000015
			c0,0-0.6999969,2.7000008-0.8000031,3.2000008c-0.5,1.7999992-2,3.5999985-2.1000061,3.7999992
			c-0.1000061,0.0999985-0.1999969,0.0999985-0.3000031-0.0999985c0-0.2000008-0.3999939-2.5,0-4.4000015
			c0.1999969-0.9000015,1.5-6.2999992,1.5-6.2999992S182.2999878,38.5999985,182.2999878,37.5c0-1.7000008,1-3,2.1999969-3
			c1.1000061,0,1.6000061,0.7999992,1.6000061,1.7000008c0,1.0999985-0.6999969,2.5999985-1,4.0999985
			C184.7999878,41.5,185.6999969,42.5,186.8999939,42.5c2.1999969,0,3.6999969-2.7999992,3.6999969-6.2000008
			c0-2.5-1.6999969-4.3999996-4.8000031-4.3999996c-3.5,0-5.6999969,2.6000004-5.6999969,5.5000019
			c0,1,0.3000031,1.7000008,0.8000031,2.2999992c0.1999969,0.2000008,0.1999969,0.4000015,0.1999969,0.5999985
			C180.9999847,40.5,180.8999939,41,180.8999939,41.2000008C180.7999878,41.5,180.5999908,41.6000023,180.2999878,41.5
			c-1.6000061-0.5999985-2.3999939-2.4000015-2.3999939-4.4000015c0-3.2999992,2.8000031-7.2000008,8.3000031-7.2000008
			c4.3999939,0,7.3000031,3.2000008,7.3000031,6.5999985C193.3999939,41.0999985,190.8999939,44.5,187.1999969,44.5z"/>
	</g>
	<g>
		<path class="st0" d="M244.5,26.5c-7.3999939,0-13.3999939,6-13.3999939,13.4000015S237.1000061,53.5,244.5,53.5
			s13.3999939-6,13.3999939-13.4000015C258.1000061,32.5,252,26.5,244.5,26.5z"/>
		<g>
			<g>
				<g>
					<polygon class="st1" points="244.5,43.0999985 244.5,49.2999992 250.3000031,46.2000008 250.3000031,40.0999985 					"/>
				</g>
			</g>
			<g>
				<g>
					<polygon class="st1" points="244.5,30.7000008 238.8000031,33.7999992 238.8000031,40.0999985 238.8000031,46.2000008 
						244.5,43.0999985 238.8000031,40.0999985 244.5,36.9000015 					"/>
				</g>
			</g>
			<g>
				<g>
					<polygon class="st1" points="244.5,36.9000015 250.3000031,40.0999985 250.3000031,33.7999992 					"/>
				</g>
			</g>
		</g>
	</g>
	<g>
		<g>
			<path class="st0" d="M303.8999939,35.7999992c0-1.9000015-1.1000061-4.7999992-3.2999878-4.7999992
				c-0.7000122,0-1.3999939,0.3999996-1.7999878,0.8999996c-0.3999939,0.5000019-0.6000061,1.1999989-0.6000061,1.8999996
				c0,1.7000008,1,4.5999985,3.2000122,4.5999985c0.6000061,0,1.3999939-0.2999992,1.7999878-0.7000008
				C303.7999878,37.0999985,303.8999939,36.2999992,303.8999939,35.7999992z"/>
			<path class="st0" d="M302.5,42.5999985c-0.2000122,0-0.2999878,0-0.6000061,0
				c-0.2000122,0-1.6000061,0.0999985-2.7000122,0.4000015c-0.6000061,0.2000008-2.2000122,0.7999992-2.2000122,2.7000008
				c0,1.7999992,1.7999878,3.2000008,4.6000061,3.2000008c2.5,0,3.7999878-1.2000008,3.7999878-2.7999992
				C305.2999878,44.7000008,304.3999939,44.0999985,302.5,42.5999985z"/>
			<path class="st0" d="M303.3999939,26.5c-7.5,0-13.5,6.0999985-13.5,13.5s6.1000061,13.5,13.5,13.5s13.5-6.0999985,13.5-13.5
				S310.7999878,26.5,303.3999939,26.5z M300.2000122,50c-3.7999878,0-5.6000061-1.7999992-5.6000061-3.7000008
				c0-0.9000015,0.5-2.2999992,2-3.2000008c1.6000061-1,3.7999878-1.0999985,4.8999939-1.2000008
				c-0.3999939-0.5-0.7999878-1-0.7999878-1.7999992c0-0.4000015,0.1000061-0.7000008,0.2999878-1
				c-0.2999878,0-0.6000061,0.0999985-0.7999878,0.0999985c-2.7999878,0-4.2999878-2.0999985-4.2999878-4.0999985
				c0-1.2000008,0.5-2.5,1.6000061-3.5c1.5-1.2000008,3.5-1.6000004,4.8999939-1.6000004h5.1000061l-1.7000122,1.1000004h-1.6000061
				c0.6000061,0.5,1.7999878,1.5,1.7999878,3.5c0,1.9000015-1.1000061,2.7999992-2.2000122,3.7000008
				c-0.3999939,0.2999992-0.7000122,0.7000008-0.7000122,1.2999992s0.3999939,0.9000015,0.7000122,1.0999985l0.8999939,0.7000008
				c1.1000061,1,2.2000122,1.7999992,2.2000122,3.5999985C307,47.5,304.7000122,50,300.2000122,50z M311.3999939,39.7000008
				v2.5999985h-1.2999878v-2.5999985H307.5v-1.2999992h2.6000061v-2.5999985h1.2999878v2.5999985H314v1.2999992H311.3999939z"/>
		</g>
	</g>
	<g>
		<polygon class="st0" points="355.627533,33.2375259 365.2575378,47.0187759 367.372467,47.0187759 357.7424622,33.2375259 		"/>
		<path class="st0" d="M361.5,26.5999756c-7.460022,0-13.5,6.0400391-13.5,13.5c0,7.460022,6.039978,13.5,13.5,13.5
			s13.5-6.039978,13.5-13.5C375,32.6400146,368.960022,26.5999756,361.5,26.5999756z M364.6300049,47.9699707l-4.210022-6.1199951
			l-5.2699585,6.1199951h-1.3500366l6.0200195-6.9899902l-6.0300293-8.7600098h4.5800171l4,5.8100586l4.9899902-5.8100586h1.3400269
			l-5.75,6.6800537l6.2600098,9.0699463H364.6300049z"/>
	</g>
</g>
</svg>
