<svg xmlns="http://www.w3.org/2000/svg" width="312" height="38" viewBox="0 0 312 38" fill="none"><path d="M290.25 22.4043C290.25 23.2565 290.988 23.8197 292.152 23.8197V23.83C292.195 23.8338 292.238 23.8376 292.283 23.8394C293.591 23.8929 294.696 22.8745 294.749 21.5661V20.772L292.324 20.925C290.962 21.0067 290.25 21.521 290.25 22.4043Z" fill="white"></path><path d="M282.376 13.1607H279.861V18.7427H282.368C284.271 18.7427 285.353 17.7243 285.353 15.9475C285.353 14.1707 284.271 13.1607 282.376 13.1607Z" fill="white"></path><path fill-rule="evenodd" clip-rule="evenodd" d="M261.215 0.199219C258.665 0.199219 256.598 2.26624 256.598 4.81604V32.517C256.598 35.0668 258.665 37.1338 261.215 37.1338H307.383C309.933 37.1338 312 35.0668 312 32.517V4.81604C312 2.26624 309.933 0.199219 307.383 0.199219H261.215ZM303.551 25.9297C302.676 28.3908 301.674 29.2027 299.547 29.2027V29.214C299.27 29.2149 298.992 29.1971 298.717 29.1595V27.47C298.852 27.4879 299.185 27.5057 299.357 27.5057C300.257 27.5714 301.057 26.936 301.197 26.0452L301.395 25.4229L297.698 15.1919H299.979L302.549 23.4968H302.594L305.164 15.1806H307.383L303.551 25.9297ZM294.786 23.693C294.122 24.8353 292.887 25.5233 291.566 25.4877L291.566 25.498C289.536 25.498 288.121 24.29 288.123 22.4606C288.123 20.6566 289.493 19.6194 292.027 19.4664L294.749 19.304V18.5287C294.749 17.3836 294.001 16.7613 292.667 16.7613C291.717 16.658 290.836 17.2691 290.602 18.1955H288.635C288.698 16.3736 290.412 15.0483 292.729 15.0483C295.228 15.0483 296.851 16.3558 296.851 18.3851V25.3825H294.831V23.693H294.786ZM277.679 25.3797V11.321L282.955 11.3351C283.098 11.3285 283.241 11.3276 283.384 11.3342C285.818 11.4515 287.696 13.5183 287.58 15.9522C287.586 16.092 287.585 16.2309 287.577 16.3708C287.445 18.8319 285.343 20.7194 282.882 20.5871H279.861V25.3797H277.679ZM268.414 14.3946C268.976 14.1738 269.672 13.9005 270.435 13.9445L270.437 13.936C271.555 13.9754 272.588 14.5367 273.232 15.451C272.222 16.0733 271.601 17.1677 271.582 18.3541C271.589 19.6992 272.388 20.9128 273.62 21.4516C273.379 22.2184 273.027 22.9459 272.574 23.6104C271.932 24.549 271.273 25.4698 270.228 25.4877C269.734 25.4968 269.4 25.353 269.053 25.2034C268.689 25.0469 268.311 24.8841 267.721 24.8841C267.103 24.8841 266.707 25.0521 266.326 25.2137C265.995 25.3542 265.676 25.4898 265.231 25.5064C264.222 25.543 263.455 24.5152 262.815 23.5766C261.507 21.6834 260.506 18.2387 261.859 15.9118C262.494 14.7611 263.692 14.0336 265.006 13.9998C265.571 13.9892 266.112 14.2036 266.584 14.3903C266.94 14.5315 267.257 14.6569 267.513 14.6569C267.746 14.6569 268.052 14.5366 268.414 14.3946ZM267.38 13.7755C268.263 13.7915 269.103 13.3944 269.652 12.7027L269.651 12.6998C270.222 12.0203 270.507 11.1455 270.445 10.2594C269.572 10.3411 268.764 10.7578 268.192 11.4224C267.617 12.0663 267.324 12.9139 267.38 13.7755Z" fill="white"></path><path d="M228.449 19.1648C228.785 19.1721 229.123 19.1683 229.46 19.1644C230.015 19.1581 230.571 19.1518 231.123 19.1953C232.021 19.3629 232.238 20.7232 231.439 21.1687C231.075 21.3653 230.664 21.3476 230.255 21.3301C230.054 21.3214 229.852 21.3127 229.657 21.3298H228.449V19.1648Z" fill="white"></path><path d="M231.638 16.7142C231.836 17.4128 231.162 18.0401 230.489 17.9439H228.449C228.454 17.6912 228.451 17.4302 228.448 17.1692C228.444 16.7499 228.439 16.3305 228.469 15.9459C228.778 15.9545 229.087 15.95 229.397 15.9454C229.908 15.9379 230.419 15.9304 230.925 15.9824C231.274 16.0702 231.566 16.3573 231.638 16.7142Z" fill="white"></path><path d="M236.549 6.35397C236.573 7.17967 236.569 8.03237 236.566 8.88507C236.564 9.41018 236.561 9.93529 236.566 10.4541C236.565 12.5106 236.565 14.5671 236.566 16.6237V16.6336C236.566 20.108 236.567 23.5825 236.561 27.0572C236.525 29.1313 234.687 30.9335 232.627 30.9749C231.344 30.9802 230.059 30.9794 228.775 30.9786H228.771C227.995 30.9781 227.218 30.9777 226.442 30.9785V22.6118C227.295 22.6074 228.149 22.6097 229.003 22.6121C230.396 22.6159 231.79 22.6197 233.182 22.5943C234.224 22.5288 235.365 21.8414 235.413 20.695C235.536 19.5435 234.45 18.7471 233.42 18.6213C233.024 18.611 233.035 18.5058 233.42 18.4599C234.403 18.2474 235.175 17.23 234.885 16.2111C234.639 15.1394 233.455 14.7246 232.469 14.7266C231.228 14.7182 229.987 14.7195 228.746 14.7207C227.978 14.7215 227.21 14.7223 226.442 14.7208C226.447 14.1365 226.444 13.552 226.442 12.9675C226.437 11.9894 226.433 11.0113 226.464 10.0343C226.623 7.99766 228.507 6.31806 230.538 6.3545L236.549 6.35397Z" fill="white"></path><path d="M207.694 6.35673C205.637 6.38699 203.791 8.17446 203.739 10.2453C203.734 11.2181 203.727 12.2674 203.719 13.3464C203.701 15.7995 203.682 18.4082 203.687 20.6272C203.687 20.6272 206.113 21.5277 207.338 21.5147C208.325 21.5502 209.362 20.885 209.457 19.838C209.494 18.7758 209.488 17.7116 209.483 16.6474C209.48 16.0051 209.477 15.3627 209.483 14.7208H213.012V17.2994C212.998 17.6468 213.005 17.9969 213.012 18.3472C213.028 19.1166 213.043 19.8868 212.835 20.6302C212.422 21.8949 211.088 22.4936 209.869 22.6897C207.829 23.003 205.733 22.8019 203.734 22.3297V30.9785C204.514 30.9777 205.293 30.9781 206.073 30.9785C207.351 30.9793 208.63 30.98 209.908 30.9753C211.943 30.9391 213.769 29.1857 213.848 27.1401C213.86 22.8538 213.858 18.567 213.857 14.2803C213.856 11.6382 213.854 8.99602 213.857 6.35398C213.073 6.35468 212.289 6.35433 211.505 6.35397C210.235 6.35339 208.964 6.35282 207.694 6.35673Z" fill="white"></path><path d="M215.173 15.7609C215.056 15.7857 215.071 15.5278 215.087 15.2698C215.096 15.1185 215.106 14.9673 215.088 14.8731C215.093 14.2722 215.09 13.6711 215.088 13.07C215.084 12.0582 215.079 11.046 215.11 10.0354C215.268 7.9901 217.167 6.30631 219.206 6.35419H225.211C225.209 8.9976 225.21 11.6411 225.211 14.2846C225.213 18.5693 225.215 22.856 225.203 27.1403C225.123 29.1859 223.297 30.9392 221.263 30.9755C219.973 30.9804 218.683 30.9797 217.393 30.9789H217.389C216.622 30.9784 215.855 30.978 215.088 30.9787V21.5028C216.494 22.6562 218.404 22.8357 220.155 22.8388C221.476 22.8384 222.788 22.6348 224.07 22.3303V20.5943C222.625 21.3144 220.927 21.7718 219.325 21.3581C218.208 21.08 217.397 20.0002 217.415 18.8472C217.285 17.6481 217.988 16.3821 219.167 16.0257C220.63 15.5676 222.224 15.9179 223.596 16.5134L223.657 16.546C223.929 16.6906 224.179 16.8238 224.07 16.367V15.0024C221.777 14.4568 219.336 14.256 217.031 14.8496C216.364 15.0377 215.715 15.3229 215.173 15.7609Z" fill="white"></path><path fill-rule="evenodd" clip-rule="evenodd" d="M197.065 0.199219C194.516 0.199219 192.448 2.26624 192.448 4.81604V32.517C192.448 35.0668 194.516 37.1338 197.065 37.1338H243.234C245.783 37.1338 247.85 35.0668 247.85 32.517V4.81604C247.85 2.26624 245.783 0.199219 243.234 0.199219H197.065ZM238.617 27.1488C238.617 30.3213 236.045 32.8938 232.872 32.8938H201.682V10.1851C201.682 7.01175 204.254 4.43922 207.427 4.43922H238.616L238.617 27.1488Z" fill="white"></path><path d="M171.389 20.6238C171.727 19.8139 172.874 16.7765 172.874 16.7765C172.874 16.844 173.212 15.9665 173.347 15.494L173.617 16.709C173.617 16.709 174.359 20.0164 174.494 20.6913H171.389V20.6238Z" fill="white"></path><path fill-rule="evenodd" clip-rule="evenodd" d="M132.916 0.199219C130.366 0.199219 128.299 2.26624 128.299 4.81604V32.517C128.299 35.0668 130.366 37.1338 132.916 37.1338H179.084C181.634 37.1338 183.701 35.0668 183.701 32.517V4.81604C183.701 2.26624 181.634 0.199219 179.084 0.199219H132.916ZM165.855 21.0289C165.855 23.8638 163.29 25.7537 159.307 25.7537C157.62 25.7537 156 25.4162 155.123 25.0112L155.663 21.9063L156.135 22.1088C157.35 22.6488 158.16 22.8513 159.645 22.8513C160.725 22.8513 161.872 22.4463 161.872 21.5014C161.872 20.8939 161.4 20.4889 159.915 19.8139C158.497 19.1389 156.607 18.059 156.607 16.1016C156.607 13.4017 159.24 11.5792 162.952 11.5792C164.37 11.5792 165.585 11.8492 166.327 12.1867L165.787 15.1566L165.517 14.8866C164.842 14.6166 163.965 14.3466 162.682 14.3466C161.265 14.4141 160.59 15.0216 160.59 15.5616C160.59 16.1691 161.4 16.6415 162.682 17.249C164.842 18.2615 165.855 19.4089 165.855 21.0289ZM175.979 11.7817H173.077C172.199 11.7817 171.524 12.0517 171.119 12.9291L165.585 25.5512H169.499C169.499 25.5512 170.174 23.8637 170.309 23.4587H175.102C175.237 23.9312 175.574 25.4837 175.574 25.4837H179.084L175.979 11.7817ZM132.983 11.6468L132.916 11.9168C137.438 12.9967 140.408 15.6291 141.691 18.869L140.408 12.7942C140.206 11.9168 139.598 11.6468 138.788 11.6468H132.983ZM149.858 11.7817L143.985 25.4837H140.003L136.628 14.0091C139.058 15.5616 141.083 17.9915 141.826 19.6789L142.231 21.0964L145.875 11.7142H149.858V11.7817ZM155.123 11.7142H151.41L149.048 25.4837H152.76L155.123 11.7142Z" fill="white"></path><path fill-rule="evenodd" clip-rule="evenodd" d="M97.2953 15.2779C97.1173 13.4223 95.5151 12.8003 93.4932 12.623V10.0494H91.9269V12.5556C91.5152 12.5556 91.0939 12.5637 90.6756 12.5724V10.0501H89.11V12.623L89.0923 12.6233C88.7593 12.6298 88.4318 12.6362 88.113 12.6362V12.6281H85.9518V14.3036C85.9518 14.3036 87.1086 14.2816 87.0895 14.3036C87.5269 14.2472 87.9291 14.5534 87.9906 14.99V17.9204C88.0456 17.9204 88.1013 17.9241 88.1562 17.9314H87.9906V22.0391C87.9723 22.3445 87.7108 22.5768 87.406 22.5585C87.4258 22.576 86.2661 22.5585 86.2661 22.5585L85.9547 24.4295H87.9936C88.2403 24.4295 88.4842 24.4323 88.7253 24.4351C88.8551 24.4365 88.9841 24.438 89.1122 24.439V27.042H90.6771V24.4661C91.1064 24.4749 91.5225 24.4786 91.9283 24.4786V27.0427H93.4924V24.4442C96.1298 24.2933 97.9701 23.6295 98.1986 21.1563C98.3832 19.1643 97.4463 18.2757 95.9518 17.9167C96.9474 17.4449 97.499 16.3607 97.2953 15.2779ZM94.3752 15.9797C94.3752 17.6024 92.0399 17.5638 90.9698 17.5461C90.8726 17.5445 90.7858 17.5431 90.7122 17.5431V14.4149C90.8007 14.4148 90.908 14.4118 91.0296 14.4085C92.1238 14.3785 94.3715 14.3168 94.3715 15.9783L94.3752 15.9797ZM95.1034 20.8457C95.1034 22.6306 92.2994 22.5912 91.0168 22.5732C90.9017 22.5716 90.7989 22.5701 90.7115 22.5702V19.1211C90.8175 19.121 90.9461 19.1179 91.0918 19.1144C92.4054 19.0827 95.1034 19.0189 95.1034 20.8457Z" fill="white"></path><path fill-rule="evenodd" clip-rule="evenodd" d="M68.7662 0.199219C66.2164 0.199219 64.1494 2.26624 64.1494 4.81604V32.517C64.1494 35.0668 66.2164 37.1338 68.7662 37.1338H114.934C117.484 37.1338 119.551 35.0668 119.551 32.517V4.81604C119.551 2.26624 117.484 0.199219 114.934 0.199219H68.7662ZM105.701 18.6724C105.698 26.3221 99.4935 32.5206 91.8445 32.517C84.1955 32.514 77.997 26.3104 77.9999 18.6606C78.0028 11.0138 84.202 4.81677 91.8489 4.81604C99.4987 4.81531 105.7 11.0167 105.701 18.6665V18.6724Z" fill="white"></path><path d="M10.5722 16.2541C10.4969 16.7802 10.3017 17.1256 9.98619 17.291C9.67057 17.4566 9.21977 17.539 8.63379 17.539L7.88989 17.5614L8.27317 15.1495C8.30308 14.9844 8.40071 14.9017 8.56613 14.9017H8.99454C9.59533 14.9017 10.0314 14.9883 10.3019 15.1608C10.5722 15.3337 10.6624 15.6983 10.5722 16.2541Z" fill="white"></path><path d="M42.1746 21.2136C42.7156 21.2136 43.1777 21.0259 43.5609 20.6502C43.9441 20.2747 44.1357 19.8162 44.1358 19.2753C44.1358 18.8394 43.9964 18.4975 43.7186 18.2495C43.4404 18.0017 43.0909 17.8777 42.6705 17.8777C42.1145 17.8777 41.6482 18.0692 41.273 18.4525C40.8972 18.8356 40.7093 19.3056 40.7093 19.8612C40.7093 20.2825 40.8446 20.6131 41.1152 20.853C41.3858 21.0936 41.7387 21.2136 42.1746 21.2136Z" fill="white"></path><path d="M17.9542 20.6613C17.5709 21.03 17.1011 21.2136 16.5454 21.2136C16.1094 21.2136 15.76 21.0936 15.4972 20.853C15.2341 20.6131 15.1027 20.2825 15.1027 19.8612C15.1027 19.3056 15.2904 18.8356 15.6663 18.4525C16.0417 18.0692 16.5076 17.8776 17.0638 17.8776C17.4844 17.8776 17.8337 18.0017 18.112 18.2495C18.3898 18.4975 18.529 18.8394 18.529 19.2753C18.5289 19.8313 18.3374 20.2936 17.9542 20.6613Z" fill="white"></path><path d="M34.2404 17.5387C34.9014 17.5387 35.3974 17.4261 35.728 17.2007C36.0584 16.9751 36.2239 16.5471 36.2239 15.9157C36.2239 15.6153 36.1338 15.386 35.9534 15.2282C35.7731 15.0705 35.5849 14.9767 35.3899 14.9465C35.1943 14.9165 34.9313 14.9014 34.6007 14.9014H34.1951C34.0296 14.9014 33.9319 14.9843 33.9021 15.1493L33.5189 17.5613L34.2404 17.5387Z" fill="white"></path><path fill-rule="evenodd" clip-rule="evenodd" d="M0 4.81604C0 2.26624 2.06702 0.199219 4.61682 0.199219H50.785C53.3349 0.199219 55.4019 2.26624 55.4019 4.81604V32.517C55.4019 35.0668 53.3348 37.1338 50.785 37.1338H4.61682C2.06702 37.1338 0 35.0668 0 32.517V4.81604ZM12.4317 13.4927C11.8531 13.0949 11.0979 12.8955 10.1664 12.8955H6.55981C6.27423 12.8955 6.11645 13.0383 6.08648 13.3237L4.62142 22.5202C4.60619 22.6106 4.62879 22.6932 4.68901 22.7683C4.74888 22.8435 4.82419 22.8809 4.91438 22.8809H6.62747C6.92793 22.8809 7.09308 22.7384 7.1234 22.4527L7.52907 19.9733C7.54388 19.8532 7.59673 19.7555 7.68692 19.6802C7.77704 19.6051 7.88975 19.556 8.025 19.5336C8.16025 19.5112 8.28778 19.4999 8.40822 19.4999C8.52831 19.4999 8.67099 19.5076 8.83656 19.5225C9.00171 19.5375 9.10698 19.5449 9.15211 19.5449C10.4444 19.5449 11.4587 19.1807 12.1951 18.4517C12.9313 17.723 13.2997 16.7125 13.2997 15.4199C13.2997 14.5333 13.0101 13.8911 12.4317 13.4927ZM48.8239 12.8955H50.4917C50.687 12.8955 50.785 13.0009 50.785 13.2114V13.2338L49.32 22.453C49.2894 22.7388 49.1316 22.8812 48.8466 22.8812H47.3586C47.2686 22.8812 47.1931 22.8474 47.1333 22.7799C47.0731 22.7122 47.043 22.6412 47.043 22.5657L47.0656 22.5206L48.5308 13.1436C48.5606 12.9782 48.6581 12.8955 48.8239 12.8955ZM30.3404 16.5248C30.3404 16.4499 30.3103 16.3784 30.2505 16.3109C30.1903 16.2434 30.1226 16.2093 30.0476 16.2093H28.312C28.1464 16.2093 28.0111 16.2848 27.9061 16.4347L25.5168 19.9512L24.5251 16.5701C24.4495 16.3298 24.2845 16.2093 24.0292 16.2093H22.3383C22.263 16.2093 22.1954 16.2432 22.1357 16.3109C22.0754 16.3784 22.0455 16.45 22.0455 16.5249C22.0455 16.5551 22.1921 16.9983 22.485 17.8548C22.778 18.7116 23.0935 19.6358 23.4317 20.6277C23.7699 21.6193 23.9463 22.1456 23.9614 22.2052C22.7291 23.8885 22.1132 24.7901 22.1132 24.9101C22.1132 25.1057 22.2107 25.2032 22.4062 25.2032H24.1418C24.3071 25.2032 24.4422 25.1283 24.5477 24.9779L30.2957 16.6826C30.3255 16.6528 30.3404 16.6005 30.3404 16.5248ZM44.7893 16.2094H46.5024C46.5926 16.2094 46.6675 16.2471 46.7279 16.322C46.788 16.3973 46.8104 16.4798 46.7956 16.57L45.8713 22.4533C45.8264 22.739 45.6609 22.8815 45.3757 22.8815H43.8203C43.6246 22.8815 43.5272 22.7616 43.5272 22.5208C43.5272 22.4613 43.542 22.3708 43.5724 22.2504C43.6021 22.1302 43.6174 22.0628 43.6174 22.0477C43.3615 22.3484 43.0086 22.5887 42.5578 22.769C42.1071 22.9492 41.6638 23.0395 41.2281 23.0395C40.3562 23.0395 39.6613 22.7769 39.1428 22.2506C38.6245 21.7248 38.3653 21.0186 38.3653 20.1318C38.3653 19.0349 38.7446 18.0804 39.5036 17.2689C40.2623 16.4574 41.1828 16.0516 42.2647 16.0516C43.3018 16.0516 44.0151 16.3525 44.4063 16.9534C44.4514 16.4574 44.5787 16.2094 44.7893 16.2094ZM20.8958 16.2094H19.1826C18.9719 16.2094 18.8445 16.4574 18.7994 16.9534C18.3936 16.3525 17.6798 16.0516 16.6579 16.0516C15.576 16.0516 14.6554 16.4574 13.8966 17.2689C13.1377 18.0804 12.7584 19.0349 12.7584 20.1318C12.7584 21.0186 13.0176 21.7248 13.5361 22.2506C14.0546 22.7769 14.7494 23.0395 15.6211 23.0395C16.0416 23.0395 16.4777 22.9492 16.9284 22.769C17.3792 22.5887 17.7399 22.3484 18.0104 22.0477C17.9501 22.2279 17.9202 22.3857 17.9202 22.5208C17.9202 22.7616 18.0178 22.8815 18.2132 22.8815H19.7685C20.0538 22.8815 20.2193 22.739 20.2645 22.4533L21.1886 16.57C21.2034 16.4798 21.1809 16.3973 21.121 16.322C21.0609 16.2471 20.9858 16.2094 20.8958 16.2094ZM35.7731 12.8955C36.7049 12.8955 37.4598 13.0949 38.0384 13.4927C38.6168 13.8911 38.9062 14.5333 38.9062 15.4198C38.9062 16.7125 38.538 17.723 37.8016 18.4516C37.0652 19.1807 36.0511 19.5448 34.7586 19.5448C34.7138 19.5448 34.6082 19.5375 34.443 19.5225C34.2776 19.5076 34.135 19.4999 34.0148 19.4999C33.8943 19.4999 33.7668 19.5112 33.6316 19.5335C33.4963 19.556 33.3837 19.6051 33.2935 19.6802C33.2032 19.7555 33.1506 19.8532 33.1357 19.9733L32.7299 22.5879C32.6696 22.7833 32.5495 22.8809 32.3692 22.8809H30.5209C30.4307 22.8809 30.3552 22.8435 30.2956 22.7682C30.2353 22.6931 30.2127 22.6105 30.2279 22.5202L31.6931 13.3237C31.723 13.0383 31.8884 12.8955 32.189 12.8955H35.7731Z" fill="white"></path></svg>