<?xml version="1.0" encoding="utf-8"?>
<!-- Generator: Adobe Illustrator 24.2.0, SVG Export Plug-In . SVG Version: 6.00 Build 0)  -->
<svg version="1.1" id="Layer_1" xmlns="http://www.w3.org/2000/svg" xmlns:xlink="http://www.w3.org/1999/xlink" width="50px" height="50px" x="0px" y="0px"
	 viewBox="0 0 50 50" style="enable-background:new 0 0 50 50;" xml:space="preserve">
<style type="text/css">
	.st0{fill:#222222;}
</style>
<g>
	<g>
		<g>
			<path class="st0" d="M8.7120142,23.182457c0,2.3767872,0.5592442,4.6137638,1.6777325,6.8507404
				c0.9786768,1.817543,2.2369766,3.4952755,3.9147091,4.8933849v6.011879c0,0.4194298,0.2796221,0.6990547,0.4194336,0.6990547
				c0.1398106,0.1398087,0.2796211,0.1398087,0.5592432,0.1398087s0.5592442-0.1398125,0.6990557-0.2796249l3.9147081-3.9147072
				c1.2582989,0.2796249,2.5165997,0.4194336,3.7748966,0.4194336h2.6564121c8.248848,0,14.9597816-6.7109299,14.9597816-14.9597816
				S34.4372444,8.2226763,26.1883926,8.2226763h-2.6564083C15.4229441,8.2226763,8.7120142,14.9336061,8.7120142,23.182457z
				 M10.6693687,23.182457c0-7.1303635,5.7322521-12.8626156,12.8626156-12.8626156h2.6564083
				c7.1303635,0,12.8626137,5.7322521,12.8626137,12.8626156s-5.732254,12.8626137-12.8626156,12.8626137h-2.6564064
				c-1.2582989,0-2.5165997-0.1398125-3.7748985-0.5592422c-0.1398106,0-0.1398106,0-0.2796211,0
				c-0.279623,0-0.5592442,0.1398087-0.6990547,0.2796211l-2.5165997,2.5165977v-3.9147072
				c0-0.2796249-0.1398106-0.5592422-0.4194336-0.8388672C12.6267233,31.0118732,10.6693687,27.2369766,10.6693687,23.182457z"/>
		</g>
	</g>
	<g>
		<g>
			<path class="st0" d="M29.5438576,19.4075584c-0.1398106-2.0971661-1.817543-3.9147091-4.0545197-4.0545197
				c-1.2582989-0.1398106-2.3767872,0.2796221-3.2156544,1.1184883c-0.8388672,0.8388672-1.3981094,1.9573555-1.3981094,3.2156544
				c0,0.6990547,0.4194317,1.1184883,0.9786777,1.1184883c0.5592442,0,0.8871899-0.4454079,0.8871899-1.004652
				c0-0.6990528,0.218647-1.359642,0.6380787-1.7790737c0.4194336-0.4194336,0.8584576-0.8924541,2.1973495-0.9195843
				c1.2580414-0.0254917,2.2240238,1.2882385,2.2240238,2.4067268c0,1.1184902-1.0296288,2.248827-2.1481152,2.5284481
				c-0.8388672,0.1398125-1.7013626,0.8652992-1.7013626,1.843977v2.5165977c0,0.5592442,0.4194336,0.9786777,0.9786758,0.9786777
				c0.5592442,0,0.9786777-0.4194336,0.9786777-0.9786777v-2.3767872
				C28.2855587,23.4620781,29.6836681,21.6445351,29.5438576,19.4075584z"/>
		</g>
	</g>
	<g>
		<g>
			<path class="st0" d="M25.6291485,29.7535744c-0.1398106-0.1398106-0.4194336-0.2796211-0.6990547-0.2796211
				s-0.5592442,0.1398106-0.6990547,0.2796211c-0.1398125,0.1398125-0.2796211,0.4194336-0.2796211,0.6990547
				c0,0.279623,0.1398106,0.5592442,0.2796211,0.6990566c0.1398106,0.1398106,0.4194336,0.279623,0.6990547,0.279623
				s0.5592442-0.1398125,0.6990547-0.279623c0.1398125-0.1398125,0.279623-0.4194336,0.279623-0.6990566
				C25.8860302,30.1048908,25.8143005,29.936327,25.6291485,29.7535744z"/>
		</g>
	</g>
</g>
</svg>
