<svg xmlns="http://www.w3.org/2000/svg" width="52" height="38" viewBox="0 0 52 38" fill="none"><path d="M2 11H20C22.2091 11 24 12.7909 24 15V31H2V11Z" fill="#FFD600"></path><path d="M13.1078 36.1907C15.4812 36.1907 17.4053 34.2667 17.4053 31.8932C17.4053 29.5197 15.4812 27.5957 13.1078 27.5957C10.7343 27.5957 8.8103 29.5197 8.8103 31.8932C8.8103 34.2667 10.7343 36.1907 13.1078 36.1907Z" fill="white" stroke="black" stroke-width="1.6" stroke-miterlimit="10"></path><path d="M38.8927 36.1907C41.266 36.1907 43.1902 34.2667 43.1902 31.8932C43.1902 29.5197 41.266 27.5957 38.8927 27.5957C36.5192 27.5957 34.5952 29.5197 34.5952 31.8932C34.5952 34.2667 36.5192 36.1907 38.8927 36.1907Z" stroke="black" stroke-width="1.6" stroke-miterlimit="10"></path><path d="M8.81 31.8911H2.375V1.80859H41.03V10.4036L45.3275 18.9986L49.625 21.4061V31.8911H43.19" stroke="black" stroke-width="1.6" stroke-miterlimit="10"></path><path d="M34.5947 31.8937H17.4048" stroke="black" stroke-width="1.6" stroke-miterlimit="10"></path><path d="M45.3277 18.9993H32.4352V10.4043H41.0302" stroke="black" stroke-width="1.6" stroke-miterlimit="10"></path></svg>