<svg xmlns="http://www.w3.org/2000/svg" width="42" height="42" viewBox="0 0 42 42" fill="none"><path d="M36.0327 2.625V12.6525H7.63022C6.35169 12.5769 5.15035 12.0158 4.27185 11.0838C3.39334 10.1519 2.90405 8.9195 2.90405 7.63875C2.90405 6.35799 3.39334 5.12563 4.27185 4.19366C5.15035 3.2617 6.35169 2.70057 7.63022 2.625H36.0327Z" fill="#FFD600" stroke="black" stroke-width="1.6" stroke-miterlimit="10" stroke-linecap="square"></path><path d="M32.6899 22.75H39.3749V29.435H32.6899C31.8035 29.435 30.9532 29.0829 30.3264 28.456C29.6997 27.8292 29.3474 26.979 29.3474 26.0925C29.3474 25.2059 29.6997 24.3558 30.3264 23.7289C30.9532 23.1021 31.8035 22.75 32.6899 22.75Z" fill="#FFD600" stroke="black" stroke-width="1.6" stroke-miterlimit="10" stroke-linecap="square"></path><path d="M39.375 12.6514V39.3739H5.96753C5.08245 39.3692 4.23494 39.0157 3.60911 38.3897C2.98326 37.7639 2.62962 36.9164 2.62503 36.0314V7.62891C2.62272 8.28764 2.75049 8.94034 3.00098 9.5496C3.25146 10.1589 3.61977 10.7127 4.08476 11.1793C4.54973 11.6459 5.10226 12.0161 5.71065 12.2688C6.31902 12.5214 6.97128 12.6514 7.63003 12.6514H39.375Z" stroke="black" stroke-width="1.6" stroke-miterlimit="10" stroke-linecap="square"></path></svg>