<svg width="40" height="40" viewBox="0 0 40 40" fill="none" xmlns="http://www.w3.org/2000/svg">
<path d="M11.8391 0C11.085 0 10.3274 0.285411 9.75668 0.856233C9.51888 1.09407 9.34562 1.37269 9.20294 1.6649L0.526562 5.40242C0.207227 5.53833 0 5.85432 0 6.20089C0 7.60756 0.75757 8.4502 0.991974 8.69484C1.13126 9.83988 1.6782 10.7131 2.2795 11.1616C2.74492 11.5048 2.97253 11.5218 3.22731 11.5965C3.42435 12.0314 4.23627 13.5095 6.07414 13.7779C6.30855 14.0055 7.16124 14.7802 8.57786 14.7802C8.92437 14.7768 9.23691 14.5729 9.37619 14.2536L11.4655 9.40497C11.5096 9.33022 11.5436 9.24867 11.5674 9.16373L13.1131 5.57231C13.4052 5.433 13.6838 5.25972 13.9216 5.02187C15.0631 3.88023 15.0631 1.99788 13.9216 0.856233C13.3509 0.285411 12.5933 0 11.8391 0ZM30.1227 0C27.5918 0 25.0609 0.961562 23.1347 2.88809L20.2879 5.7354C18.0526 7.97112 17.1251 11.0223 17.4852 13.941H17.4751C17.4751 13.941 17.6755 15.6195 17.5702 17.6037C17.4615 19.5846 16.9655 21.8 15.9837 22.7853L15.9803 22.7887V22.7921L9.19954 29.574H7.90862C7.21559 29.574 6.55314 29.8492 6.06395 30.3385L0.509576 35.8938C-0.163064 36.5666 -0.163064 37.681 0.509576 38.3538L1.65103 39.4954C2.32367 40.1682 3.43794 40.1682 4.11058 39.4954L9.66495 33.9401C10.1541 33.4508 10.4293 32.7883 10.4293 32.0951V30.804L17.2101 24.0221H17.2135C18.1953 23.0367 20.4136 22.5407 22.3942 22.4353C24.3781 22.33 26.0597 22.5305 26.0597 22.5305V22.5169C28.9779 22.877 32.0285 21.9495 34.2639 19.7137L37.1107 16.8664C40.9631 13.0134 40.9631 6.74113 37.1107 2.88809C35.1845 0.961562 32.6536 0 30.1227 0ZM11.8391 1.72606C12.1449 1.72606 12.454 1.84838 12.6918 2.08622C13.1708 2.5653 13.1708 3.3128 12.6918 3.79189C12.6647 3.81907 12.6273 3.82247 12.6001 3.84625L10.9321 2.17796C10.9559 2.15078 10.9593 2.1134 10.9865 2.08622C11.2243 1.84838 11.5334 1.72606 11.8391 1.72606ZM29.8136 1.74305L27.8296 3.72733L26.6304 2.52793C27.636 2.04544 28.7197 1.78382 29.8136 1.74305ZM31.1181 1.79401C32.1271 1.91973 33.119 2.23232 34.0363 2.73859L33.0477 3.72733L31.1181 1.79401ZM30.4387 2.34784L32.4328 4.34232L30.4387 6.3368L28.4445 4.34232L30.4387 2.34784ZM25.8321 2.95944L27.2147 4.34232L25.2206 6.3368L23.6851 4.79762L24.3645 4.11807C24.8163 3.66617 25.3123 3.28222 25.8321 2.95944ZM34.7904 3.21427C35.1743 3.4793 35.5412 3.7783 35.8809 4.11807C36.2206 4.45785 36.5196 4.8248 36.7846 5.20535L35.6567 6.3368L33.6626 4.34232L34.7904 3.21427ZM9.65816 3.36377L11.4145 5.12041L10.4259 7.41389L7.36507 4.34912L9.65816 3.36377ZM27.8296 4.95731L29.8238 6.95179L27.8296 8.94627L25.8355 6.95179L27.8296 4.95731ZM33.0477 4.95731L35.0418 6.95179L33.0477 8.94627L31.0535 6.95179L33.0477 4.95731ZM5.6461 5.08983L9.68873 9.13315L8.07168 12.8809C7.55531 12.7076 7.12047 12.412 7.12047 12.412C6.95741 12.2455 6.73659 12.1504 6.50219 12.1504C5.42189 12.1504 4.63374 10.5976 4.63374 10.5976C4.51824 10.3326 4.28044 10.1423 3.99847 10.0913C3.99847 10.0913 3.66895 10.0234 3.31564 9.76173C2.95894 9.50011 2.62941 9.14334 2.62941 8.27352C2.62941 8.04247 2.53429 7.81822 2.36783 7.65513C2.36783 7.65513 2.07228 7.22701 1.89562 6.70716L5.6461 5.08983ZM23.0702 5.41601L24.6057 6.95179L22.6116 8.94627L21.0998 7.43427C21.2357 7.27458 21.3682 7.11489 21.5177 6.96539L23.0702 5.41601ZM37.2602 5.95965C37.7664 6.88044 38.0789 7.87258 38.2012 8.88172L36.2716 6.95179L37.2602 5.95965ZM25.2206 7.56679L27.2147 9.56127L25.2206 11.5557L23.2265 9.56127L25.2206 7.56679ZM30.4387 7.56679L32.4328 9.56127L30.4387 11.5557L28.4445 9.56127L30.4387 7.56679ZM35.6567 7.56679L37.6509 9.56127L35.6567 11.5557L33.6626 9.56127L35.6567 7.56679ZM20.5665 8.13081L21.9967 9.56127L20.0025 11.5557L19.3469 10.8966C19.5677 9.92483 19.9788 8.98705 20.5665 8.13081ZM22.6116 10.1763L24.6057 12.1707L22.6116 14.1652L20.6174 12.1707L22.6116 10.1763ZM27.8296 10.1763L29.8238 12.1707L27.8296 14.1652L25.8355 12.1707L27.8296 10.1763ZM33.0477 10.1763L35.0418 12.1707L33.0477 14.1652L31.0535 12.1707L33.0477 10.1763ZM38.2556 10.1865C38.2148 11.2805 37.9532 12.3644 37.4742 13.3701L36.2716 12.1707L38.2556 10.1865ZM19.1736 11.9533L19.3877 12.1707L19.1533 12.4052C19.16 12.2557 19.1567 12.1062 19.1736 11.9533ZM20.0025 12.7857L21.9967 14.7802L20.1384 16.6388C19.6424 15.7282 19.3265 14.7496 19.2008 13.7473V13.7337H19.1974C19.1906 13.6895 19.194 13.642 19.1872 13.5978L20.0025 12.7857ZM25.2206 12.7857L27.2147 14.7802L25.2206 16.7747L23.2265 14.7802L25.2206 12.7857ZM30.4387 12.7857L32.4328 14.7802L30.4387 16.7747L28.4445 14.7802L30.4387 12.7857ZM35.6567 12.7857L37.0394 14.1686C36.7166 14.6885 36.3328 15.1845 35.8809 15.6364L35.1981 16.316L33.6626 14.7802L35.6567 12.7857ZM22.6116 15.3952L24.6057 17.3897L22.6014 19.3944C22.2209 19.1259 21.8574 18.8235 21.5177 18.4838C21.178 18.144 20.8756 17.7804 20.6072 17.3999L22.6116 15.3952ZM27.8296 15.3952L29.8238 17.3897L27.8296 19.3842L25.8355 17.3897L27.8296 15.3952ZM33.0477 15.3952L34.5832 16.931L33.0341 18.4838C32.8846 18.6333 32.725 18.7658 32.5653 18.9017L31.0535 17.3897L33.0477 15.3952ZM25.2206 18.0047L27.2147 19.9992L26.4028 20.8146C26.3553 20.8078 26.3111 20.8078 26.2669 20.801H26.2533C25.2546 20.6753 24.2728 20.3593 23.3624 19.8632L25.2206 18.0047ZM30.4387 18.0047L31.8689 19.4351C31.0128 20.0229 30.0752 20.4341 29.1002 20.6549L28.4445 19.9992L30.4387 18.0047ZM19.2382 18.4532C19.5507 18.8949 19.8938 19.3196 20.2879 19.7137C20.682 20.1079 21.1066 20.4511 21.5483 20.7636C20.6242 20.8418 19.6696 20.9709 18.7558 21.2461C19.0276 20.3287 19.16 19.3774 19.2382 18.4532ZM27.8296 20.6141L28.0471 20.8282C27.8942 20.8452 27.7447 20.8418 27.5952 20.8486L27.8296 20.6141ZM7.90862 31.3137H8.68997V32.0951C8.68997 32.3262 8.59824 32.547 8.43518 32.7101L2.8808 38.2654L1.73935 37.1238L7.29373 31.5685C7.45679 31.4054 7.67761 31.3137 7.90862 31.3137Z" fill="white"/>
</svg>
