<svg xmlns="http://www.w3.org/2000/svg" width="44" height="45" viewBox="0 0 44 45" fill="none"><g clip-path="url(#clip0_230_3946)"><path d="M39 26.5L33.5 36L25 41.5L20 42.5L10.5 36L5.5 27V26.5L23.25 23.5L39 26.5Z" fill="#FFD600"></path><path d="M22 42.25C17.0641 41.2662 12.6218 38.6022 9.42945 34.7112C6.23712 30.8203 4.49216 25.943 4.4917 20.91V7.25167L22 0.75L39.5084 7.25167V20.91C39.508 25.943 37.763 30.8203 34.5706 34.7112C31.3783 38.6022 26.9359 41.2662 22 42.25Z" stroke="black" stroke-width="1.6" stroke-miterlimit="10"></path><path d="M13.2549 20.0383L19.8182 26.6017L30.7449 15.6567" fill="white"></path><path d="M13.2549 20.0383L19.8182 26.6017L30.7449 15.6567" stroke="black" stroke-width="1.8" stroke-miterlimit="10"></path></g><defs><clipPath id="clip0_230_3946"><rect width="44" height="45" fill="white"></rect></clipPath></defs></svg>