<svg width="40" height="36" viewBox="0 0 40 36" fill="none" xmlns="http://www.w3.org/2000/svg">
<path d="M30.8 0C27.7625 0 24.0344 1.37188 22 2.5C21.6781 2.67812 21.5188 3.05 21.6156 3.40625C21.7094 3.75938 22.0344 4.00625 22.4 4C23.2563 4 23.8188 4.225 24.35 4.6C24.8813 4.975 25.3469 5.52188 25.875 6.125C26.9313 7.33125 28.3313 8.8 30.8 8.8C33.2219 8.8 35.2 6.82188 35.2 4.4C35.2 1.97812 33.2219 0 30.8 0ZM30.8 1.6C32.3563 1.6 33.6 2.84375 33.6 4.4C33.6 5.95625 32.3563 7.2 30.8 7.2C28.9188 7.2 28.1438 6.26875 27.1 5.075C26.5781 4.47813 26.0219 3.825 25.275 3.3C25.1438 3.20625 24.9688 3.15625 24.825 3.075C26.7156 2.31875 28.9688 1.6 30.8 1.6ZM22.025 4.8C21.2 4.8 20.4531 5.15938 19.65 5.625C18.8469 6.09062 17.9969 6.68125 17.125 7.325C14.9938 8.89688 13.3063 10.2094 12.275 11.05C11.6625 11.55 10.4 12.9031 10.4 15.075C10.4 16.3031 11.1 17.2625 11.9 17.975C12.7 18.6875 13.6313 19.2375 14.375 19.7C15.7906 20.5813 17.5531 21.6938 18 21.975L17.1 29.225V29.325C17.1 29.325 17.0781 29.8906 17.325 30.5C17.5656 31.0906 18.1969 31.8063 19.175 31.975L19.25 32C20.2688 32.1375 21.0656 31.6031 21.475 31.1C21.8844 30.5969 22.025 30.075 22.025 30.075L22.05 30.025V29.975C22.05 29.975 23.3375 22.9813 23.55 21.65C23.65 21.0344 23.8188 20.4281 23.7 19.7C23.5813 18.9719 23.1031 18.2563 22.25 17.65C21.0781 16.8156 19.9469 16.2156 19.15 15.775C19.6188 15.4125 19.925 15.1875 20.725 14.575C21.3594 14.0906 21.9969 13.5813 22.5 13.2C22.7531 13.0094 22.9656 12.8688 23.125 12.75C23.2844 12.6313 23.475 12.5188 23.375 12.575C23.4875 12.5125 23.4563 12.5188 23.525 12.475C23.7656 12.7906 24.1969 13.3656 24.675 14C25.2219 14.725 25.6969 15.3594 25.85 15.55C26.0563 15.8063 26.6406 16.3844 27.725 16.65C29.0188 16.9656 33.7719 18.0875 34.475 18.25C35.125 18.4 35.7469 18.3719 36.3 18.125C36.8531 17.8781 37.2906 17.3906 37.475 16.8C37.9 15.4531 36.9156 14.0906 35.475 13.725C34.375 13.4469 30.4125 12.5969 29.975 12.5C29.8438 12.3313 29.0688 11.3281 28.075 10.025C27 8.61875 25.8094 7.03125 25.525 6.6C24.6688 5.30938 23.3125 4.8 22.025 4.8ZM22.025 6.4C22.9531 6.4 23.6063 6.64062 24.175 7.5C24.575 8.10312 25.7219 9.59062 26.8 11C27.8781 12.4094 28.875 13.7 28.875 13.7L29.05 13.925L29.325 13.975C29.325 13.975 34.0594 15.0188 35.075 15.275C35.8094 15.4594 36.0531 15.9969 35.95 16.325C35.8906 16.5125 35.8156 16.6 35.65 16.675C35.4844 16.75 35.2125 16.7875 34.825 16.7C34.175 16.55 29.3625 15.4094 28.1 15.1C27.3 14.9031 27.2938 14.7938 27.1 14.55C27.0531 14.4906 26.4969 13.75 25.95 13.025C25.4031 12.3 24.8469 11.5563 24.65 11.3C24.4969 11.0969 24.3031 10.8969 24.025 10.8C23.7469 10.7031 23.425 10.7313 23.225 10.8C22.825 10.9375 22.6625 11.125 22.575 11.175C22.3938 11.2781 22.3469 11.325 22.175 11.45C22.0031 11.575 21.8063 11.7313 21.55 11.925C21.0406 12.3094 20.3844 12.8125 19.75 13.3C18.4781 14.275 17.25 15.225 17.25 15.225L16.275 15.975L17.35 16.55C17.35 16.55 19.9375 17.9625 21.325 18.95C21.9688 19.4094 22.0781 19.6562 22.125 19.95C22.1719 20.2438 22.0844 20.7156 21.975 21.4C21.7875 22.575 20.525 29.4969 20.5 29.625L20.475 29.7C20.4563 29.7563 20.3813 29.9062 20.225 30.1C20.0438 30.325 19.8969 30.4594 19.45 30.4C19.0125 30.3406 18.9125 30.1781 18.8 29.9C18.6875 29.6219 18.7 29.35 18.7 29.35H18.675L19.675 21.65L19.725 21.15L19.3 20.875C19.3 20.875 16.8188 19.3188 15.225 18.325C14.4469 17.8406 13.5969 17.3563 12.975 16.8C12.3531 16.2438 12 15.7031 12 15.075C12 13.5344 12.9281 12.6031 13.3 12.3C14.3063 11.4813 15.9625 10.1844 18.075 8.625C18.9344 7.99062 19.7531 7.40312 20.45 7C21.1469 6.59688 21.7188 6.4 22.025 6.4ZM8 20C3.59062 20 0 23.5906 0 28C0 32.4094 3.59062 36 8 36C12.4094 36 16 32.4094 16 28C16 23.5906 12.4094 20 8 20ZM32 20C27.5906 20 24 23.5906 24 28C24 32.4094 27.5906 36 32 36C36.4094 36 40 32.4094 40 28C40 23.5906 36.4094 20 32 20ZM8 21.6C11.5438 21.6 14.4 24.4563 14.4 28C14.4 31.5438 11.5438 34.4 8 34.4C4.45625 34.4 1.6 31.5438 1.6 28C1.6 24.4563 4.45625 21.6 8 21.6ZM32 21.6C35.5438 21.6 38.4 24.4563 38.4 28C38.4 31.5438 35.5438 34.4 32 34.4C28.4563 34.4 25.6 31.5438 25.6 28C25.6 24.4563 28.4563 21.6 32 21.6Z" fill="black"/>
</svg>
