<svg width="40" height="40" viewBox="0 0 40 40" fill="none" xmlns="http://www.w3.org/2000/svg">
<path d="M30.925 0C29.5406 0 28.4594 0.2875 27.725 0.575C26.9906 0.8625 26.55 1.175 26.55 1.175C26.5156 1.19688 26.4813 1.22188 26.45 1.25L24.2 3.525L20 7.725C19.8875 7.79375 19.7938 7.8875 19.725 8L2.825 24.975C2.76562 25.025 2.71562 25.0844 2.675 25.15C2.65625 25.175 2.64062 25.2 2.625 25.225C2.53438 25.3156 2.40938 25.3813 2.325 25.475C0.7125 27.2375 0 29.3969 0 31.2C0 36.1625 3.825 40 8.8 40C11.1969 40 13.0438 39.2313 14.25 37.975C15.4563 36.7188 16 35.025 16 33.3C16 31.3813 15.3469 29.8031 14.225 28.75C13.1031 27.6969 11.5563 27.2 9.875 27.2C8.51875 27.2 7.26562 27.6063 6.325 28.4C5.38438 29.1938 4.8 30.4 4.8 31.8C4.8 32.6063 5.12188 33.4 5.7 34.05C6.27812 34.7 7.15625 35.2 8.2 35.2C9.24688 35.2 10.05 34.8031 10.525 34.3C11 33.7969 11.2 33.3312 11.2 32.8C11.2031 32.5125 11.0531 32.2438 10.8031 32.0969C10.5531 31.9531 10.2469 31.9531 9.99687 32.0969C9.74687 32.2438 9.59688 32.5125 9.6 32.8C9.57812 32.8625 9.50938 33.0563 9.375 33.2C9.18125 33.4031 8.86563 33.6 8.2 33.6C7.64375 33.6 7.225 33.3625 6.9 33C6.575 32.6375 6.4 32.1406 6.4 31.8C6.4 30.8188 6.75 30.1313 7.35 29.625C7.95 29.1188 8.83125 28.8 9.875 28.8C11.2375 28.8 12.3469 29.1969 13.125 29.925C13.9031 30.6531 14.4 31.7313 14.4 33.3C14.4 34.6938 13.9781 35.9625 13.1 36.875C12.2219 37.7875 10.8625 38.4 8.8 38.4C4.62812 38.4 1.6 35.3625 1.6 31.2C1.6 29.825 2.17812 27.9938 3.5 26.55C4.82188 25.1063 6.85 24 9.975 24C12.8344 24 14.7438 24.8344 16.1 26.05C17.4563 27.2656 18.2812 28.925 18.75 30.625C19.6875 34.025 19.2 37.475 19.2 37.475C19.1438 37.8438 19.35 38.2031 19.6969 38.3406C20.0438 38.4781 20.4375 38.3563 20.65 38.05L26.525 29.725C26.6844 29.6188 26.8 29.4594 26.85 29.275L29.975 24.825C29.9844 24.8156 29.9906 24.8094 30 24.8L30.025 24.775C30.1 24.6969 30.1625 24.6031 30.2 24.5L34.1 18.975C34.1281 18.9438 34.1531 18.9094 34.175 18.875L34.2 18.85C34.2375 18.8125 34.2719 18.7688 34.3 18.725L34.325 18.675C34.325 18.6656 34.325 18.6594 34.325 18.65L36.925 14.95C36.9406 14.9438 36.9594 14.9344 36.975 14.925L37 14.9C37.05 14.8469 37.0906 14.7875 37.125 14.725C37.1562 14.6781 37.1813 14.6281 37.2 14.575L39.85 10.85C39.9438 10.7188 39.9969 10.5625 40 10.4C40 7.00625 38.9969 4.38438 37.325 2.625C35.6531 0.865625 33.3531 0 30.925 0ZM30.925 1.6C32.9813 1.6 34.8 2.30312 36.15 3.725C37.4656 5.10938 38.3312 7.24062 38.375 10.2L37.125 11.95C36.775 8.89375 35.4719 6.59688 33.55 5.15C31.7469 3.79375 29.4844 3.1625 27.1 3.125C27.0188 3.125 26.9313 3.125 26.85 3.125L27.525 2.45C27.525 2.45 27.7281 2.27188 28.3 2.05C28.8719 1.82812 29.7563 1.6 30.925 1.6ZM27.075 4.725C29.1844 4.75625 31.125 5.31562 32.6 6.425C34.5312 7.87812 35.7656 10.3 35.625 14.1L34.225 16.1C33.9062 13.8813 33.0656 11.7 31.425 10.025C29.7781 8.34375 27.3281 7.25312 24.025 7.225C23.6094 7.22188 23.1656 7.24062 22.725 7.275L25.125 4.85C25.7875 4.76562 26.4375 4.71562 27.075 4.725ZM24 8.8C26.9469 8.80938 28.9313 9.75313 30.275 11.125C32.0219 12.9094 32.7406 15.5625 32.775 18.15L29.8 22.35C28.9062 19.5125 27.2156 17.25 24.975 15.7C22.7281 14.1469 19.9344 13.3063 16.85 13.175L20.9 9.1C22.0406 8.9 23.0656 8.79688 24 8.8ZM16.425 14.75C19.4094 14.8156 22.0281 15.6094 24.075 17.025C26.3406 18.5938 27.9188 20.9344 28.575 24.075L26.45 27.1C24.8156 21.5281 19.825 17.5531 13.825 17.15C13.5188 17.1281 13.2125 17.125 12.9 17.125L15.25 14.775C15.6469 14.7594 16.0406 14.7406 16.425 14.75ZM12.45 18.725C18.8531 18.5375 24.1375 22.8188 25.225 28.825L20.9 34.95C20.8813 33.5938 20.7781 31.9062 20.3 30.175C19.775 28.275 18.8281 26.3344 17.175 24.85C15.5219 23.3656 13.1531 22.4 9.975 22.4C9.03438 22.4 8.17813 22.5031 7.375 22.675L11.225 18.825C11.6344 18.7781 12.0469 18.7375 12.45 18.725Z" fill="black"/>
</svg>
