<svg width="41" height="40" viewBox="0 0 41 40" fill="none" xmlns="http://www.w3.org/2000/svg">
<path d="M20.0129 0C17.5133 0 15.4675 2.04584 15.4675 4.54545C15.4675 7.04507 17.5133 9.09091 20.0129 9.09091C22.5126 9.09091 24.5584 7.04507 24.5584 4.54545C24.5584 2.04584 22.5126 0 20.0129 0ZM20.0129 1.81818C21.5299 1.81818 22.7402 3.02846 22.7402 4.54545C22.7402 6.06245 21.5299 7.27273 20.0129 7.27273C18.4959 7.27273 17.2857 6.06245 17.2857 4.54545C17.2857 3.02846 18.4959 1.81818 20.0129 1.81818ZM15.922 10C13.1727 10 10.922 12.2516 10.922 15V24.5455H7.28567V19.0909C7.28734 18.9693 7.26458 18.8486 7.21875 18.7359C7.17292 18.6232 7.10494 18.5209 7.01885 18.435C6.93275 18.349 6.83029 18.2812 6.71753 18.2356C6.60477 18.19 6.484 18.1675 6.36238 18.1694C6.12158 18.1732 5.89212 18.2723 5.72434 18.4451C5.55657 18.6178 5.46419 18.8501 5.46749 19.0909V31.8182C5.46579 31.9386 5.48804 32.0583 5.53297 32.17C5.57789 32.2818 5.64458 32.3836 5.72917 32.4694C5.81375 32.5552 5.91454 32.6233 6.02569 32.6698C6.13683 32.7163 6.25611 32.7402 6.37658 32.7402C6.49706 32.7402 6.61634 32.7163 6.72748 32.6698C6.83862 32.6233 6.93942 32.5552 7.024 32.4694C7.10859 32.3836 7.17528 32.2818 7.2202 32.17C7.26512 32.0583 7.28738 31.9386 7.28567 31.8182V26.3636H11.0925C11.4719 27.4157 12.4737 28.1818 13.6493 28.1818C14.8249 28.1818 15.8267 27.4157 16.2061 26.3636H23.8198C24.1992 27.4157 25.201 28.1818 26.3766 28.1818C27.5522 28.1818 28.554 27.4157 28.9334 26.3636H32.7402V31.8182C32.7385 31.9386 32.7608 32.0583 32.8057 32.17C32.8506 32.2818 32.9173 32.3836 33.0019 32.4694C33.0865 32.5552 33.1873 32.6233 33.2984 32.6698C33.4096 32.7163 33.5288 32.7402 33.6493 32.7402C33.7698 32.7402 33.8891 32.7163 34.0002 32.6698C34.1113 32.6233 34.2121 32.5552 34.2967 32.4694C34.3813 32.3836 34.448 32.2818 34.4929 32.17C34.5378 32.0583 34.5601 31.9386 34.5584 31.8182V19.0909C34.5601 18.9693 34.5373 18.8486 34.4915 18.7359C34.4456 18.6232 34.3777 18.5209 34.2916 18.435C34.2055 18.349 34.103 18.2812 33.9903 18.2356C33.8775 18.19 33.7567 18.1675 33.6351 18.1694C33.3943 18.1732 33.1648 18.2723 32.9971 18.4451C32.8293 18.6178 32.7369 18.8501 32.7402 19.0909V24.5455H29.1039V15C29.1039 12.2516 26.8532 10 24.1039 10H15.922ZM15.922 11.8182H24.1039C25.8672 11.8182 27.2857 13.2375 27.2857 15V25.4545C27.2857 25.9682 26.8902 26.3636 26.3766 26.3636C25.8629 26.3636 25.4675 25.9682 25.4675 25.4545V16.3636C25.4692 16.2432 25.4469 16.1236 25.402 16.0118C25.3571 15.9 25.2904 15.7982 25.2058 15.7125C25.1212 15.6267 25.0204 15.5585 24.9093 15.512C24.7982 15.4655 24.6789 15.4416 24.5584 15.4416C24.4379 15.4416 24.3186 15.4655 24.2075 15.512C24.0964 15.5585 23.9956 15.6267 23.911 15.7125C23.8264 15.7982 23.7597 15.9 23.7148 16.0118C23.6699 16.1236 23.6476 16.2432 23.6493 16.3636V24.5455H16.3766V16.3636C16.3783 16.2432 16.356 16.1236 16.3111 16.0118C16.2662 15.9 16.1995 15.7982 16.1149 15.7125C16.0303 15.6267 15.9295 15.5585 15.8184 15.512C15.7072 15.4655 15.588 15.4416 15.4675 15.4416C15.347 15.4416 15.2277 15.4655 15.1166 15.512C15.0055 15.5585 14.9047 15.6267 14.8201 15.7125C14.7355 15.7982 14.6688 15.9 14.6239 16.0118C14.579 16.1236 14.5567 16.2432 14.5584 16.3636V25.4545C14.5584 25.9682 14.163 26.3636 13.6493 26.3636C13.1356 26.3636 12.7402 25.9682 12.7402 25.4545V15C12.7402 13.2375 14.1587 11.8182 15.922 11.8182ZM2.72602 18.1694C2.48522 18.1732 2.25575 18.2723 2.08798 18.4451C1.92021 18.6178 1.82783 18.8501 1.83113 19.0909V24.5455H0.922038C0.801573 24.5438 0.681971 24.566 0.570181 24.6109C0.458392 24.6559 0.356645 24.7225 0.270855 24.8071C0.185064 24.8917 0.11694 24.9925 0.0704425 25.1036C0.0239446 25.2148 0 25.3341 0 25.4545C0 25.575 0.0239446 25.6943 0.0704425 25.8054C0.11694 25.9166 0.185064 26.0174 0.270855 26.102C0.356645 26.1866 0.458392 26.2532 0.570181 26.2982C0.681971 26.3431 0.801573 26.3653 0.922038 26.3636H1.83113V31.8182C1.82943 31.9386 1.85168 32.0583 1.8966 32.17C1.94152 32.2818 2.00822 32.3836 2.0928 32.4694C2.17739 32.5552 2.27818 32.6233 2.38932 32.6698C2.50047 32.7163 2.61974 32.7402 2.74022 32.7402C2.8607 32.7402 2.97997 32.7163 3.09112 32.6698C3.20226 32.6233 3.30305 32.5552 3.38764 32.4694C3.47222 32.3836 3.53892 32.2818 3.58384 32.17C3.62876 32.0583 3.65101 31.9386 3.64931 31.8182V25.6072C3.66554 25.5091 3.66554 25.4089 3.64931 25.3107V19.0909C3.65098 18.9693 3.62822 18.8486 3.58239 18.7359C3.53655 18.6232 3.46858 18.5209 3.38248 18.435C3.29639 18.349 3.19393 18.2812 3.08117 18.2356C2.96841 18.19 2.84764 18.1675 2.72602 18.1694ZM37.2715 18.1694C37.0307 18.1732 36.8012 18.2723 36.6334 18.4451C36.4657 18.6178 36.3733 18.8501 36.3766 19.0909V25.3018C36.3604 25.4 36.3604 25.5002 36.3766 25.5984V31.8182C36.3749 31.9386 36.3971 32.0583 36.4421 32.17C36.487 32.2818 36.5537 32.3836 36.6383 32.4694C36.7228 32.5552 36.8236 32.6233 36.9348 32.6698C37.0459 32.7163 37.1652 32.7402 37.2857 32.7402C37.4062 32.7402 37.5254 32.7163 37.6366 32.6698C37.7477 32.6233 37.8485 32.5552 37.9331 32.4694C38.0177 32.3836 38.0844 32.2818 38.1293 32.17C38.1742 32.0583 38.1965 31.9386 38.1948 31.8182V26.3636H39.1039C39.2243 26.3653 39.3439 26.3431 39.4557 26.2982C39.5675 26.2532 39.6692 26.1866 39.755 26.102C39.8408 26.0174 39.909 25.9166 39.9555 25.8054C40.0019 25.6943 40.0259 25.575 40.0259 25.4545C40.0259 25.3341 40.0019 25.2148 39.9555 25.1036C39.909 24.9925 39.8408 24.8917 39.755 24.8071C39.6692 24.7225 39.5675 24.6559 39.4557 24.6109C39.3439 24.566 39.2243 24.5438 39.1039 24.5455H38.1948V19.0909C38.1964 18.9693 38.1737 18.8486 38.1278 18.7359C38.082 18.6232 38.014 18.5209 37.9279 18.435C37.8418 18.349 37.7394 18.2812 37.6266 18.2356C37.5139 18.19 37.3931 18.1675 37.2715 18.1694ZM17.4348 28.1818L15.448 37.4627C15.3452 37.9454 14.8221 38.2614 14.3684 38.1623C13.8784 38.0568 13.5652 37.5737 13.6706 37.0827L15.2544 29.6928C14.7526 29.8828 14.2157 30 13.6493 30C13.5411 30 13.4396 29.9753 13.3333 29.968L11.8915 36.701C11.7397 37.4137 11.8716 38.1435 12.2679 38.7553C12.6634 39.3671 13.2739 39.7869 13.9867 39.9396C14.173 39.9796 14.3656 40 14.5602 40C15.8365 40 16.9571 39.0936 17.2253 37.8445L19.2956 28.1818H17.4348ZM20.7303 28.1818L22.8006 37.8445C23.0679 39.0936 24.1894 40 25.4657 40C25.6603 40 25.8538 39.9796 26.0392 39.9396C26.752 39.7869 27.3607 39.3671 27.7562 38.7553C28.1526 38.1435 28.2871 37.4137 28.1344 36.701L26.6909 29.968C26.5854 29.9753 26.4848 30 26.3766 30C25.8102 30 25.2732 29.8837 24.7732 29.6928L26.357 37.0827C26.4625 37.5727 26.1484 38.0559 25.6575 38.1623C25.2075 38.2614 24.6816 37.9464 24.5779 37.4627L22.5911 28.1818H20.7303Z" fill="black"/>
</svg>
