<svg width="40" height="34" viewBox="0 0 40 34" fill="none" xmlns="http://www.w3.org/2000/svg">
<path d="M0.869565 0C0.638949 2.30581e-05 0.417785 0.0916451 0.254715 0.254715C0.0916451 0.417785 2.30581e-05 0.638949 0 0.869565V32.1739C2.30581e-05 32.4045 0.0916451 32.6257 0.254715 32.7888C0.417785 32.9518 0.638949 33.0434 0.869565 33.0435H4.34783C4.57844 33.0434 4.79961 32.9518 4.96268 32.7888C5.12575 32.6257 5.21737 32.4045 5.21739 32.1739V7.82609H12.337C12.6138 8.59376 13.238 9.19197 14.02 9.43614L17.4015 30.5723C17.4123 30.6376 17.4306 30.7014 17.4558 30.7626C17.4992 30.8696 17.5635 30.9669 17.6448 31.0488C17.7262 31.1307 17.823 31.1957 17.9297 31.2398C17.9325 31.241 17.9354 31.2421 17.9382 31.2432C18.0404 31.2837 18.1493 31.3044 18.2592 31.3043H18.2609H18.2626C18.3744 31.304 18.4851 31.2821 18.5887 31.2398H18.5904C18.6971 31.1959 18.7941 31.1313 18.8757 31.0496L18.8927 31.0326L22.0822 27.8431L25.4891 31.0666C25.5422 31.1161 25.6058 31.1448 25.6658 31.1787C25.6979 31.1969 25.7253 31.2259 25.7592 31.2398C25.8653 31.2824 25.9757 31.3043 26.087 31.3043C26.1983 31.3043 26.3095 31.2807 26.4147 31.2381C26.4487 31.2242 26.476 31.1969 26.5082 31.1787C26.569 31.1448 26.6326 31.1161 26.6848 31.0666L30.09 27.8414L33.2626 31.0122C33.2654 31.0156 33.2682 31.019 33.2711 31.0224L33.2982 31.0479C33.3788 31.1292 33.4746 31.1939 33.5802 31.2381C33.5842 31.2398 33.588 31.2416 33.592 31.2432C33.6937 31.2835 33.802 31.3042 33.9113 31.3043H33.913H33.9164C34.0277 31.3038 34.1378 31.2819 34.2408 31.2398C34.3482 31.1961 34.4458 31.1315 34.5279 31.0496C34.6094 30.9685 34.674 30.8721 34.7181 30.766L34.7198 30.7626C34.7204 30.7609 34.7208 30.7591 34.7215 30.7575C34.7452 30.6978 34.7623 30.6357 34.7724 30.5723L38.1539 9.43614C39.2149 9.10488 40 8.12023 40 6.95652C40 5.52611 38.8217 4.34783 37.3913 4.34783H14.7826C13.6581 4.34783 12.6999 5.08059 12.337 6.08696H5.21739V0.869565C5.21737 0.638949 5.12575 0.417785 4.96268 0.254715C4.79961 0.0916451 4.57844 2.30581e-05 4.34783 0H0.869565ZM1.73913 1.73913H3.47826V31.3043H1.73913V1.73913ZM14.7826 6.08696H37.3913C37.8826 6.08696 38.2609 6.46519 38.2609 6.95652C38.2609 7.42841 37.9086 7.78755 37.4457 7.8159C37.4406 7.81528 37.4355 7.81472 37.4304 7.8142C37.3695 7.81179 37.3086 7.81577 37.2486 7.82609H14.9202C14.8814 7.81948 14.8423 7.81551 14.803 7.8142C14.7781 7.81369 14.7531 7.81426 14.7283 7.8159C14.2654 7.78755 13.913 7.42841 13.913 6.95652C13.913 6.46519 14.2913 6.08696 14.7826 6.08696ZM15.8033 9.56522H20.2565L17.3353 12.6274L16.267 11.5591C16.2165 11.5086 16.1605 11.4697 16.1022 11.4351L15.8033 9.56522ZM22.9688 9.56522H28.7534L25.9698 12.5662L22.9688 9.56522ZM31.6644 9.56522H36.3706L36.0717 11.4368C36.0138 11.4715 35.9571 11.5089 35.9069 11.5591L34.7826 12.6834L31.6644 9.56522ZM30.2021 10.5622L33.553 13.913L30.4348 17.0312L27.2011 13.7959L30.2021 10.5622ZM21.6101 10.6658L24.786 13.8417L21.785 17.0754L18.5666 13.857L21.6101 10.6658ZM26.0173 15.0713L29.2052 18.2609L26.087 21.3791L23.0146 18.3067L26.0173 15.0713ZM17.3641 15.1172L20.5995 18.3526L17.7072 21.4674L16.7884 15.7201L17.3641 15.1172ZM34.7826 15.1427L35.3821 15.7422L34.5228 21.1192L31.6644 18.2609L34.7826 15.1427ZM30.4348 19.4905L33.3271 22.3845L30.124 25.4161L27.3166 22.6087L30.4348 19.4905ZM21.8308 19.5822L24.8573 22.6087L22.0499 25.4161L19.0506 22.5781L21.8308 19.5822ZM26.087 23.8383L28.8604 26.6117L26.087 29.2374L23.3135 26.6117L26.087 23.8383ZM18.1284 24.0999L20.8203 26.6474L18.8519 28.6158L18.1284 24.0999ZM34.0455 24.0999L33.322 28.6141L31.3553 26.6474L34.0455 24.0999Z" fill="black"/>
</svg>
