<svg width="40" height="38" viewBox="0 0 40 38" fill="none" xmlns="http://www.w3.org/2000/svg">
<path d="M26.3496 0.00426152C26.2996 0.0171502 26.2465 0.0332608 26.1996 0.0558161H12.8004C12.7754 0.0558161 12.7504 0.0558161 12.7254 0.0558161C12.6098 0.0751495 12.4973 0.117037 12.4005 0.184703L0.401199 7.60856C0.0605948 7.81156 -0.0862713 8.23689 0.0512203 8.61388L3.25102 16.8626C3.41351 17.2783 3.86974 17.4845 4.27596 17.3266L8.00073 15.8831V37.1751C8.00073 37.6295 8.36009 38 8.80069 38H31.1993C31.6399 38 31.9993 37.6295 31.9993 37.1751V15.8831L35.724 17.3266C36.1303 17.4845 36.5865 17.2783 36.749 16.8626L39.9488 8.61388C40.0863 8.23689 39.9394 7.81156 39.5988 7.60856L27.5995 0.184703C27.4808 0.107371 27.3402 0.0622609 27.1996 0.0558161H26.7246C26.6058 0.00748348 26.4777 -0.00862713 26.3496 0.00426152ZM13.0004 1.70556H13.2504L19.4 8.84587C19.5532 9.02309 19.7719 9.1262 20 9.1262C20.2281 9.1262 20.4468 9.02309 20.6 8.84587L26.7496 1.70556H26.9996L35.4741 6.93835L33.4742 12.068C33.3336 12.3451 33.3554 12.6835 33.5335 12.938C33.7148 13.1926 34.0179 13.3182 34.3179 13.2667C34.6179 13.2119 34.8616 12.9896 34.9491 12.6867L36.849 7.81478L38.1989 8.63966L35.549 15.4964L31.4743 13.924C31.2306 13.8306 30.9556 13.8692 30.7431 14.0207C30.5275 14.1753 30.3994 14.4267 30.3994 14.6973V36.3503H9.60064V14.6973C9.60064 14.4267 9.47252 14.1753 9.25691 14.0207C9.04442 13.8692 8.76944 13.8306 8.5257 13.924L4.45095 15.4964L1.80111 8.63966L3.15103 7.81478L5.05091 12.6867C5.13841 12.9896 5.38214 13.2119 5.68213 13.2667C5.98211 13.3182 6.28521 13.1926 6.46645 12.938C6.64457 12.6835 6.66644 12.3451 6.52582 12.068L4.52595 6.93835L13.0004 1.70556ZM15.3753 1.70556H24.6247L20 7.06724L15.3753 1.70556ZM15.7753 15.7284C15.3347 15.7929 15.0253 16.215 15.0878 16.6693C15.1503 17.1236 15.5596 17.4426 16.0002 17.3782V22.3274C15.9752 22.3274 15.9502 22.3274 15.9253 22.3274C15.9003 22.3274 15.8753 22.3274 15.8503 22.3274C15.4097 22.3693 15.0847 22.7753 15.1253 23.2296C15.1659 23.6839 15.5596 24.019 16.0002 23.9771H17.6001C17.8876 23.9804 18.1564 23.8257 18.3032 23.5679C18.447 23.3102 18.447 22.9944 18.3032 22.7366C18.1564 22.4788 17.8876 22.3242 17.6001 22.3274V16.5533C17.6001 16.099 17.2408 15.7284 16.8002 15.7284H16.0002C15.9752 15.7284 15.9502 15.7284 15.9253 15.7284C15.9003 15.7284 15.8753 15.7284 15.8503 15.7284C15.8253 15.7284 15.8003 15.7284 15.7753 15.7284ZM22.3999 15.7284C21.0843 15.7284 20 16.8465 20 18.203V21.5025C20 22.8591 21.0843 23.9771 22.3999 23.9771C23.7154 23.9771 24.7997 22.8591 24.7997 21.5025V18.203C24.7997 16.8465 23.7154 15.7284 22.3999 15.7284ZM22.3999 17.3782C22.853 17.3782 23.1998 17.7358 23.1998 18.203V21.5025C23.1998 21.9697 22.853 22.3274 22.3999 22.3274C21.9468 22.3274 21.5999 21.9697 21.5999 21.5025V18.203C21.5999 17.7358 21.9468 17.3782 22.3999 17.3782Z" fill="black"/>
</svg>
